<?xml version="1.0" encoding="utf-8"?>
<!-- Generator: Adobe Illustrator 19.0.0, SVG Export Plug-In . SVG Version: 6.00 Build 0)  -->
<svg version="1.1" xmlns="http://www.w3.org/2000/svg" xmlns:xlink="http://www.w3.org/1999/xlink" x="0px" y="0px"
	 viewBox="0 0 81.5 81.5" style="enable-background:new 0 0 81.5 81.5;" xml:space="preserve">
<style type="text/css">
	.st0{fill:none;stroke:#262424;stroke-width:0.8119;stroke-miterlimit:10;}
	.st1{clip-path:url(#SVGID_2_);}
	.st2{fill:#FFFFFF;stroke:#262424;stroke-width:1.386;stroke-linecap:round;stroke-linejoin:round;stroke-miterlimit:10;}
	.st3{fill:#FFFFFF;stroke:#262424;stroke-width:1.2178;stroke-miterlimit:10;}
	.st4{fill:#FFFFFF;}
	.st5{fill:#262424;}
	.st6{fill:#FFFFFF;stroke:#262424;stroke-width:1.6237;stroke-miterlimit:10;}
	.st7{fill:none;stroke:#262424;stroke-width:1.2178;stroke-miterlimit:10;}
	.st8{fill:#FFFFFF;stroke:#262424;stroke-width:1.2178;stroke-linecap:round;stroke-linejoin:round;stroke-miterlimit:10;}
	.st9{fill:#FFFFFF;stroke:#262424;stroke-width:0.9041;stroke-linecap:round;stroke-linejoin:round;stroke-miterlimit:10;}
	.st10{fill:#FCBC6F;stroke:#262424;stroke-width:1.3375;stroke-linecap:round;stroke-linejoin:round;stroke-miterlimit:10;}
	.st11{opacity:0.3;fill:#FB9D78;}
	.st12{fill:#FFFFFF;stroke:#262424;stroke-width:1.6237;stroke-linecap:round;stroke-linejoin:round;stroke-miterlimit:10;}
</style>
<g id="BACKGROUND">
</g>
<g id="OBJECTS">
	<path class="st0" d="M76.8,0"/>
	<g>
		<defs>
			<circle id="SVGID_1_" cx="40.7" cy="40.7" r="40.7"/>
		</defs>
		<use xlink:href="#SVGID_1_"  style="overflow:visible;fill:#F0766A;"/>
		<clipPath id="SVGID_2_">
			<use xlink:href="#SVGID_1_"  style="overflow:visible;"/>
		</clipPath>
		<g class="st1">
			<path class="st2" d="M16.1,55.6c0,2.6,48.8,2.6,48.8,0c0.6-8.7-0.5-17.9-2.3-26.4l-44.1,0.6C16.1,38.4,15.3,47,16.1,55.6z"/>
			<g>
				<g>
					<path class="st3" d="M55.5,41.2c0,0,3.3-4.2,5.2-3.8c1.9,0.4,1.9,2.4,1.9,2.4S62.3,47.1,62,48c-0.3,0.9-4,1.4-5.9,1.1
						L55.5,41.2z"/>
					<path class="st3" d="M25.4,41.2c0,0-3.3-4.2-5.2-3.8c-1.9,0.4-1.9,2.4-1.9,2.4s0.3,7.2,0.7,8.1c0.3,0.9,4,1.4,5.9,1.1
						L25.4,41.2z"/>
				</g>
				<g>
					<g>
						<path class="st4" d="M20.6,44c0,0-0.1-1.1,0-2.7"/>
						<path class="st5" d="M20.4,44c-0.1-0.2-0.2-0.5-0.2-0.7c0-0.2-0.1-0.5-0.1-0.7c0-0.2,0-0.5,0.1-0.7c0-0.2,0.1-0.5,0.2-0.7
							c0-0.1,0.2-0.2,0.3-0.1c0.1,0,0.1,0.1,0.1,0.1c0.1,0.2,0.1,0.5,0.1,0.7c0,0.2,0,0.4,0,0.7c0,0.2,0,0.4,0,0.7
							c0,0.2-0.1,0.4-0.2,0.7l0,0C20.7,44,20.6,44.1,20.4,44C20.5,44,20.4,44,20.4,44z"/>
					</g>
					<g>
						<path class="st5" d="M19.4,40.3c0.6,0.2,1.1,0.5,1.5,0.9c0.4,0.4,0.8,0.9,1,1.5c0.3,0.5,0.5,1.1,0.6,1.7
							c0.1,0.3,0.1,0.6,0.1,0.9c0,0.3,0,0.6,0,0.9c0,0.1-0.1,0.2-0.2,0.2c-0.1,0-0.2-0.1-0.2-0.1l0,0c-0.2-0.5-0.3-1.1-0.5-1.6
							c-0.2-0.5-0.4-1-0.6-1.5c-0.3-0.5-0.5-0.9-0.9-1.3c-0.3-0.4-0.7-0.8-1.1-1.1l0,0c-0.1-0.1-0.1-0.1,0-0.2
							C19.3,40.3,19.3,40.3,19.4,40.3z"/>
					</g>
				</g>
				<g>
					<g>
						<path class="st4" d="M60.4,44c0,0,0.1-1.1,0-2.7"/>
						<path class="st5" d="M60.2,43.9c-0.1-0.2-0.1-0.5-0.2-0.7c0-0.2,0-0.4,0-0.7c0-0.2,0-0.4,0-0.7c0-0.2,0.1-0.4,0.1-0.7
							c0-0.1,0.2-0.2,0.3-0.1c0.1,0,0.1,0.1,0.1,0.1c0.1,0.2,0.1,0.5,0.2,0.7c0.1,0.2,0,0.5,0.1,0.7c0,0.2,0,0.5-0.1,0.7
							c-0.1,0.2-0.1,0.5-0.2,0.7C60.5,44.1,60.4,44.1,60.2,43.9C60.3,44,60.2,44,60.2,43.9L60.2,43.9z"/>
					</g>
					<g>
						<path class="st5" d="M61.6,40.6c-0.4,0.3-0.8,0.7-1.1,1.1c-0.3,0.4-0.6,0.9-0.9,1.3c-0.3,0.5-0.4,1-0.6,1.5
							c-0.2,0.5-0.3,1.1-0.5,1.6l0,0c0,0.1-0.1,0.2-0.3,0.1c-0.1,0-0.1-0.1-0.1-0.2c0-0.3,0-0.6,0-0.9c0-0.3,0.1-0.6,0.1-0.9
							c0.1-0.6,0.3-1.1,0.6-1.7c0.3-0.5,0.6-1,1-1.5c0.4-0.4,0.9-0.8,1.5-0.9c0.1,0,0.2,0,0.2,0.1C61.7,40.5,61.7,40.5,61.6,40.6
							L61.6,40.6z"/>
					</g>
				</g>
			</g>
			<path class="st6" d="M63.6,75.3c-1.8-1.7-18.5-13.1-22.3-13.1c-3.8,0-20.5,11.4-22.3,13.1c-1.8,1.7-4,16.4-4,16.4h26.3h26.3
				C67.6,91.7,65.4,77,63.6,75.3z"/>
			<path class="st3" d="M67.6,91.7H15c0,0,2.2-14.7,4-16.4c1.2-1.1,8.5-6.2,14.5-9.7c3.4-2,6.4-3.4,7.8-3.4c1.4,0,4.6,1.6,8.1,3.6
				c6,3.5,13.1,8.4,14.2,9.5C65.4,77,67.6,91.7,67.6,91.7z"/>
			<g>
				<polyline class="st4" points="36.6,67.5 36.6,55.1 46,55.1 46,67.5 				"/>
				<path class="st5" d="M36.3,67.5c-0.1-2.1-0.2-4.1-0.3-6.2C36,59.2,36,57.2,36,55.1c0-0.3,0.3-0.6,0.6-0.6l0,0
					c3.1-0.1,6.3,0,9.4,0c0.3,0,0.6,0.3,0.6,0.6c0,2.1-0.1,4.1-0.1,6.2c0,2.1-0.1,4.1-0.2,6.2c0,0.2-0.2,0.3-0.3,0.3
					c-0.2,0-0.3-0.1-0.3-0.3c-0.1-2.1-0.2-4.1-0.2-6.2c0-2.1-0.1-4.1-0.1-6.2l0.6,0.6c-3.1,0-6.3,0.1-9.4,0l0.6-0.6
					c0,2.1,0,4.1-0.1,6.2c0,2.1-0.1,4.1-0.3,6.2c0,0.1-0.1,0.2-0.3,0.2C36.4,67.7,36.4,67.6,36.3,67.5z"/>
			</g>
			<path class="st3" d="M56.9,49.6c0,0-0.3,3.2-1.8,4.6c-2.3,2.1-9.6,6.6-14.5,6.6c-1.7,0-3.7-0.6-5.7-1.4c-3.7-1.5-7.2-3.8-8.7-5.2
				c-1.5-1.3-1.8-4.6-1.8-4.6s-0.3-3.4-0.5-8c-0.4-8.3-0.7-20.2,1.2-22.6c3.7-4.6,15.6-4.9,15.6-4.9s11.8,0.3,15.6,4.9
				C59.3,22.6,56.9,49.6,56.9,49.6z"/>
			<path class="st5" d="M45.5,52c0,0-1.7,0.8-4.7,0.8C37.7,52.8,36,52,36,52s1.1,1.7,4.7,1.7C44.3,53.7,45.5,52,45.5,52z"/>
			<g>
				<path class="st5" d="M43.9,46.6c-0.4-0.2-0.9-0.2-1.3-0.1c-0.4,0.1-0.8,0.3-1,0.6l0,0c0,0,0,0.1,0,0.1c0,0.1,0.1,0.2,0.3,0.2
					c0.4,0,0.7,0,1.1-0.1c0.1,0,0.1,0,0.1-0.1c0-0.1,0-0.1-0.1-0.1c-0.2,0-0.3,0-0.5,0c0.1-0.1,0.3-0.1,0.4-0.2
					c0.3-0.1,0.6-0.2,1-0.2h0c0,0,0.1,0,0.1,0C44,46.7,44,46.6,43.9,46.6z"/>
				<path class="st5" d="M43.9,46.6c-0.4-0.2-0.9-0.2-1.3-0.1c-0.4,0.1-0.8,0.3-1,0.6l0,0c0,0,0,0.1,0,0.1c0,0.1,0.1,0.2,0.3,0.2
					c0.4,0,0.7,0,1.1-0.1c0.1,0,0.1,0,0.1-0.1c0-0.1,0-0.1-0.1-0.1c-0.2,0-0.3,0-0.5,0c0.1-0.1,0.3-0.1,0.4-0.2
					c0.3-0.1,0.6-0.2,1-0.2h0c0,0,0.1,0,0.1,0C44,46.7,44,46.6,43.9,46.6z"/>
				<path class="st5" d="M37.6,46.6c0.4-0.2,0.9-0.2,1.3-0.1c0.4,0.1,0.8,0.3,1,0.6l0,0c0,0,0,0.1,0,0.1c0,0.1-0.1,0.2-0.3,0.2
					c-0.4,0-0.7,0-1.1-0.1c-0.1,0-0.1,0-0.1-0.1c0-0.1,0-0.1,0.1-0.1c0.2,0,0.3,0,0.5,0c-0.1-0.1-0.3-0.1-0.4-0.2
					c-0.3-0.1-0.6-0.2-1-0.2h0c0,0-0.1,0-0.1,0C37.5,46.7,37.5,46.6,37.6,46.6z"/>
				<path class="st5" d="M37.6,46.6c0.4-0.2,0.9-0.2,1.3-0.1c0.4,0.1,0.8,0.3,1,0.6l0,0c0,0,0,0.1,0,0.1c0,0.1-0.1,0.2-0.3,0.2
					c-0.4,0-0.7,0-1.1-0.1c-0.1,0-0.1,0-0.1-0.1c0-0.1,0-0.1,0.1-0.1c0.2,0,0.3,0,0.5,0c-0.1-0.1-0.3-0.1-0.4-0.2
					c-0.3-0.1-0.6-0.2-1-0.2h0c0,0-0.1,0-0.1,0C37.5,46.7,37.5,46.6,37.6,46.6z"/>
			</g>
			<g>
				<path class="st5" d="M25.6,79l-0.8,12.8c0,0.3-0.3,0.6-0.6,0.6s-0.6-0.3-0.6-0.6c0,0,0,0,0,0L25.2,79c0-0.1,0.1-0.2,0.2-0.2
					C25.6,78.8,25.6,78.9,25.6,79z"/>
			</g>
			<g>
				<path class="st5" d="M57.2,79l1.7,12.7c0,0.3-0.2,0.6-0.5,0.7c-0.3,0-0.6-0.2-0.7-0.5c0,0,0,0,0,0L56.8,79
					c0-0.1,0.1-0.2,0.2-0.2C57.1,78.8,57.2,78.9,57.2,79z"/>
			</g>
			<g>
				<g>
					<path class="st5" d="M53.3,40.6c0-0.8-0.5-1.7-1.2-2.2c-0.7-0.5-1.6-0.7-2.5-0.7c-0.8,0-1.7,0.2-2.5,0.6
						c-0.7,0.5-1.2,1.4-1.1,2.2c0.2-0.8,0.7-1.4,1.4-1.7c0.7-0.3,1.4-0.4,2.2-0.4c0.8,0,1.5,0.1,2.2,0.4
						C52.4,39.2,53,39.8,53.3,40.6z"/>
					<path class="st5" d="M53.3,40.6c0-0.8-0.5-1.7-1.2-2.2c-0.7-0.5-1.6-0.7-2.5-0.7c-0.8,0-1.7,0.2-2.5,0.6
						c-0.7,0.5-1.2,1.4-1.1,2.2c0.2-0.8,0.7-1.4,1.4-1.7c0.7-0.3,1.4-0.4,2.2-0.4c0.8,0,1.5,0.1,2.2,0.4
						C52.4,39.2,53,39.8,53.3,40.6z"/>
					<path class="st5" d="M47.6,37.4c0.7-0.3,1.5-0.3,2.2-0.3c0.7,0.1,1.5,0.3,2.1,0.6c0.6,0.3,1.1,0.9,1.3,1.6
						c0.6,0.3,1.7,0.6,2.1,0.6c-0.8,0.9-2.1,0.7-2.1,0.7c-0.1-0.6-0.8-1.2-0.8-1.2l0.3-0.3c0,0,0.1,0,0.3,0.1
						c-0.3-0.5-0.7-0.9-1.3-1.1c-0.6-0.3-1.3-0.5-2-0.6c-0.7-0.1-1.4,0-2,0.2c-0.6,0.2-1.3,0.6-1.7,1.2
						C46.1,38.8,46.9,37.6,47.6,37.4z"/>
					<path class="st5" d="M47.6,37.4c0.7-0.3,1.5-0.3,2.2-0.3c0.7,0.1,1.5,0.3,2.1,0.6c0.6,0.3,1.1,0.9,1.3,1.6
						c0.6,0.3,1.7,0.6,2.1,0.6c-0.8,0.9-2.1,0.7-2.1,0.7c-0.1-0.6-0.8-1.2-0.8-1.2l0.3-0.3c0,0,0.1,0,0.3,0.1
						c-0.3-0.5-0.7-0.9-1.3-1.1c-0.6-0.3-1.3-0.5-2-0.6c-0.7-0.1-1.4,0-2,0.2c-0.6,0.2-1.3,0.6-1.7,1.2
						C46.1,38.8,46.9,37.6,47.6,37.4z"/>
				</g>
				<g>
					<path class="st5" d="M28.2,40.6c0-0.8,0.5-1.7,1.2-2.2c0.7-0.5,1.6-0.7,2.5-0.7c0.8,0,1.7,0.2,2.5,0.6c0.7,0.5,1.2,1.4,1.1,2.2
						c-0.2-0.8-0.7-1.4-1.4-1.7c-0.7-0.3-1.4-0.4-2.2-0.4c-0.8,0-1.5,0.1-2.2,0.4C29,39.2,28.5,39.8,28.2,40.6z"/>
					<path class="st5" d="M28.2,40.6c0-0.8,0.5-1.7,1.2-2.2c0.7-0.5,1.6-0.7,2.5-0.7c0.8,0,1.7,0.2,2.5,0.6c0.7,0.5,1.2,1.4,1.1,2.2
						c-0.2-0.8-0.7-1.4-1.4-1.7c-0.7-0.3-1.4-0.4-2.2-0.4c-0.8,0-1.5,0.1-2.2,0.4C29,39.2,28.5,39.8,28.2,40.6z"/>
					<path class="st5" d="M33.9,37.4c-0.7-0.3-1.5-0.3-2.2-0.3c-0.7,0.1-1.5,0.3-2.1,0.6c-0.6,0.3-1.1,0.9-1.3,1.6
						c-0.6,0.3-1.7,0.6-2.1,0.6c0.8,0.9,2.1,0.7,2.1,0.7c0.1-0.6,0.8-1.2,0.8-1.2l-0.3-0.3c0,0-0.1,0-0.3,0.1
						c0.3-0.5,0.7-0.9,1.3-1.1c0.6-0.3,1.3-0.5,2-0.6c0.7-0.1,1.4,0,2,0.2c0.6,0.2,1.3,0.6,1.7,1.2C35.4,38.8,34.6,37.6,33.9,37.4z"
						/>
					<path class="st5" d="M33.9,37.4c-0.7-0.3-1.5-0.3-2.2-0.3c-0.7,0.1-1.5,0.3-2.1,0.6c-0.6,0.3-1.1,0.9-1.3,1.6
						c-0.6,0.3-1.7,0.6-2.1,0.6c0.8,0.9,2.1,0.7,2.1,0.7c0.1-0.6,0.8-1.2,0.8-1.2l-0.3-0.3c0,0-0.1,0-0.3,0.1
						c0.3-0.5,0.7-0.9,1.3-1.1c0.6-0.3,1.3-0.5,2-0.6c0.7-0.1,1.4,0,2,0.2c0.6,0.2,1.3,0.6,1.7,1.2C35.4,38.8,34.6,37.6,33.9,37.4z"
						/>
				</g>
			</g>
			<path class="st7" d="M30.8,67.2L30.8,67.2c4.8,8.2,16.6,8.5,21.7,0.4l0.1-0.1"/>
			<g>
				<path class="st4" d="M55.4,36.1c0,0-4.1-5.2-10.1-1.3"/>
				<path class="st5" d="M55.4,36.2c-1.4-1.2-3.1-2-4.8-2.1c-0.9,0-1.7,0.2-2.5,0.3c-0.4,0-0.8,0.2-1.3,0.2
					c-0.4,0.1-0.9,0.2-1.4,0.2l0,0c0,0-0.1,0-0.1-0.1c0,0,0,0,0-0.1c0.6-0.9,1.4-1.5,2.4-1.8c1-0.4,2.1-0.3,3.1-0.1
					c1,0.2,1.9,0.6,2.7,1.2c0.8,0.6,1.5,1.3,2,2.1c0,0,0,0.1,0,0.1C55.4,36.2,55.4,36.2,55.4,36.2L55.4,36.2z"/>
			</g>
			<g>
				<g>
					<path class="st4" d="M26.6,36.1c0,0,4.1-5.2,10.1-1.3"/>
					<path class="st5" d="M26.5,36.1c0.5-0.8,1.2-1.5,2-2.1c0.8-0.6,1.7-1,2.7-1.2c1-0.2,2.1-0.4,3.1,0.1c1,0.4,1.8,1,2.4,1.8
						c0,0,0,0.1,0,0.1c0,0,0,0-0.1,0l0,0c-0.5,0-1-0.1-1.4-0.2c-0.5,0-0.9-0.2-1.3-0.2c-0.8-0.1-1.6-0.4-2.5-0.3
						c-1.7,0.1-3.4,0.9-4.8,2.1l0,0C26.6,36.2,26.5,36.2,26.5,36.1C26.5,36.1,26.5,36.1,26.5,36.1z"/>
				</g>
				<g>
					<path class="st4" d="M54.9,36.1c0,0-4.1-5.2-10.1-1.3"/>
					<path class="st5" d="M54.8,36.2c-1.4-1.2-3.1-2-4.8-2.1c-0.9,0-1.7,0.2-2.5,0.3c-0.4,0-0.8,0.2-1.3,0.2
						c-0.4,0.1-0.9,0.2-1.4,0.2l0,0c0,0-0.1,0-0.1-0.1c0,0,0,0,0-0.1c0.6-0.9,1.4-1.5,2.4-1.8c1-0.4,2.1-0.3,3.1-0.1
						c1,0.2,1.9,0.6,2.7,1.2c0.8,0.6,1.5,1.3,2,2.1c0,0,0,0.1,0,0.1C54.9,36.2,54.9,36.2,54.8,36.2L54.8,36.2z"/>
				</g>
			</g>
			<g>
				<path class="st8" d="M22.6,16.9c-5,6.9-4.7,18.7,1.4,28c0,0-4-13.5,4.7-21.1c5-4.5,21.6-5.3,26.8,5.1c3.2,6.4,1.2,13.5,1.3,16.2
					c0,0,10.3-20.2,0.9-29.8C47.8,5,28.9,8.2,22.6,16.9z"/>
				<g>
					<path class="st5" d="M53.1,18.3c1.5,1.8,2.6,3.9,3.5,6.1c0.9,2.2,1.5,4.4,1.9,6.8c0.1,1.2,0.3,2.3,0.4,3.5
						c0,0.6,0.1,1.2,0.1,1.8l0,1.8c0,0.6,0,1.2-0.1,1.8l-0.2,1.8c-0.2,1.2-0.4,2.3-0.6,3.5c0,0.2-0.3,0.4-0.5,0.4
						c-0.2,0-0.4-0.3-0.4-0.5c0,0,0,0,0,0l0,0c0.2-1.1,0.5-2.3,0.6-3.4l0.2-1.7c0.1-0.6,0.1-1.1,0.1-1.7l0.1-1.7c0-0.6,0-1.1,0-1.7
						c0-1.2-0.2-2.3-0.3-3.4c-0.3-2.3-0.9-4.5-1.7-6.7c-0.8-2.1-1.9-4.2-3.3-6l0,0c-0.1-0.1,0-0.2,0-0.2
						C53,18.3,53.1,18.3,53.1,18.3z"/>
				</g>
				<g>
					<path class="st5" d="M28.9,16.5c-1.6,1.7-2.8,3.8-3.7,5.9c-0.9,2.2-1.5,4.4-2,6.7c-0.2,1.2-0.3,2.3-0.4,3.5
						c-0.1,1.2-0.1,2.3-0.1,3.5c0,1.2,0.2,2.3,0.2,3.5c0.2,1.2,0.4,2.3,0.5,3.5l0,0c0,0.2-0.1,0.5-0.4,0.5c-0.2,0-0.5-0.1-0.5-0.4
						c0,0,0,0,0,0c-0.2-1.2-0.3-2.4-0.5-3.6c-0.1-1.2-0.2-2.4-0.2-3.6c0-1.2,0-2.4,0.1-3.6c0.1-1.2,0.3-2.4,0.5-3.6
						c0.5-2.3,1.2-4.6,2.1-6.8c1-2.2,2.2-4.2,3.9-6c0.1-0.1,0.2-0.1,0.2,0C28.9,16.3,28.9,16.4,28.9,16.5L28.9,16.5z"/>
				</g>
			</g>
			<path class="st8" d="M62.7,29.8c-6.5-0.6-13.7-0.8-20.4-0.8c-1.5-3.5-3.4-12.7-2.8-12.7c-1.2,4.4-1.6,8.6-1.2,12.7
				c-11.2,0.1-20,0.7-20,0.7c0-22.2,22.2-22.2,22.2-22.2C63.7,7.6,62.7,29.8,62.7,29.8z"/>
			<g>
				<path class="st4" d="M39.5,17.9c0-4.3,0.3-8.4,1.8-10.3"/>
				<path class="st5" d="M38.9,17.9c0.1-1.8,0.2-3.6,0.4-5.4c0.1-0.9,0.3-1.8,0.6-2.6c0.3-0.9,0.7-1.7,1.2-2.4
					c0.1-0.1,0.2-0.1,0.3,0c0.1,0.1,0.1,0.2,0,0.3l0,0c-1,1.4-1.2,3.2-1.3,4.9c-0.1,1.7-0.1,3.5,0,5.3c0,0.3-0.2,0.6-0.6,0.6
					C39.2,18.6,38.9,18.3,38.9,17.9C38.9,18,38.9,17.9,38.9,17.9z"/>
			</g>
			<g>
				<path class="st4" d="M30.8,29.3c0,0,0.5-14.3,6.4-21.3"/>
				<path class="st5" d="M30.1,29.2c0.1-1.9,0.4-3.8,0.7-5.7c0.3-1.9,0.7-3.7,1.2-5.6c1-3.6,2.5-7.3,5-10.2c0.1-0.1,0.2-0.1,0.3,0
					c0.1,0.1,0.1,0.2,0,0.3l0,0c-2.3,3-3.6,6.5-4.5,10.2c-0.5,1.8-0.8,3.7-1,5.5c-0.2,1.8-0.4,3.7-0.5,5.6l0,0
					c0,0.3-0.3,0.6-0.6,0.6S30.1,29.6,30.1,29.2C30.1,29.3,30.1,29.3,30.1,29.2z"/>
			</g>
			<g>
				<path class="st4" d="M23.2,29.6c0,0-0.1-12.8,6.9-19.6"/>
				<path class="st5" d="M22.6,29.6c0.1-1.8,0.3-3.6,0.6-5.4c0.3-1.8,0.8-3.5,1.3-5.2c0.6-1.7,1.3-3.3,2.2-4.9c0.9-1.5,2-3,3.3-4.2
					c0.1-0.1,0.2-0.1,0.3,0c0.1,0.1,0.1,0.2,0,0.3l0,0c-1.2,1.3-2.2,2.7-3.1,4.2c-0.8,1.6-1.5,3.2-2,4.9c-0.5,1.7-0.8,3.4-1.1,5.1
					c-0.2,1.7-0.4,3.5-0.4,5.2l0,0c0,0.3-0.3,0.6-0.6,0.6C22.9,30.2,22.6,29.9,22.6,29.6C22.6,29.6,22.6,29.6,22.6,29.6z"/>
			</g>
			<g>
				<path class="st4" d="M44,7.9c0,0,1.3,13.5,6.4,20.8"/>
				<path class="st5" d="M44.2,7.9c0.5,3.6,1.2,7.2,2.3,10.7c1,3.5,2.4,6.9,4.4,9.8l0,0c0.2,0.3,0.1,0.7-0.2,0.8
					c-0.3,0.2-0.7,0.1-0.8-0.2c0,0,0,0,0,0c-2-3.2-3.2-6.7-4.2-10.3c-0.9-3.6-1.5-7.2-1.9-10.9c0-0.1,0.1-0.2,0.2-0.2
					C44.1,7.7,44.2,7.8,44.2,7.9L44.2,7.9z"/>
			</g>
			<g>
				<path class="st4" d="M49,8.8c0,0,7.7,9.5,8.6,20.7"/>
				<path class="st5" d="M49.1,8.7c1.2,1.5,2.3,3.1,3.3,4.7c1,1.6,1.9,3.3,2.7,5.1c0.8,1.7,1.5,3.5,2,5.4c0.6,1.8,0.9,3.7,1.1,5.7
					c0,0.3-0.2,0.6-0.5,0.7c-0.3,0-0.6-0.2-0.7-0.5c0,0,0,0,0,0l0,0c-0.2-1.8-0.4-3.7-0.9-5.5c-0.5-1.8-1-3.6-1.8-5.3
					C52.9,15.3,51,12,48.8,9l0,0c-0.1-0.1,0-0.2,0-0.3C48.9,8.6,49.1,8.6,49.1,8.7z"/>
			</g>
			<path class="st9" d="M27.4,62.1l-4.6-27.4C22.8,34.7,19.8,62.6,27.4,62.1z"/>
			<path class="st9" d="M53.8,62.1l4.6-27.4C58.4,34.7,61.3,62.6,53.8,62.1z"/>
			<circle class="st10" cx="19.9" cy="47.5" r="1.6"/>
			<circle class="st10" cx="61.6" cy="47.5" r="1.6"/>
			<g>
				<g>
					<ellipse class="st11" cx="31.2" cy="45.9" rx="3.7" ry="1.4"/>
					<ellipse class="st11" cx="50.2" cy="45.9" rx="3.7" ry="1.4"/>
				</g>
			</g>
		</g>
	</g>
	<circle class="st12" cx="32.5" cy="40.4" r="0.8"/>
	<circle class="st12" cx="48.8" cy="40.4" r="0.8"/>
</g>
<g id="DESIGNED_BY_FREEPIK">
</g>
</svg>
