<?xml version="1.0" encoding="utf-8"?>
<!-- Generator: Adobe Illustrator 19.0.0, SVG Export Plug-In . SVG Version: 6.00 Build 0)  -->
<svg version="1.1" id="OBJECTS" xmlns="http://www.w3.org/2000/svg" xmlns:xlink="http://www.w3.org/1999/xlink" x="0px" y="0px"
	 viewBox="0 0 81.5 81.5" style="enable-background:new 0 0 81.5 81.5;" xml:space="preserve">
<style type="text/css">
	.st0{fill:none;stroke:#262424;stroke-width:0.8119;stroke-miterlimit:10;}
	.st1{clip-path:url(#SVGID_2_);}
	.st2{fill:#FFFFFF;stroke:#262424;stroke-width:1.2134;stroke-linecap:round;stroke-linejoin:round;stroke-miterlimit:10;}
	.st3{fill:#FFFFFF;stroke:#262424;stroke-width:1.2134;stroke-miterlimit:10;}
	.st4{fill:#262424;}
	.st5{fill:#FFFFFF;stroke:#262424;stroke-width:1.6179;stroke-miterlimit:10;}
	.st6{fill:#BC9C93;stroke:#262424;stroke-width:1.2134;stroke-miterlimit:10;}
	.st7{fill:#BC9C93;}
	.st8{fill:#FFFFFF;stroke:#262424;stroke-width:0.6067;stroke-miterlimit:10;}
	.st9{fill:#FFFFFF;}
	.st10{fill:none;stroke:#262424;stroke-width:1.2134;stroke-miterlimit:10;}
	.st11{fill:none;stroke:#262424;stroke-width:0.8089;stroke-miterlimit:10;}
	.st12{fill:none;stroke:#262424;stroke-width:1.6179;stroke-linecap:round;stroke-miterlimit:10;}
	.st13{fill:#9215FF;stroke:#262424;stroke-width:1.2134;stroke-linecap:round;stroke-linejoin:round;stroke-miterlimit:10;}
	.st14{opacity:0.3;fill:#FB9D78;}
	.st15{fill:#FFFFFF;stroke:#9215FF;stroke-width:1.6237;stroke-linecap:round;stroke-linejoin:round;stroke-miterlimit:10;}
</style>
<path class="st0" d="M75.5,31.4"/>
<path class="st0" d="M77.9,31.4"/>
<g>
	<defs>
		<circle id="SVGID_1_" cx="40.7" cy="40.7" r="40.7"/>
	</defs>
	<use xlink:href="#SVGID_1_"  style="overflow:visible;fill:#9794D2;"/>
	<clipPath id="SVGID_2_">
		<use xlink:href="#SVGID_1_"  style="overflow:visible;"/>
	</clipPath>
	<g class="st1">
		<path class="st2" d="M27.4,66.7c0,0,10.9-9,28.9,0L51.1,71H32.6L27.4,66.7z"/>
		<g>
			<ellipse class="st3" cx="41" cy="11.4" rx="9.7" ry="9.7"/>
			<g>
				<path class="st4" d="M44.8,2.2c-1.9,0.6-3.6,1.6-5,2.9c-1.4,1.3-2.5,3-3.1,4.8c-0.6,1.8-0.7,3.8-0.3,5.7c0.3,1.9,1.1,3.8,2.6,5
					L38.7,21c-1.7-1.2-2.6-3.2-3.1-5.2c-0.4-2-0.3-4.1,0.3-6.1c0.6-2,1.8-3.7,3.4-5.1c1.6-1.3,3.5-2.2,5.4-2.7L44.8,2.2z"/>
			</g>
			<g>
				<path class="st4" d="M50.2,9.3c-1.4-0.7-3-0.7-4.5-0.3c-0.7,0.2-1.4,0.6-1.9,1.1c-0.5,0.5-1,1.2-1.4,1.8
					c-0.9,1.3-1.4,2.7-1.7,4.2c-0.2,1.5,0,3.1,0.4,4.6l-0.4,0.1c-0.6-1.5-0.9-3.2-0.7-4.8c0.1-1.7,0.8-3.2,1.7-4.6
					c0.5-0.7,0.9-1.3,1.6-1.9c0.7-0.6,1.4-1,2.2-1.2C47.2,7.9,49,8.1,50.4,9L50.2,9.3z"/>
			</g>
		</g>
		<path class="st5" d="M64.2,79.8c-1.8-1.7-18.5-13-22.3-13c-3.8,0-20.5,11.3-22.3,13c-1.8,1.7-4,16.3-4,16.3h26.3h26.3
			C68.2,96.1,66,81.5,64.2,79.8z"/>
		<path class="st6" d="M68.2,96.1H15.6c0,0,2.2-14.6,4-16.3c1.2-1.1,8.5-6.2,14.5-9.6c3.4-2,6.4-3.4,7.8-3.4c1.4,0,4.6,1.5,8.1,3.6
			c6,3.5,13.1,8.4,14.2,9.5C66,81.5,68.2,96.1,68.2,96.1z"/>
		<g>
			<path class="st6" d="M56.1,45.9c0,0,3.3-4.2,5.2-3.8c1.9,0.4,1.9,2.4,1.9,2.4s-0.3,7.2-0.7,8.1c-0.3,0.9-4,1.4-5.9,1.1L56.1,45.9
				z"/>
			<path class="st6" d="M25.9,45.9c0,0-3.3-4.2-5.2-3.8c-1.9,0.4-1.9,2.4-1.9,2.4s0.3,7.2,0.7,8.1c0.3,0.9,4,1.4,5.9,1.1L25.9,45.9z
				"/>
		</g>
		<g>
			<polyline class="st7" points="37.2,72 37.2,59.7 46.6,59.7 46.6,72 			"/>
			<path class="st4" d="M36.9,72c-0.1-2-0.2-4.1-0.3-6.1c-0.1-2-0.1-4.1-0.1-6.1c0-0.3,0.3-0.6,0.6-0.6l0,0c1.6,0,3.1,0,4.7,0l4.7,0
				c0.3,0,0.6,0.3,0.6,0.6c0,2-0.1,4.1-0.1,6.1c0,2-0.1,4.1-0.2,6.1c0,0.2-0.2,0.3-0.3,0.3c-0.2,0-0.3-0.1-0.3-0.3
				c-0.1-2-0.2-4.1-0.2-6.1c0-2-0.1-4.1-0.1-6.1l0.6,0.6l-4.7,0c-1.6,0-3.1,0-4.7,0l0.6-0.6c0,2,0,4.1-0.1,6.1c0,2-0.1,4.1-0.3,6.1
				c0,0.1-0.1,0.2-0.3,0.2C37,72.2,36.9,72.1,36.9,72z"/>
		</g>
		<path class="st6" d="M57.5,54.2c0,0-0.3,3.2-1.8,4.5c-2.3,2.1-9.6,6.5-14.5,6.5c-1.7,0-3.7-0.6-5.7-1.4c-3.7-1.5-7.2-3.8-8.7-5.2
			c-1.5-1.3-1.8-4.5-1.8-4.5s-0.3-3.4-0.5-8c-0.4-8.2-0.7-20.1,1.2-22.4c3.7-4.5,15.6-4.9,15.6-4.9s11.8,0.3,15.6,4.9
			C59.8,27.5,57.5,54.2,57.5,54.2z"/>
		<path class="st4" d="M46,58.6c0,0-1.7,0.7-4.7,0.8c-3.1-0.1-4.7-0.8-4.7-0.8s1.1,1.7,4.7,1.7C44.9,60.3,46,58.6,46,58.6z"/>
		<path class="st8" d="M35.3,55.1c0,0,0.8-0.6,1.7-0.6h8.6c0.9,0,1.7,0.6,1.7,0.6C47.3,58.8,35.3,58.8,35.3,55.1z"/>
		<g>
			<path class="st4" d="M44.7,51.3c-0.4-0.2-0.9-0.2-1.3-0.1c-0.4,0.1-0.8,0.3-1,0.6l0,0c0,0,0,0.1,0,0.1c0,0.1,0.1,0.2,0.3,0.2
				c0.4,0,0.7,0,1.1-0.1c0.1,0,0.1,0,0.1-0.1c0-0.1,0-0.1-0.1-0.1c-0.2,0-0.3,0-0.5,0c0.1-0.1,0.3-0.1,0.4-0.2
				c0.3-0.1,0.6-0.2,1-0.2h0c0,0,0.1,0,0.1,0C44.8,51.4,44.7,51.3,44.7,51.3z"/>
			<path class="st4" d="M44.7,51.3c-0.4-0.2-0.9-0.2-1.3-0.1c-0.4,0.1-0.8,0.3-1,0.6l0,0c0,0,0,0.1,0,0.1c0,0.1,0.1,0.2,0.3,0.2
				c0.4,0,0.7,0,1.1-0.1c0.1,0,0.1,0,0.1-0.1c0-0.1,0-0.1-0.1-0.1c-0.2,0-0.3,0-0.5,0c0.1-0.1,0.3-0.1,0.4-0.2
				c0.3-0.1,0.6-0.2,1-0.2h0c0,0,0.1,0,0.1,0C44.8,51.4,44.7,51.3,44.7,51.3z"/>
			<path class="st4" d="M38.3,51.3c0.4-0.2,0.9-0.2,1.3-0.1c0.4,0.1,0.8,0.3,1,0.6l0,0c0,0,0,0.1,0,0.1c0,0.1-0.1,0.2-0.3,0.2
				c-0.4,0-0.7,0-1.1-0.1c-0.1,0-0.1,0-0.1-0.1c0-0.1,0-0.1,0.1-0.1c0.2,0,0.3,0,0.5,0c-0.1-0.1-0.3-0.1-0.4-0.2
				c-0.3-0.1-0.6-0.2-1-0.2h0c0,0-0.1,0-0.1,0C38.3,51.4,38.3,51.3,38.3,51.3z"/>
			<path class="st4" d="M38.3,51.3c0.4-0.2,0.9-0.2,1.3-0.1c0.4,0.1,0.8,0.3,1,0.6l0,0c0,0,0,0.1,0,0.1c0,0.1-0.1,0.2-0.3,0.2
				c-0.4,0-0.7,0-1.1-0.1c-0.1,0-0.1,0-0.1-0.1c0-0.1,0-0.1,0.1-0.1c0.2,0,0.3,0,0.5,0c-0.1-0.1-0.3-0.1-0.4-0.2
				c-0.3-0.1-0.6-0.2-1-0.2h0c0,0-0.1,0-0.1,0C38.3,51.4,38.3,51.3,38.3,51.3z"/>
		</g>
		<g>
			<path class="st4" d="M26.2,83.5l-0.9,12.7c0,0.3-0.3,0.6-0.6,0.6c-0.3,0-0.6-0.3-0.6-0.6c0,0,0,0,0,0l1.7-12.6
				c0-0.1,0.1-0.2,0.2-0.2C26.1,83.3,26.2,83.4,26.2,83.5z"/>
		</g>
		<g>
			<path class="st4" d="M57.8,83.4L59.4,96c0,0.3-0.2,0.6-0.5,0.7c-0.3,0-0.6-0.2-0.7-0.5c0,0,0,0,0,0l-0.9-12.7
				c0-0.1,0.1-0.2,0.2-0.2C57.7,83.2,57.8,83.3,57.8,83.4z"/>
		</g>
		<g>
			<path class="st9" d="M46.5,45.3c0,0.9,0.7,1.6,1.7,2.1c0.6,0.3,1.2,0.4,2,0.4c0.7,0,1.4-0.1,2-0.4c1-0.4,1.7-1.2,1.7-2.1
				c0-0.9-0.7-1.6-1.7-2.1c-0.6-0.2-1.3-0.4-2-0.4c-0.7,0-1.4,0.1-2,0.4C47.2,43.7,46.5,44.4,46.5,45.3z"/>
			<path class="st4" d="M53.8,45.3c0-0.8-0.5-1.7-1.2-2.1c-0.7-0.5-1.6-0.7-2.5-0.7c-0.8,0-1.7,0.2-2.5,0.6
				c-0.7,0.5-1.2,1.4-1.1,2.2c0.2-0.8,0.7-1.4,1.4-1.7c0.7-0.3,1.4-0.4,2.2-0.4c0.8,0,1.5,0.1,2.2,0.4C53,44,53.5,44.5,53.8,45.3z"
				/>
			<path class="st4" d="M53.8,45.3c0-0.8-0.5-1.7-1.2-2.1c-0.7-0.5-1.6-0.7-2.5-0.7c-0.8,0-1.7,0.2-2.5,0.6
				c-0.7,0.5-1.2,1.4-1.1,2.2c0.2-0.8,0.7-1.4,1.4-1.7c0.7-0.3,1.4-0.4,2.2-0.4c0.8,0,1.5,0.1,2.2,0.4C53,44,53.5,44.5,53.8,45.3z"
				/>
			<path class="st4" d="M48.2,42.1c0.7-0.3,1.5-0.3,2.2-0.3c0.7,0.1,1.5,0.3,2.1,0.6c0.6,0.3,1.1,0.9,1.3,1.6
				c0.6,0.3,1.7,0.6,2.1,0.6c-0.8,0.9-2.1,0.7-2.1,0.7c-0.1-0.6-0.8-1.2-0.8-1.2l0.3-0.3c0,0,0.1,0,0.3,0.1
				c-0.3-0.5-0.7-0.9-1.3-1.1c-0.6-0.3-1.3-0.5-2-0.5c-0.7-0.1-1.4,0-2,0.2c-0.6,0.2-1.3,0.6-1.7,1.2C46.6,43.6,47.4,42.4,48.2,42.1
				z"/>
			<path class="st4" d="M48.2,42.1c0.7-0.3,1.5-0.3,2.2-0.3c0.7,0.1,1.5,0.3,2.1,0.6c0.6,0.3,1.1,0.9,1.3,1.6
				c0.6,0.3,1.7,0.6,2.1,0.6c-0.8,0.9-2.1,0.7-2.1,0.7c-0.1-0.6-0.8-1.2-0.8-1.2l0.3-0.3c0,0,0.1,0,0.3,0.1
				c-0.3-0.5-0.7-0.9-1.3-1.1c-0.6-0.3-1.3-0.5-2-0.5c-0.7-0.1-1.4,0-2,0.2c-0.6,0.2-1.3,0.6-1.7,1.2C46.6,43.6,47.4,42.4,48.2,42.1
				z"/>
		</g>
		<g>
			<path class="st9" d="M36,45.3c0,0.9-0.7,1.6-1.7,2.1c-0.6,0.3-1.2,0.4-2,0.4c-0.7,0-1.4-0.1-2-0.4c-1-0.4-1.7-1.2-1.7-2.1
				c0-0.9,0.7-1.6,1.7-2.1c0.6-0.2,1.3-0.4,2-0.4c0.7,0,1.4,0.1,2,0.4C35.3,43.7,36,44.4,36,45.3z"/>
			<path class="st4" d="M28.7,45.3c0-0.8,0.5-1.7,1.2-2.1c0.7-0.5,1.6-0.7,2.5-0.7c0.8,0,1.7,0.2,2.5,0.6c0.7,0.5,1.2,1.4,1.1,2.2
				c-0.2-0.8-0.7-1.4-1.4-1.7c-0.7-0.3-1.4-0.4-2.2-0.4c-0.8,0-1.5,0.1-2.2,0.4C29.6,44,29,44.5,28.7,45.3z"/>
			<path class="st4" d="M28.7,45.3c0-0.8,0.5-1.7,1.2-2.1c0.7-0.5,1.6-0.7,2.5-0.7c0.8,0,1.7,0.2,2.5,0.6c0.7,0.5,1.2,1.4,1.1,2.2
				c-0.2-0.8-0.7-1.4-1.4-1.7c-0.7-0.3-1.4-0.4-2.2-0.4c-0.8,0-1.5,0.1-2.2,0.4C29.6,44,29,44.5,28.7,45.3z"/>
			<path class="st4" d="M34.4,42.1c-0.7-0.3-1.5-0.3-2.2-0.3c-0.7,0.1-1.5,0.3-2.1,0.6c-0.6,0.3-1.1,0.9-1.3,1.6
				c-0.6,0.3-1.7,0.6-2.1,0.6c0.8,0.9,2.1,0.7,2.1,0.7c0.1-0.6,0.8-1.2,0.8-1.2l-0.3-0.3c0,0-0.1,0-0.3,0.1c0.3-0.5,0.7-0.9,1.3-1.1
				c0.6-0.3,1.3-0.5,2-0.5c0.7-0.1,1.4,0,2,0.2c0.6,0.2,1.3,0.6,1.7,1.2C35.9,43.6,35.1,42.4,34.4,42.1z"/>
			<path class="st4" d="M34.4,42.1c-0.7-0.3-1.5-0.3-2.2-0.3c-0.7,0.1-1.5,0.3-2.1,0.6c-0.6,0.3-1.1,0.9-1.3,1.6
				c-0.6,0.3-1.7,0.6-2.1,0.6c0.8,0.9,2.1,0.7,2.1,0.7c0.1-0.6,0.8-1.2,0.8-1.2l-0.3-0.3c0,0-0.1,0-0.3,0.1c0.3-0.5,0.7-0.9,1.3-1.1
				c0.6-0.3,1.3-0.5,2-0.5c0.7-0.1,1.4,0,2,0.2c0.6,0.2,1.3,0.6,1.7,1.2C35.9,43.6,35.1,42.4,34.4,42.1z"/>
		</g>
		<path class="st10" d="M26.8,74.6c0,0,0.9,7.7,15.1,7.7c14.2,0,15.1-7.7,15.1-7.7"/>
		<g>
			<path class="st7" d="M27.1,40.9c0,0,4.1-5.1,10.1-1.3"/>
			<path class="st4" d="M27,40.8c0,0,0.4-0.6,1.2-1.4c0.8-0.8,2.1-1.6,3.6-1.9c0.4-0.1,0.8-0.1,1.1-0.2c0.4,0,0.8,0,1.1,0
				c0.4,0.1,0.7,0.2,1,0.3c0.3,0.1,0.6,0.3,0.8,0.4c0.5,0.3,0.8,0.7,1,0.9c0.2,0.3,0.3,0.4,0.3,0.4c0,0,0,0.1,0,0.1c0,0,0,0,0,0l0,0
				c0,0-0.2,0-0.5,0c-0.2,0-0.3-0.1-0.6-0.1c-0.2-0.1-0.4-0.1-0.7-0.1c-0.2,0-0.5-0.1-0.8-0.1c-0.3,0-0.5-0.1-0.8-0.1
				c-0.3,0-0.6-0.1-0.9-0.2c-0.3,0-0.6-0.1-0.9-0.1c-1.3,0-2.5,0.5-3.4,1.1c-0.9,0.5-1.4,1-1.4,1c0,0-0.1,0-0.1,0
				C27,40.9,27,40.9,27,40.8z"/>
		</g>
		<g>
			<path class="st9" d="M56,40.9c0,0-4.1-5.1-10.1-1.3"/>
			<path class="st4" d="M56,40.9c-1.4-1.2-3.1-2-4.8-2.1c-0.9,0-1.7,0.2-2.5,0.3c-0.4,0-0.8,0.2-1.3,0.2c-0.4,0.1-0.9,0.2-1.4,0.2
				l0,0c0,0-0.1,0-0.1-0.1c0,0,0,0,0-0.1c0.6-0.8,1.4-1.5,2.4-1.8c1-0.4,2.1-0.2,3.1-0.1c1,0.2,1.9,0.6,2.7,1.2
				c0.8,0.6,1.5,1.3,2,2.1c0,0,0,0.1,0,0.1C56,41,56,41,56,40.9L56,40.9z"/>
		</g>
		<g>
			<path class="st7" d="M55.4,40.9c0,0-4.1-5.1-10.1-1.3"/>
			<path class="st4" d="M55.4,40.9c0,0-0.5-0.5-1.4-1c-0.9-0.5-2.1-1-3.4-1.1c-0.3,0-0.6,0-0.9,0.1c-0.3,0-0.6,0.1-0.9,0.2
				c-0.3,0-0.6,0.1-0.8,0.1c-0.3,0-0.5,0.1-0.8,0.1c-0.2,0-0.5,0.1-0.7,0.1c-0.2,0-0.4,0.1-0.6,0.1c-0.3,0-0.5,0-0.5,0l0,0
				c0,0-0.1,0-0.1-0.1c0,0,0,0,0,0c0,0,0.1-0.2,0.3-0.4c0.2-0.2,0.5-0.6,1-0.9c0.2-0.1,0.5-0.3,0.8-0.4c0.3-0.1,0.6-0.2,1-0.3
				c0.4,0,0.7-0.1,1.1,0c0.4,0.1,0.8,0.1,1.1,0.2c1.5,0.3,2.8,1.1,3.6,1.9c0.8,0.7,1.2,1.4,1.2,1.4c0,0,0,0.1,0,0.1
				C55.4,41,55.4,41,55.4,40.9z"/>
		</g>
		<path class="st2" d="M41.9,10.4c-12.7,0-23.3,9.5-23.3,22.4c0,2.9,0.2,6.9,1.2,9.5c0.5-1,3.4-0.5,4.5,1.3c0,0,0.2-2.3,0.1-2.9
			c-0.2-1.2-0.3-2.4-0.4-3.6c4.7-4.6,12.5-2.7,19.1-4.4c3.2-0.8,6.6-3,8.5-6c0,1.6,0,3.4,0.7,4.8c2.1,4.1,5.9,8.5,5.7,13.2
			c1.3-1.5,2.6-2.4,4.1-2.5c0,0,0.9-7.1,0.9-9.4C63.1,19.8,54.6,10.4,41.9,10.4z"/>
		<path class="st11" d="M19.9,41.1c1.1-2.1,3-3.8,5.2-4.6"/>
		<g>
			<path class="st4" d="M19.2,38.3c-0.2-1.7,0-3.4,0.5-5.1c0.6-1.6,1.5-3.1,2.7-4.4c2.4-2.5,5.7-4,9.2-4.3c3.5-0.4,6.8,0.6,10,1.3
				c1.6,0.4,3.3,0.6,4.9,0.6c1.6,0,3.3-0.3,4.7-1.1l0.2,0.4c-1.5,0.9-3.2,1.3-4.9,1.3c-1.7,0.1-3.4-0.2-5.1-0.5
				c-1.7-0.3-3.3-0.7-4.9-1c-1.6-0.3-3.3-0.4-4.9-0.2c-3.2,0.3-6.4,1.7-8.7,4c-2.3,2.3-3.7,5.6-3.4,8.9L19.2,38.3z"/>
		</g>
		<g>
			<path class="st4" d="M21.1,22.1c0.7-1.4,1.8-2.6,3.1-3.5c1.3-0.9,2.7-1.6,4.1-2.1c2.9-1,6.1-1.3,9.2-0.8c3.1,0.4,6,1.8,8.4,3.8
				c2.4,1.9,4.5,4.3,5.9,7.1l-0.4,0.2c-1.5-2.6-3.6-4.9-6-6.7c-1.2-0.9-2.5-1.7-3.9-2.3c-1.4-0.6-2.8-1-4.3-1.2
				c-3-0.4-6-0.2-8.9,0.7c-1.4,0.5-2.8,1.1-4.1,1.9c-1.3,0.8-2.4,1.8-3.1,3.1L21.1,22.1z"/>
		</g>
		<g>
			<path class="st4" d="M42.3,10.1c1.9-0.1,3.7,0.5,5.3,1.5c1.6,1,2.9,2.5,3.7,4.2c0.8,1.7,1.3,3.6,1.3,5.4c0,1.9-0.3,3.7-0.8,5.5
				l-0.4-0.1c0.4-1.8,0.6-3.6,0.5-5.3c-0.1-1.8-0.5-3.5-1.3-5.1c-0.8-1.6-2-3-3.4-3.9c-1.4-1-3.2-1.6-5-1.8L42.3,10.1z"/>
		</g>
		<g>
			<path class="st4" d="M51.9,26.2c0.2,1.3,0.4,2.6,1.1,3.7c0.6,1.1,1.6,2,2.7,2.5c1.1,0.5,2.4,0.7,3.7,0.7c0.6,0,1.3-0.1,1.9-0.3
				c0.6-0.2,1.2-0.5,1.5-0.9l0.4,0.1c-0.3,0.8-1,1.1-1.7,1.4c-0.7,0.3-1.3,0.4-2,0.4c-1.4,0.1-2.8-0.1-4.1-0.7
				c-1.3-0.6-2.4-1.6-3-2.9c-0.6-1.3-0.8-2.7-0.8-4L51.9,26.2z"/>
		</g>
		<g>
			<path class="st4" d="M51.3,26.4c1,0.4,2.1,0.5,3.1,0.3c1.1-0.2,2.1-0.6,2.9-1.2c0.9-0.6,1.5-1.5,1.8-2.5c0.2-0.5,0.3-1,0.3-1.6
				c0-0.5,0-1.1-0.1-1.5l0.3-0.2c0.2,0.3,0.2,0.6,0.3,0.9c0,0.3,0.1,0.6,0.1,0.9c0,0.6-0.1,1.2-0.3,1.8c-0.3,1.2-1,2.2-2,2.9
				c-0.5,0.4-1,0.6-1.6,0.8c-0.6,0.2-1.1,0.3-1.7,0.4c-1.2,0.1-2.4,0-3.4-0.7L51.3,26.4z"/>
		</g>
		<g>
			<g>
				<path class="st9" d="M21.4,48.7c0,0-0.1-1,0-2.7"/>
				<path class="st4" d="M21.2,48.7C21.1,48.5,21,48.2,21,48c0-0.2-0.1-0.5-0.1-0.7c0-0.2,0-0.5,0.1-0.7c0-0.2,0.1-0.5,0.2-0.7
					c0-0.1,0.2-0.2,0.3-0.1c0.1,0,0.1,0.1,0.1,0.1c0.1,0.2,0.1,0.5,0.1,0.7c0,0.2,0,0.4,0,0.7c0,0.2,0,0.4,0,0.7
					c0,0.2-0.1,0.4-0.2,0.7l0,0C21.5,48.8,21.4,48.8,21.2,48.7C21.3,48.7,21.2,48.7,21.2,48.7z"/>
			</g>
			<g>
				<path class="st4" d="M20.2,45c0.6,0.2,1.1,0.5,1.5,0.9c0.4,0.4,0.8,0.9,1,1.4c0.3,0.5,0.5,1.1,0.6,1.7c0.1,0.3,0.1,0.6,0.1,0.9
					c0,0.3,0,0.6,0,0.9c0,0.1-0.1,0.2-0.2,0.2c-0.1,0-0.2-0.1-0.2-0.1l0,0c-0.2-0.5-0.3-1.1-0.5-1.6c-0.2-0.5-0.4-1-0.6-1.5
					c-0.3-0.5-0.5-0.9-0.9-1.3c-0.3-0.4-0.7-0.8-1.1-1.1l0,0c-0.1-0.1-0.1-0.1,0-0.2C20.1,45,20.1,45,20.2,45z"/>
			</g>
		</g>
		<g>
			<g>
				<path class="st9" d="M61.2,48.7c0,0,0.1-1,0-2.7"/>
				<path class="st4" d="M61,48.7c-0.1-0.2-0.1-0.4-0.2-0.7c0-0.2,0-0.4,0-0.7c0-0.2,0-0.4,0-0.7c0-0.2,0.1-0.4,0.1-0.7
					c0-0.1,0.2-0.2,0.3-0.1c0.1,0,0.1,0.1,0.1,0.1c0.1,0.2,0.1,0.4,0.2,0.7c0.1,0.2,0,0.5,0.1,0.7c0,0.2,0,0.5-0.1,0.7
					c-0.1,0.2-0.1,0.5-0.2,0.7C61.3,48.8,61.2,48.8,61,48.7C61.1,48.7,61,48.7,61,48.7L61,48.7z"/>
			</g>
			<g>
				<path class="st4" d="M62.4,45.3c-0.4,0.3-0.8,0.7-1.1,1.1c-0.3,0.4-0.6,0.9-0.9,1.3c-0.3,0.5-0.4,1-0.6,1.5
					c-0.2,0.5-0.3,1-0.5,1.6l0,0c0,0.1-0.1,0.2-0.3,0.1C59,51,59,50.9,59,50.8c0-0.3,0-0.6,0-0.9c0-0.3,0.1-0.6,0.1-0.9
					c0.1-0.6,0.3-1.1,0.6-1.7c0.3-0.5,0.6-1,1-1.4c0.4-0.4,0.9-0.8,1.5-0.9c0.1,0,0.2,0,0.2,0.1C62.5,45.2,62.5,45.3,62.4,45.3
					L62.4,45.3z"/>
			</g>
		</g>
		<path class="st12" d="M21.2,52c0,0-1.5,8,0.8,8.6c2.1,0.5,2.2-3.3,1.3-6.4"/>
		<path class="st12" d="M60.9,52c0,0,1.5,8-0.8,8.6c-2.1,0.5-2.2-3.3-1.3-6.4"/>
		<g>
			<polygon class="st2" points="25.9,74.6 32.6,71 36.4,96.1 30.1,96.1 			"/>
			<path class="st13" d="M37.8,96.1l-2-26.9l-1.4-1.7c-1.7-2.1-4.8-2.4-7-0.8l0,0l5.2,4.3l3.8,25.1L37.8,96.1z"/>
		</g>
		<g>
			<polygon class="st2" points="57.8,74.6 51.1,71 47.2,96.1 53.6,96.1 			"/>
			<path class="st13" d="M45.9,96.1l2-26.9l1.4-1.7c1.7-2.1,4.8-2.4,7-0.8l0,0L51.1,71l-3.8,25.1L45.9,96.1z"/>
		</g>
		<g>
			<ellipse class="st14" cx="31.8" cy="50.1" rx="3.7" ry="1.4"/>
			<ellipse class="st14" cx="50.8" cy="50.1" rx="3.7" ry="1.4"/>
		</g>
	</g>
</g>
<g>
	<circle class="st15" cx="33" cy="45.2" r="0.8"/>
	<circle class="st15" cx="49.3" cy="45.2" r="0.8"/>
</g>
</svg>
