<?xml version="1.0" encoding="utf-8"?>
<!-- Generator: Adobe Illustrator 19.0.0, SVG Export Plug-In . SVG Version: 6.00 Build 0)  -->
<svg version="1.1" id="OBJECTS" xmlns="http://www.w3.org/2000/svg" xmlns:xlink="http://www.w3.org/1999/xlink" x="0px" y="0px"
	 viewBox="0 0 81.5 81.5" style="enable-background:new 0 0 81.5 81.5;" xml:space="preserve">
<style type="text/css">
	.st0{clip-path:url(#SVGID_2_);}
	.st1{fill:#FFFFFF;stroke:#262424;stroke-width:1.6237;stroke-miterlimit:10;}
	.st2{fill:#48D8BF;stroke:#262424;stroke-width:1.2178;stroke-miterlimit:10;}
	.st3{fill:#FFFFFF;stroke:#262424;stroke-width:0.8727;stroke-linecap:round;stroke-linejoin:round;stroke-miterlimit:10;}
	.st4{fill:#FFFFFF;stroke:#262424;stroke-width:1.2178;stroke-miterlimit:10;}
	.st5{fill:#FFFFFF;}
	.st6{fill:#262424;}
	.st7{fill:#FFFFFF;stroke:#262424;stroke-width:0.6089;stroke-miterlimit:10;}
	.st8{fill:#FFFFFF;stroke:#262424;stroke-width:1.1792;stroke-miterlimit:10;}
	.st9{fill:none;stroke:#262424;stroke-width:0.8754;stroke-linecap:round;stroke-linejoin:round;stroke-miterlimit:10;}
	.st10{fill:none;stroke:#262424;stroke-width:0.8754;stroke-miterlimit:10;}
	.st11{fill:#FFFFFF;stroke:#262424;stroke-width:1.6237;stroke-linecap:round;stroke-linejoin:round;stroke-miterlimit:10;}
</style>
<g>
	<defs>
		<circle id="SVGID_1_" cx="40.7" cy="40.7" r="40.7"/>
	</defs>
	<use xlink:href="#SVGID_1_"  style="overflow:visible;fill:#6C9EEF;"/>
	<clipPath id="SVGID_2_">
		<use xlink:href="#SVGID_1_"  style="overflow:visible;"/>
	</clipPath>
	<g class="st0">
		<path class="st1" d="M63,74.2C61.2,72.4,44.5,61,40.7,61c-3.8,0-20.5,11.4-22.3,13.1s-4,16.4-4,16.4h26.3H67
			C67,90.6,64.9,75.9,63,74.2z"/>
		<path class="st2" d="M67,90.6H14.4c0,0,2.2-14.7,4-16.4c1-1,6.7-5,12.2-8.3c0.8-0.5,1.6-0.9,2.3-1.4c3.4-2,6.4-3.4,7.8-3.4
			c1.4,0,4.6,1.6,8.1,3.6c0.7,0.4,1.4,0.8,2.1,1.3c5.4,3.3,11.1,7.3,12.1,8.3C64.9,75.9,67,90.6,67,90.6z"/>
		<path class="st3" d="M51,65.9l-2.7,24L48,90.6H32.6l-2-24.8c0.8-0.5,1.6-0.9,2.3-1.4c3.4-2,6.4-3.4,7.8-3.4c1.4,0,4.6,1.6,8.1,3.6
			C49.5,65,50.3,65.5,51,65.9z"/>
		<path class="st4" d="M48.8,64.8c0,2.7-3.6,4.9-7.9,4.9s-7.9-2.2-7.9-4.9c0-0.1,0-0.2,0-0.4c3.4-2,6.4-3.4,7.8-3.4
			c1.4,0,4.6,1.6,8.1,3.6C48.8,64.7,48.8,64.8,48.8,64.8z"/>
		<g>
			<polyline class="st5" points="36,65.3 36,54 45.5,54 45.5,65.3 			"/>
			<path class="st6" d="M35.7,65.3c-0.1-1.9-0.3-3.8-0.3-5.6c-0.1-1.9-0.1-3.8-0.2-5.6c0-0.4,0.3-0.8,0.8-0.8l0,0l0,0
				c3.2,0,6.3,0,9.5,0l0,0c0.4,0,0.8,0.4,0.8,0.8c0,1.9-0.1,3.8-0.1,5.6c0,1.9-0.1,3.8-0.2,5.6c0,0.2-0.2,0.4-0.4,0.4
				c-0.2,0-0.4-0.2-0.4-0.4c-0.1-1.9-0.2-3.8-0.2-5.6c0-1.9-0.1-3.8-0.1-5.6l0.8,0.8c-3.2,0-6.3,0-9.5,0l0.8-0.8
				c0,1.9-0.1,3.8-0.2,5.6c-0.1,1.9-0.2,3.8-0.3,5.6c0,0.2-0.2,0.3-0.3,0.3C35.8,65.5,35.7,65.4,35.7,65.3z"/>
		</g>
		<g>
			<path class="st4" d="M55.8,40.1c0,0,3.3-4.2,5.2-3.8c1.9,0.4,1.9,2.4,1.9,2.4s-0.3,7.2-0.7,8.1c-0.3,0.9-4,1.4-5.9,1.1L55.8,40.1
				z"/>
			<path class="st4" d="M25.7,40.1c0,0-3.3-4.2-5.2-3.8c-1.9,0.4-1.9,2.4-1.9,2.4s0.3,7.2,0.7,8.1c0.3,0.9,4,1.4,5.9,1.1L25.7,40.1z
				"/>
		</g>
		<path class="st4" d="M57,49.7c0,0-0.3,3.2-1.8,4.6c-2.3,2.1-9.6,6.6-14.5,6.6c-1.7,0-3.7-0.6-5.7-1.4c-3.7-1.5-7.2-3.8-8.7-5.2
			c-1.5-1.3-1.8-4.6-1.8-4.6s-0.3-3.4-0.5-8c-0.4-8.3-0.7-20.2,1.2-22.6c3.7-4.6,15.6-4.9,15.6-4.9s11.8,0.3,15.6,4.9
			C59.3,22.7,57,49.7,57,49.7z"/>
		<path class="st6" d="M45.5,53.7c0,0-1.7,0.8-4.7,0.8c-3.1-0.1-4.7-0.8-4.7-0.8s1.1,1.7,4.7,1.7C44.3,55.4,45.5,53.7,45.5,53.7z"/>
		<path class="st6" d="M45.5,53.7c0,0-1.7,0.8-4.7,0.8c-3.1-0.1-4.7-0.8-4.7-0.8s1.1,1.7,4.7,1.7C44.3,55.4,45.5,53.7,45.5,53.7z"/>
		<path class="st7" d="M34.7,50.1c0,0,0.8-0.6,1.7-0.6H45c0.9,0,1.7,0.6,1.7,0.6C46.7,53.9,34.7,53.9,34.7,50.1z"/>
		<path class="st6" d="M28.1,39.5c0-0.8,0.5-1.7,1.2-2.2c0.7-0.5,1.6-0.7,2.5-0.7c0.8,0,1.7,0.2,2.5,0.6c0.7,0.5,1.2,1.4,1.1,2.2
			c-0.2-0.8-0.7-1.4-1.4-1.7c-0.7-0.3-1.4-0.4-2.2-0.4c-0.8,0-1.5,0.1-2.2,0.4C28.9,38.1,28.3,38.7,28.1,39.5z"/>
		<path class="st6" d="M28.1,39.5c0-0.8,0.5-1.7,1.2-2.2c0.7-0.5,1.6-0.7,2.5-0.7c0.8,0,1.7,0.2,2.5,0.6c0.7,0.5,1.2,1.4,1.1,2.2
			c-0.2-0.8-0.7-1.4-1.4-1.7c-0.7-0.3-1.4-0.4-2.2-0.4c-0.8,0-1.5,0.1-2.2,0.4C28.9,38.1,28.3,38.7,28.1,39.5z"/>
		<g>
			<path class="st5" d="M26.4,35.8c0,0,4.1-5.2,10.1-1.3"/>
			<path class="st6" d="M26.2,35.6c0.5-0.9,1.2-1.6,2-2.2c0.8-0.6,1.8-1,2.9-1.1c1-0.1,2.1-0.1,3.1,0.3c0.5,0.1,0.9,0.4,1.4,0.6
				c0.4,0.3,0.8,0.6,1.2,0.9c0.2,0.1,0.2,0.4,0.1,0.6c-0.1,0.1-0.3,0.2-0.4,0.1l-0.1,0c-0.4-0.1-0.8-0.3-1.3-0.5
				c-0.4-0.1-0.8-0.3-1.3-0.3c-0.8-0.2-1.7-0.2-2.5-0.1c-1.6,0.2-3.2,1-4.7,2.1l0,0c-0.1,0.1-0.3,0.1-0.4-0.1
				C26.1,35.9,26.1,35.7,26.2,35.6z"/>
		</g>
		<path class="st6" d="M53.2,39.5c0-0.8-0.5-1.7-1.2-2.2c-0.7-0.5-1.6-0.7-2.5-0.7c-0.8,0-1.7,0.2-2.5,0.6c-0.7,0.5-1.2,1.4-1.1,2.2
			c0.2-0.8,0.7-1.4,1.4-1.7c0.7-0.3,1.4-0.4,2.2-0.4c0.8,0,1.5,0.1,2.2,0.4C52.4,38.1,53,38.7,53.2,39.5z"/>
		<path class="st6" d="M53.2,39.5c0-0.8-0.5-1.7-1.2-2.2c-0.7-0.5-1.6-0.7-2.5-0.7c-0.8,0-1.7,0.2-2.5,0.6c-0.7,0.5-1.2,1.4-1.1,2.2
			c0.2-0.8,0.7-1.4,1.4-1.7c0.7-0.3,1.4-0.4,2.2-0.4c0.8,0,1.5,0.1,2.2,0.4C52.4,38.1,53,38.7,53.2,39.5z"/>
		<g>
			<path class="st5" d="M54.9,35.8c0,0-4.1-5.2-10.1-1.3"/>
			<path class="st6" d="M54.6,36c-1.5-1-3-1.9-4.7-2.1c-0.8-0.1-1.6-0.1-2.5,0.1c-0.4,0.1-0.8,0.2-1.3,0.3c-0.4,0.1-0.8,0.3-1.3,0.5
				l-0.1,0c-0.2,0.1-0.4-0.1-0.5-0.3c-0.1-0.2,0-0.3,0.1-0.4c0.4-0.3,0.8-0.6,1.2-0.9c0.4-0.2,0.9-0.5,1.4-0.6c1-0.4,2-0.4,3.1-0.3
				c1,0.1,2,0.5,2.9,1.1c0.8,0.6,1.5,1.3,2,2.2c0.1,0.1,0,0.3-0.1,0.4C54.9,36.1,54.7,36.1,54.6,36L54.6,36z"/>
		</g>
		<g>
			<path class="st6" d="M44.1,46.4c-0.4-0.2-0.9-0.2-1.3-0.1c-0.4,0.1-0.8,0.3-1,0.6l0,0c0,0,0,0.1,0,0.1c0,0.1,0.1,0.2,0.3,0.2
				c0.4,0,0.7,0,1.1-0.1c0.1,0,0.1,0,0.1-0.1c0-0.1,0-0.1-0.1-0.1c-0.2,0-0.3,0-0.5,0c0.1-0.1,0.3-0.1,0.4-0.2
				c0.3-0.1,0.6-0.2,1-0.2h0c0,0,0.1,0,0.1,0C44.2,46.4,44.2,46.4,44.1,46.4z"/>
			<path class="st6" d="M44.1,46.4c-0.4-0.2-0.9-0.2-1.3-0.1c-0.4,0.1-0.8,0.3-1,0.6l0,0c0,0,0,0.1,0,0.1c0,0.1,0.1,0.2,0.3,0.2
				c0.4,0,0.7,0,1.1-0.1c0.1,0,0.1,0,0.1-0.1c0-0.1,0-0.1-0.1-0.1c-0.2,0-0.3,0-0.5,0c0.1-0.1,0.3-0.1,0.4-0.2
				c0.3-0.1,0.6-0.2,1-0.2h0c0,0,0.1,0,0.1,0C44.2,46.4,44.2,46.4,44.1,46.4z"/>
			<path class="st6" d="M37.8,46.4c0.4-0.2,0.9-0.2,1.3-0.1c0.4,0.1,0.8,0.3,1,0.6l0,0c0,0,0,0.1,0,0.1c0,0.1-0.1,0.2-0.3,0.2
				c-0.4,0-0.7,0-1.1-0.1c-0.1,0-0.1,0-0.1-0.1c0-0.1,0-0.1,0.1-0.1c0.2,0,0.3,0,0.5,0c-0.1-0.1-0.3-0.1-0.4-0.2
				c-0.3-0.1-0.6-0.2-1-0.2h0c0,0-0.1,0-0.1,0C37.7,46.4,37.7,46.4,37.8,46.4z"/>
			<path class="st6" d="M37.8,46.4c0.4-0.2,0.9-0.2,1.3-0.1c0.4,0.1,0.8,0.3,1,0.6l0,0c0,0,0,0.1,0,0.1c0,0.1-0.1,0.2-0.3,0.2
				c-0.4,0-0.7,0-1.1-0.1c-0.1,0-0.1,0-0.1-0.1c0-0.1,0-0.1,0.1-0.1c0.2,0,0.3,0,0.5,0c-0.1-0.1-0.3-0.1-0.4-0.2
				c-0.3-0.1-0.6-0.2-1-0.2h0c0,0-0.1,0-0.1,0C37.7,46.4,37.7,46.4,37.8,46.4z"/>
		</g>
		<g>
			<g>
				<path class="st6" d="M57.6,37.3c0.3,0,0.3-0.7,0-0.7C57.2,36.7,57.3,37.3,57.6,37.3L57.6,37.3z"/>
			</g>
		</g>
		<g>
			<path class="st6" d="M25.1,77.9l-0.8,12.8c0,0.3-0.3,0.6-0.6,0.6c-0.3,0-0.6-0.3-0.6-0.6c0,0,0,0,0,0l1.7-12.7
				c0-0.1,0.1-0.2,0.2-0.2C25,77.7,25.1,77.8,25.1,77.9z"/>
		</g>
		<g>
			<path class="st6" d="M56.6,77.9l1.7,12.7c0,0.3-0.2,0.6-0.5,0.7c-0.3,0-0.6-0.2-0.7-0.5c0,0,0,0,0,0l-0.8-12.8
				c0-0.1,0.1-0.2,0.2-0.2C56.5,77.7,56.6,77.8,56.6,77.9z"/>
		</g>
		<g>
			<g>
				<path class="st5" d="M20.7,42.5c0,0-0.1-1.1,0-2.7"/>
				<path class="st6" d="M20.5,42.5c-0.1-0.2-0.2-0.5-0.2-0.7c0-0.2-0.1-0.5-0.1-0.7c0-0.2,0-0.5,0.1-0.7c0-0.2,0.1-0.5,0.2-0.7
					c0-0.1,0.2-0.2,0.3-0.1c0.1,0,0.1,0.1,0.1,0.1c0.1,0.2,0.1,0.5,0.1,0.7c0,0.2,0,0.4,0,0.7c0,0.2,0,0.4,0,0.7
					c0,0.2-0.1,0.4-0.2,0.7l0,0C20.8,42.6,20.7,42.6,20.5,42.5C20.6,42.6,20.5,42.5,20.5,42.5z"/>
			</g>
			<g>
				<path class="st6" d="M19.5,38.8c0.6,0.2,1.1,0.5,1.5,0.9c0.4,0.4,0.8,0.9,1,1.5c0.3,0.5,0.5,1.1,0.6,1.7
					c0.1,0.3,0.1,0.6,0.1,0.9c0,0.3,0,0.6,0,0.9c0,0.1-0.1,0.2-0.2,0.2c-0.1,0-0.2-0.1-0.2-0.1l0,0c-0.2-0.5-0.3-1.1-0.5-1.6
					c-0.2-0.5-0.4-1-0.6-1.5c-0.3-0.5-0.5-0.9-0.9-1.3c-0.3-0.4-0.7-0.8-1.1-1.1l0,0c-0.1-0.1-0.1-0.1,0-0.2
					C19.4,38.8,19.4,38.8,19.5,38.8z"/>
			</g>
		</g>
		<g>
			<g>
				<path class="st5" d="M60.5,42.5c0,0,0.1-1.1,0-2.7"/>
				<path class="st6" d="M60.3,42.5c-0.1-0.2-0.1-0.5-0.2-0.7c0-0.2,0-0.4,0-0.7c0-0.2,0-0.4,0-0.7c0-0.2,0.1-0.4,0.1-0.7
					c0-0.1,0.2-0.2,0.3-0.1c0.1,0,0.1,0.1,0.1,0.1c0.1,0.2,0.1,0.5,0.2,0.7c0.1,0.2,0,0.5,0.1,0.7c0,0.2,0,0.5-0.1,0.7
					c-0.1,0.2-0.1,0.5-0.2,0.7C60.6,42.6,60.5,42.6,60.3,42.5C60.4,42.5,60.3,42.5,60.3,42.5L60.3,42.5z"/>
			</g>
			<g>
				<path class="st6" d="M61.7,39.1c-0.4,0.3-0.8,0.7-1.1,1.1c-0.3,0.4-0.6,0.9-0.9,1.3c-0.3,0.5-0.4,1-0.6,1.5
					c-0.2,0.5-0.3,1.1-0.5,1.6l0,0c0,0.1-0.1,0.2-0.3,0.1c-0.1,0-0.1-0.1-0.1-0.2c0-0.3,0-0.6,0-0.9c0-0.3,0.1-0.6,0.1-0.9
					c0.1-0.6,0.3-1.1,0.6-1.7c0.3-0.5,0.6-1,1-1.5c0.4-0.4,0.9-0.8,1.5-0.9c0.1,0,0.2,0,0.2,0.1C61.8,39,61.8,39.1,61.7,39.1
					L61.7,39.1z"/>
			</g>
		</g>
		<g>
			<path class="st6" d="M58,30.1c0.6,0.3,1.1,0.6,1.6,1c0.5,0.4,0.9,0.9,1.3,1.4c0.4,0.5,0.6,1.1,0.8,1.7c0.2,0.6,0.2,1.2,0.2,1.8
				l-0.3,0c-0.1-0.6-0.1-1.2-0.4-1.7c-0.2-0.5-0.5-1-0.8-1.5c-0.4-0.4-0.8-0.8-1.2-1.2c-0.5-0.3-1-0.6-1.5-0.8L58,30.1z"/>
		</g>
		<g>
			<path class="st8" d="M62.2,29c0.2,0.1,0.4,0,0.5-0.3c1.9-3.7,2.7-8.7-0.2-12.1c-2.4-2.9-7-5.9-10.8-3.2c-1-3.4-4-6.2-7.8-6.8
				c-4.6-0.8-9.7,0.2-13.5,2.5c-7.8,5.4-13.4,8.3-13.4,8.3c-0.2-0.2,0.6,1.8,1.7,2.7c-2,2.5-2.4,5.9-1.4,8.8
				c0.9,2.6,6.6,11.1,6.7,10.7c-0.8-6.2,0.2-12.3,1.2-14.5c0.2,0,0.5-0.1,0.7-0.1c-1,2-0.7,4-0.3,6.1c0,0,0,0,0,0
				c0,0.1,5.4-6.8,14-6c0.2,0,0.3-0.1,0.4-0.3c0.7,0.5,1.7,0.8,2.5,0.8c0.9,0,2-0.4,2.9-1c1.3,0,2.4-0.6,3.7-1.3
				c0.4-0.2,0.9-0.6,1.2-0.9c0.2,1.6,1.5,3,3,3.7c1.4,0.6,2.8,0.9,4.2,1.3c0.1,0.5-0.1,11.4-0.1,11.4c1-1.6,3-2.6,4.3-2.4
				C61.8,36.3,64.4,31.7,62.2,29z"/>
			<g>
				<path class="st5" d="M18.8,20.1c0,0,3.9,3.6,8.7,3"/>
				<path class="st6" d="M19.2,19.7c0.5,0.5,1.1,1,1.8,1.4c0.6,0.4,1.3,0.8,2,1.1c0.7,0.3,1.4,0.5,2.2,0.6c0.7,0.2,1.5,0.1,2.3,0.1
					l0.1,0.4c-0.8,0.1-1.6,0.2-2.4,0.1c-0.8-0.1-1.6-0.2-2.4-0.5c-0.8-0.3-1.5-0.6-2.2-1c-0.7-0.4-1.4-0.8-2.1-1.4L19.2,19.7z"/>
			</g>
			<path class="st9" d="M45.5,24.6c0,0,1.2-4.4-2-6.2c-3.4-1.9-11.2-2.1-18.2,7.3"/>
			<path class="st10" d="M40.1,24.8c0,0-2.6-2.4-7.1-1.6c0,0-4.8,0.3-7.2,7.9"/>
			<g>
				<path class="st6" d="M35.5,20c1-0.2,1.9-0.2,2.9,0c1,0.1,1.9,0.4,2.8,0.9c0.9,0.5,1.7,1.2,2.2,2c0.6,0.8,0.9,1.8,1.2,2.8
					l-0.9,0.2c-0.2-0.9-0.4-1.8-0.9-2.5c-0.5-0.8-1.1-1.4-1.9-1.9c-0.8-0.5-1.7-0.8-2.6-0.9c-0.9-0.2-1.9-0.2-2.8-0.1L35.5,20z"/>
			</g>
			<g>
				<path class="st6" d="M17.2,17.2c3.2,1.4,7.1,1.5,10.3,0.1c3.2-1.5,6.4-3.2,9.9-4.2c1.7-0.5,3.5-0.9,5.4-0.9
					c1.8,0,3.7,0.5,5.2,1.6c1.4,1.1,2.8,2.4,3.5,4.3c0.3,0.9,0.4,1.9,0.1,2.9c-0.3,0.9-0.8,1.8-1.6,2.4l-0.5-0.7
					c0.6-0.5,1.1-1.2,1.3-2c0.2-0.8,0.2-1.6,0-2.4c-0.5-1.6-1.8-2.9-3.2-3.9c-1.3-1-3.1-1.5-4.8-1.6c-1.7,0-3.5,0.3-5.2,0.8
					c-3.4,1-6.6,2.6-9.9,4.1c-3.4,1.4-7.3,1.2-10.6-0.2L17.2,17.2z"/>
			</g>
			<path class="st10" d="M51.7,13.4c0,0,0.4,4.9-1.4,8.9"/>
			<g>
				<path class="st6" d="M25.7,25.3c-0.3,0.8-0.6,1.6-1.1,2.3c-0.4,0.7-0.9,1.4-1.5,2.1c-0.6,0.6-1.2,1.2-2,1.6
					c-0.8,0.4-1.6,0.6-2.4,0.6l0-0.3c0.8-0.1,1.6-0.3,2.2-0.7c0.7-0.4,1.2-1,1.7-1.6c0.5-0.6,0.9-1.3,1.3-2c0.3-0.7,0.6-1.5,0.9-2.2
					L25.7,25.3z"/>
			</g>
			<g>
				<path class="st6" d="M50.9,19.3c1.1-1.6,3.1-2.1,4.8-1.9c1.7,0.2,3.4,0.8,4.7,2c0.7,0.6,1.2,1.3,1.6,2c0.4,0.8,0.6,1.6,0.8,2.4
					c0.3,1.7,0.2,3.4,0,5l-0.3,0c0.2-1.6,0.2-3.3-0.2-4.9c-0.2-0.8-0.4-1.6-0.8-2.3c-0.4-0.7-0.9-1.3-1.5-1.8
					c-1.2-1-2.8-1.5-4.4-1.7c-0.8-0.1-1.6,0.1-2.3,0.3c-0.7,0.3-1.4,0.8-1.7,1.3L50.9,19.3z"/>
			</g>
			<path class="st10" d="M57.5,27.3c0,0,2.8,0.3,4.6,1.7"/>
			<g>
				<path class="st6" d="M26.8,24.2C25.9,24,25,24,24.1,24c-0.9,0-1.8,0.1-2.7,0.3c-0.9,0.2-1.7,0.6-2.4,1.1c-0.7,0.5-1.3,1.2-1.8,2
					L17,27.2c0.5-0.8,1-1.6,1.8-2.2c0.8-0.6,1.6-1,2.5-1.3c0.9-0.3,1.8-0.4,2.8-0.5c0.9-0.1,1.9-0.1,2.9,0.1L26.8,24.2z"/>
			</g>
		</g>
	</g>
</g>
<g>
	<circle class="st11" cx="32.6" cy="39.3" r="0.8"/>
	<circle class="st11" cx="48.9" cy="39.3" r="0.8"/>
</g>
</svg>
