<?xml version="1.0" encoding="utf-8"?>
<!-- Generator: Adobe Illustrator 19.0.0, SVG Export Plug-In . SVG Version: 6.00 Build 0)  -->
<svg version="1.1" id="OBJECTS" xmlns="http://www.w3.org/2000/svg" xmlns:xlink="http://www.w3.org/1999/xlink" x="0px" y="0px"
	 viewBox="0 0 81.5 81.5" style="enable-background:new 0 0 81.5 81.5;" xml:space="preserve">
<style type="text/css">
	.st0{fill:none;stroke:#262424;stroke-width:0.8119;stroke-miterlimit:10;}
	.st1{clip-path:url(#SVGID_2_);fill:none;stroke:#262424;stroke-width:0.8119;stroke-miterlimit:10;}
	.st2{clip-path:url(#SVGID_2_);}
	.st3{fill:#FFFFFF;stroke:#262424;stroke-width:1.6237;stroke-miterlimit:10;}
	.st4{fill:#FFFFFF;stroke:#262424;stroke-width:1.2178;stroke-miterlimit:10;}
	.st5{fill:#262424;}
	.st6{fill:#FCBC6F;stroke:#262424;stroke-miterlimit:10;}
	.st7{fill:#FFFFFF;stroke:#262424;stroke-width:1.2602;stroke-linecap:round;stroke-linejoin:round;stroke-miterlimit:10;}
	.st8{fill:#FFFFFF;}
	.st9{fill:#B250FF;stroke:#262424;stroke-width:1.3375;stroke-linecap:round;stroke-linejoin:round;stroke-miterlimit:10;}
	.st10{fill:#FFFFFF;stroke:#262424;stroke-width:0.6089;stroke-miterlimit:10;}
	.st11{fill:#FFFFFF;stroke:#262424;stroke-width:1.2178;stroke-linecap:round;stroke-linejoin:round;stroke-miterlimit:10;}
	.st12{opacity:0.3;fill:#B250FF;}
	.st13{fill:#FFFFFF;stroke:#262424;stroke-width:1.6237;stroke-linecap:round;stroke-linejoin:round;stroke-miterlimit:10;}
</style>
<path class="st0" d="M-12.2,0"/>
<g>
	<defs>
		<circle id="SVGID_1_" cx="40.7" cy="40.7" r="40.7"/>
	</defs>
	<use xlink:href="#SVGID_1_"  style="overflow:visible;fill:#B250FF;"/>
	<clipPath id="SVGID_2_">
		<use xlink:href="#SVGID_1_"  style="overflow:visible;"/>
	</clipPath>
	<path class="st1" d="M78.1,0"/>
	<g class="st2">
		<path class="st3" d="M63.9,75.3c-1.8-1.7-18.5-13.1-22.3-13.1c-3.8,0-20.5,11.4-22.3,13.1c-1.8,1.7-4,16.4-4,16.4h26.3h26.3
			C67.9,91.7,65.7,77,63.9,75.3z"/>
		<path class="st4" d="M67.9,91.7H15.3c0,0,2.2-14.7,4-16.4c0.9-0.8,5-3.8,9.6-6.7c0.7-0.4,1.4-0.9,2.1-1.3c0.9-0.6,1.9-1.1,2.8-1.7
			c3.4-2,6.4-3.4,7.8-3.4c1.4,0,4.6,1.6,8.1,3.6c1,0.6,2.1,1.2,3.1,1.9c0.7,0.4,1.4,0.9,2,1.3c4.4,2.8,8.3,5.6,9.1,6.4
			C65.7,77,67.9,91.7,67.9,91.7z"/>
		<g>
			<path class="st5" d="M57.5,79l1.7,12.7c0,0.3-0.2,0.6-0.5,0.7c-0.3,0-0.6-0.2-0.7-0.5c0,0,0,0,0,0L57.1,79c0-0.1,0.1-0.2,0.2-0.2
				C57.4,78.8,57.5,78.9,57.5,79z"/>
		</g>
		<path class="st6" d="M54.8,68.9L41.4,90.1L28.9,68.5c0.7-0.4,1.4-0.9,2.1-1.3c0.9-0.6,1.9-1.1,2.8-1.7c3.4-2,6.4-3.4,7.8-3.4
			c1.4,0,4.6,1.6,8.1,3.6c1,0.6,2.1,1.2,3.1,1.9C53.4,68,54.1,68.5,54.8,68.9z"/>
		<path class="st4" d="M52.7,67.6L41.6,85.4L31,67.2c0.9-0.6,1.9-1.1,2.8-1.7c3.4-2,6.4-3.4,7.8-3.4c1.4,0,4.6,1.6,8.1,3.6
			C50.7,66.3,51.7,67,52.7,67.6z"/>
		<g>
			<path class="st7" d="M66.9,25.5C61.8,11.4,44.3,9.9,41.6,9.8v0c0,0-0.1,0-0.2,0c-0.1,0-0.2,0-0.2,0v0c-3.7,0-21.2,2.3-25.9,16.6
				C6.1,54.1,32.7,61.9,32.7,61.9s-2.5-3.8-4.6-6.7c0,0,5.6,4.7,13.1,5.3v0c0.1,0,0.1,0,0.2,0c0.1,0,0.1,0,0.2,0v0
				c7.5-0.6,13.1-5.3,13.1-5.3c-2,2.9-5,6.7-5,6.7S76.1,51,66.9,25.5z"/>
			<g>
				<path class="st5" d="M18.2,33.1c-0.4,2.8-0.3,5.7,0.2,8.4c0.5,2.8,1.4,5.5,2.8,8c0.3,0.6,0.7,1.2,1.1,1.8
					c0.4,0.6,0.7,1.2,1.2,1.7l1.3,1.7l1.5,1.5L27,57c0.3,0.2,0.5,0.5,0.8,0.7l1.6,1.4c1.1,0.9,2.3,1.6,3.5,2.4l0,0
					c0.2,0.1,0.3,0.4,0.1,0.7c-0.1,0.2-0.4,0.3-0.7,0.1c0,0,0,0,0,0c-1.2-0.8-2.4-1.6-3.5-2.5l-1.6-1.4c-0.3-0.2-0.6-0.5-0.8-0.7
					l-0.7-0.8l-1.5-1.6l-1.3-1.7c-0.5-0.6-0.8-1.2-1.2-1.8c-0.4-0.6-0.8-1.2-1.1-1.9c-1.4-2.6-2.2-5.3-2.7-8.2
					c-0.5-2.8-0.5-5.7-0.1-8.6c0-0.1,0.1-0.1,0.2-0.1C18.2,33,18.2,33,18.2,33.1L18.2,33.1z"/>
			</g>
			<g>
				<path class="st5" d="M65.2,33.1c0.5,2.7,0.5,5.6,0,8.3c-0.5,2.7-1.4,5.4-2.7,7.8c-0.3,0.6-0.7,1.2-1.1,1.8
					c-0.2,0.3-0.4,0.6-0.6,0.9l-0.6,0.8c-0.4,0.5-0.8,1.1-1.3,1.6l-1.4,1.5c-0.2,0.2-0.5,0.5-0.7,0.7l-0.8,0.7l-1.6,1.4
					c-1.1,0.8-2.3,1.6-3.4,2.4c-0.2,0.1-0.5,0.1-0.7-0.1c-0.1-0.2-0.1-0.5,0.1-0.7c0,0,0,0,0,0l0,0c1.1-0.8,2.3-1.5,3.4-2.3l1.6-1.3
					l0.8-0.6c0.3-0.2,0.5-0.5,0.7-0.7l1.4-1.4c0.5-0.5,0.9-1,1.3-1.6l0.6-0.8c0.2-0.3,0.4-0.6,0.6-0.8c0.4-0.6,0.8-1.1,1.1-1.7
					c1.3-2.4,2.3-5,2.8-7.6c0.5-2.7,0.6-5.5,0.2-8.1l0,0c0-0.1,0-0.2,0.1-0.2C65.1,32.9,65.2,33,65.2,33.1z"/>
			</g>
		</g>
		<g>
			<g>
				<path class="st4" d="M55.8,41.2c0,0,3.3-4.2,5.2-3.8c1.9,0.4,1.9,2.4,1.9,2.4s-0.3,7.2-0.7,8.1c-0.3,0.9-4,1.4-5.9,1.1
					L55.8,41.2z"/>
				<path class="st4" d="M25.7,41.2c0,0-3.3-4.2-5.2-3.8c-1.9,0.4-1.9,2.4-1.9,2.4s0.3,7.2,0.7,8.1c0.3,0.9,4,1.4,5.9,1.1L25.7,41.2
					z"/>
			</g>
			<g>
				<g>
					<path class="st8" d="M20.8,44c0,0-0.1-1.1,0-2.7"/>
					<path class="st5" d="M20.7,44c-0.1-0.2-0.2-0.5-0.2-0.7c0-0.2-0.1-0.5-0.1-0.7c0-0.2,0-0.5,0.1-0.7c0-0.2,0.1-0.5,0.2-0.7
						c0-0.1,0.2-0.2,0.3-0.1c0.1,0,0.1,0.1,0.1,0.1c0.1,0.2,0.1,0.5,0.1,0.7c0,0.2,0,0.4,0,0.7c0,0.2,0,0.4,0,0.7
						c0,0.2-0.1,0.4-0.2,0.7l0,0C21,44,20.9,44.1,20.7,44C20.7,44,20.7,44,20.7,44z"/>
				</g>
				<g>
					<path class="st5" d="M19.7,40.3c0.6,0.2,1.1,0.5,1.5,0.9c0.4,0.4,0.8,0.9,1,1.5c0.3,0.5,0.5,1.1,0.6,1.7
						c0.1,0.3,0.1,0.6,0.1,0.9c0,0.3,0,0.6,0,0.9c0,0.1-0.1,0.2-0.2,0.2c-0.1,0-0.2-0.1-0.2-0.1l0,0c-0.2-0.5-0.3-1.1-0.5-1.6
						c-0.2-0.5-0.4-1-0.6-1.5c-0.3-0.5-0.5-0.9-0.9-1.3c-0.3-0.4-0.7-0.8-1.1-1.1l0,0c-0.1-0.1-0.1-0.1,0-0.2
						C19.6,40.3,19.6,40.3,19.7,40.3z"/>
				</g>
			</g>
			<g>
				<g>
					<path class="st8" d="M60.7,44c0,0,0.1-1.1,0-2.7"/>
					<path class="st5" d="M60.5,43.9c-0.1-0.2-0.1-0.5-0.2-0.7c0-0.2,0-0.4,0-0.7c0-0.2,0-0.4,0-0.7c0-0.2,0.1-0.4,0.1-0.7
						c0-0.1,0.2-0.2,0.3-0.1c0.1,0,0.1,0.1,0.1,0.1c0.1,0.2,0.1,0.5,0.2,0.7c0.1,0.2,0,0.5,0.1,0.7c0,0.2,0,0.5-0.1,0.7
						c-0.1,0.2-0.1,0.5-0.2,0.7C60.8,44.1,60.7,44.1,60.5,43.9C60.5,44,60.5,44,60.5,43.9L60.5,43.9z"/>
				</g>
				<g>
					<path class="st5" d="M61.9,40.6c-0.4,0.3-0.8,0.7-1.1,1.1c-0.3,0.4-0.6,0.9-0.9,1.3c-0.3,0.5-0.4,1-0.6,1.5
						c-0.2,0.5-0.3,1.1-0.5,1.6l0,0c0,0.1-0.1,0.2-0.3,0.1c-0.1,0-0.1-0.1-0.1-0.2c0-0.3,0-0.6,0-0.9c0-0.3,0.1-0.6,0.1-0.9
						c0.1-0.6,0.3-1.1,0.6-1.7c0.3-0.5,0.6-1,1-1.5c0.4-0.4,0.9-0.8,1.5-0.9c0.1,0,0.2,0,0.2,0.1C62,40.5,62,40.5,61.9,40.6
						L61.9,40.6z"/>
				</g>
			</g>
		</g>
		<circle class="st9" cx="21.6" cy="47.5" r="1.6"/>
		<circle class="st9" cx="60.6" cy="47.5" r="1.6"/>
		<g>
			<polyline class="st8" points="36.9,67.5 36.9,55.1 46.3,55.1 46.3,67.5 			"/>
			<path class="st5" d="M36.6,67.5c-0.1-2.1-0.2-4.1-0.3-6.2c-0.1-2.1-0.1-4.1-0.1-6.2c0-0.3,0.3-0.6,0.6-0.6l0,0
				c3.1-0.1,6.3,0,9.4,0c0.3,0,0.6,0.3,0.6,0.6c0,2.1-0.1,4.1-0.1,6.2c0,2.1-0.1,4.1-0.2,6.2c0,0.2-0.2,0.3-0.3,0.3
				c-0.2,0-0.3-0.1-0.3-0.3c-0.1-2.1-0.2-4.1-0.2-6.2c0-2.1-0.1-4.1-0.1-6.2l0.6,0.6c-3.1,0-6.3,0.1-9.4,0l0.6-0.6
				c0,2.1,0,4.1-0.1,6.2c0,2.1-0.1,4.1-0.3,6.2c0,0.1-0.1,0.2-0.3,0.2C36.7,67.7,36.6,67.6,36.6,67.5z"/>
		</g>
		<path class="st4" d="M57.2,49.6c0,0-0.3,3.2-1.8,4.6c-2.3,2.1-9.6,6.6-14.5,6.6c-1.7,0-3.7-0.6-5.7-1.4c-3.7-1.5-7.2-3.8-8.7-5.2
			c-1.5-1.3-1.8-4.6-1.8-4.6s-0.3-3.4-0.5-8c-0.4-8.3-0.7-20.2,1.2-22.6C29.1,14.4,41,14,41,14s11.8,0.3,15.6,4.9
			C59.5,22.6,57.2,49.6,57.2,49.6z"/>
		<g>
			<g>
				<path class="st5" d="M26.9,36.1c0.5-0.8,1.2-1.5,2-2.1c0.8-0.6,1.7-1,2.7-1.2c1-0.2,2.1-0.4,3.1,0.1c1,0.4,1.8,1,2.4,1.8
					c0,0,0,0.1,0,0.1c0,0,0,0-0.1,0l0,0c-0.5,0-1-0.1-1.4-0.2c-0.5,0-0.9-0.2-1.3-0.2c-0.8-0.1-1.6-0.4-2.5-0.3
					c-1.7,0.1-3.4,0.9-4.8,2.1l0,0C27,36.2,26.9,36.2,26.9,36.1C26.8,36.1,26.8,36.1,26.9,36.1z"/>
			</g>
			<g>
				<path class="st5" d="M55.2,36.2c-1.4-1.2-3.1-2-4.8-2.1c-0.9,0-1.7,0.2-2.5,0.3c-0.4,0-0.8,0.2-1.3,0.2
					c-0.4,0.1-0.9,0.2-1.4,0.2l0,0c0,0-0.1,0-0.1-0.1c0,0,0,0,0-0.1c0.6-0.9,1.4-1.5,2.4-1.8c1-0.4,2.1-0.3,3.1-0.1
					c1,0.2,1.9,0.6,2.7,1.2c0.8,0.6,1.5,1.3,2,2.1c0,0,0,0.1,0,0.1C55.3,36.2,55.2,36.2,55.2,36.2L55.2,36.2z"/>
			</g>
		</g>
		<path class="st5" d="M45.8,54c0,0-1.7,0.8-4.7,0.8C38,54.7,36.3,54,36.3,54s1.1,1.7,4.7,1.7C44.7,55.6,45.8,54,45.8,54z"/>
		<path class="st10" d="M35.1,50.4c0,0,0.8-0.6,1.7-0.6h8.6c0.9,0,1.7,0.6,1.7,0.6C47.1,54.2,35.1,54.2,35.1,50.4z"/>
		<g>
			<path class="st5" d="M44.3,46.6c-0.4-0.2-0.9-0.2-1.3-0.1c-0.4,0.1-0.8,0.3-1,0.6l0,0c0,0,0,0.1,0,0.1c0,0.1,0.1,0.2,0.3,0.2
				c0.4,0,0.7,0,1.1-0.1c0.1,0,0.1,0,0.1-0.1c0-0.1,0-0.1-0.1-0.1c-0.2,0-0.3,0-0.5,0c0.1-0.1,0.3-0.1,0.4-0.2
				c0.3-0.1,0.6-0.2,1-0.2h0c0,0,0.1,0,0.1,0C44.3,46.7,44.3,46.6,44.3,46.6z"/>
			<path class="st5" d="M44.3,46.6c-0.4-0.2-0.9-0.2-1.3-0.1c-0.4,0.1-0.8,0.3-1,0.6l0,0c0,0,0,0.1,0,0.1c0,0.1,0.1,0.2,0.3,0.2
				c0.4,0,0.7,0,1.1-0.1c0.1,0,0.1,0,0.1-0.1c0-0.1,0-0.1-0.1-0.1c-0.2,0-0.3,0-0.5,0c0.1-0.1,0.3-0.1,0.4-0.2
				c0.3-0.1,0.6-0.2,1-0.2h0c0,0,0.1,0,0.1,0C44.3,46.7,44.3,46.6,44.3,46.6z"/>
			<path class="st5" d="M37.9,46.6c0.4-0.2,0.9-0.2,1.3-0.1c0.4,0.1,0.8,0.3,1,0.6l0,0c0,0,0,0.1,0,0.1c0,0.1-0.1,0.2-0.3,0.2
				c-0.4,0-0.7,0-1.1-0.1c-0.1,0-0.1,0-0.1-0.1c0-0.1,0-0.1,0.1-0.1c0.2,0,0.3,0,0.5,0c-0.1-0.1-0.3-0.1-0.4-0.2
				c-0.3-0.1-0.6-0.2-1-0.2h0c0,0-0.1,0-0.1,0C37.8,46.7,37.9,46.6,37.9,46.6z"/>
			<path class="st5" d="M37.9,46.6c0.4-0.2,0.9-0.2,1.3-0.1c0.4,0.1,0.8,0.3,1,0.6l0,0c0,0,0,0.1,0,0.1c0,0.1-0.1,0.2-0.3,0.2
				c-0.4,0-0.7,0-1.1-0.1c-0.1,0-0.1,0-0.1-0.1c0-0.1,0-0.1,0.1-0.1c0.2,0,0.3,0,0.5,0c-0.1-0.1-0.3-0.1-0.4-0.2
				c-0.3-0.1-0.6-0.2-1-0.2h0c0,0-0.1,0-0.1,0C37.8,46.7,37.9,46.6,37.9,46.6z"/>
		</g>
		<g>
			<path class="st5" d="M25.9,79l-0.8,12.8c0,0.3-0.3,0.6-0.6,0.6c-0.3,0-0.6-0.3-0.6-0.6c0,0,0,0,0,0L25.5,79
				c0-0.1,0.1-0.2,0.2-0.2C25.8,78.8,25.9,78.9,25.9,79z"/>
		</g>
		<g>
			<g>
				<path class="st5" d="M53.6,40.6c0-0.8-0.5-1.7-1.2-2.2c-0.7-0.5-1.6-0.7-2.5-0.7c-0.8,0-1.7,0.2-2.5,0.6
					c-0.7,0.5-1.2,1.4-1.1,2.2c0.2-0.8,0.7-1.4,1.4-1.7c0.7-0.3,1.4-0.4,2.2-0.4c0.8,0,1.5,0.1,2.2,0.4
					C52.8,39.2,53.3,39.8,53.6,40.6z"/>
				<path class="st5" d="M53.6,40.6c0-0.8-0.5-1.7-1.2-2.2c-0.7-0.5-1.6-0.7-2.5-0.7c-0.8,0-1.7,0.2-2.5,0.6
					c-0.7,0.5-1.2,1.4-1.1,2.2c0.2-0.8,0.7-1.4,1.4-1.7c0.7-0.3,1.4-0.4,2.2-0.4c0.8,0,1.5,0.1,2.2,0.4
					C52.8,39.2,53.3,39.8,53.6,40.6z"/>
				<path class="st5" d="M48,37.4c0.7-0.3,1.5-0.3,2.2-0.3c0.7,0.1,1.5,0.3,2.1,0.6c0.6,0.3,1.1,0.9,1.3,1.6
					c0.6,0.3,1.7,0.6,2.1,0.6c-0.8,0.9-2.1,0.7-2.1,0.7c-0.1-0.6-0.8-1.2-0.8-1.2l0.3-0.3c0,0,0.1,0,0.3,0.1
					c-0.3-0.5-0.7-0.9-1.3-1.1c-0.6-0.3-1.3-0.5-2-0.6c-0.7-0.1-1.4,0-2,0.2c-0.6,0.2-1.3,0.6-1.7,1.2C46.4,38.8,47.3,37.6,48,37.4z
					"/>
				<path class="st5" d="M48,37.4c0.7-0.3,1.5-0.3,2.2-0.3c0.7,0.1,1.5,0.3,2.1,0.6c0.6,0.3,1.1,0.9,1.3,1.6
					c0.6,0.3,1.7,0.6,2.1,0.6c-0.8,0.9-2.1,0.7-2.1,0.7c-0.1-0.6-0.8-1.2-0.8-1.2l0.3-0.3c0,0,0.1,0,0.3,0.1
					c-0.3-0.5-0.7-0.9-1.3-1.1c-0.6-0.3-1.3-0.5-2-0.6c-0.7-0.1-1.4,0-2,0.2c-0.6,0.2-1.3,0.6-1.7,1.2C46.4,38.8,47.3,37.6,48,37.4z
					"/>
			</g>
			<g>
				<path class="st5" d="M28.6,40.6c0-0.8,0.5-1.7,1.2-2.2c0.7-0.5,1.6-0.7,2.5-0.7c0.8,0,1.7,0.2,2.5,0.6c0.7,0.5,1.2,1.4,1.1,2.2
					c-0.2-0.8-0.7-1.4-1.4-1.7c-0.7-0.3-1.4-0.4-2.2-0.4c-0.8,0-1.5,0.1-2.2,0.4C29.4,39.2,28.8,39.8,28.6,40.6z"/>
				<path class="st5" d="M28.6,40.6c0-0.8,0.5-1.7,1.2-2.2c0.7-0.5,1.6-0.7,2.5-0.7c0.8,0,1.7,0.2,2.5,0.6c0.7,0.5,1.2,1.4,1.1,2.2
					c-0.2-0.8-0.7-1.4-1.4-1.7c-0.7-0.3-1.4-0.4-2.2-0.4c-0.8,0-1.5,0.1-2.2,0.4C29.4,39.2,28.8,39.8,28.6,40.6z"/>
				<path class="st5" d="M34.2,37.4c-0.7-0.3-1.5-0.3-2.2-0.3c-0.7,0.1-1.5,0.3-2.1,0.6c-0.6,0.3-1.1,0.9-1.3,1.6
					c-0.6,0.3-1.7,0.6-2.1,0.6c0.8,0.9,2.1,0.7,2.1,0.7c0.1-0.6,0.8-1.2,0.8-1.2l-0.3-0.3c0,0-0.1,0-0.3,0.1
					c0.3-0.5,0.7-0.9,1.3-1.1c0.6-0.3,1.3-0.5,2-0.6c0.7-0.1,1.4,0,2,0.2c0.6,0.2,1.3,0.6,1.7,1.2C35.7,38.8,34.9,37.6,34.2,37.4z"
					/>
				<path class="st5" d="M34.2,37.4c-0.7-0.3-1.5-0.3-2.2-0.3c-0.7,0.1-1.5,0.3-2.1,0.6c-0.6,0.3-1.1,0.9-1.3,1.6
					c-0.6,0.3-1.7,0.6-2.1,0.6c0.8,0.9,2.1,0.7,2.1,0.7c0.1-0.6,0.8-1.2,0.8-1.2l-0.3-0.3c0,0-0.1,0-0.3,0.1
					c0.3-0.5,0.7-0.9,1.3-1.1c0.6-0.3,1.3-0.5,2-0.6c0.7-0.1,1.4,0,2,0.2c0.6,0.2,1.3,0.6,1.7,1.2C35.7,38.8,34.9,37.6,34.2,37.4z"
					/>
			</g>
		</g>
		<g>
			<path class="st11" d="M22.9,16.9c-5,6.9-4.7,18.7,1.4,28c0,0-1.4-13.5,7.2-21.1c0,0,2.5,17.5,18.4,20.9c0,0-5-11.8-3.1-21.6
				c0,0,0.9,6.5,5.9,11.7c5,5.1,4.7,7.8,4.8,10.4c0,0,9.9-20.3,0.5-29.9C48.1,5,29.2,8.2,22.9,16.9z"/>
			<g>
				<path class="st5" d="M36.4,9.7c-1.6,1.9-2.9,4.2-3.7,6.6c-0.4,1.2-0.6,2.4-0.8,3.7c-0.1,1.2,0,2.5,0.2,3.7l0,0
					c0,0.3-0.2,0.6-0.5,0.7c-0.3,0-0.6-0.2-0.7-0.5c0,0,0,0,0,0c-0.1-1.3-0.2-2.7,0-4c0.2-1.3,0.5-2.6,1-3.8
					c0.5-1.2,1.1-2.4,1.8-3.5c0.7-1.1,1.5-2.1,2.4-3.1c0.1-0.1,0.2-0.1,0.3,0C36.5,9.5,36.5,9.6,36.4,9.7L36.4,9.7z"/>
			</g>
			<g>
				<path class="st5" d="M46.3,23c0-2.3,0.2-4.5,0.5-6.8c0.3-2.2,0.8-4.5,1.7-6.6c0-0.1,0.2-0.1,0.3-0.1c0.1,0,0.1,0.2,0.1,0.3l0,0
					c-0.8,2.1-1.1,4.3-1.3,6.5c-0.2,2.2-0.2,4.5-0.1,6.6l0,0c0,0.3-0.2,0.6-0.6,0.6C46.6,23.7,46.3,23.4,46.3,23
					C46.3,23.1,46.3,23.1,46.3,23z"/>
			</g>
			<g>
				<path class="st5" d="M39.9,16.4c-0.5,2.6-0.5,5.2-0.4,7.9c0.2,2.6,0.7,5.2,1.5,7.7c0.8,2.5,2.1,4.8,3.6,6.9
					c1.5,2.1,3.6,3.8,5.6,5.4l0,0c0.2,0.1,0.2,0.4,0.1,0.6S50,45.2,49.8,45c0,0,0,0,0,0c-2.1-1.7-4.2-3.4-5.7-5.7
					c-1.6-2.2-2.8-4.6-3.6-7.2c-0.8-2.6-1.3-5.2-1.4-7.9c-0.1-2.7,0-5.3,0.5-8c0-0.1,0.1-0.1,0.2-0.1C39.9,16.3,39.9,16.3,39.9,16.4
					L39.9,16.4z"/>
			</g>
			<g>
				<path class="st5" d="M53.4,18.4c1.5,1.9,2.5,4,3.4,6.1c0.8,2.2,1.4,4.5,1.8,6.8c0.3,2.3,0.5,4.7,0.3,7c0,1.2-0.2,2.3-0.3,3.5
					c-0.2,1.2-0.4,2.3-0.6,3.5c0,0.2-0.3,0.4-0.5,0.4c-0.2,0-0.4-0.3-0.4-0.5c0,0,0,0,0,0l0,0c0.2-1.1,0.5-2.3,0.6-3.4
					c0.1-1.1,0.3-2.3,0.4-3.4c0.2-2.3,0.1-4.6-0.2-6.9c-0.3-2.3-0.8-4.5-1.6-6.7c-0.8-2.2-1.8-4.3-3.2-6.1l0,0c-0.1-0.1,0-0.2,0-0.2
					C53.3,18.3,53.4,18.3,53.4,18.4z"/>
			</g>
			<g>
				<path class="st5" d="M29.1,16.5c-1.6,1.7-2.8,3.8-3.7,5.9c-0.9,2.2-1.5,4.4-2,6.7c-0.2,1.2-0.3,2.3-0.4,3.5
					C23,33.9,23,35,23.1,36.2c0,1.2,0.2,2.3,0.2,3.5c0.2,1.2,0.4,2.3,0.5,3.5l0,0c0,0.2-0.1,0.5-0.4,0.5c-0.2,0-0.5-0.1-0.5-0.4
					c0,0,0,0,0,0c-0.2-1.2-0.3-2.4-0.5-3.6c-0.1-1.2-0.2-2.4-0.2-3.6c0-1.2,0-2.4,0.1-3.6c0.1-1.2,0.3-2.4,0.5-3.6
					c0.5-2.3,1.2-4.6,2.1-6.8c1-2.2,2.2-4.2,3.9-6c0.1-0.1,0.2-0.1,0.2,0C29.2,16.3,29.2,16.4,29.1,16.5L29.1,16.5z"/>
			</g>
		</g>
		<g>
			<g>
				<ellipse class="st12" cx="31.6" cy="46.9" rx="3.7" ry="1.4"/>
				<ellipse class="st12" cx="50.6" cy="46.9" rx="3.7" ry="1.4"/>
			</g>
		</g>
	</g>
</g>
<circle class="st13" cx="32.9" cy="40.4" r="0.8"/>
<ellipse class="st13" cx="49.5" cy="40.1" rx="0.6" ry="0.6"/>
</svg>
