<?xml version="1.0" encoding="utf-8"?>
<!-- Generator: Adobe Illustrator 19.0.0, SVG Export Plug-In . SVG Version: 6.00 Build 0)  -->
<svg version="1.1" id="OBJECTS" xmlns="http://www.w3.org/2000/svg" xmlns:xlink="http://www.w3.org/1999/xlink" x="0px" y="0px"
	 viewBox="0 0 81.5 81.5" style="enable-background:new 0 0 81.5 81.5;" xml:space="preserve">
<style type="text/css">
	.st0{clip-path:url(#SVGID_2_);}
	.st1{fill:#FFFFFF;stroke:#262424;stroke-width:1.1683;stroke-linecap:round;stroke-linejoin:round;stroke-miterlimit:10;}
	.st2{fill:none;stroke:#262424;stroke-width:0.8119;stroke-miterlimit:10;}
	.st3{fill:#FFFFFF;stroke:#262424;stroke-width:1.6237;stroke-miterlimit:10;}
	.st4{fill:#FFFFFF;stroke:#262424;stroke-width:1.2178;stroke-miterlimit:10;}
	.st5{fill:#F9E02B;stroke:#262424;stroke-miterlimit:10;}
	.st6{fill:#FFFFFF;}
	.st7{fill:#262424;}
	.st8{opacity:0.3;fill:#F970D6;}
	.st9{fill:#FFFFFF;stroke:#262424;stroke-width:0.8119;stroke-linecap:round;stroke-linejoin:round;stroke-miterlimit:10;}
	.st10{fill:#FFFFFF;stroke:#262424;stroke-width:1.6237;stroke-linecap:round;stroke-linejoin:round;stroke-miterlimit:10;}
</style>
<g>
	<defs>
		<circle id="SVGID_1_" cx="40.7" cy="40.7" r="40.7"/>
	</defs>
	<use xlink:href="#SVGID_1_"  style="overflow:visible;fill:#F970D6;"/>
	<clipPath id="SVGID_2_">
		<use xlink:href="#SVGID_1_"  style="overflow:visible;"/>
	</clipPath>
	<g class="st0">
		<path class="st1" d="M19.7,47.8c0,0,1.1,14.5,13,16.4h6.7l0.5-24.3L19.7,47.8z"/>
		<path class="st2" d="M3.9,22.4"/>
		<path class="st2" d="M72.5,22.4"/>
		<path class="st3" d="M62.7,73.9c-1.8-1.7-18.5-13.1-22.3-13.1c-3.8,0-20.5,11.4-22.3,13.1c-1.8,1.7-4,16.4-4,16.4h26.3h26.3
			C66.7,90.3,64.5,75.6,62.7,73.9z"/>
		<path class="st4" d="M66.7,90.3H14.1c0,0,2.2-14.7,4-16.4c0.5-0.5,2.3-1.8,4.6-3.4c0.8-0.6,1.7-1.2,2.7-1.8
			c2.3-1.5,4.9-3.2,7.3-4.5c3.4-2,6.4-3.4,7.8-3.4c1.4,0,4.6,1.6,8.1,3.6c2.3,1.3,4.8,2.9,7,4.4c0.9,0.6,1.8,1.2,2.7,1.8
			c2.3,1.6,4,2.9,4.6,3.4C64.5,75.6,66.7,90.3,66.7,90.3z"/>
		<path class="st5" d="M58.2,70.5c-1.1,3-5,9-17.8,9s-16.6-6-17.7-9c0.8-0.6,1.7-1.2,2.7-1.8c2.3-1.5,4.9-3.2,7.3-4.5
			c3.4-2,6.4-3.4,7.8-3.4c1.4,0,4.6,1.6,8.1,3.6c2.3,1.3,4.8,2.9,7,4.4C56.4,69.3,57.3,69.9,58.2,70.5z"/>
		<path class="st4" d="M55.5,68.7c0,0-0.9,7.8-15.1,7.8s-15.1-7.8-15.1-7.8c2.3-1.5,4.9-3.2,7.3-4.5c3.4-2,6.4-3.4,7.8-3.4
			c1.4,0,4.6,1.6,8.1,3.6C50.8,65.7,53.3,67.2,55.5,68.7z"/>
		<g>
			<g>
				<path class="st4" d="M54.6,39.8c0,0,3.3-4.2,5.2-3.8c1.9,0.4,1.9,2.4,1.9,2.4s-0.3,7.2-0.7,8.1c-0.3,0.9-4,1.4-5.9,1.1
					L54.6,39.8z"/>
				<path class="st4" d="M24.4,39.8c0,0-3.3-4.2-5.2-3.8c-1.9,0.4-1.9,2.4-1.9,2.4s0.3,7.2,0.7,8.1s4,1.4,5.9,1.1L24.4,39.8z"/>
			</g>
			<g>
				<g>
					<path class="st6" d="M19.9,42.5c0,0-0.1-1.1,0-2.7"/>
					<path class="st7" d="M19.7,42.6c0,0-0.1-0.2-0.2-0.4c0-0.1-0.1-0.3-0.1-0.4c0-0.2,0-0.3,0-0.5c0-0.3,0-0.7,0.1-0.9
						c0.1-0.3,0.1-0.4,0.1-0.4c0-0.1,0.2-0.2,0.3-0.1c0.1,0,0.1,0.1,0.1,0.1c0,0,0.1,0.2,0.1,0.4c0,0.3,0.1,0.6,0.1,0.9
						c0,0.2,0,0.3,0,0.5c0,0.2,0,0.3-0.1,0.4c0,0.3-0.1,0.4-0.1,0.4l0,0C20,42.6,19.9,42.7,19.7,42.6C19.8,42.6,19.7,42.6,19.7,42.6
						z"/>
				</g>
				<g>
					<path class="st7" d="M18.7,38.9c0,0,0.5,0.1,1,0.5c0.3,0.2,0.6,0.5,0.8,0.8c0.3,0.3,0.5,0.7,0.7,1.1c0.2,0.4,0.4,0.8,0.5,1.2
						c0.1,0.4,0.2,0.8,0.2,1.1c0.1,0.3,0,0.6,0.1,0.8c0,0.2,0,0.3,0,0.3c0,0.1-0.1,0.2-0.2,0.2c-0.1,0-0.2-0.1-0.2-0.1l0,0
						c0,0,0-0.1-0.1-0.3c-0.1-0.2-0.1-0.4-0.2-0.7c-0.1-0.3-0.2-0.6-0.3-1c-0.1-0.4-0.3-0.7-0.5-1.1c-0.2-0.4-0.4-0.7-0.6-1
						c-0.2-0.3-0.4-0.6-0.6-0.8c-0.4-0.4-0.7-0.7-0.7-0.7c-0.1,0-0.1-0.1,0-0.2C18.6,38.9,18.7,38.9,18.7,38.9z"/>
				</g>
			</g>
			<g>
				<g>
					<path class="st6" d="M59.7,42.5c0,0,0.1-1.1,0-2.7"/>
					<path class="st7" d="M59.5,42.5c0,0-0.1-0.2-0.1-0.4c0-0.1-0.1-0.3-0.1-0.4c0-0.2,0-0.3,0-0.5c0-0.3,0-0.7,0.1-0.9
						c0-0.3,0.1-0.4,0.1-0.4c0-0.1,0.2-0.2,0.3-0.1c0.1,0,0.1,0.1,0.1,0.1c0,0,0.1,0.2,0.1,0.4c0.1,0.3,0.1,0.6,0.1,0.9
						c0,0.2,0,0.3,0,0.5c0,0.2-0.1,0.3-0.1,0.4c-0.1,0.3-0.2,0.4-0.2,0.4C59.8,42.6,59.7,42.7,59.5,42.5
						C59.6,42.6,59.6,42.6,59.5,42.5L59.5,42.5z"/>
				</g>
				<g>
					<path class="st7" d="M61,39.2c0,0-0.3,0.2-0.7,0.7c-0.2,0.2-0.4,0.5-0.6,0.8c-0.2,0.3-0.4,0.7-0.6,1c-0.2,0.4-0.3,0.7-0.5,1.1
						c-0.1,0.4-0.2,0.7-0.3,1C58.1,44,58,44.3,58,44.4c-0.1,0.2-0.1,0.3-0.1,0.3l0,0c0,0.1-0.1,0.2-0.3,0.1c-0.1,0-0.1-0.1-0.1-0.2
						c0,0,0-0.1,0-0.3c0-0.2,0-0.5,0.1-0.8c0-0.3,0.1-0.7,0.2-1.1c0.1-0.4,0.3-0.8,0.5-1.2c0.2-0.4,0.5-0.8,0.7-1.1
						c0.3-0.3,0.6-0.6,0.8-0.8c0.6-0.4,1-0.5,1-0.5c0.1,0,0.2,0,0.2,0.1C61,39.1,61,39.1,61,39.2z"/>
				</g>
			</g>
		</g>
		<g>
			<polyline class="st6" points="35.1,66.1 35.1,53.7 44.5,53.7 44.5,66.1 			"/>
			<path class="st7" d="M34.8,66.1c-0.1-2.1-0.2-4.1-0.3-6.2c-0.1-2.1-0.1-4.1-0.1-6.2c0-0.3,0.3-0.6,0.6-0.6l0,0c1.6,0,3.1,0,4.7,0
				l4.7,0c0.3,0,0.6,0.3,0.6,0.6c0,2.1-0.1,4.1-0.1,6.2c0,2.1-0.1,4.1-0.2,6.2c0,0.2-0.2,0.3-0.3,0.3c-0.2,0-0.3-0.1-0.3-0.3
				C44.1,64,44,61.9,44,59.9c0-2.1-0.1-4.1-0.1-6.2l0.6,0.6l-4.7,0c-1.6,0-3.1,0-4.7,0l0.6-0.6c0,2.1,0,4.1-0.1,6.2
				c0,2.1-0.1,4.1-0.3,6.2c0,0.1-0.1,0.2-0.3,0.2C34.9,66.3,34.8,66.2,34.8,66.1z"/>
		</g>
		<g>
			<path class="st4" d="M55.6,48.1c0,0-0.3,3.2-1.8,4.6c-2.3,2.1-9.6,6.6-14.5,6.6c-1.7,0-3.7-0.6-5.7-1.4c-3.7-1.5-7.2-3.8-8.7-5.2
				c-1.5-1.3-1.8-4.6-1.8-4.6s-0.3-3.4-0.5-8c-0.4-8.3-0.7-20.2,1.2-22.6c3.7-4.6,15.6-4.9,15.6-4.9s11.8,0.3,15.6,4.9
				C57.9,21.2,55.6,48.1,55.6,48.1z"/>
			<path class="st7" d="M43.9,50c0,0-1.6,1-4.6,1.4c-3,0.3-4.8-0.2-4.8-0.2s1.3,1.5,4.9,1.1C43,51.8,43.9,50,43.9,50z"/>
			<g>
				<path class="st7" d="M42.5,45.2c-0.4-0.2-0.9-0.2-1.3-0.1c-0.4,0.1-0.8,0.3-1,0.6l0,0c0,0,0,0.1,0,0.1c0,0.1,0.1,0.2,0.3,0.2
					c0.4,0,0.7,0,1.1-0.1c0.1,0,0.1,0,0.1-0.1c0-0.1,0-0.1-0.1-0.1c-0.2,0-0.3,0-0.5,0c0.1-0.1,0.3-0.1,0.4-0.2
					c0.3-0.1,0.6-0.2,1-0.2h0c0,0,0.1,0,0.1,0C42.6,45.3,42.6,45.2,42.5,45.2z"/>
				<path class="st7" d="M42.5,45.2c-0.4-0.2-0.9-0.2-1.3-0.1c-0.4,0.1-0.8,0.3-1,0.6l0,0c0,0,0,0.1,0,0.1c0,0.1,0.1,0.2,0.3,0.2
					c0.4,0,0.7,0,1.1-0.1c0.1,0,0.1,0,0.1-0.1c0-0.1,0-0.1-0.1-0.1c-0.2,0-0.3,0-0.5,0c0.1-0.1,0.3-0.1,0.4-0.2
					c0.3-0.1,0.6-0.2,1-0.2h0c0,0,0.1,0,0.1,0C42.6,45.3,42.6,45.2,42.5,45.2z"/>
				<path class="st7" d="M36.1,45.2c0.4-0.2,0.9-0.2,1.3-0.1c0.4,0.1,0.8,0.3,1,0.6l0,0c0,0,0,0.1,0,0.1c0,0.1-0.1,0.2-0.3,0.2
					c-0.4,0-0.7,0-1.1-0.1c-0.1,0-0.1,0-0.1-0.1c0-0.1,0-0.1,0.1-0.1c0.2,0,0.3,0,0.5,0c-0.1-0.1-0.3-0.1-0.4-0.2
					c-0.3-0.1-0.6-0.2-1-0.2h0c0,0-0.1,0-0.1,0C36.1,45.3,36.1,45.2,36.1,45.2z"/>
				<path class="st7" d="M36.1,45.2c0.4-0.2,0.9-0.2,1.3-0.1c0.4,0.1,0.8,0.3,1,0.6l0,0c0,0,0,0.1,0,0.1c0,0.1-0.1,0.2-0.3,0.2
					c-0.4,0-0.7,0-1.1-0.1c-0.1,0-0.1,0-0.1-0.1c0-0.1,0-0.1,0.1-0.1c0.2,0,0.3,0,0.5,0c-0.1-0.1-0.3-0.1-0.4-0.2
					c-0.3-0.1-0.6-0.2-1-0.2h0c0,0-0.1,0-0.1,0C36.1,45.3,36.1,45.2,36.1,45.2z"/>
			</g>
			<g>
				<g>
					<path class="st7" d="M51.8,39.1c0-0.8-0.5-1.7-1.2-2.2c-0.7-0.5-1.6-0.7-2.5-0.7c-0.8,0-1.7,0.2-2.5,0.6
						c-0.7,0.5-1.2,1.4-1.1,2.2c0.2-0.8,0.7-1.4,1.4-1.7c0.7-0.3,1.4-0.4,2.2-0.4c0.8,0,1.5,0.1,2.2,0.4
						C51,37.8,51.6,38.4,51.8,39.1z"/>
					<path class="st7" d="M51.8,39.1c0-0.8-0.5-1.7-1.2-2.2c-0.7-0.5-1.6-0.7-2.5-0.7c-0.8,0-1.7,0.2-2.5,0.6
						c-0.7,0.5-1.2,1.4-1.1,2.2c0.2-0.8,0.7-1.4,1.4-1.7c0.7-0.3,1.4-0.4,2.2-0.4c0.8,0,1.5,0.1,2.2,0.4
						C51,37.8,51.6,38.4,51.8,39.1z"/>
					<path class="st7" d="M46.2,35.9c0.7-0.3,1.5-0.3,2.2-0.3c0.7,0.1,1.5,0.3,2.1,0.6c0.6,0.3,1.1,0.9,1.3,1.6
						c0.6,0.3,1.7,0.7,2.1,0.6c-0.8,0.9-2.1,0.7-2.1,0.7c-0.1-0.6-0.8-1.2-0.8-1.2l0.3-0.3c0,0,0.1,0,0.3,0.1
						c-0.3-0.5-0.7-0.9-1.3-1.1c-0.6-0.3-1.3-0.5-2-0.6c-0.7-0.1-1.4,0-2,0.2c-0.6,0.2-1.3,0.6-1.7,1.2
						C44.7,37.4,45.5,36.2,46.2,35.9z"/>
					<path class="st7" d="M46.2,35.9c0.7-0.3,1.5-0.3,2.2-0.3c0.7,0.1,1.5,0.3,2.1,0.6c0.6,0.3,1.1,0.9,1.3,1.6
						c0.6,0.3,1.7,0.7,2.1,0.6c-0.8,0.9-2.1,0.7-2.1,0.7c-0.1-0.6-0.8-1.2-0.8-1.2l0.3-0.3c0,0,0.1,0,0.3,0.1
						c-0.3-0.5-0.7-0.9-1.3-1.1c-0.6-0.3-1.3-0.5-2-0.6c-0.7-0.1-1.4,0-2,0.2c-0.6,0.2-1.3,0.6-1.7,1.2
						C44.7,37.4,45.5,36.2,46.2,35.9z"/>
				</g>
				<g>
					<path class="st7" d="M26.8,39.1c0-0.8,0.5-1.7,1.2-2.2c0.7-0.5,1.6-0.7,2.5-0.7c0.8,0,1.7,0.2,2.5,0.6c0.7,0.5,1.2,1.4,1.1,2.2
						c-0.2-0.8-0.7-1.4-1.4-1.7C32,37.1,31.2,37,30.5,37c-0.8,0-1.5,0.1-2.2,0.4C27.6,37.8,27.1,38.4,26.8,39.1z"/>
					<path class="st7" d="M26.8,39.1c0-0.8,0.5-1.7,1.2-2.2c0.7-0.5,1.6-0.7,2.5-0.7c0.8,0,1.7,0.2,2.5,0.6c0.7,0.5,1.2,1.4,1.1,2.2
						c-0.2-0.8-0.7-1.4-1.4-1.7C32,37.1,31.2,37,30.5,37c-0.8,0-1.5,0.1-2.2,0.4C27.6,37.8,27.1,38.4,26.8,39.1z"/>
					<path class="st7" d="M32.4,35.9c-0.7-0.3-1.5-0.3-2.2-0.3c-0.7,0.1-1.5,0.3-2.1,0.6c-0.6,0.3-1.1,0.9-1.3,1.6
						c-0.6,0.3-1.7,0.7-2.1,0.6c0.8,0.9,2.1,0.7,2.1,0.7c0.1-0.6,0.8-1.2,0.8-1.2l-0.3-0.3c0,0-0.1,0-0.3,0.1
						c0.3-0.5,0.7-0.9,1.3-1.1c0.6-0.3,1.3-0.5,2-0.6c0.7-0.1,1.4,0,2,0.2c0.6,0.2,1.3,0.6,1.7,1.2C34,37.4,33.1,36.2,32.4,35.9z"/>
					<path class="st7" d="M32.4,35.9c-0.7-0.3-1.5-0.3-2.2-0.3c-0.7,0.1-1.5,0.3-2.1,0.6c-0.6,0.3-1.1,0.9-1.3,1.6
						c-0.6,0.3-1.7,0.7-2.1,0.6c0.8,0.9,2.1,0.7,2.1,0.7c0.1-0.6,0.8-1.2,0.8-1.2l-0.3-0.3c0,0-0.1,0-0.3,0.1
						c0.3-0.5,0.7-0.9,1.3-1.1c0.6-0.3,1.3-0.5,2-0.6c0.7-0.1,1.4,0,2,0.2c0.6,0.2,1.3,0.6,1.7,1.2C34,37.4,33.1,36.2,32.4,35.9z"/>
				</g>
			</g>
			<g>
				<g>
					<path class="st6" d="M25.2,34.7c0,0,4.1-5.2,10.1-1.3"/>
					<path class="st7" d="M25.1,34.6c0,0,0.4-0.6,1.2-1.4c0.8-0.8,2.1-1.6,3.6-1.9c0.4-0.1,0.8-0.1,1.1-0.2c0.4,0,0.8,0,1.1,0
						c0.4,0.1,0.7,0.2,1,0.3c0.3,0.1,0.6,0.3,0.8,0.4c0.5,0.3,0.8,0.7,1,0.9c0.2,0.3,0.3,0.4,0.3,0.4c0,0,0,0.1,0,0.1c0,0,0,0,0,0
						l0,0c0,0-0.2,0-0.5,0c-0.2,0-0.3-0.1-0.6-0.1c-0.2-0.1-0.4-0.1-0.7-0.1c-0.2,0-0.5-0.1-0.8-0.1c-0.3,0-0.5-0.1-0.8-0.1
						c-0.3,0-0.6-0.1-0.9-0.2c-0.3,0-0.6-0.1-0.9-0.1c-0.3,0-0.6,0-0.9,0.1c-0.3,0-0.6,0.2-0.9,0.2c-0.6,0.2-1.1,0.5-1.6,0.7
						c-0.9,0.5-1.4,1-1.4,1c0,0-0.1,0-0.1,0C25.1,34.7,25.1,34.7,25.1,34.6z"/>
				</g>
				<g>
					<path class="st6" d="M53.5,34.7c0,0-4.1-5.2-10.1-1.3"/>
					<path class="st7" d="M53.4,34.7c0,0-0.5-0.5-1.4-1c-0.4-0.3-1-0.5-1.6-0.7c-0.3-0.1-0.6-0.2-0.9-0.2c-0.3-0.1-0.6-0.1-0.9-0.1
						c-0.3,0-0.6,0-0.9,0.1c-0.3,0-0.6,0.1-0.9,0.2c-0.3,0-0.6,0.1-0.8,0.1c-0.3,0-0.5,0.1-0.8,0.1c-0.2,0-0.5,0.1-0.7,0.1
						c-0.2,0-0.4,0.1-0.6,0.1c-0.3,0-0.5,0-0.5,0l0,0c0,0-0.1,0-0.1-0.1c0,0,0,0,0,0c0,0,0.1-0.2,0.3-0.4c0.2-0.2,0.5-0.6,1-0.9
						c0.2-0.1,0.5-0.3,0.8-0.4c0.3-0.1,0.6-0.2,1-0.3c0.4,0,0.7-0.1,1.1,0c0.4,0.1,0.8,0.1,1.1,0.2c1.5,0.3,2.8,1.1,3.6,1.9
						c0.8,0.7,1.2,1.4,1.2,1.4c0,0,0,0.1,0,0.1C53.5,34.8,53.5,34.8,53.4,34.7z"/>
				</g>
			</g>
			<g>
				<ellipse class="st8" cx="29.8" cy="44.1" rx="3.7" ry="1.4"/>
				<ellipse class="st8" cx="48.8" cy="44.1" rx="3.7" ry="1.4"/>
			</g>
		</g>
		<g>
			<path class="st7" d="M24.7,77.6l-0.8,12.8c0,0.3-0.3,0.6-0.6,0.6c-0.3,0-0.6-0.3-0.6-0.6c0,0,0,0,0,0l1.7-12.7
				c0-0.1,0.1-0.2,0.2-0.2C24.7,77.4,24.8,77.5,24.7,77.6z"/>
		</g>
		<g>
			<path class="st7" d="M56.3,77.5L58,90.2c0,0.3-0.2,0.6-0.5,0.7s-0.6-0.2-0.7-0.5c0,0,0,0,0,0l-0.8-12.8c0-0.1,0.1-0.2,0.2-0.2
				C56.2,77.4,56.3,77.4,56.3,77.5z"/>
		</g>
		<path class="st2" d="M74.9,22.4"/>
		<path class="st1" d="M40.5,6.7c-12.7,0-23.3,8.8-23.3,20.8c0,2.7,0.2,6.4,1.2,8.8c0.5-0.9,3.5-0.4,4.1,2.5c0,0,0.2-6.3,0.1-7.4
			c14.5-4.3,15.8-11.8,16.8-14.9C41.5,25,57.7,29,56.7,38.5c1.3-1.4,2.6-2.2,4.1-2.3c0,0,0.9-6.6,0.9-8.7
			C61.6,15.5,53.2,6.7,40.5,6.7z"/>
		<path class="st1" d="M44.4,58.3c0,0,1,7.4-0.6,11.2C40.4,77.7,47.9,86,47.9,86s3.4-7.4,9.8-17.3c3.8-5.8,5.5-10.5,3.4-22.1
			c-1.8,1.6-3.7,1.8-5,1.6c0,0,0.4,3-3,5.5C51.5,54.8,49.1,56.2,44.4,58.3z"/>
		<g>
			<path class="st6" d="M39.4,6.7c0,0-0.1,5.3,0,9.9"/>
			<path class="st7" d="M39.6,6.7l0.4,9.9c0,0.3-0.2,0.6-0.6,0.6c-0.3,0-0.6-0.2-0.6-0.6c0,0,0,0,0,0l0.4-9.9c0-0.1,0.1-0.2,0.2-0.2
				C39.5,6.5,39.6,6.6,39.6,6.7z"/>
		</g>
		<g>
			<path class="st6" d="M57.7,48.8c0,0,3.5,9.4-4.1,17.2c-6.8,6.9-6.4,17.4-5.7,20"/>
			<path class="st7" d="M57.8,48.7c0,0,0.2,0.6,0.5,1.7c0.2,1.1,0.5,2.7,0.4,4.6c0,0.5,0,1-0.1,1.5c0,0.5-0.1,1-0.3,1.6
				c-0.2,1.1-0.6,2.2-1.1,3.3c-0.2,0.6-0.6,1.1-0.9,1.6c-0.3,0.5-0.7,1-1.1,1.6c-0.4,0.5-0.8,1-1.2,1.5l-1.2,1.4
				c-0.4,0.5-0.7,1-1.1,1.5c-0.3,0.5-0.6,1-1,1.6c-0.3,0.5-0.6,1.1-0.8,1.6c-0.2,0.6-0.5,1.1-0.6,1.6c-0.4,1.1-0.7,2.2-0.9,3.2
				c-0.1,0.5-0.2,1-0.3,1.5c-0.1,0.5-0.1,1-0.2,1.4c-0.2,1.8-0.2,3.4-0.1,4.5c0.1,1.1,0.2,1.7,0.2,1.7c0,0.1,0,0.2-0.1,0.2
				c-0.1,0-0.2,0-0.2-0.1c0,0-0.2-0.6-0.3-1.7c-0.1-0.6-0.1-1.2-0.1-2c0-0.8,0-1.6,0.1-2.6c0-0.5,0.1-1,0.2-1.5
				c0.1-0.5,0.2-1,0.3-1.6c0.2-1.1,0.5-2.2,0.9-3.3c0.2-0.6,0.4-1.1,0.7-1.7c0.2-0.6,0.5-1.1,0.8-1.7c0.3-0.5,0.6-1.1,1-1.6
				c0.4-0.5,0.7-1.1,1.2-1.5l1.3-1.4c0.4-0.5,0.8-0.9,1.2-1.4c0.3-0.5,0.7-1,1-1.5c0.3-0.5,0.6-1,0.8-1.5c0.5-1,0.9-2.1,1.1-3.1
				c0.1-0.5,0.2-1,0.3-1.5c0.1-0.5,0.1-1,0.2-1.4c0.1-0.9,0-1.8,0-2.5c0-0.8-0.1-1.4-0.2-1.9c-0.2-1.1-0.4-1.7-0.4-1.7
				c0-0.1,0-0.2,0.1-0.2C57.7,48.6,57.8,48.7,57.8,48.7L57.8,48.7z"/>
		</g>
		<path class="st9" d="M54.3,52.7c0,8-9,10-10.8,17.9"/>
		<g>
			<path class="st7" d="M42,12.6c0,0,1,1.7,2.9,3.9c0.9,1.1,2.1,2.3,3.5,3.4c0.7,0.6,1.5,1.1,2.3,1.6c0.4,0.2,0.8,0.5,1.2,0.7
				c0.4,0.2,0.8,0.5,1.2,0.8c0.8,0.6,1.5,1.3,2.2,2c0.6,0.8,1.2,1.6,1.6,2.4c0.4,0.8,0.7,1.7,0.9,2.5c0.2,0.8,0.4,1.6,0.5,2.3
				c0.1,0.7,0.1,1.4,0.2,2c0,0.6,0,1.1,0,1.5c0,0.9,0,1.3,0,1.3c0,0.1-0.1,0.2-0.2,0.2c-0.1,0-0.2-0.1-0.2-0.2c0,0,0-0.5,0-1.3
				c0-0.8-0.1-2-0.3-3.5c-0.1-0.7-0.3-1.5-0.5-2.2c-0.2-0.8-0.5-1.6-0.9-2.4c-0.4-0.8-0.9-1.5-1.5-2.3c-0.6-0.7-1.3-1.4-2.1-1.9
				c-0.4-0.3-0.8-0.5-1.2-0.8c-0.4-0.2-0.8-0.5-1.2-0.7c-0.8-0.5-1.6-1.1-2.3-1.7c-0.7-0.6-1.4-1.2-1.9-1.8
				c-0.6-0.6-1.1-1.2-1.6-1.8c-0.9-1.1-1.6-2.2-2-2.9c-0.4-0.7-0.7-1.2-0.7-1.2c0-0.1,0-0.2,0.1-0.2C41.9,12.5,42,12.5,42,12.6z"/>
		</g>
		<g>
			<path class="st7" d="M44.5,10.9c0,0,2,0.5,4.6,2c1.3,0.8,2.8,1.8,4.2,3c0.7,0.6,1.4,1.3,2.1,2.1c0.3,0.4,0.7,0.8,1,1.2
				c0.3,0.4,0.6,0.8,0.9,1.2c0.6,0.9,1,1.8,1.4,2.7c0.4,0.9,0.7,1.9,0.9,2.8c0.5,1.8,0.6,3.6,0.7,5.1c0.1,1.5,0,2.8,0,3.6
				c0,0.9-0.1,1.4-0.1,1.4c0,0.1-0.1,0.2-0.2,0.2c-0.1,0-0.2-0.1-0.2-0.2c0,0,0-0.5,0-1.4c0-0.9,0-2.1-0.2-3.6
				c-0.1-1.5-0.3-3.2-0.8-5c-0.2-0.9-0.5-1.8-0.9-2.7c-0.4-0.9-0.8-1.7-1.4-2.6c-0.3-0.4-0.5-0.8-0.8-1.2c-0.3-0.4-0.6-0.8-0.9-1.1
				c-0.6-0.7-1.3-1.4-2-2c-1.4-1.2-2.7-2.3-4-3.1c-1.2-0.8-2.3-1.4-3.1-1.7c-0.8-0.4-1.2-0.5-1.2-0.5c-0.1,0-0.1-0.1-0.1-0.2
				C44.3,10.9,44.4,10.9,44.5,10.9z"/>
		</g>
		<g>
			<path class="st7" d="M36.5,16.7c0,0-0.2,0.5-0.7,1.3c-0.5,0.8-1.1,1.9-2.1,3.1c-0.5,0.6-1,1.2-1.7,1.9c-0.6,0.6-1.4,1.2-2.2,1.8
				c-0.8,0.6-1.7,1.1-2.6,1.5c-0.9,0.5-1.7,1-2.6,1.6c-1.7,1.1-3.2,2.5-4.2,4c-0.5,0.8-0.9,1.5-1.3,2.3c-0.2,0.4-0.3,0.8-0.4,1.1
				c0,0,0,0.1,0,0.1c0,0,0,0,0,0c0,0,0,0-0.1-0.2c0,0,0-0.1-0.1-0.1c0,0-0.1-0.1-0.2-0.1c-0.1,0-0.2,0-0.2,0c0,0,0,0-0.1,0
				c0,0-0.1,0-0.1,0l0,0c0,0,0,0,0,0c0.1-0.1,0.2-0.3,0.4-0.4c0.9-1.2,1.8-2.2,2.5-2.8c0.7-0.6,1.3-0.9,1.3-0.9l0.5,1.1
				c0,0-0.4,0.1-1,0.7c-0.7,0.5-1.5,1.5-2.5,2.6c-0.1,0.2-0.3,0.3-0.4,0.5c-0.1,0.1-0.1,0.1-0.2,0.2c0,0-0.1,0.1-0.3,0.1
				c0,0-0.1,0-0.1,0c-0.1,0-0.2,0-0.2,0c-0.1,0-0.2-0.1-0.2-0.1c0,0-0.1-0.1-0.1-0.1c-0.1-0.2-0.1-0.3-0.1-0.3c0-0.1,0-0.1,0-0.1
				c0-0.1,0-0.1,0-0.2c0.1-0.5,0.3-0.9,0.5-1.3c0.4-0.9,0.8-1.7,1.4-2.5c1.2-1.6,2.8-3,4.6-4.1c0.9-0.6,1.8-1.1,2.7-1.6
				c0.9-0.5,1.8-0.9,2.6-1.4c0.8-0.5,1.5-1.1,2.1-1.7c0.6-0.6,1.2-1.2,1.7-1.8c1-1.2,1.7-2.2,2.2-3c0.5-0.8,0.7-1.2,0.7-1.2
				L36.5,16.7z"/>
		</g>
		<g>
			<path class="st7" d="M35.7,12.8c0,0-0.4,0.1-1.2,0.4c-0.4,0.1-0.8,0.3-1.3,0.6c-0.5,0.3-1.1,0.5-1.7,0.9
				c-0.6,0.3-1.2,0.7-1.9,1.1c-0.7,0.4-1.3,0.9-2,1.4c-0.6,0.6-1.4,1.1-2,1.8c-0.6,0.6-1.3,1.3-1.8,2c-0.3,0.4-0.6,0.7-0.8,1.1
				c-0.2,0.4-0.5,0.8-0.7,1.1c-0.5,0.7-0.9,1.5-1.3,2.3c-0.4,0.7-0.6,1.6-0.9,2.3c-0.3,0.7-0.5,1.4-0.6,2.1
				c-0.1,0.7-0.3,1.3-0.4,1.8c-0.1,0.6-0.1,1-0.2,1.4c-0.1,0.8-0.1,1.2-0.1,1.2l-0.8-0.1c0,0,0.1-0.5,0.2-1.3
				c0.1-0.4,0.1-0.9,0.2-1.5c0.1-0.6,0.3-1.2,0.4-1.9c0.2-0.7,0.3-1.4,0.7-2.2c0.3-0.7,0.5-1.6,1-2.3c0.4-0.8,0.8-1.6,1.4-2.3
				c0.3-0.4,0.5-0.8,0.8-1.1c0.3-0.4,0.6-0.7,0.9-1.1c0.6-0.7,1.3-1.4,1.9-2c0.7-0.6,1.4-1.2,2-1.7c0.7-0.5,1.4-1,2.1-1.4
				c0.7-0.4,1.3-0.8,2-1.1c0.6-0.3,1.2-0.6,1.7-0.8c0.5-0.2,1-0.4,1.4-0.5c0.8-0.3,1.2-0.4,1.2-0.4L35.7,12.8z"/>
		</g>
	</g>
</g>
<circle class="st10" cx="31.3" cy="39" r="0.8"/>
<circle class="st10" cx="47.3" cy="39" r="0.8"/>
</svg>
