<?xml version="1.0" encoding="utf-8"?>
<!-- Generator: Adobe Illustrator 19.0.0, SVG Export Plug-In . SVG Version: 6.00 Build 0)  -->
<svg version="1.1" id="OBJECTS" xmlns="http://www.w3.org/2000/svg" xmlns:xlink="http://www.w3.org/1999/xlink" x="0px" y="0px"
	 viewBox="0 0 81.5 81.5" style="enable-background:new 0 0 81.5 81.5;" xml:space="preserve">
<style type="text/css">
	.st0{clip-path:url(#SVGID_2_);}
	.st1{fill:#FFFFFF;stroke:#262424;stroke-width:1.6237;stroke-miterlimit:10;}
	.st2{fill:#FFFFFF;stroke:#262424;stroke-width:1.2178;stroke-miterlimit:10;}
	.st3{fill:#FFFFFF;}
	.st4{fill:#262424;}
	.st5{fill:none;stroke:#262424;stroke-width:1.2178;stroke-miterlimit:10;}
	.st6{fill:#F0766A;stroke:#262424;stroke-width:1.3375;stroke-linecap:round;stroke-linejoin:round;stroke-miterlimit:10;}
	.st7{opacity:0.3;fill:#ACD48E;}
	.st8{fill:#FFFFFF;stroke:#262424;stroke-width:1.6237;stroke-linecap:round;stroke-linejoin:round;stroke-miterlimit:10;}
</style>
<g>
	<defs>
		<circle id="SVGID_1_" cx="40.7" cy="40.7" r="40.7"/>
	</defs>
	<use xlink:href="#SVGID_1_"  style="overflow:visible;fill:#ACD48E;"/>
	<clipPath id="SVGID_2_">
		<use xlink:href="#SVGID_1_"  style="overflow:visible;"/>
	</clipPath>
	<g class="st0">
		<path class="st1" d="M63,74.8c-1.8-1.7-18.5-13.1-22.3-13.1c-3.8,0-20.5,11.4-22.3,13.1s-4,16.4-4,16.4h26.3H67
			C67,91.2,64.9,76.5,63,74.8z"/>
		<path class="st2" d="M67,91.2H14.4c0,0,2.2-14.7,4-16.4c1.2-1.1,8.5-6.2,14.5-9.7c3.4-2,6.4-3.4,7.8-3.4c1.4,0,4.6,1.6,8.1,3.6
			c6,3.5,13.1,8.4,14.2,9.5C64.9,76.5,67,91.2,67,91.2z"/>
		<g>
			<polyline class="st3" points="36,67 36,54.6 45.4,54.6 45.4,67 			"/>
			<path class="st4" d="M35.8,67c-0.1-2.1-0.2-4.1-0.3-6.2c-0.1-2.1-0.1-4.1-0.1-6.2c0-0.3,0.3-0.6,0.6-0.6l0,0c1.6,0,3.1,0,4.7,0
				l4.7,0c0.3,0,0.6,0.3,0.6,0.6c0,2.1-0.1,4.1-0.1,6.2c0,2.1-0.1,4.1-0.2,6.2c0,0.2-0.2,0.3-0.3,0.3c-0.2,0-0.3-0.1-0.3-0.3
				c-0.1-2.1-0.2-4.1-0.2-6.2c0-2.1-0.1-4.1-0.1-6.2l0.6,0.6l-4.7,0c-1.6,0-3.1,0-4.7,0l0.6-0.6c0,2.1,0,4.1-0.1,6.2
				c0,2.1-0.1,4.1-0.3,6.2c0,0.1-0.1,0.2-0.3,0.2C35.9,67.2,35.8,67.1,35.8,67z"/>
		</g>
		<g>
			<path class="st2" d="M55.8,40.7c0,0,3.3-4.2,5.2-3.8c1.9,0.4,1.9,2.4,1.9,2.4s-0.3,7.2-0.7,8.1c-0.3,0.9-4,1.4-5.9,1.1L55.8,40.7
				z"/>
			<path class="st2" d="M25.7,40.7c0,0-3.3-4.2-5.2-3.8c-1.9,0.4-1.9,2.4-1.9,2.4s0.3,7.2,0.7,8.1c0.3,0.9,4,1.4,5.9,1.1L25.7,40.7z
				"/>
		</g>
		<path class="st2" d="M57,50.3c0,0-0.3,3.2-1.8,4.6c-2.3,2.1-9.6,6.6-14.5,6.6C39,61.4,37,60.9,35,60c-3.7-1.5-7.2-3.8-8.7-5.2
			c-1.5-1.3-1.8-4.6-1.8-4.6s-0.3-3.4-0.5-8C23.5,34,23.2,22,25.1,19.7c3.7-4.6,15.6-4.9,15.6-4.9s11.8,0.3,15.6,4.9
			C59.3,23.3,57,50.3,57,50.3z"/>
		<path class="st4" d="M43,54.8c0,0-0.8,0.4-2.2,0.4c-1.5,0-2.2-0.4-2.2-0.4s0.5,0.8,2.2,0.8C42.4,55.6,43,54.8,43,54.8z"/>
		<path class="st4" d="M45.5,51.9c0,0-1.7,0.8-4.7,0.8c-3.1-0.1-4.7-0.8-4.7-0.8s1.1,1.7,4.7,1.7C44.3,53.6,45.5,51.9,45.5,51.9z"/>
		<g>
			<path class="st4" d="M44.1,47c-0.4-0.2-0.9-0.2-1.3-0.1c-0.4,0.1-0.8,0.3-1,0.6l0,0c0,0,0,0.1,0,0.1c0,0.1,0.1,0.2,0.3,0.2
				c0.4,0,0.7,0,1.1-0.1c0.1,0,0.1,0,0.1-0.1c0-0.1,0-0.1-0.1-0.1c-0.2,0-0.3,0-0.5,0c0.1-0.1,0.3-0.1,0.4-0.2
				c0.3-0.1,0.6-0.2,1-0.2h0c0,0,0.1,0,0.1,0C44.2,47.1,44.2,47,44.1,47z"/>
			<path class="st4" d="M44.1,47c-0.4-0.2-0.9-0.2-1.3-0.1c-0.4,0.1-0.8,0.3-1,0.6l0,0c0,0,0,0.1,0,0.1c0,0.1,0.1,0.2,0.3,0.2
				c0.4,0,0.7,0,1.1-0.1c0.1,0,0.1,0,0.1-0.1c0-0.1,0-0.1-0.1-0.1c-0.2,0-0.3,0-0.5,0c0.1-0.1,0.3-0.1,0.4-0.2
				c0.3-0.1,0.6-0.2,1-0.2h0c0,0,0.1,0,0.1,0C44.2,47.1,44.2,47,44.1,47z"/>
			<path class="st4" d="M37.8,47c0.4-0.2,0.9-0.2,1.3-0.1c0.4,0.1,0.8,0.3,1,0.6l0,0c0,0,0,0.1,0,0.1c0,0.1-0.1,0.2-0.3,0.2
				c-0.4,0-0.7,0-1.1-0.1c-0.1,0-0.1,0-0.1-0.1c0-0.1,0-0.1,0.1-0.1c0.2,0,0.3,0,0.5,0c-0.1-0.1-0.3-0.1-0.4-0.2
				c-0.3-0.1-0.6-0.2-1-0.2h0c0,0-0.1,0-0.1,0C37.7,47.1,37.7,47,37.8,47z"/>
			<path class="st4" d="M37.8,47c0.4-0.2,0.9-0.2,1.3-0.1c0.4,0.1,0.8,0.3,1,0.6l0,0c0,0,0,0.1,0,0.1c0,0.1-0.1,0.2-0.3,0.2
				c-0.4,0-0.7,0-1.1-0.1c-0.1,0-0.1,0-0.1-0.1c0-0.1,0-0.1,0.1-0.1c0.2,0,0.3,0,0.5,0c-0.1-0.1-0.3-0.1-0.4-0.2
				c-0.3-0.1-0.6-0.2-1-0.2h0c0,0-0.1,0-0.1,0C37.7,47.1,37.7,47,37.8,47z"/>
		</g>
		<path class="st2" d="M23.5,71.1c4.6,7.5,0.5,12.1,0.1,20.2"/>
		<path class="st2" d="M57.9,71c-3.9,6.4,0,11.5-0.2,20.2"/>
		<g>
			<g>
				<path class="st4" d="M53.2,40.1c0-0.8-0.5-1.7-1.2-2.2c-0.7-0.5-1.6-0.7-2.5-0.7c-0.8,0-1.7,0.2-2.5,0.6
					c-0.7,0.5-1.2,1.4-1.1,2.2c0.2-0.8,0.7-1.4,1.4-1.7c0.7-0.3,1.4-0.4,2.2-0.4c0.8,0,1.5,0.1,2.2,0.4C52.4,38.7,53,39.3,53.2,40.1
					z"/>
				<path class="st4" d="M53.2,40.1c0-0.8-0.5-1.7-1.2-2.2c-0.7-0.5-1.6-0.7-2.5-0.7c-0.8,0-1.7,0.2-2.5,0.6
					c-0.7,0.5-1.2,1.4-1.1,2.2c0.2-0.8,0.7-1.4,1.4-1.7c0.7-0.3,1.4-0.4,2.2-0.4c0.8,0,1.5,0.1,2.2,0.4C52.4,38.7,53,39.3,53.2,40.1
					z"/>
				<g>
					<path class="st3" d="M54.9,36.5c0,0-4.1-5.2-10.1-1.3"/>
					<path class="st4" d="M54.8,36.5c0,0-0.5-0.5-1.4-1c-0.4-0.3-1-0.5-1.6-0.7c-0.3-0.1-0.6-0.2-0.9-0.2c-0.3-0.1-0.6-0.1-0.9-0.1
						c-0.3,0-0.6,0-0.9,0.1c-0.3,0-0.6,0.1-0.9,0.2c-0.3,0-0.6,0.1-0.8,0.1c-0.3,0-0.5,0.1-0.8,0.1c-0.2,0-0.5,0.1-0.7,0.1
						c-0.2,0-0.4,0.1-0.6,0.1c-0.3,0-0.5,0-0.5,0l0,0c0,0-0.1,0-0.1-0.1c0,0,0,0,0,0c0,0,0.1-0.2,0.3-0.4c0.2-0.2,0.5-0.6,1-0.9
						c0.2-0.1,0.5-0.3,0.8-0.4c0.3-0.1,0.6-0.2,1-0.3c0.4,0,0.7-0.1,1.1,0c0.4,0.1,0.8,0.1,1.1,0.2c1.5,0.3,2.8,1.1,3.6,1.9
						c0.8,0.7,1.2,1.4,1.2,1.4c0,0,0,0.1,0,0.1C54.9,36.5,54.8,36.5,54.8,36.5z"/>
				</g>
				<path class="st4" d="M47.6,36.9c0.7-0.3,1.5-0.3,2.2-0.3c0.7,0.1,1.5,0.3,2.1,0.6c0.6,0.3,1.1,0.9,1.3,1.6
					c0.6,0.3,1.7,0.7,2.1,0.6c-0.8,0.9-2.1,0.7-2.1,0.7c-0.1-0.6-0.8-1.2-0.8-1.2l0.3-0.3c0,0,0.1,0,0.3,0.1
					c-0.3-0.5-0.7-0.9-1.3-1.1c-0.6-0.3-1.3-0.5-2-0.6c-0.7-0.1-1.4,0-2,0.2c-0.6,0.2-1.3,0.6-1.7,1.2
					C46.1,38.4,46.9,37.1,47.6,36.9z"/>
				<path class="st4" d="M47.6,36.9c0.7-0.3,1.5-0.3,2.2-0.3c0.7,0.1,1.5,0.3,2.1,0.6c0.6,0.3,1.1,0.9,1.3,1.6
					c0.6,0.3,1.7,0.7,2.1,0.6c-0.8,0.9-2.1,0.7-2.1,0.7c-0.1-0.6-0.8-1.2-0.8-1.2l0.3-0.3c0,0,0.1,0,0.3,0.1
					c-0.3-0.5-0.7-0.9-1.3-1.1c-0.6-0.3-1.3-0.5-2-0.6c-0.7-0.1-1.4,0-2,0.2c-0.6,0.2-1.3,0.6-1.7,1.2
					C46.1,38.4,46.9,37.1,47.6,36.9z"/>
			</g>
			<g>
				<path class="st4" d="M28.2,40.1c0-0.8,0.5-1.7,1.2-2.2c0.7-0.5,1.6-0.7,2.5-0.7c0.8,0,1.7,0.2,2.5,0.6c0.7,0.5,1.2,1.4,1.1,2.2
					c-0.2-0.8-0.7-1.4-1.4-1.7c-0.7-0.3-1.4-0.4-2.2-0.4c-0.8,0-1.5,0.1-2.2,0.4C29,38.7,28.5,39.3,28.2,40.1z"/>
				<path class="st4" d="M28.2,40.1c0-0.8,0.5-1.7,1.2-2.2c0.7-0.5,1.6-0.7,2.5-0.7c0.8,0,1.7,0.2,2.5,0.6c0.7,0.5,1.2,1.4,1.1,2.2
					c-0.2-0.8-0.7-1.4-1.4-1.7c-0.7-0.3-1.4-0.4-2.2-0.4c-0.8,0-1.5,0.1-2.2,0.4C29,38.7,28.5,39.3,28.2,40.1z"/>
				<g>
					<path class="st3" d="M26.5,36.5c0,0,4.1-5.2,10.1-1.3"/>
					<path class="st4" d="M26.5,36.4c0,0,0.4-0.6,1.2-1.4c0.8-0.8,2.1-1.6,3.6-1.9C31.6,33,32,33,32.4,33c0.4,0,0.8,0,1.1,0
						c0.4,0.1,0.7,0.2,1,0.3c0.3,0.1,0.6,0.3,0.8,0.4c0.5,0.3,0.8,0.7,1,0.9c0.2,0.3,0.3,0.4,0.3,0.4c0,0,0,0.1,0,0.1c0,0,0,0,0,0
						l0,0c0,0-0.2,0-0.5,0c-0.2,0-0.3-0.1-0.6-0.1c-0.2-0.1-0.4-0.1-0.7-0.1c-0.2,0-0.5-0.1-0.8-0.1c-0.3,0-0.5-0.1-0.8-0.1
						c-0.3,0-0.6-0.1-0.9-0.2c-0.3,0-0.6-0.1-0.9-0.1c-0.3,0-0.6,0-0.9,0.1c-0.3,0-0.6,0.2-0.9,0.2C29,35,28.4,35.2,28,35.5
						c-0.9,0.5-1.4,1-1.4,1c0,0-0.1,0-0.1,0C26.5,36.5,26.5,36.4,26.5,36.4z"/>
				</g>
				<path class="st4" d="M33.8,36.9c-0.7-0.3-1.5-0.3-2.2-0.3c-0.7,0.1-1.5,0.3-2.1,0.6c-0.6,0.3-1.1,0.9-1.3,1.6
					c-0.6,0.3-1.7,0.7-2.1,0.6c0.8,0.9,2.1,0.7,2.1,0.7c0.1-0.6,0.8-1.2,0.8-1.2l-0.3-0.3c0,0-0.1,0-0.3,0.1
					c0.3-0.5,0.7-0.9,1.3-1.1c0.6-0.3,1.3-0.5,2-0.6c0.7-0.1,1.4,0,2,0.2c0.6,0.2,1.3,0.6,1.7,1.2C35.3,38.4,34.5,37.1,33.8,36.9z"
					/>
				<path class="st4" d="M33.8,36.9c-0.7-0.3-1.5-0.3-2.2-0.3c-0.7,0.1-1.5,0.3-2.1,0.6c-0.6,0.3-1.1,0.9-1.3,1.6
					c-0.6,0.3-1.7,0.7-2.1,0.6c0.8,0.9,2.1,0.7,2.1,0.7c0.1-0.6,0.8-1.2,0.8-1.2l-0.3-0.3c0,0-0.1,0-0.3,0.1
					c0.3-0.5,0.7-0.9,1.3-1.1c0.6-0.3,1.3-0.5,2-0.6c0.7-0.1,1.4,0,2,0.2c0.6,0.2,1.3,0.6,1.7,1.2C35.3,38.4,34.5,37.1,33.8,36.9z"
					/>
			</g>
		</g>
		<path class="st2" d="M70.4,29.2c-4.1-3.8-13.5-9.9-14.6-10.4c0.9-1.5,0.5-3.2-1.7-6.1c-4.6-6.2-17.9-7.5-25.2,0.5
			c-9,9.8-11.3,10.3-17.2,16.9c-3.4,3.8-3.6,11.9-1.4,16.2c3.4,6.7,9.8,8,12.2,9c3.4,1.4,3,5.3,6.4,7.1c2.5,1.3,4.3,1.6,6.2,0
			l0.8-1.8c-3.7-1.5-6.7-3.5-9-5c-2.8-1.8-2.7-6.7-2.7-6.7s-2.9,0.3-4.2-0.6c-2-1.2-1.6-5.3-1.7-9.4c-0.1-3.1,4.6-1.5,5.4-0.1
			c11.7-3.2,16.5-10.2,19.3-14.8c1.4-2.2,3.2-2.8,5-2.8c3.4-0.1,6.6,2.2,7.7,5.4c1.4,3.9,1.3,8.9,1.9,12.2c0.8-1.4,5.5-3.1,5.4,0.1
			c-0.1,4,0.3,8.2-1.7,9.4c-1.3,0.8-4.2,0.6-4.2,0.6s0.1,4.9-2.7,6.7c-2.3,1.5-5.3,3.5-9,5l0.8,1.8c2,1.6,5,0.7,7.5-0.6
			c3.4-1.7,2.2-4.2,5.6-5.7c2.3-1,9.7-2.4,13.1-9.1C74.6,42.6,74,32.6,70.4,29.2z"/>
		<g>
			<path class="st4" d="M27.3,29.2c0,0,0-0.1,0-0.3c0-0.2,0-0.5-0.1-0.9c-0.2-0.7-0.7-1.9-1.8-2.6c-0.6-0.3-1.3-0.5-2-0.3
				c-0.7,0.2-1.4,0.7-2.1,1.2c-0.6,0.6-1.2,1.3-1.6,2.1c-0.4,0.8-0.7,1.6-0.8,2.5c-0.1,0.9,0.1,1.8,0.4,2.5c0.4,0.8,0.9,1.4,1.6,1.9
				c1.3,1,2.9,1.4,4.3,1.4c1.3,0,2.5-0.2,3.2-0.4c0.7-0.2,1.2-0.4,1.2-0.4c0.3-0.1,0.7,0,0.8,0.3c0.1,0.3,0,0.7-0.3,0.8c0,0,0,0,0,0
				l0,0c0,0-0.5,0.2-1.3,0.4c-0.8,0.2-2.1,0.5-3.6,0.4c-1.5-0.1-3.3-0.6-4.8-1.8c-0.7-0.6-1.4-1.4-1.8-2.3c-0.4-0.9-0.6-2-0.4-3
				c0.1-1,0.5-2,1-2.8c0.5-0.8,1.1-1.6,1.8-2.2c0.7-0.6,1.5-1.1,2.3-1.3c0.8-0.3,1.8-0.1,2.4,0.4c1.3,0.9,1.8,2.1,2,2.9
				c0.1,0.4,0.1,0.8,0.1,1c0,0.2,0,0.3,0,0.3c0,0.1-0.1,0.2-0.2,0.2C27.4,29.4,27.3,29.3,27.3,29.2z"/>
		</g>
		<g>
			<path class="st4" d="M32.2,24.6c0,0,0.1-0.1,0.4-0.2c0.2-0.1,0.6-0.3,0.9-0.5c0.8-0.5,1.7-1.5,2.6-2.9c0.9-1.4,1.8-3.1,3.1-4.8
				c1.3-1.7,3.4-3,5.6-3.5c1.1-0.3,2.3-0.4,3.4-0.2c1.1,0.1,2.2,0.4,3.2,0.9c1,0.5,1.8,1.2,2.5,1.9c0.7,0.8,1.1,1.7,1.4,2.5
				c0.6,1.7,0.4,3.3,0.1,4.3c-0.2,0.5-0.3,0.9-0.5,1.1c-0.1,0.3-0.2,0.4-0.2,0.4c-0.2,0.3-0.5,0.4-0.8,0.2c-0.3-0.2-0.4-0.5-0.2-0.8
				c0,0,0,0,0,0l0-0.1c0,0,0.1-0.1,0.2-0.3c0.1-0.2,0.3-0.5,0.4-0.9c0.3-0.8,0.5-2.1,0-3.6c-0.2-0.7-0.6-1.5-1.1-2.2
				c-0.6-0.7-1.3-1.3-2.1-1.8c-0.9-0.5-1.8-0.8-2.9-0.9c-1-0.1-2.1-0.1-3.1,0.1c-2.1,0.5-4,1.6-5.3,3.2c-1.3,1.5-2.2,3.3-3.2,4.6
				c-0.5,0.7-1,1.3-1.4,1.8c-0.5,0.5-0.9,0.9-1.4,1.2c-0.4,0.3-0.8,0.5-1,0.6c-0.2,0.1-0.4,0.2-0.4,0.2c-0.1,0-0.2,0-0.3-0.1
				C32.1,24.8,32.1,24.7,32.2,24.6z"/>
		</g>
		<g>
			<path class="st4" d="M56.4,26.6c0,0,0.1,0.4,0.4,1.2c0.2,0.8,0.5,1.9,0.7,3.2c0.1,0.7,0.3,1.3,0.7,1.9c0.3,0.6,0.8,1.2,1.5,1.7
				c0.6,0.5,1.4,0.8,2.2,0.9c0.8,0.1,1.7,0.2,2.7,0.3c0.9,0.2,1.8,0.6,2.6,1.1c0.8,0.5,1.5,1.1,2,1.8c1.1,1.4,1.5,3.1,1.6,4.5
				c0,1.4-0.4,2.5-0.7,3.3c-0.2,0.4-0.3,0.6-0.4,0.8c-0.1,0.2-0.2,0.3-0.2,0.3c-0.1,0.1-0.2,0.1-0.3,0.1C69,47.7,69,47.6,69,47.5
				l0,0c0,0,0.1-0.1,0.2-0.3c0.1-0.2,0.2-0.4,0.4-0.8c0.3-0.7,0.6-1.8,0.6-3.1c0-0.6-0.2-1.4-0.4-2.1c-0.3-0.7-0.6-1.4-1.2-2
				c-0.5-0.6-1.2-1.2-1.9-1.6c-0.7-0.4-1.5-0.7-2.4-0.9c-0.8-0.1-1.8-0.1-2.7-0.3c-0.9-0.1-1.9-0.5-2.6-1c-0.8-0.5-1.3-1.2-1.8-1.9
				c-0.4-0.7-0.7-1.5-0.8-2.2c-0.3-1.3-0.6-2.4-0.8-3.2c-0.2-0.7-0.4-1.2-0.4-1.2c-0.1-0.3,0-0.7,0.4-0.8
				C55.9,26.1,56.3,26.3,56.4,26.6C56.4,26.6,56.4,26.6,56.4,26.6L56.4,26.6z"/>
		</g>
		<path class="st5" d="M25.7,69.6c0,0,0.9,7.8,15.1,7.8c14.2,0,15.1-7.8,15.1-7.8"/>
		<g>
			<g>
				<path class="st3" d="M20.7,43.5c0,0-0.1-1.1,0-2.7"/>
				<path class="st4" d="M20.5,43.5c0,0-0.1-0.2-0.2-0.4c0-0.1-0.1-0.3-0.1-0.4c0-0.2,0-0.3,0-0.5c0-0.3,0-0.7,0.1-0.9
					c0.1-0.3,0.1-0.4,0.1-0.4c0-0.1,0.2-0.2,0.3-0.1c0.1,0,0.1,0.1,0.1,0.1c0,0,0.1,0.2,0.1,0.4c0,0.3,0.1,0.6,0.1,0.9
					c0,0.2,0,0.3,0,0.5c0,0.2,0,0.3-0.1,0.4c0,0.3-0.1,0.4-0.1,0.4l0,0C20.8,43.6,20.7,43.6,20.5,43.5
					C20.6,43.6,20.5,43.5,20.5,43.5z"/>
			</g>
			<g>
				<path class="st4" d="M19.5,39.8c0,0,0.5,0.1,1,0.5c0.3,0.2,0.6,0.5,0.8,0.8c0.3,0.3,0.5,0.7,0.7,1.1c0.2,0.4,0.4,0.8,0.5,1.2
					c0.1,0.4,0.2,0.8,0.2,1.1c0.1,0.3,0,0.6,0.1,0.8c0,0.2,0,0.3,0,0.3c0,0.1-0.1,0.2-0.2,0.2c-0.1,0-0.2-0.1-0.2-0.1l0,0
					c0,0,0-0.1-0.1-0.3c-0.1-0.2-0.1-0.4-0.2-0.7c-0.1-0.3-0.2-0.6-0.3-1c-0.1-0.4-0.3-0.7-0.5-1.1c-0.2-0.4-0.4-0.7-0.6-1
					c-0.2-0.3-0.4-0.6-0.6-0.8c-0.4-0.4-0.7-0.7-0.7-0.7c-0.1,0-0.1-0.1,0-0.2C19.4,39.8,19.5,39.8,19.5,39.8z"/>
			</g>
		</g>
		<g>
			<g>
				<path class="st3" d="M60.5,43.5c0,0,0.1-1.1,0-2.7"/>
				<path class="st4" d="M60.3,43.5c0,0-0.1-0.2-0.1-0.4c0-0.1-0.1-0.3-0.1-0.4c0-0.2,0-0.3,0-0.5c0-0.3,0-0.7,0.1-0.9
					c0-0.3,0.1-0.4,0.1-0.4c0-0.1,0.2-0.2,0.3-0.1c0.1,0,0.1,0.1,0.1,0.1c0,0,0.1,0.2,0.1,0.4c0.1,0.3,0.1,0.6,0.1,0.9
					c0,0.2,0,0.3,0,0.5c0,0.2-0.1,0.3-0.1,0.4c-0.1,0.3-0.2,0.4-0.2,0.4C60.6,43.6,60.5,43.6,60.3,43.5
					C60.4,43.5,60.3,43.5,60.3,43.5L60.3,43.5z"/>
			</g>
			<g>
				<path class="st4" d="M61.7,40.1c0,0-0.3,0.2-0.7,0.7c-0.2,0.2-0.4,0.5-0.6,0.8c-0.2,0.3-0.4,0.7-0.6,1c-0.2,0.4-0.3,0.7-0.5,1.1
					c-0.1,0.4-0.2,0.7-0.3,1c-0.1,0.3-0.1,0.6-0.2,0.7c-0.1,0.2-0.1,0.3-0.1,0.3l0,0c0,0.1-0.1,0.2-0.3,0.1c-0.1,0-0.1-0.1-0.1-0.2
					c0,0,0-0.1,0-0.3c0-0.2,0-0.5,0.1-0.8c0-0.3,0.1-0.7,0.2-1.1c0.1-0.4,0.3-0.8,0.5-1.2c0.2-0.4,0.5-0.8,0.7-1.1
					c0.3-0.3,0.6-0.6,0.8-0.8c0.6-0.4,1-0.5,1-0.5c0.1,0,0.2,0,0.2,0.1C61.8,40,61.8,40.1,61.7,40.1z"/>
			</g>
		</g>
		<circle class="st6" cx="21.4" cy="48.5" r="1.6"/>
		<circle class="st6" cx="60.3" cy="48.5" r="1.6"/>
		<ellipse class="st7" cx="31.2" cy="45.6" rx="3.7" ry="1.4"/>
		<ellipse class="st7" cx="50.2" cy="45.6" rx="3.7" ry="1.4"/>
	</g>
</g>
<circle class="st8" cx="33" cy="40.4" r="0.8"/>
<circle class="st8" cx="48.5" cy="40.4" r="0.8"/>
</svg>
