<?xml version="1.0" encoding="utf-8"?>
<!-- Generator: Adobe Illustrator 19.0.0, SVG Export Plug-In . SVG Version: 6.00 Build 0)  -->
<svg version="1.1" id="OBJECTS" xmlns="http://www.w3.org/2000/svg" xmlns:xlink="http://www.w3.org/1999/xlink" x="0px" y="0px"
	 viewBox="0 0 81.5 81.5" style="enable-background:new 0 0 81.5 81.5;" xml:space="preserve">
<style type="text/css">
	.st0{clip-path:url(#SVGID_2_);}
	.st1{fill:#FFFFFF;stroke:#262424;stroke-width:1.6237;stroke-linecap:round;stroke-linejoin:round;stroke-miterlimit:10;}
	.st2{fill:#FFFFFF;stroke:#262424;stroke-width:1.6237;stroke-miterlimit:10;}
	.st3{fill:#FFFFFF;stroke:#262424;stroke-width:1.2178;stroke-miterlimit:10;}
	.st4{fill:#FFFFFF;}
	.st5{fill:#262424;}
	.st6{fill:#FFFFFF;stroke:#262424;stroke-width:0.6089;stroke-miterlimit:10;}
	.st7{fill:#FFFFFF;stroke:#262424;stroke-width:1.1161;stroke-miterlimit:10;}
	.st8{fill:#7070F9;stroke:#262424;stroke-width:1.2178;stroke-miterlimit:10;}
	.st9{fill:none;stroke:#262424;stroke-width:1.2178;stroke-miterlimit:10;}
</style>
<g>
	<defs>
		<circle id="SVGID_1_" cx="40.7" cy="40.7" r="40.7"/>
	</defs>
	<use xlink:href="#SVGID_1_"  style="overflow:visible;fill:#F0766A;"/>
	<clipPath id="SVGID_2_">
		<use xlink:href="#SVGID_1_"  style="overflow:visible;"/>
	</clipPath>
	<g class="st0">
		<ellipse class="st1" cx="41.1" cy="23.3" rx="19" ry="10.6"/>
		<path class="st2" d="M63.2,74.8C61.4,73,44.6,61.6,40.9,61.6c-3.8,0-20.5,11.4-22.3,13.1c-1.8,1.7-4,16.4-4,16.4h26.3h26.3
			C67.2,91.2,65,76.5,63.2,74.8z"/>
		<path class="st3" d="M67.2,91.2H14.6c0,0,2.2-14.7,4-16.4c1.2-1.1,8.5-6.2,14.5-9.7c3.4-2,6.4-3.4,7.8-3.4c1.4,0,4.6,1.6,8.1,3.6
			c6,3.5,13.1,8.4,14.2,9.5C65,76.5,67.2,91.2,67.2,91.2z"/>
		<path class="st3" d="M49,65.4c0,2.7-3.6,4.9-7.9,4.9c-4.4,0-7.9-2.2-7.9-4.9c0-0.1,0-0.2,0-0.4c3.4-2,6.4-3.4,7.8-3.4
			c1.4,0,4.6,1.6,8.1,3.6C49,65.3,49,65.3,49,65.4z"/>
		<g>
			<polyline class="st4" points="36.1,65.8 36.1,54.6 45.6,54.6 45.6,65.8 			"/>
			<path class="st5" d="M35.8,65.8c-0.1-1.9-0.3-3.8-0.3-5.6c-0.1-1.9-0.1-3.8-0.2-5.6l0-0.8l0.8,0c3.2,0,6.3,0,9.5,0l0.8,0l0,0.8
				c0,1.9-0.1,3.8-0.1,5.6c0,1.9-0.1,3.8-0.2,5.6h-0.8c-0.1-1.9-0.2-3.8-0.2-5.6c0-1.9-0.1-3.8-0.1-5.6l0.8,0.8c-3.2,0-6.3,0-9.5,0
				l0.8-0.8c0,1.9-0.1,3.8-0.2,5.6c-0.1,1.9-0.2,3.8-0.3,5.6H35.8z"/>
		</g>
		<g>
			<path class="st3" d="M55.9,40.7c0,0,3.3-4.2,5.2-3.8c1.9,0.4,1.9,2.4,1.9,2.4s-0.3,7.2-0.7,8.1c-0.3,0.9-4,1.4-5.9,1.1L55.9,40.7
				z"/>
			<path class="st3" d="M25.8,40.7c0,0-3.3-4.2-5.2-3.8c-1.9,0.4-1.9,2.4-1.9,2.4s0.3,7.2,0.7,8.1c0.3,0.9,4,1.4,5.9,1.1L25.8,40.7z
				"/>
		</g>
		<path class="st3" d="M57.1,50.1c0,0-0.3,3.2-1.8,4.6c-2.3,2.1-9.6,6.6-14.5,6.6c-1.7,0-3.7-0.6-5.7-1.4c-3.7-1.5-7.2-3.8-8.7-5.2
			c-1.5-1.3-1.8-4.6-1.8-4.6s-0.3-3.4-0.5-8c-0.4-8.3-0.7-20.2,1.2-22.6c3.7-4.6,15.6-4.9,15.6-4.9s11.8,0.3,15.6,4.9
			C59.4,23.2,57.1,50.1,57.1,50.1z"/>
		<path class="st5" d="M45.6,54.3c0,0-1.7,0.8-4.7,0.8c-3.1-0.1-4.7-0.8-4.7-0.8s1.1,1.7,4.7,1.7C44.5,56,45.6,54.3,45.6,54.3z"/>
		<path class="st6" d="M34.9,50.7c0,0,0.8-0.6,1.7-0.6h8.6c0.9,0,1.7,0.6,1.7,0.6C46.9,54.5,34.9,54.5,34.9,50.7z"/>
		<path class="st5" d="M28.2,40c0-0.8,0.5-1.7,1.2-2.2c0.7-0.5,1.6-0.7,2.5-0.7c0.8,0,1.7,0.2,2.5,0.6c0.7,0.5,1.2,1.4,1.1,2.2
			c-0.2-0.8-0.7-1.4-1.4-1.7c-0.7-0.3-1.4-0.4-2.2-0.4c-0.8,0-1.5,0.1-2.2,0.4C29,38.7,28.5,39.3,28.2,40z"/>
		<path class="st5" d="M28.2,40c0-0.8,0.5-1.7,1.2-2.2c0.7-0.5,1.6-0.7,2.5-0.7c0.8,0,1.7,0.2,2.5,0.6c0.7,0.5,1.2,1.4,1.1,2.2
			c-0.2-0.8-0.7-1.4-1.4-1.7c-0.7-0.3-1.4-0.4-2.2-0.4c-0.8,0-1.5,0.1-2.2,0.4C29,38.7,28.5,39.3,28.2,40z"/>
		<g>
			<path class="st4" d="M26.5,37.8c0,0,4.1-5.2,10.1-1.3"/>
			<path class="st5" d="M26.3,37.6c0.5-0.9,1.2-1.6,2-2.2c0.8-0.6,1.8-1,2.9-1.1c1-0.1,2.1-0.1,3.1,0.3c0.5,0.1,0.9,0.4,1.4,0.6
				c0.4,0.3,0.8,0.6,1.2,0.9c0.2,0.1,0.2,0.4,0.1,0.6c-0.1,0.1-0.3,0.2-0.4,0.1l-0.1,0c-0.4-0.1-0.8-0.3-1.3-0.5
				c-0.4-0.1-0.8-0.3-1.3-0.3c-0.8-0.2-1.7-0.2-2.5-0.1c-1.6,0.2-3.2,1-4.7,2.1l0,0c-0.1,0.1-0.3,0.1-0.4-0.1
				C26.3,37.8,26.3,37.7,26.3,37.6z"/>
		</g>
		<path class="st5" d="M53.3,40c0-0.8-0.5-1.7-1.2-2.2c-0.7-0.5-1.6-0.7-2.5-0.7c-0.8,0-1.7,0.2-2.5,0.6c-0.7,0.5-1.2,1.4-1.1,2.2
			c0.2-0.8,0.7-1.4,1.4-1.7c0.7-0.3,1.4-0.4,2.2-0.4c0.8,0,1.5,0.1,2.2,0.4C52.5,38.7,53.1,39.3,53.3,40z"/>
		<path class="st5" d="M53.3,40c0-0.8-0.5-1.7-1.2-2.2c-0.7-0.5-1.6-0.7-2.5-0.7c-0.8,0-1.7,0.2-2.5,0.6c-0.7,0.5-1.2,1.4-1.1,2.2
			c0.2-0.8,0.7-1.4,1.4-1.7c0.7-0.3,1.4-0.4,2.2-0.4c0.8,0,1.5,0.1,2.2,0.4C52.5,38.7,53.1,39.3,53.3,40z"/>
		<g>
			<path class="st4" d="M55,37.8c0,0-4.1-5.2-10.1-1.3"/>
			<path class="st5" d="M54.8,38c-1.5-1-3-1.9-4.7-2.1c-0.8-0.1-1.6-0.1-2.5,0.1c-0.4,0.1-0.8,0.2-1.3,0.3c-0.4,0.1-0.8,0.3-1.3,0.5
				l-0.1,0c-0.2,0.1-0.4-0.1-0.5-0.3c-0.1-0.2,0-0.3,0.1-0.4c0.4-0.3,0.8-0.6,1.2-0.9c0.4-0.2,0.9-0.5,1.4-0.6c1-0.4,2-0.4,3.1-0.3
				c1,0.1,2,0.5,2.9,1.1c0.8,0.6,1.5,1.3,2,2.2c0.1,0.1,0,0.3-0.1,0.4C55,38.1,54.9,38.1,54.8,38L54.8,38z"/>
		</g>
		<g>
			<path class="st5" d="M44.3,46.9c-0.4-0.2-0.9-0.2-1.3-0.1c-0.4,0.1-0.8,0.3-1,0.6l0,0c0,0,0,0.1,0,0.1c0,0.1,0.1,0.2,0.3,0.2
				c0.4,0,0.7,0,1.1-0.1c0.1,0,0.1,0,0.1-0.1c0-0.1,0-0.1-0.1-0.1c-0.2,0-0.3,0-0.5,0c0.1-0.1,0.3-0.1,0.4-0.2
				c0.3-0.1,0.6-0.2,1-0.2h0c0,0,0.1,0,0.1,0C44.3,47,44.3,47,44.3,46.9z"/>
			<path class="st5" d="M44.3,46.9c-0.4-0.2-0.9-0.2-1.3-0.1c-0.4,0.1-0.8,0.3-1,0.6l0,0c0,0,0,0.1,0,0.1c0,0.1,0.1,0.2,0.3,0.2
				c0.4,0,0.7,0,1.1-0.1c0.1,0,0.1,0,0.1-0.1c0-0.1,0-0.1-0.1-0.1c-0.2,0-0.3,0-0.5,0c0.1-0.1,0.3-0.1,0.4-0.2
				c0.3-0.1,0.6-0.2,1-0.2h0c0,0,0.1,0,0.1,0C44.3,47,44.3,47,44.3,46.9z"/>
			<path class="st5" d="M37.9,46.9c0.4-0.2,0.9-0.2,1.3-0.1c0.4,0.1,0.8,0.3,1,0.6l0,0c0,0,0,0.1,0,0.1c0,0.1-0.1,0.2-0.3,0.2
				c-0.4,0-0.7,0-1.1-0.1c-0.1,0-0.1,0-0.1-0.1c0-0.1,0-0.1,0.1-0.1c0.2,0,0.3,0,0.5,0c-0.1-0.1-0.3-0.1-0.4-0.2
				c-0.3-0.1-0.6-0.2-1-0.2h0c0,0-0.1,0-0.1,0C37.8,47,37.8,47,37.9,46.9z"/>
			<path class="st5" d="M37.9,46.9c0.4-0.2,0.9-0.2,1.3-0.1c0.4,0.1,0.8,0.3,1,0.6l0,0c0,0,0,0.1,0,0.1c0,0.1-0.1,0.2-0.3,0.2
				c-0.4,0-0.7,0-1.1-0.1c-0.1,0-0.1,0-0.1-0.1c0-0.1,0-0.1,0.1-0.1c0.2,0,0.3,0,0.5,0c-0.1-0.1-0.3-0.1-0.4-0.2
				c-0.3-0.1-0.6-0.2-1-0.2h0c0,0-0.1,0-0.1,0C37.8,47,37.8,47,37.9,46.9z"/>
		</g>
		<g>
			<g>
				<path class="st5" d="M57.7,37.9c0.3,0,0.3-0.7,0-0.7C57.4,37.2,57.4,37.9,57.7,37.9L57.7,37.9z"/>
			</g>
		</g>
		<g>
			<path class="st5" d="M25.2,78.5l-0.8,12.8c0,0.3-0.3,0.6-0.6,0.6c-0.3,0-0.6-0.3-0.6-0.6c0,0,0,0,0,0l1.7-12.7
				c0-0.1,0.1-0.2,0.2-0.2C25.1,78.3,25.2,78.4,25.2,78.5z"/>
		</g>
		<g>
			<path class="st5" d="M56.7,78.4l1.7,12.7c0,0.3-0.2,0.6-0.5,0.7c-0.3,0-0.6-0.2-0.7-0.5c0,0,0,0,0,0l-0.8-12.8
				c0-0.1,0.1-0.2,0.2-0.2C56.6,78.3,56.7,78.3,56.7,78.4z"/>
		</g>
		<g>
			<g>
				<path class="st5" d="M37.7,13.3c0.1,0,0.1-0.2,0-0.2C37.7,13.2,37.7,13.3,37.7,13.3L37.7,13.3z"/>
			</g>
		</g>
		<g>
			<path class="st7" d="M23.6,19.2c0-0.1-3.9,4.1-4.4,8.8c-0.2,1.8,1.7,7,1.7,7s0.2-1.5,0.2-1.5c0.1,0.4,3,6.4,3,6.4l3.3-7.2
				c0,0,1.4-2.5,1.6-4.1C29.4,24.8,23.7,18.9,23.6,19.2z"/>
			<g>
				<path class="st4" d="M23,25.7c0,0-2.2,3,1.1,13.7"/>
				<path class="st5" d="M23.1,25.8c-0.5,1-0.6,2.2-0.6,3.3c0,1.1,0.1,2.3,0.3,3.4c0.2,1.1,0.5,2.3,0.8,3.4c0.3,1.1,0.7,2.2,1,3.3
					l0,0c0.1,0.3-0.1,0.6-0.4,0.7c-0.3,0.1-0.6-0.1-0.7-0.4c0,0,0,0,0,0c-0.3-1.1-0.6-2.3-0.9-3.4c-0.2-1.2-0.4-2.3-0.6-3.5
					C22,31.4,22,30.2,22,29c0.1-1.2,0.2-2.4,0.8-3.5c0.1-0.1,0.2-0.1,0.3-0.1C23.2,25.5,23.2,25.6,23.1,25.8L23.1,25.8z"/>
			</g>
		</g>
		<g>
			<path class="st7" d="M58.2,19.2c0-0.1,3.9,4.1,4.4,8.8c0.2,1.8-1.7,7-1.7,7s-0.2-1.5-0.2-1.5c-0.1,0.4-3,6.4-3,6.4l-3.3-7.2
				c0,0-1.4-2.5-1.6-4.1C52.4,24.8,58.1,18.9,58.2,19.2z"/>
			<g>
				<path class="st4" d="M58.8,25.7c0,0,2.2,3-1.1,13.7"/>
				<path class="st5" d="M59,25.5c0.6,1.1,0.7,2.3,0.8,3.5c0.1,1.2,0,2.4-0.1,3.6c-0.1,1.2-0.3,2.3-0.6,3.5
					c-0.2,1.2-0.5,2.3-0.9,3.4c-0.1,0.3-0.4,0.5-0.7,0.4c-0.3-0.1-0.5-0.4-0.4-0.7c0,0,0,0,0,0l0,0c0.4-1.1,0.7-2.2,1-3.3
					c0.3-1.1,0.6-2.2,0.8-3.4c0.2-1.1,0.3-2.3,0.3-3.4c0-1.1-0.1-2.3-0.6-3.3l0,0c0-0.1,0-0.2,0.1-0.2C58.8,25.4,58.9,25.5,59,25.5z
					"/>
			</g>
		</g>
		<g>
			<path class="st4" d="M38,45.9c0,0-4.7,1.4-5,6.4"/>
			<path class="st5" d="M38,45.9c-1.3,0.7-2.4,1.6-3.2,2.7c-0.4,0.5-0.8,1.1-1.1,1.8c-0.3,0.6-0.5,1.3-0.7,2c0-0.7,0-1.5,0.2-2.2
				c0.2-0.7,0.6-1.4,1.1-2C35.2,47,36.5,46.2,38,45.9z"/>
		</g>
		<g>
			<path class="st4" d="M43.6,45.9c0,0,4.7,1.4,5,6.4"/>
			<path class="st5" d="M43.6,45.9c1.4,0.3,2.8,1.1,3.7,2.3c0.5,0.6,0.8,1.3,1.1,2c0.2,0.7,0.3,1.5,0.2,2.2c-0.2-0.7-0.4-1.4-0.7-2
				c-0.3-0.6-0.6-1.2-1.1-1.8C46,47.5,44.8,46.6,43.6,45.9z"/>
		</g>
		<g>
			<g>
				<path class="st4" d="M21,43.1c0,0-0.1-1.1,0-2.7"/>
				<path class="st5" d="M20.8,43.1c-0.1-0.2-0.2-0.5-0.2-0.7c0-0.2-0.1-0.5-0.1-0.7c0-0.2,0-0.5,0.1-0.7c0-0.2,0.1-0.5,0.2-0.7
					c0-0.1,0.2-0.2,0.3-0.1c0.1,0,0.1,0.1,0.1,0.1c0.1,0.2,0.1,0.5,0.1,0.7c0,0.2,0,0.4,0,0.7c0,0.2,0,0.4,0,0.7
					c0,0.2-0.1,0.4-0.2,0.7l0,0C21.1,43.2,21,43.2,20.8,43.1C20.9,43.1,20.8,43.1,20.8,43.1z"/>
			</g>
			<g>
				<path class="st5" d="M19.8,39.4c0.6,0.2,1.1,0.5,1.5,0.9c0.4,0.4,0.8,0.9,1,1.5c0.3,0.5,0.5,1.1,0.6,1.7
					c0.1,0.3,0.1,0.6,0.1,0.9c0,0.3,0,0.6,0,0.9c0,0.1-0.1,0.2-0.2,0.2c-0.1,0-0.2-0.1-0.2-0.1l0,0c-0.2-0.5-0.3-1.1-0.5-1.6
					c-0.2-0.5-0.4-1-0.6-1.5c-0.3-0.5-0.5-0.9-0.9-1.3c-0.3-0.4-0.7-0.8-1.1-1.1l0,0c-0.1-0.1-0.1-0.1,0-0.2
					C19.7,39.4,19.7,39.4,19.8,39.4z"/>
			</g>
		</g>
		<g>
			<g>
				<path class="st4" d="M60.8,43.1c0,0,0.1-1.1,0-2.7"/>
				<path class="st5" d="M60.6,43.1c-0.1-0.2-0.1-0.5-0.2-0.7c0-0.2,0-0.4,0-0.7c0-0.2,0-0.4,0-0.7c0-0.2,0.1-0.4,0.1-0.7
					c0-0.1,0.2-0.2,0.3-0.1c0.1,0,0.1,0.1,0.1,0.1c0.1,0.2,0.1,0.5,0.2,0.7c0.1,0.2,0,0.5,0.1,0.7c0,0.2,0,0.5-0.1,0.7
					c-0.1,0.2-0.1,0.5-0.2,0.7C60.9,43.2,60.8,43.2,60.6,43.1C60.7,43.1,60.6,43.1,60.6,43.1L60.6,43.1z"/>
			</g>
			<g>
				<path class="st5" d="M62,39.7c-0.4,0.3-0.8,0.7-1.1,1.1c-0.3,0.4-0.6,0.9-0.9,1.3c-0.3,0.5-0.4,1-0.6,1.5
					c-0.2,0.5-0.3,1.1-0.5,1.6l0,0c0,0.1-0.1,0.2-0.3,0.1c-0.1,0-0.1-0.1-0.1-0.2c0-0.3,0-0.6,0-0.9c0-0.3,0.1-0.6,0.1-0.9
					c0.1-0.6,0.3-1.1,0.6-1.7c0.3-0.5,0.6-1,1-1.5c0.4-0.4,0.9-0.8,1.5-0.9c0.1,0,0.2,0,0.2,0.1C62.1,39.6,62.1,39.6,62,39.7
					L62,39.7z"/>
			</g>
		</g>
		<path class="st8" d="M35.8,60.4c0,0-5,0-9.3,3.3l1.6,4.1l8.4,23.4l-4.8-25.4l4-2.3V60.4z"/>
		<path class="st8" d="M45.7,60.4c0,0,5,0,9.3,3.3l-1.6,4.1l-8.4,23.4l4.8-25.4l-4-2.3V60.4z"/>
		<path class="st9" d="M32.7,70.3c0,0,3.5,3.4,8.1,3.4c3.5,0,6.5-1.4,8.1-3.4"/>
		<path class="st5" d="M45.6,54.3c0,0-1.7,0.8-4.7,0.8c-3.1-0.1-4.7-0.8-4.7-0.8s1.1,1.7,4.7,1.7C44.5,56,45.6,54.3,45.6,54.3z"/>
	</g>
</g>
<g>
	<g>
		<path class="st4" d="M36.5,54c-0.9,1.5-1.5,3.3-1.2,5.5c0.6,5,5.9,7.5,6.3,7.2c3.8-2.6,6.6-5.4,6-8.2c-0.2-1.8-1.2-3.2-2.5-4.4"/>
		<path class="st5" d="M36.7,54.1c-0.5,1-0.9,2-1,3c-0.1,0.5-0.1,1.1-0.1,1.6c0,0.3,0,0.5,0.1,0.8l0.2,0.8l0.2,0.7
			c0.1,0.2,0.2,0.5,0.3,0.7c0.2,0.5,0.5,0.9,0.8,1.3c0.3,0.4,0.7,0.8,1.1,1.2c0.4,0.4,0.8,0.7,1.2,1c0.4,0.3,0.9,0.6,1.3,0.8
			c0.1,0.1,0.2,0.1,0.3,0.1c0.1,0,0.1,0,0.1,0c0,0,0.2,0,0,0c-0.2,0.1,0,0,0,0l0.2-0.1l0.3-0.2c0.9-0.6,1.8-1.3,2.5-2
			c0.8-0.7,1.5-1.5,2.1-2.4c0.5-0.9,0.8-1.9,0.7-2.9l0,0l0,0c-0.1-0.8-0.3-1.6-0.7-2.3c-0.4-0.7-0.9-1.4-1.5-2l0.4-0.4
			c0.7,0.6,1.3,1.2,1.8,2c0.5,0.8,0.8,1.6,1,2.6l0,0c0.1,0.6,0.1,1.2,0,1.8c-0.1,0.6-0.4,1.2-0.6,1.7c-0.3,0.5-0.6,1-1,1.4
			c-0.4,0.4-0.8,0.8-1.2,1.2c-0.8,0.8-1.7,1.5-2.6,2.1l-0.3,0.2L42,67.1c-0.1,0,0,0.1-0.3,0.2c-0.3,0.1-0.3,0-0.5,0
			c-0.1,0-0.2,0-0.3-0.1c-0.2-0.1-0.3-0.1-0.4-0.2c-0.6-0.2-1-0.6-1.5-0.9c-0.5-0.3-0.9-0.7-1.3-1.1c-0.4-0.4-0.8-0.8-1.1-1.3
			c-0.3-0.5-0.6-1-0.9-1.5c-0.1-0.3-0.2-0.5-0.3-0.8L35,60.5l-0.1-0.8c0-0.3-0.1-0.6-0.1-0.9c0-0.6,0-1.2,0.2-1.7
			c0.2-1.1,0.7-2.2,1.3-3.1L36.7,54.1z"/>
	</g>
	<g>
		<path class="st4" d="M38.8,55.7c-1,3.3-1.3,6.5,2.3,11.3c0,0,3.1-2.5,2.3-8.8"/>
		<path class="st5" d="M39,55.7c-0.2,1-0.4,2-0.5,2.9c-0.1,1,0,2,0.3,2.9c0.2,0.9,0.6,1.9,1.1,2.7c0.2,0.4,0.5,0.9,0.7,1.3
			c0.3,0.4,0.6,0.8,0.8,1.2l-0.5-0.1c0.1-0.1,0.3-0.2,0.4-0.4c0.1-0.1,0.2-0.3,0.3-0.4c0.2-0.3,0.4-0.6,0.6-1
			c0.3-0.7,0.6-1.4,0.8-2.1c0.1-0.4,0.2-0.7,0.2-1.1c0.1-0.4,0.1-0.8,0.1-1.1c0-0.4,0-0.8,0-1.2l-0.1-1.2l0,0c0-0.1,0.1-0.2,0.2-0.2
			c0.1,0,0.2,0.1,0.2,0.2l0.1,1.2c0,0.4,0.1,0.8,0.1,1.2c0,0.4,0,0.8-0.1,1.2c0,0.4-0.1,0.8-0.2,1.2c-0.2,0.8-0.4,1.6-0.8,2.3
			c-0.2,0.4-0.4,0.7-0.6,1.1c-0.1,0.2-0.2,0.3-0.4,0.5c-0.1,0.2-0.3,0.3-0.5,0.5c-0.1,0.1-0.3,0.1-0.5,0l0,0l0,0
			c-0.6-0.8-1.2-1.7-1.6-2.6c-0.5-0.9-0.8-1.9-1.1-2.9c-0.2-1-0.3-2.1-0.1-3.1c0.1-1,0.4-2,0.7-3c0-0.1,0.1-0.1,0.2-0.1
			C38.9,55.6,39,55.6,39,55.7z"/>
	</g>
</g>
<g>
	<circle class="st1" cx="32.6" cy="39.9" r="0.8"/>
	<circle class="st1" cx="48.9" cy="39.9" r="0.8"/>
</g>
</svg>
