<?xml version="1.0" encoding="utf-8"?>
<!-- Generator: Adobe Illustrator 19.0.0, SVG Export Plug-In . SVG Version: 6.00 Build 0)  -->
<svg version="1.1" id="OBJECTS" xmlns="http://www.w3.org/2000/svg" xmlns:xlink="http://www.w3.org/1999/xlink" x="0px" y="0px"
	 viewBox="0 0 81.5 81.5" style="enable-background:new 0 0 81.5 81.5;" xml:space="preserve">
<style type="text/css">
	.st0{clip-path:url(#SVGID_2_);}
	.st1{fill:#FFFFFF;stroke:#262424;stroke-width:1.6237;stroke-miterlimit:10;}
	.st2{fill:#877BFF;stroke:#262424;stroke-width:1.2178;stroke-miterlimit:10;}
	.st3{fill:#FFFFFF;stroke:#262424;stroke-width:1.2178;stroke-miterlimit:10;}
	.st4{fill:#FFFFFF;}
	.st5{fill:#262424;}
	.st6{fill:none;}
	.st7{fill:none;stroke:#262424;stroke-width:0.9041;stroke-miterlimit:10;}
	.st8{fill:none;stroke:#262424;stroke-width:0.9361;stroke-miterlimit:10;}
	.st9{fill:#FFFFFF;stroke:#262424;stroke-width:1.6237;stroke-linecap:round;stroke-linejoin:round;stroke-miterlimit:10;}
</style>
<g>
	<defs>
		<circle id="SVGID_1_" cx="40.7" cy="40.7" r="40.7"/>
	</defs>
	<use xlink:href="#SVGID_1_"  style="overflow:visible;fill:#FF8300;"/>
	<clipPath id="SVGID_2_">
		<use xlink:href="#SVGID_1_"  style="overflow:visible;"/>
	</clipPath>
	<g class="st0">
		<path class="st1" d="M64.2,70.1C62.4,68.4,45.7,57,41.9,57c-3.8,0-20.5,11.4-22.3,13.1c-1.8,1.7-4,16.4-4,16.4h26.3h26.3
			C68.2,86.6,66,71.9,64.2,70.1z"/>
		<path class="st2" d="M68.2,86.6H15.6c0,0,2.2-14.7,4-16.4c1.2-1.1,8.5-6.2,14.5-9.7c3.4-2,6.4-3.4,7.8-3.4c1.4,0,4.6,1.6,8.1,3.6
			c6,3.5,13.1,8.4,14.2,9.5C66,71.9,68.2,86.6,68.2,86.6z"/>
		<path class="st3" d="M50,60.8c0,2.7-7.9,4.9-7.9,4.9s-7.9-2.2-7.9-4.9c0-0.1,0-0.2,0-0.4c3.4-2,6.4-3.4,7.8-3.4
			c1.4,0,4.6,1.6,8.1,3.6C50,60.7,50,60.7,50,60.8z"/>
		<g>
			<polyline class="st4" points="37.1,61.2 37.1,50 46.6,50 46.6,61.2 			"/>
			<path class="st5" d="M36.8,61.2c-0.1-0.9-0.1-1.9-0.2-2.8c-0.1-0.9-0.1-1.9-0.1-2.8c-0.1-1.9-0.1-3.8-0.2-5.6l0-0.8l0.8,0
				c3.2,0,6.3,0,9.5,0l0.8,0l0,0.8c0,1.9-0.1,3.8-0.1,5.6c0,1.9-0.1,3.8-0.2,5.6h-0.8c-0.1-1.9-0.2-3.8-0.2-5.6
				c0-1.9-0.1-3.8-0.1-5.6l0.8,0.8c-3.2,0-6.3,0-9.5,0l0.8-0.8c0,1.9-0.1,3.8-0.2,5.6c0,0.9-0.1,1.9-0.1,2.8
				c-0.1,0.9-0.1,1.9-0.2,2.8H36.8z"/>
		</g>
		<g>
			<path class="st3" d="M56.9,36c0,0,3.3-4.2,5.2-3.8c1.9,0.4,1.9,2.4,1.9,2.4s-0.3,7.2-0.7,8.1c-0.3,0.9-4,1.4-5.9,1.1L56.9,36z"/>
			<path class="st3" d="M26.8,36c0,0-3.3-4.2-5.2-3.8c-1.9,0.4-1.9,2.4-1.9,2.4s0.3,7.2,0.7,8.1c0.3,0.9,4,1.4,5.9,1.1L26.8,36z"/>
		</g>
		<path class="st3" d="M58.1,45.6c0,0-0.3,3.2-1.8,4.6c-2.3,2.1-9.6,6.6-14.5,6.6c-1.7,0-3.7-0.6-5.7-1.4c-3.7-1.5-7.2-3.8-8.7-5.2
			c-1.5-1.3-1.8-4.6-1.8-4.6s-0.3-3.4-0.5-8c-0.4-8.3-0.7-20.2,1.2-22.6c3.7-4.6,15.6-4.9,15.6-4.9s11.8,0.3,15.6,4.9
			C60.5,18.7,58.1,45.6,58.1,45.6z"/>
		<path class="st5" d="M44.7,50c0,0-1,0.4-2.8,0.5c-1.8-0.1-2.8-0.5-2.8-0.5s0.7,1,2.8,1C44,51,44.7,50,44.7,50z"/>
		<path class="st5" d="M46.6,46.7c0,0-1.7,0.8-4.7,0.8c-3.1-0.1-4.7-0.8-4.7-0.8s1.1,1.7,4.7,1.7C45.5,48.3,46.6,46.7,46.6,46.7z"/>
		<path class="st5" d="M29.2,35.4c0-0.8,0.5-1.7,1.2-2.2c0.7-0.5,1.6-0.7,2.5-0.7c0.8,0,1.7,0.2,2.5,0.6c0.7,0.5,1.2,1.4,1.1,2.2
			c-0.2-0.8-0.7-1.4-1.4-1.7c-0.7-0.3-1.4-0.4-2.2-0.4c-0.8,0-1.5,0.1-2.2,0.4C30,34.1,29.5,34.6,29.2,35.4z"/>
		<path class="st5" d="M29.2,35.4c0-0.8,0.5-1.7,1.2-2.2c0.7-0.5,1.6-0.7,2.5-0.7c0.8,0,1.7,0.2,2.5,0.6c0.7,0.5,1.2,1.4,1.1,2.2
			c-0.2-0.8-0.7-1.4-1.4-1.7c-0.7-0.3-1.4-0.4-2.2-0.4c-0.8,0-1.5,0.1-2.2,0.4C30,34.1,29.5,34.6,29.2,35.4z"/>
		<g>
			<path class="st4" d="M27.6,31.8c0,0,4.1-5.2,10.1-1.3"/>
			<path class="st5" d="M27.3,31.6c0,0,0,0,0.1-0.1c0-0.1,0.1-0.2,0.2-0.3c0.2-0.3,0.5-0.6,0.9-1c0.2-0.2,0.4-0.4,0.7-0.6
				c0.3-0.2,0.6-0.4,0.9-0.5c0.3-0.1,0.7-0.3,1-0.4l0.6-0.2l0.6-0.1c0.4-0.1,0.8-0.1,1.2-0.1c0.4,0,0.8,0.1,1.1,0.1
				c0.4,0.1,0.7,0.2,1,0.3c0.3,0.1,0.6,0.3,0.8,0.4c0.5,0.2,0.9,0.5,1.1,0.7c0.3,0.2,0.4,0.3,0.4,0.3c0.2,0.1,0.2,0.4,0.1,0.6
				c-0.1,0.1-0.3,0.2-0.5,0.1l-0.1,0c0,0-0.2-0.1-0.4-0.2c-0.1-0.1-0.3-0.1-0.5-0.2c-0.2-0.1-0.4-0.1-0.6-0.2
				c-0.2-0.1-0.5-0.2-0.8-0.2c-0.3,0-0.6-0.1-0.8-0.1c-0.3,0-0.6-0.1-0.9,0c-0.3,0-0.6,0-0.9,0.1c-0.3,0-0.6,0.1-0.9,0.2
				c-0.3,0.1-0.6,0.2-0.9,0.3c-0.3,0.1-0.5,0.2-0.8,0.3c-0.3,0.1-0.5,0.2-0.7,0.4c-0.9,0.5-1.4,0.9-1.4,0.9l0,0
				c-0.1,0.1-0.3,0.1-0.4-0.1C27.3,31.8,27.3,31.7,27.3,31.6z"/>
		</g>
		<path class="st5" d="M54.4,35.4c0-0.8-0.5-1.7-1.2-2.2c-0.7-0.5-1.6-0.7-2.5-0.7c-0.8,0-1.7,0.2-2.5,0.6c-0.7,0.5-1.2,1.4-1.1,2.2
			c0.2-0.8,0.7-1.4,1.4-1.7c0.7-0.3,1.4-0.4,2.2-0.4c0.8,0,1.5,0.1,2.2,0.4C53.5,34.1,54.1,34.6,54.4,35.4z"/>
		<path class="st5" d="M54.4,35.4c0-0.8-0.5-1.7-1.2-2.2c-0.7-0.5-1.6-0.7-2.5-0.7c-0.8,0-1.7,0.2-2.5,0.6c-0.7,0.5-1.2,1.4-1.1,2.2
			c0.2-0.8,0.7-1.4,1.4-1.7c0.7-0.3,1.4-0.4,2.2-0.4c0.8,0,1.5,0.1,2.2,0.4C53.5,34.1,54.1,34.6,54.4,35.4z"/>
		<g>
			<path class="st4" d="M56,31.8c0,0-4.1-5.2-10.1-1.3"/>
			<path class="st5" d="M55.8,32c0,0-0.5-0.4-1.4-0.9c-0.2-0.1-0.4-0.2-0.7-0.4c-0.2-0.1-0.5-0.2-0.8-0.3c-0.3-0.1-0.6-0.2-0.9-0.3
				c-0.3-0.1-0.6-0.1-0.9-0.2c-0.3-0.1-0.6,0-0.9-0.1c-0.3,0-0.6,0-0.9,0c-0.3,0-0.6,0.1-0.8,0.1c-0.3,0-0.5,0.1-0.8,0.2
				c-0.2,0.1-0.5,0.1-0.6,0.2c-0.2,0.1-0.4,0.1-0.5,0.2c-0.3,0.1-0.4,0.2-0.4,0.2l0,0c-0.2,0.1-0.4,0-0.5-0.3
				c-0.1-0.2,0-0.3,0.1-0.5c0,0,0.1-0.1,0.4-0.3c0.3-0.2,0.6-0.5,1.1-0.7c0.3-0.1,0.5-0.3,0.8-0.4c0.3-0.1,0.6-0.2,1-0.3
				c0.4,0,0.7-0.1,1.1-0.1c0.4,0,0.8,0,1.2,0.1l0.6,0.1l0.6,0.2c0.4,0.1,0.7,0.3,1,0.4c0.3,0.2,0.6,0.3,0.9,0.5
				c0.3,0.2,0.5,0.4,0.7,0.6c0.4,0.4,0.7,0.8,0.9,1c0.1,0.1,0.2,0.2,0.2,0.3c0,0.1,0.1,0.1,0.1,0.1c0.1,0.2,0,0.3-0.1,0.4
				C56,32.1,55.9,32.1,55.8,32L55.8,32z"/>
		</g>
		<g>
			<path class="st5" d="M45.3,42.3c-0.4-0.2-0.9-0.2-1.3-0.1c-0.4,0.1-0.8,0.3-1,0.6l0,0c0,0,0,0.1,0,0.1c0,0.1,0.1,0.2,0.3,0.2
				c0.4,0,0.7,0,1.1-0.1c0.1,0,0.1,0,0.1-0.1c0-0.1,0-0.1-0.1-0.1c-0.2,0-0.3,0-0.5,0c0.1-0.1,0.3-0.1,0.4-0.2
				c0.3-0.1,0.6-0.2,1-0.2h0c0,0,0.1,0,0.1,0C45.3,42.4,45.3,42.3,45.3,42.3z"/>
			<path class="st5" d="M45.3,42.3c-0.4-0.2-0.9-0.2-1.3-0.1c-0.4,0.1-0.8,0.3-1,0.6l0,0c0,0,0,0.1,0,0.1c0,0.1,0.1,0.2,0.3,0.2
				c0.4,0,0.7,0,1.1-0.1c0.1,0,0.1,0,0.1-0.1c0-0.1,0-0.1-0.1-0.1c-0.2,0-0.3,0-0.5,0c0.1-0.1,0.3-0.1,0.4-0.2
				c0.3-0.1,0.6-0.2,1-0.2h0c0,0,0.1,0,0.1,0C45.3,42.4,45.3,42.3,45.3,42.3z"/>
			<path class="st5" d="M38.9,42.3c0.4-0.2,0.9-0.2,1.3-0.1c0.4,0.1,0.8,0.3,1,0.6l0,0c0,0,0,0.1,0,0.1c0,0.1-0.1,0.2-0.3,0.2
				c-0.4,0-0.7,0-1.1-0.1c-0.1,0-0.1,0-0.1-0.1c0-0.1,0-0.1,0.1-0.1c0.2,0,0.3,0,0.5,0c-0.1-0.1-0.3-0.1-0.4-0.2
				c-0.3-0.1-0.6-0.2-1-0.2h0c0,0-0.1,0-0.1,0C38.8,42.4,38.8,42.3,38.9,42.3z"/>
			<path class="st5" d="M38.9,42.3c0.4-0.2,0.9-0.2,1.3-0.1c0.4,0.1,0.8,0.3,1,0.6l0,0c0,0,0,0.1,0,0.1c0,0.1-0.1,0.2-0.3,0.2
				c-0.4,0-0.7,0-1.1-0.1c-0.1,0-0.1,0-0.1-0.1c0-0.1,0-0.1,0.1-0.1c0.2,0,0.3,0,0.5,0c-0.1-0.1-0.3-0.1-0.4-0.2
				c-0.3-0.1-0.6-0.2-1-0.2h0c0,0-0.1,0-0.1,0C38.8,42.4,38.8,42.3,38.9,42.3z"/>
		</g>
		<g>
			<g>
				<path class="st5" d="M58.7,33.3c0.3,0,0.3-0.7,0-0.7C58.4,32.6,58.4,33.3,58.7,33.3L58.7,33.3z"/>
			</g>
		</g>
		<g>
			<path class="st5" d="M26.2,73.9l-0.8,12.8c0,0.3-0.3,0.6-0.6,0.6c-0.3,0-0.6-0.3-0.6-0.6c0,0,0,0,0,0l1.7-12.7
				c0-0.1,0.1-0.2,0.2-0.2C26.1,73.7,26.2,73.8,26.2,73.9z"/>
		</g>
		<g>
			<path class="st5" d="M57.8,73.8l1.7,12.7c0,0.3-0.2,0.6-0.5,0.7s-0.6-0.2-0.7-0.5c0,0,0,0,0,0l-0.8-12.8c0-0.1,0.1-0.2,0.2-0.2
				C57.6,73.6,57.7,73.7,57.8,73.8z"/>
		</g>
		<g>
			<g>
				<path class="st5" d="M38.7,8.7c0.1,0,0.1-0.2,0-0.2C38.7,8.5,38.7,8.7,38.7,8.7L38.7,8.7z"/>
			</g>
		</g>
		<g>
			<g>
				<path class="st4" d="M22.1,38.4c0,0-0.1-1.1,0-2.7"/>
				<path class="st5" d="M22,38.5c0,0-0.1-0.2-0.2-0.4c0-0.1-0.1-0.3-0.1-0.4c0-0.2,0-0.3,0-0.5c0-0.3,0-0.7,0.1-0.9
					c0.1-0.3,0.1-0.4,0.1-0.4c0-0.1,0.2-0.2,0.3-0.1c0.1,0,0.1,0.1,0.1,0.1c0,0,0.1,0.2,0.1,0.4c0,0.3,0.1,0.6,0.1,0.9
					c0,0.2,0,0.3,0,0.5c0,0.2,0,0.3-0.1,0.4c0,0.3-0.1,0.4-0.1,0.4l0,0C22.2,38.5,22.1,38.6,22,38.5C22,38.5,22,38.5,22,38.5z"/>
			</g>
			<g>
				<path class="st5" d="M21,34.8c0,0,0.5,0.1,1,0.5c0.3,0.2,0.6,0.5,0.8,0.8c0.3,0.3,0.5,0.7,0.7,1.1c0.2,0.4,0.4,0.8,0.5,1.2
					c0.1,0.4,0.2,0.8,0.2,1.1c0.1,0.3,0,0.6,0.1,0.8c0,0.2,0,0.3,0,0.3c0,0.1-0.1,0.2-0.2,0.2c-0.1,0-0.2-0.1-0.2-0.1l0,0
					c0,0,0-0.1-0.1-0.3c-0.1-0.2-0.1-0.4-0.2-0.7c-0.1-0.3-0.2-0.6-0.3-1c-0.1-0.4-0.3-0.7-0.5-1.1c-0.2-0.4-0.4-0.7-0.6-1
					c-0.2-0.3-0.4-0.6-0.6-0.8c-0.4-0.4-0.7-0.7-0.7-0.7c-0.1,0-0.1-0.1,0-0.2C20.8,34.8,20.9,34.8,21,34.8z"/>
			</g>
		</g>
		<g>
			<g>
				<path class="st4" d="M61.9,38.4c0,0,0.1-1.1,0-2.7"/>
				<path class="st5" d="M61.8,38.4c0,0-0.1-0.2-0.1-0.4c0-0.1-0.1-0.3-0.1-0.4c0-0.2,0-0.3,0-0.5c0-0.3,0-0.7,0.1-0.9
					c0-0.3,0.1-0.4,0.1-0.4c0-0.1,0.2-0.2,0.3-0.1c0.1,0,0.1,0.1,0.1,0.1c0,0,0.1,0.2,0.1,0.4c0.1,0.3,0.1,0.6,0.1,0.9
					c0,0.2,0,0.3,0,0.5c0,0.2-0.1,0.3-0.1,0.4c-0.1,0.3-0.2,0.4-0.2,0.4C62,38.5,61.9,38.6,61.8,38.4C61.8,38.5,61.8,38.5,61.8,38.4
					L61.8,38.4z"/>
			</g>
			<g>
				<path class="st5" d="M63.2,35.1c0,0-0.3,0.2-0.7,0.7c-0.2,0.2-0.4,0.5-0.6,0.8c-0.2,0.3-0.4,0.7-0.6,1c-0.2,0.4-0.3,0.7-0.5,1.1
					c-0.1,0.4-0.2,0.7-0.3,1c-0.1,0.3-0.1,0.6-0.2,0.7c-0.1,0.2-0.1,0.3-0.1,0.3l0,0c0,0.1-0.1,0.2-0.3,0.1c-0.1,0-0.1-0.1-0.1-0.2
					c0,0,0-0.1,0-0.3c0-0.2,0-0.5,0.1-0.8c0-0.3,0.1-0.7,0.2-1.1c0.1-0.4,0.3-0.8,0.5-1.2c0.2-0.4,0.5-0.8,0.7-1.1
					c0.3-0.3,0.6-0.6,0.8-0.8c0.6-0.4,1-0.5,1-0.5c0.1,0,0.2,0,0.2,0.1C63.3,35,63.2,35,63.2,35.1z"/>
			</g>
		</g>
		<path class="st1" d="M39.1,87"/>
		<g>
			<g>
				<g>
					<path class="st5" d="M39,8.4c0.1,0,0.1-0.2,0-0.2C38.9,8.2,38.9,8.4,39,8.4L39,8.4z"/>
				</g>
			</g>
			<g>
				<g>
					<path class="st5" d="M44.5,11.8c0,0,0,0.2-0.1,0.5c-0.1,0.3-0.2,0.6-0.3,0.9c-0.1,0.3-0.2,0.7-0.3,0.9
						c-0.1,0.3-0.1,0.4-0.1,0.4c0,0.1-0.1,0.1-0.2,0.1c-0.1,0-0.1-0.1-0.1-0.1c0,0,0-0.2-0.1-0.5c0-0.3,0-0.7,0.1-1.1
						c0.1-0.4,0.3-0.7,0.4-1c0.2-0.2,0.3-0.4,0.3-0.4l0,0c0.1,0,0.1,0,0.2,0C44.5,11.7,44.5,11.7,44.5,11.8z"/>
				</g>
				<g>
					<path class="st5" d="M42,18.9c0,0-0.1-0.2-0.2-0.5c-0.1-0.3-0.1-0.7,0-1.1c0.1-0.4,0.2-0.8,0.3-1.1c0.1-0.3,0.3-0.4,0.3-0.4
						c0.1-0.1,0.2-0.1,0.2,0c0.1,0,0.1,0.1,0.1,0.2c0,0,0,0.2-0.1,0.5c0,0.3-0.1,0.6-0.2,1c-0.1,0.4-0.1,0.7-0.1,1
						c0,0.3-0.1,0.5-0.1,0.5C42.3,19,42.2,19,42,18.9C42.1,19,42.1,19,42,18.9L42,18.9z"/>
				</g>
				<g>
					<path class="st5" d="M45.3,16.8c0,0,0,0,0-0.1c0-0.1,0.1-0.2,0.2-0.3c0.1-0.3,0.4-0.5,0.7-0.8c0.3-0.2,0.6-0.5,0.8-0.6
						c0.2-0.1,0.4-0.2,0.4-0.2l0,0c0.1-0.1,0.2,0,0.2,0.1c0,0.1,0,0.1,0,0.2c0,0-0.1,0.2-0.3,0.4c-0.2,0.2-0.4,0.5-0.7,0.7
						c-0.3,0.2-0.5,0.5-0.7,0.6c-0.1,0.1-0.2,0.1-0.2,0.2c-0.1,0.1-0.1,0.1-0.1,0.1C45.5,17,45.4,17,45.3,16.8
						C45.3,16.9,45.3,16.8,45.3,16.8z"/>
				</g>
				<g>
					<path class="st5" d="M47.3,18.8c0,0,0-0.2,0.2-0.4c0.1-0.2,0.3-0.5,0.5-0.7c0.2-0.2,0.4-0.5,0.6-0.6c0.2-0.1,0.3-0.2,0.3-0.2
						c0.1-0.1,0.2,0,0.2,0.1c0,0,0,0.1,0,0.2c0,0-0.1,0.2-0.2,0.4c-0.1,0.2-0.3,0.5-0.5,0.7c-0.2,0.2-0.4,0.5-0.6,0.6
						c-0.2,0.1-0.3,0.2-0.3,0.2C47.5,19,47.4,19,47.3,18.8C47.3,18.9,47.3,18.9,47.3,18.8z"/>
				</g>
				<g>
					<path class="st5" d="M50.5,14.3c0,0,0.1-0.2,0.3-0.4c0.2-0.2,0.5-0.4,0.8-0.6c0.3-0.2,0.7-0.3,1-0.3c0.3,0,0.5,0,0.5,0
						c0.1,0,0.2,0.1,0.2,0.2c0,0.1,0,0.1-0.1,0.1c0,0-0.2,0.1-0.4,0.2c-0.2,0.1-0.5,0.3-0.8,0.4c-0.3,0.2-0.6,0.3-0.8,0.4
						c-0.2,0.1-0.4,0.2-0.4,0.2c-0.1,0-0.1,0-0.2-0.1C50.5,14.4,50.5,14.3,50.5,14.3L50.5,14.3z"/>
				</g>
				<g>
					<path class="st5" d="M50.5,18.2c0,0,0.1-0.2,0.3-0.5c0.2-0.3,0.5-0.6,0.9-0.9c0.4-0.3,0.8-0.5,1.1-0.6c0.3-0.1,0.6-0.1,0.6-0.1
						c0.1,0,0.2,0.1,0.2,0.2c0,0.1,0,0.1-0.1,0.2c0,0-0.2,0.1-0.5,0.3c-0.3,0.2-0.6,0.4-1,0.6c-0.3,0.2-0.7,0.5-0.9,0.7
						c-0.2,0.2-0.4,0.3-0.4,0.3c-0.1,0-0.1,0-0.2,0C50.5,18.3,50.5,18.3,50.5,18.2L50.5,18.2z"/>
				</g>
				<g>
					<path class="st5" d="M52.9,20.2c0,0,0.1-0.2,0.4-0.5c0.2-0.3,0.6-0.6,1-0.9c0.4-0.3,0.9-0.5,1.2-0.6c0.4-0.1,0.6-0.2,0.6-0.2
						c0.1,0,0.2,0,0.2,0.1c0,0.1,0,0.1-0.1,0.2c0,0-0.2,0.1-0.5,0.3c-0.3,0.2-0.7,0.5-1.1,0.7c-0.4,0.3-0.8,0.5-1.1,0.7
						c-0.3,0.2-0.5,0.3-0.5,0.3c-0.1,0-0.1,0-0.2-0.1C52.9,20.2,52.9,20.2,52.9,20.2L52.9,20.2z"/>
				</g>
				<g>
					<path class="st5" d="M56.2,16.1c0,0,0.1-0.1,0.3-0.2c0.2-0.1,0.5-0.2,0.7-0.3c0.3-0.1,0.6-0.1,0.8-0.2c0.2,0,0.4,0,0.4,0
						c0.1,0,0.2,0.1,0.2,0.2c0,0.1,0,0.1-0.1,0.1c0,0-0.1,0.1-0.3,0.2c-0.2,0.1-0.5,0.2-0.7,0.3c-0.3,0.1-0.6,0.1-0.8,0.1
						c-0.2,0-0.4,0-0.4,0C56.2,16.4,56.1,16.3,56.2,16.1C56.2,16.2,56.2,16.2,56.2,16.1z"/>
				</g>
				<g>
					<path class="st5" d="M55.4,22.1c0,0,0.2-0.1,0.4-0.3c0.2-0.1,0.6-0.3,0.9-0.4c0.4-0.1,0.7-0.2,1-0.3c0.3-0.1,0.5-0.1,0.5-0.1
						c0.1,0,0.2,0.1,0.2,0.2c0,0.1,0,0.1-0.1,0.2c0,0-0.2,0.1-0.4,0.2c-0.2,0.1-0.6,0.3-0.9,0.4c-0.4,0.1-0.7,0.2-1,0.3
						c-0.3,0-0.5,0-0.5,0C55.4,22.3,55.4,22.3,55.4,22.1C55.4,22.2,55.4,22.1,55.4,22.1z"/>
				</g>
				<g>
					<path class="st5" d="M56.6,24.4c0,0,0.1-0.1,0.3-0.3c0.2-0.2,0.5-0.3,0.8-0.4c0.3-0.1,0.7,0,0.9,0c0.2,0.1,0.4,0.1,0.4,0.1
						c0.1,0,0.1,0.2,0.1,0.2c0,0.1-0.1,0.1-0.1,0.1c0,0-0.2,0-0.4,0.1c-0.2,0-0.5,0.1-0.8,0.1c-0.3,0-0.5,0.1-0.8,0.2
						c-0.2,0-0.4,0.1-0.4,0.1c-0.1,0-0.1,0-0.2-0.1C56.6,24.5,56.6,24.5,56.6,24.4L56.6,24.4z"/>
				</g>
				<g>
					<path class="st5" d="M48.7,11.4c0,0,0,0-0.1,0.1c-0.1,0.1-0.2,0.1-0.3,0.2c-0.2,0.2-0.5,0.5-0.8,0.8c-0.3,0.3-0.5,0.6-0.7,0.9
						c-0.2,0.3-0.3,0.4-0.3,0.4c0,0.1-0.2,0.1-0.2,0.1c-0.1,0-0.1-0.1-0.1-0.2c0,0,0-0.2,0.1-0.6c0.1-0.3,0.3-0.7,0.6-1.1
						c0.3-0.3,0.7-0.6,1-0.8c0.2-0.1,0.3-0.1,0.4-0.1c0.1,0,0.2,0,0.2,0C48.7,11.2,48.8,11.3,48.7,11.4
						C48.7,11.4,48.7,11.4,48.7,11.4z"/>
				</g>
			</g>
			<g>
				<g>
					<path class="st5" d="M40.5,11.7c0,0,0.2,0.1,0.3,0.4c0.2,0.2,0.3,0.6,0.4,1c0.1,0.4,0.2,0.8,0.1,1.1c0,0.3-0.1,0.5-0.1,0.5
						c0,0.1-0.1,0.2-0.2,0.1c-0.1,0-0.1-0.1-0.1-0.1c0,0-0.1-0.2-0.1-0.4c-0.1-0.3-0.2-0.6-0.3-0.9c-0.1-0.3-0.2-0.7-0.3-0.9
						c-0.1-0.3-0.1-0.5-0.1-0.5c0-0.1,0-0.1,0.1-0.2C40.5,11.6,40.5,11.6,40.5,11.7L40.5,11.7z"/>
				</g>
				<g>
					<path class="st6" d="M41.3,15.9"/>
				</g>
				<g>
					<path class="st6" d="M41.7,18.9"/>
				</g>
				<g>
					<path class="st5" d="M39.2,17.3c0,0,0,0-0.1-0.1c0-0.1-0.1-0.1-0.2-0.2c-0.1-0.2-0.3-0.4-0.5-0.7c-0.2-0.3-0.4-0.5-0.5-0.7
						c-0.1-0.2-0.2-0.4-0.2-0.4c0-0.1,0-0.2,0.1-0.2c0.1,0,0.1,0,0.2,0c0,0,0.1,0.1,0.3,0.3c0.2,0.2,0.4,0.4,0.6,0.7
						c0.2,0.3,0.3,0.6,0.4,0.9c0,0.1,0,0.3,0,0.3c0,0.1,0,0.1,0,0.1C39.4,17.3,39.3,17.4,39.2,17.3C39.2,17.3,39.2,17.3,39.2,17.3z"
						/>
				</g>
				<g>
					<path class="st5" d="M37.2,19c0,0-0.2-0.1-0.3-0.2c-0.2-0.1-0.4-0.4-0.6-0.6c-0.2-0.2-0.4-0.5-0.5-0.7
						c-0.1-0.2-0.2-0.4-0.2-0.4c0-0.1,0-0.2,0.1-0.2c0.1,0,0.1,0,0.2,0c0,0,0.1,0.1,0.3,0.2c0.2,0.1,0.4,0.4,0.6,0.6
						c0.2,0.2,0.4,0.5,0.5,0.7c0.1,0.2,0.2,0.4,0.2,0.4C37.4,18.9,37.4,19,37.2,19C37.3,19,37.3,19,37.2,19z"/>
				</g>
				<g>
					<path class="st5" d="M34.1,14.5c0,0-0.2-0.1-0.4-0.2c-0.2-0.1-0.5-0.3-0.8-0.4c-0.3-0.2-0.6-0.3-0.8-0.4
						c-0.2-0.1-0.4-0.2-0.4-0.2c-0.1-0.1-0.1-0.2-0.1-0.2c0-0.1,0.1-0.1,0.1-0.1c0,0,0.2,0,0.5,0c0.3,0,0.6,0.2,1,0.3
						c0.3,0.2,0.6,0.4,0.8,0.6c0.2,0.2,0.3,0.4,0.3,0.4l0,0c0,0.1,0,0.1-0.1,0.2C34.2,14.5,34.1,14.5,34.1,14.5z"/>
				</g>
				<g>
					<path class="st5" d="M34,18.4c0,0-0.2-0.1-0.4-0.3c-0.2-0.2-0.6-0.5-0.9-0.7c-0.3-0.2-0.7-0.5-1-0.6c-0.3-0.2-0.5-0.3-0.5-0.3
						c-0.1-0.1-0.1-0.2-0.1-0.2c0-0.1,0.1-0.1,0.2-0.1c0,0,0.2,0,0.6,0.1c0.3,0.1,0.8,0.3,1.1,0.6c0.4,0.3,0.7,0.6,0.9,0.9
						c0.2,0.3,0.3,0.5,0.3,0.5l0,0c0,0.1,0,0.1-0.1,0.2C34.1,18.4,34.1,18.4,34,18.4z"/>
				</g>
				<g>
					<path class="st5" d="M31.7,20.3c0,0-0.2-0.1-0.5-0.3c-0.3-0.2-0.7-0.5-1.1-0.7c-0.4-0.3-0.8-0.5-1.1-0.7
						c-0.3-0.2-0.5-0.3-0.5-0.3c-0.1-0.1-0.1-0.2,0-0.2c0-0.1,0.1-0.1,0.2-0.1c0,0,0.2,0,0.6,0.2c0.4,0.1,0.8,0.4,1.2,0.6
						c0.4,0.3,0.8,0.6,1,0.9c0.2,0.3,0.4,0.5,0.4,0.5l0,0c0,0.1,0,0.1-0.1,0.2C31.7,20.4,31.7,20.4,31.7,20.3z"/>
				</g>
				<g>
					<path class="st5" d="M28.5,16.4c0,0-0.2,0-0.4,0c-0.2,0-0.5-0.1-0.8-0.1c-0.3-0.1-0.5-0.2-0.7-0.3c-0.2-0.1-0.3-0.2-0.3-0.2
						c-0.1-0.1-0.1-0.2,0-0.3c0,0,0.1-0.1,0.1-0.1c0,0,0.2,0,0.4,0c0.2,0,0.5,0.1,0.8,0.2c0.3,0.1,0.5,0.2,0.7,0.3
						c0.2,0.1,0.3,0.2,0.3,0.2C28.6,16.2,28.6,16.3,28.5,16.4C28.6,16.4,28.5,16.4,28.5,16.4z"/>
				</g>
				<g>
					<path class="st5" d="M28.6,21.5C28.6,21.5,28.6,21.5,28.6,21.5c-0.1-0.1-0.2-0.2-0.3-0.2c-0.2-0.1-0.5-0.2-0.8-0.3
						c-0.3-0.1-0.6-0.2-0.9-0.4c-0.2-0.1-0.4-0.2-0.4-0.2c-0.1-0.1-0.1-0.2,0-0.2c0,0,0.1-0.1,0.2-0.1c0,0,0.2,0,0.4,0
						c0.3,0,0.6,0.1,0.9,0.3c0.3,0.1,0.7,0.3,0.9,0.6c0.1,0.1,0.2,0.3,0.2,0.4c0,0.1,0,0.1,0,0.1C28.9,21.5,28.8,21.6,28.6,21.5
						C28.7,21.6,28.7,21.6,28.6,21.5z"/>
				</g>
				<g>
					<path class="st5" d="M28,24.7c0,0-0.2,0-0.4-0.1c-0.2,0-0.5-0.1-0.8-0.2c-0.3-0.1-0.5-0.1-0.8-0.1c-0.2,0-0.4-0.1-0.4-0.1
						c-0.1,0-0.2-0.1-0.1-0.2c0-0.1,0-0.1,0.1-0.1c0,0,0.1-0.1,0.4-0.1c0.2-0.1,0.6-0.1,0.9,0c0.3,0.1,0.6,0.2,0.8,0.4
						c0.2,0.2,0.3,0.3,0.3,0.3l0,0C28.2,24.5,28.2,24.6,28,24.7C28.1,24.7,28,24.7,28,24.7z"/>
				</g>
				<g>
					<path class="st5" d="M36.6,11c0,0,0.2,0.1,0.4,0.4c0.2,0.2,0.4,0.6,0.7,0.9c0.2,0.3,0.4,0.7,0.5,1c0.1,0.3,0.2,0.5,0.2,0.5
						c0,0.1,0,0.2-0.1,0.2c-0.1,0-0.1,0-0.2,0c0,0-0.2-0.1-0.3-0.4c-0.2-0.2-0.4-0.6-0.6-0.9c-0.2-0.3-0.4-0.7-0.5-1
						c-0.1-0.3-0.2-0.5-0.2-0.5c0-0.1,0-0.1,0.1-0.2C36.5,10.9,36.5,10.9,36.6,11z"/>
				</g>
			</g>
		</g>
		<path class="st7" d="M39.5,55.1c-0.1,1.3-0.3,2.6-0.4,3.8"/>
		<g>
			<g>
				<path class="st5" d="M25.9,46.1c0,0,0-0.1,0.1-0.2c0.1-0.1,0.2-0.3,0.4-0.4c0.2-0.1,0.4-0.2,0.5-0.3c0.2,0,0.3-0.1,0.3-0.1
					c0.1,0,0.2,0.1,0.2,0.2c0,0,0,0.1,0,0.1c0,0-0.1,0.1-0.2,0.2c-0.1,0.1-0.3,0.3-0.4,0.4c-0.2,0.1-0.4,0.2-0.5,0.2
					c-0.2,0-0.3,0-0.3,0C25.9,46.3,25.8,46.3,25.9,46.1C25.8,46.2,25.9,46.1,25.9,46.1z"/>
			</g>
			<g>
				<path class="st5" d="M29.7,47.1c0,0-0.1,0.1-0.3,0.3c-0.2,0.2-0.4,0.3-0.6,0.5c-0.2,0.2-0.4,0.4-0.6,0.5
					c-0.2,0.2-0.3,0.3-0.3,0.3c-0.1,0.1-0.2,0.1-0.3,0c0,0-0.1-0.1,0-0.2c0,0,0-0.2,0.2-0.4c0.1-0.2,0.3-0.5,0.6-0.7
					c0.3-0.2,0.6-0.4,0.8-0.5c0.2-0.1,0.4-0.1,0.4-0.1l0,0C29.7,46.9,29.7,47,29.7,47.1C29.7,47.1,29.7,47.1,29.7,47.1z"/>
			</g>
			<g>
				<path class="st5" d="M29.6,50.2c0,0-0.1,0.2-0.2,0.4c-0.1,0.2-0.3,0.5-0.5,0.7c-0.2,0.2-0.5,0.5-0.7,0.6
					c-0.2,0.2-0.3,0.2-0.3,0.2c-0.1,0.1-0.2,0-0.2-0.1c0-0.1,0-0.1,0-0.2c0,0,0.1-0.2,0.2-0.4c0.1-0.2,0.3-0.5,0.6-0.7
					c0.2-0.2,0.5-0.5,0.7-0.6c0.2-0.2,0.4-0.2,0.4-0.2c0.1,0,0.2,0,0.2,0.1C29.7,50.1,29.7,50.1,29.6,50.2z"/>
			</g>
			<g>
				<path class="st5" d="M32.2,51.2c0,0-0.1,0.2-0.3,0.4c-0.2,0.3-0.4,0.6-0.7,0.9c-0.3,0.3-0.5,0.6-0.7,0.9
					c-0.2,0.2-0.3,0.4-0.3,0.4c-0.1,0.1-0.2,0.1-0.2,0c0,0-0.1-0.1-0.1-0.2c0,0,0.1-0.2,0.2-0.5c0.1-0.3,0.4-0.7,0.6-1
					c0.3-0.3,0.6-0.6,0.9-0.8C31.8,51.1,32,51,32,51l0,0c0.1,0,0.1,0,0.2,0.1C32.2,51.1,32.2,51.1,32.2,51.2z"/>
			</g>
			<g>
				<path class="st5" d="M36,50.5c0,0-0.1,0.2-0.2,0.3c-0.1,0.2-0.3,0.4-0.4,0.6c-0.2,0.2-0.4,0.4-0.5,0.6c-0.2,0.1-0.3,0.2-0.3,0.2
					c-0.1,0.1-0.2,0-0.3,0c0,0,0-0.1,0-0.1c0,0,0-0.2,0.1-0.4c0.1-0.2,0.2-0.5,0.4-0.7c0.2-0.2,0.4-0.4,0.6-0.6
					c0.2-0.1,0.3-0.2,0.3-0.2l0,0C35.9,50.3,35.9,50.4,36,50.5C36,50.5,36,50.5,36,50.5z"/>
			</g>
			<g>
				<path class="st5" d="M33.6,52.7c0,0-0.1,0.2-0.2,0.3c-0.1,0.2-0.3,0.4-0.4,0.6c-0.2,0.2-0.4,0.4-0.5,0.6
					c-0.2,0.1-0.3,0.2-0.3,0.2c-0.1,0.1-0.2,0-0.3,0c0,0,0-0.1,0-0.1c0,0,0-0.2,0.1-0.4c0.1-0.2,0.2-0.5,0.4-0.7
					c0.2-0.2,0.4-0.4,0.6-0.6c0.2-0.1,0.3-0.2,0.3-0.2l0,0C33.5,52.5,33.6,52.6,33.6,52.7C33.6,52.7,33.6,52.7,33.6,52.7z"/>
			</g>
			<g>
				<path class="st5" d="M32.6,48.7c0,0-0.1,0.2-0.2,0.3c-0.1,0.2-0.3,0.4-0.4,0.6c-0.2,0.2-0.4,0.4-0.5,0.6
					c-0.2,0.1-0.3,0.2-0.3,0.2c-0.1,0.1-0.2,0-0.3,0c0,0,0-0.1,0-0.1c0,0,0-0.2,0.1-0.4c0.1-0.2,0.2-0.5,0.4-0.7
					c0.2-0.2,0.4-0.4,0.6-0.6c0.2-0.1,0.3-0.2,0.3-0.2l0,0C32.5,48.5,32.5,48.6,32.6,48.7C32.6,48.7,32.6,48.7,32.6,48.7z"/>
			</g>
			<g>
				<path class="st5" d="M35.9,53.7c0,0,0,0.2-0.2,0.5c-0.1,0.3-0.3,0.6-0.5,1c-0.2,0.3-0.4,0.6-0.6,0.9c-0.2,0.2-0.3,0.4-0.3,0.4
					c-0.1,0.1-0.2,0.1-0.2,0c0,0-0.1-0.1,0-0.2c0,0,0.1-0.2,0.2-0.5c0.1-0.3,0.3-0.6,0.5-0.9c0.2-0.3,0.4-0.6,0.7-0.9
					c0.2-0.2,0.4-0.3,0.4-0.3c0.1,0,0.1,0,0.2,0C35.9,53.6,35.9,53.6,35.9,53.7z"/>
			</g>
			<g>
				<path class="st5" d="M37.7,51.8c0,0,0,0.1,0,0.3c0,0.2-0.1,0.4-0.2,0.7c-0.1,0.2-0.3,0.4-0.4,0.6c-0.1,0.1-0.2,0.2-0.2,0.2
					c-0.1,0.1-0.2,0.1-0.3,0c0,0,0-0.1,0-0.1c0,0,0-0.1,0.1-0.3c0-0.2,0.1-0.4,0.3-0.6c0.1-0.2,0.3-0.4,0.4-0.6
					c0.1-0.1,0.3-0.2,0.3-0.2C37.5,51.6,37.6,51.7,37.7,51.8C37.6,51.7,37.7,51.8,37.7,51.8z"/>
			</g>
			<g>
				<path class="st5" d="M38.1,54.4c0,0,0,0.2-0.1,0.5c-0.1,0.3-0.2,0.7-0.3,1.1c-0.2,0.8-0.5,1.6-0.5,1.6c0,0.1-0.1,0.1-0.2,0.1
					c-0.1,0-0.1-0.1-0.1-0.1c0,0,0-0.2,0-0.6c0-0.3,0.1-0.8,0.2-1.2c0.1-0.4,0.3-0.8,0.5-1.1c0.2-0.3,0.3-0.4,0.3-0.4
					c0-0.1,0.1-0.1,0.2,0C38.1,54.3,38.1,54.4,38.1,54.4z"/>
			</g>
			<g>
				<path class="st5" d="M39.9,52.1c0,0,0,0.2,0,0.4c0,0.2,0,0.5-0.1,0.8c-0.1,0.3-0.1,0.6-0.2,0.8c-0.1,0.2-0.2,0.3-0.2,0.3
					c-0.1,0.1-0.2,0.1-0.2,0.1c0,0-0.1-0.1-0.1-0.1c0,0,0-0.2,0-0.4c0-0.2,0-0.5,0.1-0.8c0.1-0.3,0.1-0.6,0.2-0.8
					c0.1-0.2,0.2-0.3,0.2-0.3C39.7,52,39.8,52,39.9,52.1C39.8,52.1,39.9,52.1,39.9,52.1z"/>
			</g>
			<g>
				<path class="st5" d="M40.1,55.6c0,0,0,0.2,0,0.4c0,0.2,0,0.5-0.1,0.8c-0.1,0.3-0.1,0.6-0.2,0.8c-0.1,0.2-0.2,0.3-0.2,0.3
					C39.6,58,39.5,58,39.4,58c0,0-0.1-0.1-0.1-0.1c0,0,0-0.2,0-0.4c0-0.2,0-0.5,0.1-0.8c0.1-0.3,0.1-0.6,0.2-0.8
					c0.1-0.2,0.2-0.3,0.2-0.3C39.9,55.5,40,55.5,40.1,55.6C40.1,55.6,40.1,55.6,40.1,55.6z"/>
			</g>
			<g>
				<path class="st5" d="M41.6,51.4c0,0,0.1,0.1,0.1,0.4c0.1,0.2,0.1,0.5,0.1,0.8c0,0.3,0,0.6-0.1,0.8c0,0.2-0.1,0.4-0.1,0.4
					c0,0.1-0.1,0.1-0.2,0.1c-0.1,0-0.1-0.1-0.1-0.1c0,0-0.1-0.1-0.1-0.4c0-0.2-0.1-0.5-0.1-0.8c0-0.3,0-0.6,0.1-0.8
					c0-0.2,0.1-0.4,0.1-0.4C41.4,51.3,41.5,51.3,41.6,51.4C41.6,51.4,41.6,51.4,41.6,51.4z"/>
			</g>
			<g>
				<path class="st5" d="M41.7,55.7c0,0,0.1,0.2,0.1,0.5c0.1,0.3,0.1,0.6,0.1,1c0,0.4,0,0.7-0.1,1c0,0.3-0.1,0.5-0.1,0.5
					c0,0.1-0.1,0.1-0.2,0.1c-0.1,0-0.1-0.1-0.1-0.1c0,0,0-0.2-0.1-0.5c0-0.3-0.1-0.6-0.1-1c0-0.4,0-0.7,0.1-1
					c0.1-0.3,0.1-0.5,0.1-0.5C41.5,55.6,41.5,55.6,41.7,55.7C41.6,55.6,41.7,55.7,41.7,55.7z"/>
			</g>
			<g>
				<path class="st5" d="M43.4,52.5c0,0,0.1,0.1,0.2,0.4c0.1,0.2,0.2,0.5,0.2,0.8c0,0.3,0.1,0.6,0,0.9c0,0.2,0,0.4,0,0.4
					c0,0.1-0.1,0.2-0.2,0.1c-0.1,0-0.1,0-0.1-0.1c0,0-0.1-0.1-0.1-0.4c-0.1-0.2-0.1-0.5-0.2-0.8c0-0.3-0.1-0.6,0-0.9
					c0-0.2,0.1-0.4,0.1-0.4C43.2,52.5,43.3,52.4,43.4,52.5C43.4,52.5,43.4,52.5,43.4,52.5z"/>
			</g>
			<g>
				<path class="st5" d="M43.8,55.5c0,0,0.1,0.1,0.2,0.4c0.1,0.2,0.2,0.5,0.2,0.8c0,0.3,0.1,0.6,0,0.9c0,0.2,0,0.4,0,0.4
					c0,0.1-0.1,0.2-0.2,0.1c-0.1,0-0.1,0-0.1-0.1c0,0-0.1-0.1-0.1-0.4c-0.1-0.2-0.1-0.5-0.2-0.8c0-0.3-0.1-0.6,0-0.9
					c0-0.2,0.1-0.4,0.1-0.4C43.5,55.4,43.6,55.4,43.8,55.5C43.7,55.4,43.7,55.5,43.8,55.5z"/>
			</g>
			<g>
				<path class="st5" d="M44.5,51c0,0,0.1,0.1,0.2,0.3c0.1,0.2,0.2,0.4,0.3,0.7c0.1,0.3,0.1,0.5,0.2,0.8c0,0.2,0,0.4,0,0.4
					c0,0.1-0.1,0.2-0.2,0.2c-0.1,0-0.1,0-0.1-0.1c0,0-0.1-0.1-0.2-0.3c-0.1-0.2-0.2-0.4-0.3-0.7c-0.1-0.3-0.1-0.5-0.2-0.8
					c0-0.2,0-0.4,0-0.4C44.2,51,44.3,51,44.5,51C44.4,51,44.4,51,44.5,51z"/>
			</g>
			<g>
				<path class="st5" d="M45.9,54.5c0,0,0.1,0.2,0.2,0.4c0.1,0.3,0.2,0.6,0.3,1c0.1,0.4,0.2,0.7,0.2,1c0,0.3,0,0.5,0,0.5
					c0,0.1-0.1,0.2-0.2,0.2c-0.1,0-0.1,0-0.1-0.1c0,0-0.1-0.2-0.2-0.4c-0.1-0.3-0.2-0.6-0.3-1c-0.1-0.4-0.2-0.7-0.2-1
					c0-0.3,0-0.5,0-0.5C45.7,54.5,45.8,54.5,45.9,54.5C45.9,54.5,45.9,54.5,45.9,54.5z"/>
			</g>
			<g>
				<path class="st5" d="M46.2,50.3c0,0,0.2,0.1,0.4,0.2c0.2,0.1,0.4,0.4,0.6,0.7c0.2,0.3,0.3,0.6,0.4,0.8c0.1,0.2,0.1,0.4,0.1,0.4
					c0,0.1-0.1,0.2-0.2,0.2c-0.1,0-0.1,0-0.1-0.1c0,0-0.1-0.1-0.2-0.3c-0.1-0.2-0.3-0.4-0.5-0.7c-0.2-0.2-0.3-0.5-0.4-0.7
					c-0.1-0.2-0.2-0.4-0.2-0.4c0-0.1,0-0.2,0.1-0.2C46.2,50.3,46.2,50.3,46.2,50.3L46.2,50.3z"/>
			</g>
			<g>
				<path class="st5" d="M49.2,52.8c0,0,0.1,0.1,0.3,0.3c0.1,0.2,0.3,0.5,0.3,0.8c0.1,0.3,0.1,0.6,0.1,0.9c0,0.2-0.1,0.4-0.1,0.4
					c0,0.1-0.1,0.1-0.2,0.1c-0.1,0-0.1-0.1-0.1-0.1c0,0-0.1-0.1-0.1-0.3c-0.1-0.2-0.1-0.5-0.2-0.7c-0.1-0.3-0.1-0.5-0.2-0.8
					c0-0.2,0-0.4,0-0.4C49,52.9,49.1,52.8,49.2,52.8C49.2,52.8,49.2,52.8,49.2,52.8L49.2,52.8z"/>
			</g>
			<g>
				<path class="st5" d="M48.3,49.7c0,0,0.2,0,0.5,0.2c0.3,0.1,0.6,0.3,0.8,0.6c0.3,0.3,0.5,0.6,0.6,0.9c0.1,0.3,0.2,0.4,0.2,0.4
					c0,0.1,0,0.2-0.1,0.2c-0.1,0-0.1,0-0.2,0c0,0-0.1-0.1-0.3-0.3c-0.2-0.2-0.4-0.4-0.7-0.7c-0.2-0.2-0.5-0.5-0.7-0.7
					c-0.2-0.2-0.3-0.3-0.3-0.3c0-0.1,0-0.1,0-0.2C48.2,49.7,48.2,49.7,48.3,49.7L48.3,49.7z"/>
			</g>
			<g>
				<path class="st5" d="M51.7,51.5c0,0,0.2,0.1,0.4,0.3c0.2,0.2,0.5,0.6,0.6,1c0.2,0.4,0.2,0.8,0.2,1.1c0,0.3-0.1,0.5-0.1,0.5
					c0,0.1-0.1,0.2-0.2,0.1c-0.1,0-0.1-0.1-0.1-0.1c0,0-0.1-0.2-0.1-0.5c-0.1-0.3-0.2-0.6-0.3-0.9c-0.1-0.3-0.3-0.7-0.4-0.9
					c-0.1-0.2-0.2-0.4-0.2-0.4c0-0.1,0-0.1,0.1-0.2C51.6,51.5,51.6,51.5,51.7,51.5L51.7,51.5z"/>
			</g>
			<g>
				<path class="st5" d="M50.3,48.7c0,0,0.1,0,0.3,0.1c0.2,0.1,0.4,0.3,0.6,0.5c0.2,0.2,0.3,0.4,0.4,0.6c0.1,0.2,0.1,0.3,0.1,0.3
					c0,0.1,0,0.2-0.1,0.2c0,0-0.1,0-0.1,0c0,0-0.1-0.1-0.3-0.2c-0.1-0.1-0.3-0.3-0.5-0.5c-0.2-0.2-0.3-0.4-0.4-0.5
					c-0.1-0.2-0.1-0.3-0.1-0.3C50.1,48.8,50.2,48.7,50.3,48.7C50.3,48.7,50.3,48.7,50.3,48.7L50.3,48.7z"/>
			</g>
			<g>
				<path class="st5" d="M52.5,48.7c0,0,0.2,0.1,0.5,0.2c0.3,0.2,0.6,0.5,0.8,0.8c0.2,0.4,0.3,0.7,0.4,1c0.1,0.3,0.1,0.5,0.1,0.5
					c0,0.1-0.1,0.2-0.2,0.2c-0.1,0-0.1,0-0.2-0.1c0,0-0.1-0.2-0.2-0.4c-0.1-0.2-0.3-0.6-0.5-0.9c-0.2-0.3-0.4-0.6-0.5-0.8
					c-0.2-0.2-0.3-0.4-0.3-0.4c0-0.1,0-0.1,0-0.2C52.4,48.7,52.4,48.7,52.5,48.7L52.5,48.7z"/>
			</g>
			<g>
				<path class="st5" d="M53.5,47.2c0,0,0.1,0,0.3,0.2c0.2,0.1,0.4,0.4,0.5,0.6c0.1,0.3,0.2,0.6,0.2,0.8c0,0.2,0,0.4,0,0.4
					c0,0.1-0.1,0.2-0.2,0.1c-0.1,0-0.1,0-0.1-0.1c0,0-0.1-0.1-0.1-0.3c-0.1-0.2-0.2-0.4-0.3-0.6c-0.1-0.2-0.2-0.4-0.3-0.6
					c-0.1-0.2-0.1-0.3-0.1-0.3C53.3,47.3,53.3,47.2,53.5,47.2C53.4,47.2,53.5,47.2,53.5,47.2L53.5,47.2z"/>
			</g>
			<g>
				<path class="st5" d="M55.5,48.9c0,0,0.1,0.1,0.3,0.4c0.2,0.2,0.3,0.6,0.4,0.9c0.1,0.4,0.1,0.7,0.1,1c0,0.3-0.1,0.5-0.1,0.5
					c0,0.1-0.1,0.1-0.2,0.1c-0.1,0-0.1-0.1-0.1-0.1c0,0,0-0.2-0.1-0.4c0-0.2-0.1-0.6-0.2-0.9c-0.1-0.3-0.2-0.6-0.2-0.9
					c-0.1-0.2-0.1-0.4-0.1-0.4c0-0.1,0-0.1,0.1-0.2C55.4,48.9,55.5,48.9,55.5,48.9L55.5,48.9z"/>
			</g>
			<g>
				<path class="st5" d="M55.5,46.5c0,0,0.2,0,0.4,0c0.3,0,0.6,0.2,0.9,0.5c0.3,0.2,0.5,0.5,0.6,0.7c0.1,0.2,0.2,0.4,0.2,0.4
					c0,0.1,0,0.2-0.1,0.2c-0.1,0-0.1,0-0.2,0c0,0-0.2-0.1-0.4-0.2c-0.2-0.1-0.5-0.4-0.7-0.6c-0.1-0.1-0.2-0.2-0.3-0.3
					c-0.1-0.1-0.2-0.2-0.3-0.2c-0.2-0.1-0.3-0.3-0.3-0.3c-0.1,0-0.1-0.1,0-0.2C55.4,46.5,55.5,46.5,55.5,46.5L55.5,46.5z"/>
			</g>
			<g>
				<path class="st5" d="M56.7,44.9c0,0,0.2,0,0.4,0.1c0.2,0.1,0.5,0.2,0.8,0.4c0.3,0.2,0.5,0.4,0.7,0.5c0.2,0.2,0.3,0.3,0.3,0.3
					c0.1,0.1,0,0.2,0,0.3c0,0-0.1,0-0.2,0c0,0-0.2,0-0.4-0.1c-0.2-0.1-0.5-0.2-0.8-0.4c-0.3-0.2-0.5-0.4-0.7-0.5
					c-0.2-0.2-0.3-0.3-0.3-0.3C56.5,45.1,56.5,45,56.7,44.9C56.6,44.9,56.6,44.9,56.7,44.9z"/>
			</g>
			<g>
				<path class="st5" d="M25.3,49c0,0,0-0.2,0.2-0.4c0.1-0.2,0.3-0.4,0.5-0.7c0.2-0.2,0.4-0.4,0.6-0.6c0.2-0.1,0.3-0.2,0.3-0.2
					c0.1,0,0.2,0,0.2,0.1c0,0.1,0,0.1,0,0.2c0,0-0.1,0.1-0.2,0.3c-0.1,0.2-0.3,0.4-0.5,0.7c-0.2,0.2-0.4,0.4-0.6,0.5
					c-0.2,0.1-0.3,0.2-0.3,0.2C25.4,49.2,25.3,49.1,25.3,49C25.3,49,25.3,49,25.3,49z"/>
			</g>
		</g>
		<path class="st7" d="M25.8,76.1c10.4,2.5,21,2.6,31.9,0"/>
		<path class="st8" d="M58.3,83.5c-10.1-0.4-25.8-0.4-33.1,0"/>
	</g>
</g>
<g>
	<circle class="st9" cx="33.6" cy="35.5" r="0.8"/>
	<circle class="st9" cx="49.9" cy="35.5" r="0.8"/>
</g>
</svg>
