<?xml version="1.0" encoding="utf-8"?>
<!-- Generator: Adobe Illustrator 19.0.0, SVG Export Plug-In . SVG Version: 6.00 Build 0)  -->
<svg version="1.1" xmlns="http://www.w3.org/2000/svg" xmlns:xlink="http://www.w3.org/1999/xlink" x="0px" y="0px"
	 viewBox="0 0 81.5 81.5" style="enable-background:new 0 0 81.5 81.5;" xml:space="preserve">
<style type="text/css">
	.st0{clip-path:url(#SVGID_2_);}
	.st1{fill:#FFFFFF;stroke:#262424;stroke-width:1.6237;stroke-miterlimit:10;}
	.st2{fill:#FFFFFF;stroke:#262424;stroke-width:1.2178;stroke-miterlimit:10;}
	.st3{fill:#FFFFFF;}
	.st4{fill:#262424;}
	.st5{fill:#FFFFFF;stroke:#262424;stroke-width:0.9041;stroke-linecap:round;stroke-linejoin:round;stroke-miterlimit:10;}
	.st6{fill:#FFFFFF;stroke:#262424;stroke-width:0.6089;stroke-miterlimit:10;}
	.st7{fill:#FFFFFF;stroke:#262424;stroke-width:1.3561;stroke-linecap:round;stroke-linejoin:round;stroke-miterlimit:10;}
	.st8{fill:none;stroke:#262424;stroke-width:0.452;stroke-linecap:round;stroke-linejoin:round;stroke-miterlimit:10;}
	.st9{fill:#EA4C67;stroke:#262424;stroke-width:1.2178;stroke-linecap:round;stroke-linejoin:round;stroke-miterlimit:10;}
	.st10{fill:none;stroke:#262424;stroke-width:0.9041;stroke-linecap:round;stroke-linejoin:round;stroke-miterlimit:10;}
	.st11{fill:#FFFFFF;stroke:#262424;stroke-width:1.6237;stroke-linecap:round;stroke-linejoin:round;stroke-miterlimit:10;}
</style>
<g id="BACKGROUND">
</g>
<g id="OBJECTS">
	<g>
		<defs>
			<circle id="SVGID_1_" cx="40.7" cy="40.7" r="40.7"/>
		</defs>
		<use xlink:href="#SVGID_1_"  style="overflow:visible;fill:#EA4C67;"/>
		<clipPath id="SVGID_2_">
			<use xlink:href="#SVGID_1_"  style="overflow:visible;"/>
		</clipPath>
		<g class="st0">
			<path class="st1" d="M65,70.1C63.2,68.4,46.5,57,42.7,57c-3.8,0-20.5,11.4-22.3,13.1c-1.8,1.7-4,16.4-4,16.4h26.3H69
				C69,86.6,66.8,71.9,65,70.1z"/>
			<path class="st2" d="M69,86.6H16.4c0,0,2.2-14.7,4-16.4c1.2-1.1,8.5-6.2,14.5-9.7c3.4-2,6.4-3.4,7.8-3.4c1.4,0,4.6,1.6,8.1,3.6
				c6,3.5,13.1,8.4,14.2,9.5C66.8,71.9,69,86.6,69,86.6z"/>
			<path class="st2" d="M50.8,60.8c0,2.7-3.6,4.9-7.9,4.9c-4.4,0-7.9-2.2-7.9-4.9c0-0.1,0-0.2,0-0.4c3.4-2,6.4-3.4,7.8-3.4
				c1.4,0,4.6,1.6,8.1,3.6C50.8,60.7,50.8,60.7,50.8,60.8z"/>
			<g>
				<polyline class="st3" points="38,61.2 38,50 47.4,50 47.4,61.2 				"/>
				<path class="st4" d="M37.7,61.2c-0.1-1.9-0.3-3.8-0.3-5.6c-0.1-1.9-0.1-3.8-0.2-5.6l0-0.8l0.8,0c3.2,0,6.3,0,9.5,0l0.8,0l0,0.8
					c0,1.9-0.1,3.8-0.1,5.6c0,1.9-0.1,3.8-0.2,5.6H47c-0.1-1.9-0.2-3.8-0.2-5.6c0-1.9-0.1-3.8-0.1-5.6l0.8,0.8c-3.2,0-6.3,0-9.5,0
					l0.8-0.8c0,1.9-0.1,3.8-0.2,5.6c-0.1,1.9-0.2,3.8-0.3,5.6H37.7z"/>
			</g>
			<g>
				<path class="st2" d="M57.8,36c0,0,3.3-4.2,5.2-3.8c1.9,0.4,1.9,2.4,1.9,2.4s-0.3,7.2-0.7,8.1c-0.3,0.9-4,1.4-5.9,1.1L57.8,36z"
					/>
				<path class="st2" d="M27.6,36c0,0-3.3-4.2-5.2-3.8c-1.9,0.4-1.9,2.4-1.9,2.4s0.3,7.2,0.7,8.1c0.3,0.9,4,1.4,5.9,1.1L27.6,36z"/>
			</g>
			<path class="st2" d="M59,45.6c0,0-0.3,3.2-1.8,4.6c-2.3,2.1-9.6,6.6-14.5,6.6c-1.7,0-3.7-0.6-5.7-1.4c-3.7-1.5-7.2-3.8-8.7-5.2
				c-1.5-1.3-1.8-4.6-1.8-4.6s-0.3-3.4-0.5-8c-0.4-8.3-0.7-20.2,1.2-22.6c3.7-4.6,15.6-4.9,15.6-4.9s11.8,0.3,15.6,4.9
				C61.3,18.7,59,45.6,59,45.6z"/>
			<path class="st5" d="M25.9,37.6l4.6,8.7c0,0,4.4-3.2,12.4-3.2c8.2,0,11.9,3.2,11.9,3.2l4.8-9c0,0,2.3,11.2-1.1,16.2
				c-3.2,4.9-9.1,6.3-15.5,6.2c-6.4,0-14.5-1.8-16.7-8.3C24.5,46.3,25.9,37.6,25.9,37.6z"/>
			<path class="st4" d="M47.5,49.7c0,0-1.7,0.8-4.7,0.8c-3.1-0.1-4.7-0.8-4.7-0.8s1.1,1.7,4.7,1.7C46.3,51.3,47.5,49.7,47.5,49.7z"
				/>
			<path class="st4" d="M47.5,49.7c0,0-1.7,0.8-4.7,0.8c-3.1-0.1-4.7-0.8-4.7-0.8s1.1,1.7,4.7,1.7C46.3,51.3,47.5,49.7,47.5,49.7z"
				/>
			<path class="st6" d="M36.7,46.1c0,0,0.8-0.6,1.7-0.6H47c0.9,0,1.7,0.6,1.7,0.6C48.7,49.9,36.7,49.9,36.7,46.1z"/>
			<path class="st3" d="M31.7,37.5c-1-0.4-1.7-1.2-1.7-2.1c0-0.9,0.7-1.6,1.7-2.1c0.6-0.2,1.3-0.4,2-0.4c0.7,0,1.4,0.1,2,0.4
				c1,0.4,1.7,1.2,1.7,2.1c0,0.9-0.7,1.6-1.7,2.1"/>
			<path class="st4" d="M30.1,35.4c0-0.8,0.5-1.7,1.2-2.2c0.7-0.5,1.6-0.7,2.5-0.7c0.8,0,1.7,0.2,2.5,0.6c0.7,0.5,1.2,1.4,1.1,2.2
				c-0.2-0.8-0.7-1.4-1.4-1.7c-0.7-0.3-1.4-0.4-2.2-0.4c-0.8,0-1.5,0.1-2.2,0.4C30.9,34.1,30.3,34.6,30.1,35.4z"/>
			<path class="st4" d="M30.1,35.4c0-0.8,0.5-1.7,1.2-2.2c0.7-0.5,1.6-0.7,2.5-0.7c0.8,0,1.7,0.2,2.5,0.6c0.7,0.5,1.2,1.4,1.1,2.2
				c-0.2-0.8-0.7-1.4-1.4-1.7c-0.7-0.3-1.4-0.4-2.2-0.4c-0.8,0-1.5,0.1-2.2,0.4C30.9,34.1,30.3,34.6,30.1,35.4z"/>
			<g>
				<path class="st3" d="M28.4,31.8c0,0,4.1-5.2,10.1-1.3"/>
				<path class="st4" d="M28.2,31.6c0.5-0.9,1.2-1.6,2-2.2c0.8-0.6,1.8-1,2.9-1.1c1-0.1,2.1-0.1,3.1,0.3c0.5,0.1,0.9,0.4,1.4,0.6
					c0.4,0.3,0.8,0.6,1.2,0.9c0.2,0.1,0.2,0.4,0.1,0.6c-0.1,0.1-0.3,0.2-0.4,0.1l-0.1,0c-0.4-0.1-0.8-0.3-1.3-0.5
					c-0.4-0.1-0.8-0.3-1.3-0.3c-0.8-0.2-1.7-0.2-2.5-0.1c-1.6,0.2-3.2,1-4.7,2.1l0,0c-0.1,0.1-0.3,0.1-0.4-0.1
					C28.1,31.8,28.1,31.7,28.2,31.6z"/>
			</g>
			<path class="st4" d="M55.2,35.4c0-0.8-0.5-1.7-1.2-2.2c-0.7-0.5-1.6-0.7-2.5-0.7c-0.8,0-1.7,0.2-2.5,0.6
				c-0.7,0.5-1.2,1.4-1.1,2.2c0.2-0.8,0.7-1.4,1.4-1.7c0.7-0.3,1.4-0.4,2.2-0.4c0.8,0,1.5,0.1,2.2,0.4
				C54.4,34.1,54.9,34.6,55.2,35.4z"/>
			<path class="st4" d="M55.2,35.4c0-0.8-0.5-1.7-1.2-2.2c-0.7-0.5-1.6-0.7-2.5-0.7c-0.8,0-1.7,0.2-2.5,0.6
				c-0.7,0.5-1.2,1.4-1.1,2.2c0.2-0.8,0.7-1.4,1.4-1.7c0.7-0.3,1.4-0.4,2.2-0.4c0.8,0,1.5,0.1,2.2,0.4
				C54.4,34.1,54.9,34.6,55.2,35.4z"/>
			<g>
				<path class="st3" d="M56.9,31.8c0,0-4.1-5.2-10.1-1.3"/>
				<path class="st4" d="M56.6,32c-1.5-1-3-1.9-4.7-2.1c-0.8-0.1-1.6-0.1-2.5,0.1c-0.4,0.1-0.8,0.2-1.3,0.3
					c-0.4,0.1-0.8,0.3-1.3,0.5l-0.1,0c-0.2,0.1-0.4-0.1-0.5-0.3c-0.1-0.2,0-0.3,0.1-0.4c0.4-0.3,0.8-0.6,1.2-0.9
					c0.4-0.2,0.9-0.5,1.4-0.6c1-0.4,2-0.4,3.1-0.3c1,0.1,2,0.5,2.9,1.1c0.8,0.6,1.5,1.3,2,2.2c0.1,0.1,0,0.3-0.1,0.4
					C56.9,32.1,56.7,32.1,56.6,32L56.6,32z"/>
			</g>
			<g>
				<path class="st4" d="M46.1,41.8c-0.4-0.2-0.9-0.2-1.3-0.1c-0.4,0.1-0.8,0.3-1,0.6l0,0c0,0,0,0.1,0,0.1c0,0.1,0.1,0.2,0.3,0.2
					c0.4,0,0.7,0,1.1-0.1c0.1,0,0.1,0,0.1-0.1c0-0.1,0-0.1-0.1-0.1c-0.2,0-0.3,0-0.5,0c0.1-0.1,0.3-0.1,0.4-0.2
					c0.3-0.1,0.6-0.2,1-0.2h0c0,0,0.1,0,0.1,0C46.2,41.9,46.2,41.8,46.1,41.8z"/>
				<path class="st4" d="M46.1,41.8c-0.4-0.2-0.9-0.2-1.3-0.1c-0.4,0.1-0.8,0.3-1,0.6l0,0c0,0,0,0.1,0,0.1c0,0.1,0.1,0.2,0.3,0.2
					c0.4,0,0.7,0,1.1-0.1c0.1,0,0.1,0,0.1-0.1c0-0.1,0-0.1-0.1-0.1c-0.2,0-0.3,0-0.5,0c0.1-0.1,0.3-0.1,0.4-0.2
					c0.3-0.1,0.6-0.2,1-0.2h0c0,0,0.1,0,0.1,0C46.2,41.9,46.2,41.8,46.1,41.8z"/>
				<path class="st4" d="M39.8,41.8c0.4-0.2,0.9-0.2,1.3-0.1c0.4,0.1,0.8,0.3,1,0.6l0,0c0,0,0,0.1,0,0.1c0,0.1-0.1,0.2-0.3,0.2
					c-0.4,0-0.7,0-1.1-0.1c-0.1,0-0.1,0-0.1-0.1c0-0.1,0-0.1,0.1-0.1c0.2,0,0.3,0,0.5,0c-0.1-0.1-0.3-0.1-0.4-0.2
					c-0.3-0.1-0.6-0.2-1-0.2h0c0,0-0.1,0-0.1,0C39.7,41.9,39.7,41.8,39.8,41.8z"/>
				<path class="st4" d="M39.8,41.8c0.4-0.2,0.9-0.2,1.3-0.1c0.4,0.1,0.8,0.3,1,0.6l0,0c0,0,0,0.1,0,0.1c0,0.1-0.1,0.2-0.3,0.2
					c-0.4,0-0.7,0-1.1-0.1c-0.1,0-0.1,0-0.1-0.1c0-0.1,0-0.1,0.1-0.1c0.2,0,0.3,0,0.5,0c-0.1-0.1-0.3-0.1-0.4-0.2
					c-0.3-0.1-0.6-0.2-1-0.2h0c0,0-0.1,0-0.1,0C39.7,41.9,39.7,41.8,39.8,41.8z"/>
			</g>
			<g>
				<g>
					<path class="st4" d="M59.5,33.3c0.3,0,0.3-0.7,0-0.7C59.2,32.6,59.2,33.3,59.5,33.3L59.5,33.3z"/>
				</g>
			</g>
			<g>
				<path class="st4" d="M27.1,73.9l-0.8,12.8c0,0.3-0.3,0.6-0.6,0.6c-0.3,0-0.6-0.3-0.6-0.6c0,0,0,0,0,0l1.7-12.7
					c0-0.1,0.1-0.2,0.2-0.2C27,73.7,27.1,73.8,27.1,73.9z"/>
			</g>
			<g>
				<path class="st4" d="M58.6,73.8l1.7,12.7c0,0.3-0.2,0.6-0.5,0.7c-0.3,0-0.6-0.2-0.7-0.5c0,0,0,0,0,0l-0.8-12.8
					c0-0.1,0.1-0.2,0.2-0.2C58.5,73.6,58.6,73.7,58.6,73.8z"/>
			</g>
			<g>
				<g>
					<path class="st4" d="M39.6,8.7c0.1,0,0.1-0.2,0-0.2C39.5,8.5,39.5,8.7,39.6,8.7L39.6,8.7z"/>
				</g>
			</g>
			<g>
				<g>
					<path class="st3" d="M22.8,38.4c0,0-0.1-1.1,0-2.7"/>
					<path class="st4" d="M22.7,38.5c-0.1-0.2-0.2-0.5-0.2-0.7c0-0.2-0.1-0.5-0.1-0.7c0-0.2,0-0.5,0.1-0.7c0-0.2,0.1-0.5,0.2-0.7
						c0-0.1,0.2-0.2,0.3-0.1c0.1,0,0.1,0.1,0.1,0.1c0.1,0.2,0.1,0.5,0.1,0.7c0,0.2,0,0.4,0,0.7c0,0.2,0,0.4,0,0.7
						c0,0.2-0.1,0.4-0.2,0.7l0,0C22.9,38.5,22.8,38.6,22.7,38.5C22.7,38.5,22.7,38.5,22.7,38.5z"/>
				</g>
				<g>
					<path class="st4" d="M21.7,34.8c0.6,0.2,1.1,0.5,1.5,0.9c0.4,0.4,0.8,0.9,1,1.5c0.3,0.5,0.5,1.1,0.6,1.7
						c0.1,0.3,0.1,0.6,0.1,0.9c0,0.3,0,0.6,0,0.9c0,0.1-0.1,0.2-0.2,0.2c-0.1,0-0.2-0.1-0.2-0.1l0,0c-0.2-0.5-0.3-1.1-0.5-1.6
						c-0.2-0.5-0.4-1-0.6-1.5c-0.3-0.5-0.5-0.9-0.9-1.3c-0.3-0.4-0.7-0.8-1.1-1.1l0,0c-0.1-0.1-0.1-0.1,0-0.2
						C21.5,34.8,21.6,34.8,21.7,34.8z"/>
				</g>
			</g>
			<g>
				<g>
					<path class="st3" d="M62.6,38.4c0,0,0.1-1.1,0-2.7"/>
					<path class="st4" d="M62.5,38.4c-0.1-0.2-0.1-0.5-0.2-0.7c0-0.2,0-0.4,0-0.7c0-0.2,0-0.4,0-0.7c0-0.2,0.1-0.4,0.1-0.7
						c0-0.1,0.2-0.2,0.3-0.1c0.1,0,0.1,0.1,0.1,0.1c0.1,0.2,0.1,0.5,0.2,0.7c0.1,0.2,0,0.5,0.1,0.7c0,0.2,0,0.5-0.1,0.7
						c-0.1,0.2-0.1,0.5-0.2,0.7C62.7,38.5,62.6,38.6,62.5,38.4C62.5,38.5,62.5,38.5,62.5,38.4L62.5,38.4z"/>
				</g>
				<g>
					<path class="st4" d="M63.9,35.1c-0.4,0.3-0.8,0.7-1.1,1.1c-0.3,0.4-0.6,0.9-0.9,1.3c-0.3,0.5-0.4,1-0.6,1.5
						c-0.2,0.5-0.3,1.1-0.5,1.6l0,0c0,0.1-0.1,0.2-0.3,0.1c-0.1,0-0.1-0.1-0.1-0.2c0-0.3,0-0.6,0-0.9c0-0.3,0.1-0.6,0.1-0.9
						c0.1-0.6,0.3-1.1,0.6-1.7c0.3-0.5,0.6-1,1-1.5c0.4-0.4,0.9-0.8,1.5-0.9c0.1,0,0.2,0,0.2,0.1C64,35,64,35,63.9,35.1L63.9,35.1z"
						/>
				</g>
			</g>
			<path class="st7" d="M25.8,23.1c0-1.7,0.4-3.4,1.4-4.8c0.8-1.2,2-2.2,3.6-2.1c3.6,0.3,6.7,2.3,11.7,2.6c5,0.4,11.3-4.6,14.3-2.6
				c3.8,2.5,2.7,18.5,2.7,18.5s3.8-15.8-0.5-21.4c-4.8-6.3-12.2-5-17.7-5.3C34.2,7.6,18.3,10,25.8,34.9L25.8,23.1z"/>
			<g>
				<path class="st4" d="M28.5,42.3c-0.5,0.5-1,1.1-1.3,1.7c-0.3,0.7-0.5,1.4-0.7,2.1c-0.2,0.7-0.2,1.4-0.2,2.2c0,0.4,0,0.7,0,1.1
					l0.1,1.1l-0.9,0.1l0-1.2c0-0.4,0-0.8,0.1-1.2c0.1-0.8,0.2-1.5,0.4-2.3c0.2-0.7,0.5-1.5,0.9-2.1c0.4-0.7,0.9-1.3,1.5-1.8
					L28.5,42.3z"/>
			</g>
			<g>
				<path class="st4" d="M30.6,46.4c-0.4,2-0.4,4,0.1,6c0.2,1,0.6,1.9,1,2.8c0.4,0.9,1,1.7,1.6,2.6l-0.7,0.5
					c-0.6-0.9-1.1-1.8-1.5-2.8c-0.4-1-0.7-2-0.9-3c-0.4-2.1-0.4-4.2,0.2-6.2L30.6,46.4z"/>
			</g>
			<g>
				<path class="st4" d="M35.1,44.6c-0.4,1.3-0.4,2.6-0.3,4c0.1,1.3,0.5,2.6,0.9,3.9c0.5,1.2,1.1,2.4,1.8,3.6
					c0.4,0.6,0.8,1.1,1.2,1.6l1.3,1.5l-0.7,0.6l-1.3-1.6c-0.4-0.6-0.8-1.1-1.1-1.7c-0.7-1.2-1.3-2.4-1.8-3.8
					c-0.4-1.3-0.7-2.7-0.8-4.1c-0.1-1.4,0-2.8,0.4-4.1L35.1,44.6z"/>
			</g>
			<g>
				<path class="st4" d="M57.4,42.1c0.6,0.5,1.1,1.1,1.5,1.8c0.4,0.7,0.7,1.4,0.9,2.1c0.2,0.7,0.3,1.5,0.4,2.3c0,0.4,0,0.8,0.1,1.2
					l0,1.2l-0.9-0.1l0.1-1.1c0-0.4,0-0.7,0-1.1c0-0.7-0.1-1.5-0.2-2.2c-0.2-0.7-0.4-1.4-0.7-2.1c-0.3-0.6-0.7-1.3-1.3-1.7L57.4,42.1
					z"/>
			</g>
			<g>
				<path class="st4" d="M55.4,46.3c0.6,2,0.6,4.1,0.2,6.2c-0.2,1-0.5,2-0.9,3c-0.4,1-0.9,1.9-1.5,2.8l-0.7-0.5
					c0.6-0.8,1.1-1.6,1.6-2.6c0.4-0.9,0.8-1.9,1-2.8c0.5-1.9,0.5-4,0.1-6L55.4,46.3z"/>
			</g>
			<g>
				<path class="st4" d="M51,44.5c0.4,1.3,0.5,2.7,0.4,4.1c-0.1,1.4-0.4,2.7-0.8,4.1c-0.5,1.3-1.1,2.6-1.8,3.8
					c-0.3,0.6-0.8,1.2-1.1,1.7l-1.3,1.6l-0.7-0.6l1.3-1.5c0.4-0.5,0.8-1.1,1.2-1.6c0.7-1.1,1.4-2.3,1.8-3.6c0.5-1.3,0.8-2.6,0.9-3.9
					c0.1-1.3,0.1-2.7-0.3-4L51,44.5z"/>
			</g>
			<g>
				<polygon class="st4" points="41.7,51 41.1,59.7 40.2,59.6 41.4,51 				"/>
			</g>
			<g>
				<polygon class="st4" points="44.2,51 45.4,59.6 44.5,59.7 43.9,51 				"/>
			</g>
			<path class="st8" d="M42.9,45.5l-0.1-2.3c0,0-0.6,1-3.2,1.2c-3.1,0.2-5.2,1.8-4.8,5.1"/>
			<path class="st8" d="M42.8,45.5l0.1-2.3c0,0,0.6,1,3.2,1.2c3.1,0.2,5.2,1.8,4.8,5.1"/>
			<g>
				<path class="st4" d="M41,51.2c-0.1,0.4-0.3,0.8-0.7,1.1c-0.3,0.3-0.8,0.6-1.3,0.5c-1-0.1-1.7-0.8-2.1-1.6
					c-0.4-0.8-0.7-1.6-0.8-2.5c-0.1-0.8-0.1-1.7,0-2.5l0.6,0.2c-1,1.2-1.7,2.7-1.7,4.3l0,0c0,0.1-0.1,0.2-0.2,0.2
					c-0.1,0-0.2-0.1-0.2-0.1c-0.1-0.9,0-1.7,0.3-2.5c0.3-0.8,0.7-1.5,1.2-2.2c0.1-0.1,0.3-0.2,0.4-0.1c0.1,0.1,0.1,0.2,0.1,0.3l0,0
					c-0.1,0.8-0.1,1.6,0,2.4c0.1,0.8,0.3,1.6,0.6,2.2c0.2,0.3,0.4,0.6,0.7,0.9c0.3,0.2,0.6,0.5,0.9,0.5c0.7,0.1,1.3-0.5,1.6-1.2l0,0
					c0-0.1,0.1-0.1,0.2-0.1C41,51.1,41,51.2,41,51.2z"/>
			</g>
			<g>
				<path class="st4" d="M44.9,50.6c0.1,0.4,0.3,0.7,0.5,1c0.3,0.2,0.6,0.3,0.9,0.3c0.3,0,0.7-0.3,1-0.4c0.3-0.2,0.5-0.5,0.7-0.8
					c0.4-0.6,0.5-1.4,0.5-2.2c0-0.8,0-1.6-0.2-2.3l0,0c0-0.2,0.1-0.3,0.2-0.4c0.1,0,0.1,0,0.2,0c0.4,0.2,0.7,0.5,1,0.8
					c0.3,0.3,0.5,0.7,0.7,1c0.3,0.7,0.5,1.5,0.5,2.3c0,0.1-0.1,0.2-0.2,0.2c-0.1,0-0.2-0.1-0.2-0.2c-0.1-0.7-0.3-1.5-0.6-2.1
					c-0.2-0.3-0.4-0.6-0.6-0.9c-0.2-0.3-0.5-0.5-0.8-0.6L49,46c0.2,0.8,0.3,1.6,0.2,2.5c0,0.8-0.2,1.7-0.6,2.5
					c-0.2,0.4-0.5,0.7-0.9,1c-0.4,0.2-0.8,0.4-1.2,0.5c-0.5,0.1-1-0.2-1.3-0.5c-0.3-0.4-0.4-0.8-0.5-1.2c0-0.1,0-0.1,0.1-0.1
					C44.8,50.5,44.9,50.6,44.9,50.6L44.9,50.6z"/>
			</g>
			<g>
				<line class="st3" x1="42.8" y1="8.1" x2="42.6" y2="18.8"/>
				<path class="st4" d="M43,8.1c0.1,0.9,0.1,1.8,0.2,2.7c0,0.9,0,1.8,0,2.7c0,0.9,0,1.8-0.1,2.7c-0.1,0.9-0.1,1.8-0.2,2.7
					c0,0.1-0.1,0.2-0.3,0.2c-0.1,0-0.2-0.1-0.2-0.2c-0.1-0.9-0.1-1.8-0.1-2.7c0-0.9,0-1.8,0-2.7c0-0.9,0.1-1.8,0.1-2.7
					c0.1-0.9,0.1-1.8,0.3-2.7c0-0.1,0.1-0.2,0.2-0.1C42.9,7.9,43,8,43,8.1z"/>
			</g>
			<g>
				<path class="st4" d="M46.9,18.2c0-0.9,0.2-1.9,0.5-2.8c0.3-0.9,0.7-1.8,1.2-2.5c0.5-0.8,1.1-1.5,1.8-2.2
					c0.7-0.6,1.5-1.2,2.3-1.6C52.8,9,53,9.1,53,9.2c0,0.1,0,0.2-0.1,0.3c-0.7,0.5-1.4,1.1-2,1.8c-0.6,0.7-1.2,1.3-1.6,2.1
					c-0.5,0.7-0.9,1.5-1.2,2.3c-0.4,0.8-0.6,1.7-0.9,2.5c0,0.1-0.1,0.1-0.2,0.1C46.9,18.3,46.9,18.2,46.9,18.2z"/>
			</g>
			<g>
				<path class="st4" d="M53.9,15.8c0.2-0.5,0.5-0.8,0.8-1.2c0.3-0.4,0.7-0.7,1.1-0.9c0.4-0.3,0.8-0.5,1.3-0.7
					c0.5-0.2,0.9-0.3,1.5-0.3c0.1,0,0.2,0.1,0.2,0.2c0,0.1-0.1,0.2-0.1,0.2l0,0c-0.4,0.2-0.8,0.4-1.2,0.6c-0.4,0.2-0.8,0.5-1.1,0.7
					l-1.1,0.8c-0.4,0.3-0.7,0.5-1.1,0.8c-0.1,0.1-0.2,0-0.2,0C53.8,15.9,53.8,15.8,53.9,15.8z"/>
			</g>
			<g>
				<path class="st4" d="M33.8,8.7c0.9,0.2,1.7,0.8,2.4,1.5c0.7,0.7,1.2,1.5,1.6,2.3c0.4,0.8,0.7,1.7,0.9,2.6
					c0.2,0.9,0.3,1.8,0.2,2.8c0,0.1-0.1,0.2-0.2,0.2c-0.1,0-0.2-0.1-0.2-0.2c-0.1-0.9-0.3-1.7-0.5-2.6c-0.3-0.8-0.5-1.7-0.9-2.4
					c-0.4-0.8-0.8-1.5-1.4-2.2C35,10,34.4,9.5,33.6,9c-0.1,0-0.1-0.2-0.1-0.2C33.6,8.7,33.7,8.7,33.8,8.7z"/>
			</g>
			<g>
				<path class="st4" d="M27.6,12.3c0.6-0.1,1.3-0.1,1.9,0c0.6,0.1,1.3,0.4,1.8,0.8c0.5,0.4,1.1,0.9,1.4,1.5
					c0.3,0.6,0.5,1.3,0.5,1.9c0,0.1-0.1,0.2-0.2,0.2c-0.1,0-0.2-0.1-0.2-0.2l0,0c-0.1-0.6-0.4-1.1-0.7-1.5c-0.3-0.4-0.7-0.8-1.2-1.1
					c-0.5-0.3-1-0.6-1.5-0.7c-0.5-0.2-1.1-0.3-1.7-0.4l0,0c-0.1,0-0.2-0.1-0.1-0.2C27.5,12.3,27.6,12.3,27.6,12.3z"/>
			</g>
			<g>
				<path class="st9" d="M21.8,68.6l2.3,1l9.2-6.1l-0.3-2.4C29.7,62.3,25.9,65.1,21.8,68.6z"/>
				<path class="st10" d="M34.5,61.2c0,0,3.3,11,2.6,25.3"/>
				<path class="st5" d="M26.3,65.8c-0.4,0.6-1,1-1.6,1.2l-1-1.3c-0.3-0.5-0.3-1.1,0.2-1.4l0,0c0.5-0.3,1.1-0.3,1.4,0.2L26.3,65.8z"
					/>
				<path class="st5" d="M30.3,63.4c-0.4,0.6-0.9,0.9-1.8,1l-0.8-1.4c-0.3-0.5-0.1-1.1,0.4-1.4l0,0c0.5-0.3,1.1-0.1,1.4,0.4
					L30.3,63.4z"/>
			</g>
			<g>
				<path class="st9" d="M64,68.6l-2.3,1l-9.2-6.1l0.3-2.4C56.1,62.3,59.9,65.1,64,68.6z"/>
				<path class="st10" d="M51.3,61.2c0,0-3.3,11-2.6,25.3"/>
				<path class="st5" d="M59.5,65.8c0.4,0.6,1,1,1.6,1.2l1-1.3c0.3-0.5,0.3-1.1-0.2-1.4l0,0c-0.5-0.3-1.1-0.3-1.4,0.2L59.5,65.8z"/>
				<path class="st5" d="M55.5,63.4c0.4,0.6,0.9,0.9,1.8,1l0.8-1.4c0.3-0.5,0.1-1.1-0.4-1.4l0,0c-0.5-0.3-1.1-0.1-1.4,0.4L55.5,63.4
					z"/>
			</g>
		</g>
	</g>
	<g>
		<circle class="st11" cx="34.4" cy="35.2" r="0.8"/>
		<circle class="st11" cx="50.8" cy="35.2" r="0.8"/>
	</g>
</g>
<g id="DESIGNED_BY_FREEPIK">
</g>
</svg>
