<?xml version="1.0" encoding="utf-8"?>
<!-- Generator: Adobe Illustrator 19.0.0, SVG Export Plug-In . SVG Version: 6.00 Build 0)  -->
<svg version="1.1" id="OBJECTS" xmlns="http://www.w3.org/2000/svg" xmlns:xlink="http://www.w3.org/1999/xlink" x="0px" y="0px"
	 viewBox="0 0 81.5 81.5" style="enable-background:new 0 0 81.5 81.5;" xml:space="preserve">
<style type="text/css">
	.st0{clip-path:url(#SVGID_2_);}
	.st1{fill:#FFFFFF;stroke:#262424;stroke-width:1.6237;stroke-miterlimit:10;}
	.st2{fill:#FFFFFF;stroke:#262424;stroke-width:1.2178;stroke-miterlimit:10;}
	.st3{fill:#FFFFFF;}
	.st4{fill:#262424;}
	.st5{fill:#FFFFFF;stroke:#262424;stroke-width:0.6089;stroke-miterlimit:10;}
	.st6{fill:none;stroke:#262424;stroke-width:1.2178;stroke-miterlimit:10;}
	.st7{fill:none;stroke:#262424;stroke-width:0.8119;stroke-miterlimit:10;}
	.st8{opacity:0.3;fill:#49E2A0;}
	.st9{fill:#FFFFFF;stroke:#262424;stroke-width:1.6237;stroke-linecap:round;stroke-linejoin:round;stroke-miterlimit:10;}
</style>
<g>
	<defs>
		<circle id="SVGID_1_" cx="40.7" cy="40.7" r="40.7"/>
	</defs>
	<use xlink:href="#SVGID_1_"  style="overflow:visible;fill:#49E2A0;"/>
	<clipPath id="SVGID_2_">
		<use xlink:href="#SVGID_1_"  style="overflow:visible;"/>
	</clipPath>
	<g class="st0">
		<path class="st1" d="M63.9,74.8c-1.8-1.7-18.5-13.1-22.3-13.1c-3.8,0-20.5,11.4-22.3,13.1c-1.8,1.7-4,16.4-4,16.4h26.3h26.3
			C67.9,91.2,65.7,76.5,63.9,74.8z"/>
		<path class="st2" d="M67.9,91.2H15.3c0,0,2.2-14.7,4-16.4c1.2-1.1,8.5-6.2,14.5-9.7c3.4-2,6.4-3.4,7.8-3.4c1.4,0,4.6,1.6,8.1,3.6
			c6,3.5,13.1,8.4,14.2,9.5C65.7,76.5,67.9,91.2,67.9,91.2z"/>
		<g>
			<path class="st2" d="M56.6,40.7c0,0,3.3-4.2,5.2-3.8c1.9,0.4,1.9,2.4,1.9,2.4s-0.3,7.2-0.7,8.1c-0.3,0.9-4,1.4-5.9,1.1L56.6,40.7
				z"/>
			<path class="st2" d="M26.5,40.7c0,0-3.3-4.2-5.2-3.8c-1.9,0.4-1.9,2.4-1.9,2.4s0.3,7.2,0.7,8.1c0.3,0.9,4,1.4,5.9,1.1L26.5,40.7z
				"/>
		</g>
		<g>
			<polyline class="st3" points="36.8,67 36.8,54.6 46.2,54.6 46.2,67 			"/>
			<path class="st4" d="M36.6,67c-0.1-2.1-0.2-4.1-0.3-6.2c-0.1-2.1-0.1-4.1-0.1-6.2c0-0.3,0.3-0.6,0.6-0.6l0,0c3.1-0.1,6.3,0,9.4,0
				c0.3,0,0.6,0.3,0.6,0.6c0,2.1-0.1,4.1-0.1,6.2c0,2.1-0.1,4.1-0.2,6.2c0,0.2-0.2,0.3-0.3,0.3c-0.2,0-0.3-0.1-0.3-0.3
				c-0.1-2.1-0.2-4.1-0.2-6.2c0-2.1-0.1-4.1-0.1-6.2l0.6,0.6c-3.1,0-6.3,0.1-9.4,0l0.6-0.6c0,2.1,0,4.1-0.1,6.2
				c0,2.1-0.1,4.1-0.3,6.2c0,0.1-0.1,0.2-0.3,0.2C36.7,67.2,36.6,67.1,36.6,67z"/>
		</g>
		<path class="st2" d="M57.5,49.1c0,0-0.3,3.2-1.8,4.6c-2.3,2.1-9.6,6.6-14.5,6.6c-1.7,0-3.7-0.6-5.7-1.4c-3.7-1.5-7.2-3.8-8.7-5.2
			c-1.5-1.3-1.8-4.6-1.8-4.6s-0.3-3.4-0.5-8c-0.4-8.3-0.7-20.2,1.2-22.6c3.7-4.6,15.6-4.9,15.6-4.9s11.8,0.3,15.6,4.9
			C59.8,22.1,57.5,49.1,57.5,49.1z"/>
		<path class="st4" d="M46.4,53.5c0,0-1.7,0.8-4.7,0.8c-3.1-0.1-4.7-0.8-4.7-0.8s1.1,1.7,4.7,1.7C45.2,55.2,46.4,53.5,46.4,53.5z"/>
		<path class="st5" d="M35.2,49.9c0,0,0.8-0.6,1.7-0.6h8.6c0.9,0,1.7,0.6,1.7,0.6C47.2,53.7,35.2,53.7,35.2,49.9z"/>
		<g>
			<path class="st4" d="M44.4,46.1C44,46,43.5,46,43.1,46.1c-0.4,0.1-0.8,0.3-1,0.6l0,0c0,0,0,0.1,0,0.1c0,0.1,0.1,0.2,0.3,0.2
				c0.4,0,0.7,0,1.1-0.1c0.1,0,0.1,0,0.1-0.1c0-0.1,0-0.1-0.1-0.1c-0.2,0-0.3,0-0.5,0c0.1-0.1,0.3-0.1,0.4-0.2
				c0.3-0.1,0.6-0.2,1-0.2h0c0,0,0.1,0,0.1,0C44.5,46.2,44.4,46.2,44.4,46.1z"/>
			<path class="st4" d="M44.4,46.1C44,46,43.5,46,43.1,46.1c-0.4,0.1-0.8,0.3-1,0.6l0,0c0,0,0,0.1,0,0.1c0,0.1,0.1,0.2,0.3,0.2
				c0.4,0,0.7,0,1.1-0.1c0.1,0,0.1,0,0.1-0.1c0-0.1,0-0.1-0.1-0.1c-0.2,0-0.3,0-0.5,0c0.1-0.1,0.3-0.1,0.4-0.2
				c0.3-0.1,0.6-0.2,1-0.2h0c0,0,0.1,0,0.1,0C44.5,46.2,44.4,46.2,44.4,46.1z"/>
			<path class="st4" d="M38,46.1c0.4-0.2,0.9-0.2,1.3-0.1c0.4,0.1,0.8,0.3,1,0.6l0,0c0,0,0,0.1,0,0.1c0,0.1-0.1,0.2-0.3,0.2
				c-0.4,0-0.7,0-1.1-0.1c-0.1,0-0.1,0-0.1-0.1c0-0.1,0-0.1,0.1-0.1c0.2,0,0.3,0,0.5,0c-0.1-0.1-0.3-0.1-0.4-0.2
				c-0.3-0.1-0.6-0.2-1-0.2h0c0,0-0.1,0-0.1,0C38,46.2,38,46.2,38,46.1z"/>
			<path class="st4" d="M38,46.1c0.4-0.2,0.9-0.2,1.3-0.1c0.4,0.1,0.8,0.3,1,0.6l0,0c0,0,0,0.1,0,0.1c0,0.1-0.1,0.2-0.3,0.2
				c-0.4,0-0.7,0-1.1-0.1c-0.1,0-0.1,0-0.1-0.1c0-0.1,0-0.1,0.1-0.1c0.2,0,0.3,0,0.5,0c-0.1-0.1-0.3-0.1-0.4-0.2
				c-0.3-0.1-0.6-0.2-1-0.2h0c0,0-0.1,0-0.1,0C38,46.2,38,46.2,38,46.1z"/>
		</g>
		<g>
			<path class="st4" d="M25.9,78.5l-0.8,12.8c0,0.3-0.3,0.6-0.6,0.6c-0.3,0-0.6-0.3-0.6-0.6c0,0,0,0,0,0l1.7-12.7
				c0-0.1,0.1-0.2,0.2-0.2C25.9,78.3,25.9,78.4,25.9,78.5z"/>
		</g>
		<g>
			<path class="st4" d="M57.5,78.5l1.7,12.7c0,0.3-0.2,0.6-0.5,0.7c-0.3,0-0.6-0.2-0.7-0.5c0,0,0,0,0,0l-0.8-12.8
				c0-0.1,0.1-0.2,0.2-0.2C57.4,78.3,57.5,78.4,57.5,78.5z"/>
		</g>
		<g>
			<g>
				<path class="st4" d="M54.1,40.1c0-0.8-0.5-1.7-1.2-2.2c-0.7-0.5-1.6-0.7-2.5-0.7c-0.8,0-1.7,0.2-2.5,0.6
					c-0.7,0.5-1.2,1.4-1.1,2.2c0.2-0.8,0.7-1.4,1.4-1.7c0.7-0.3,1.4-0.4,2.2-0.4c0.8,0,1.5,0.1,2.2,0.4
					C53.3,38.7,53.8,39.3,54.1,40.1z"/>
				<path class="st4" d="M54.1,40.1c0-0.8-0.5-1.7-1.2-2.2c-0.7-0.5-1.6-0.7-2.5-0.7c-0.8,0-1.7,0.2-2.5,0.6
					c-0.7,0.5-1.2,1.4-1.1,2.2c0.2-0.8,0.7-1.4,1.4-1.7c0.7-0.3,1.4-0.4,2.2-0.4c0.8,0,1.5,0.1,2.2,0.4
					C53.3,38.7,53.8,39.3,54.1,40.1z"/>
				<path class="st4" d="M48.5,36.9c0.7-0.3,1.5-0.3,2.2-0.3c0.7,0.1,1.5,0.3,2.1,0.6c0.6,0.3,1.1,0.9,1.3,1.6
					c0.6,0.3,1.7,0.7,2.1,0.6c-0.8,0.9-2.1,0.7-2.1,0.7c-0.1-0.6-0.8-1.2-0.8-1.2l0.3-0.3c0,0,0.1,0,0.3,0.1
					c-0.3-0.5-0.7-0.9-1.3-1.1c-0.6-0.3-1.3-0.5-2-0.6c-0.7-0.1-1.4,0-2,0.2c-0.6,0.2-1.3,0.6-1.7,1.2
					C46.9,38.4,47.8,37.1,48.5,36.9z"/>
				<path class="st4" d="M48.5,36.9c0.7-0.3,1.5-0.3,2.2-0.3c0.7,0.1,1.5,0.3,2.1,0.6c0.6,0.3,1.1,0.9,1.3,1.6
					c0.6,0.3,1.7,0.7,2.1,0.6c-0.8,0.9-2.1,0.7-2.1,0.7c-0.1-0.6-0.8-1.2-0.8-1.2l0.3-0.3c0,0,0.1,0,0.3,0.1
					c-0.3-0.5-0.7-0.9-1.3-1.1c-0.6-0.3-1.3-0.5-2-0.6c-0.7-0.1-1.4,0-2,0.2c-0.6,0.2-1.3,0.6-1.7,1.2
					C46.9,38.4,47.8,37.1,48.5,36.9z"/>
			</g>
			<g>
				<path class="st4" d="M29.1,40.1c0-0.8,0.5-1.7,1.2-2.2c0.7-0.5,1.6-0.7,2.5-0.7c0.8,0,1.7,0.2,2.5,0.6c0.7,0.5,1.2,1.4,1.1,2.2
					c-0.2-0.8-0.7-1.4-1.4-1.7c-0.7-0.3-1.4-0.4-2.2-0.4c-0.8,0-1.5,0.1-2.2,0.4C29.9,38.7,29.3,39.3,29.1,40.1z"/>
				<path class="st4" d="M29.1,40.1c0-0.8,0.5-1.7,1.2-2.2c0.7-0.5,1.6-0.7,2.5-0.7c0.8,0,1.7,0.2,2.5,0.6c0.7,0.5,1.2,1.4,1.1,2.2
					c-0.2-0.8-0.7-1.4-1.4-1.7c-0.7-0.3-1.4-0.4-2.2-0.4c-0.8,0-1.5,0.1-2.2,0.4C29.9,38.7,29.3,39.3,29.1,40.1z"/>
				<path class="st4" d="M34.7,36.9c-0.7-0.3-1.5-0.3-2.2-0.3c-0.7,0.1-1.5,0.3-2.1,0.6c-0.6,0.3-1.1,0.9-1.3,1.6
					c-0.6,0.3-1.7,0.7-2.1,0.6c0.8,0.9,2.1,0.7,2.1,0.7c0.1-0.6,0.8-1.2,0.8-1.2l-0.3-0.3c0,0-0.1,0-0.3,0.1
					c0.3-0.5,0.7-0.9,1.3-1.1c0.6-0.3,1.3-0.5,2-0.6c0.7-0.1,1.4,0,2,0.2c0.6,0.2,1.3,0.6,1.7,1.2C36.2,38.4,35.4,37.1,34.7,36.9z"
					/>
				<path class="st4" d="M34.7,36.9c-0.7-0.3-1.5-0.3-2.2-0.3c-0.7,0.1-1.5,0.3-2.1,0.6c-0.6,0.3-1.1,0.9-1.3,1.6
					c-0.6,0.3-1.7,0.7-2.1,0.6c0.8,0.9,2.1,0.7,2.1,0.7c0.1-0.6,0.8-1.2,0.8-1.2l-0.3-0.3c0,0-0.1,0-0.3,0.1
					c0.3-0.5,0.7-0.9,1.3-1.1c0.6-0.3,1.3-0.5,2-0.6c0.7-0.1,1.4,0,2,0.2c0.6,0.2,1.3,0.6,1.7,1.2C36.2,38.4,35.4,37.1,34.7,36.9z"
					/>
			</g>
		</g>
		<path class="st6" d="M26.5,69.6l13.3,6.9c1.1,0.6,2.4,0.6,3.5,0l13.3-6.9"/>
		<g>
			<path class="st2" d="M37.7,6.5c-0.1,0-0.3,0-0.4,0c-9.9,1-19,5.4-20.8,16.1c-0.6,3.4-0.6,7,0.1,10.4c1.8,8.2-4.4,10.5-6.1,7.5
				c-0.2-0.6-0.7-0.5-0.9,0c-0.3,2.2-0.3,5.8,3,7.8c1.7,1,3.6,0.6,3.9,0.6c-2.8,6.2,1.8,12.3,5.4,16.9c0.9,1.1,14.3-2,14.3-2
				l0.6-4.3c-0.7-0.2-5.8-2.7-6.4-3c-3.3-1.6-5.4-2.5-5.8-7.7c0,0-2.9,0.3-5.3-1.5c0,0,0,0,0,0c4.2-2.7,5.1-6.8,5.7-11.1
				c0.5-3.2-0.5-5.9,2.3-9.4c1.4-1.8,11.2-2,14-8.5V9.8C41.4,7.9,39.7,6.3,37.7,6.5z"/>
			<path class="st2" d="M45,6.5c0.1,0,0.3,0,0.4,0c9.9,1,19,5.4,20.8,16.1c0.6,3.4,0.6,7-0.1,10.4c-1.8,8.2,4.4,10.5,6.1,7.5
				c0.2-0.6,0.7-0.5,0.9,0c0.3,2.2,0.3,5.8-3,7.8c-1.7,1-3.6,0.6-3.9,0.6c2.8,6.2-1.8,12.3-5.4,16.9c-0.9,1.1-13.9-2.1-13.9-2.1
				l0.1-4.9c0.7-0.2,3.9-2.1,4.5-2.4c3.3-1.6,5.1-3.5,6-7.7c0,0,1.6,0.9,5.8-1.4c0,0,0,0,0,0c-4.2-2.7-5.1-6.8-5.7-11.1
				c-0.5-3.2,0.5-5.9-2.3-9.4c-1.4-1.8-11.2-2-14-8.5V9.8C41.4,7.9,43.1,6.3,45,6.5z"/>
		</g>
		<g>
			<path class="st4" d="M40.6,15.2c0-0.3-0.2-0.7-0.6-1c-0.4-0.2-0.9-0.3-1.5-0.4c-1.2,0-2.4,0-3.6,0.2c-2.4,0.4-4.7,1.2-6.7,2.5
				c-2,1.3-3.7,3.1-4.8,5.2c-1.1,2.1-1.6,4.5-1.7,6.9c-0.1,2.4,0.3,4.9,0.4,7.4c0.1,1.2,0,2.5-0.3,3.8c-0.3,1.3-0.9,2.4-1.7,3.4
				c-0.8,1-1.8,1.8-3,2.4c-1.1,0.6-2.5,0.8-3.8,0.6c-1.3-0.2-2.5-0.9-3.3-1.9c-0.8-1-1.3-2.4-1-3.6l0.4,0.1
				c-0.3,1.1,0.2,2.4,0.9,3.3c0.8,0.9,1.8,1.6,3,1.7c2.4,0.3,4.7-1,6.2-2.9c0.7-0.9,1.3-2,1.6-3.2c0.3-1.2,0.3-2.4,0.2-3.6
				c-0.2-2.4-0.6-4.9-0.5-7.4c0-2.5,0.5-5.1,1.7-7.3c1.2-2.3,2.9-4.2,5-5.7c2.1-1.4,4.5-2.4,7-2.8c1.3-0.2,2.5-0.3,3.8-0.3
				c0.7,0,1.4,0.1,2.1,0.5c0.7,0.4,1.2,1.1,1.2,2.1L40.6,15.2z"/>
		</g>
		<g>
			<path class="st4" d="M40.8,15.2c0-0.9,0.6-1.7,1.2-2.1c0.7-0.4,1.4-0.5,2.1-0.5c1.3,0,2.5,0.1,3.8,0.3c2.5,0.4,4.9,1.4,7,2.8
				c2.1,1.4,3.9,3.4,5,5.7c1.2,2.3,1.6,4.9,1.7,7.3c0.1,2.5-0.4,5-0.5,7.4c-0.1,1.2-0.1,2.4,0.2,3.6c0.3,1.2,0.8,2.2,1.6,3.2
				c1.4,1.9,3.8,3.2,6.2,2.9c1.2-0.2,2.2-0.8,3-1.7c0.8-0.9,1.2-2.1,0.9-3.3l0.4-0.1c0.3,1.3-0.2,2.7-1,3.6c-0.8,1-2,1.7-3.3,1.9
				c-1.3,0.2-2.6-0.1-3.8-0.6c-1.2-0.6-2.2-1.4-3-2.4c-0.8-1-1.4-2.1-1.7-3.4c-0.3-1.2-0.3-2.5-0.3-3.8c0.2-2.5,0.5-4.9,0.4-7.4
				c-0.1-2.4-0.5-4.8-1.7-6.9c-1.1-2.1-2.8-3.9-4.8-5.2c-2-1.3-4.3-2.2-6.7-2.5c-1.2-0.2-2.4-0.3-3.6-0.2c-0.6,0-1.1,0.1-1.5,0.4
				c-0.4,0.2-0.6,0.7-0.6,1L40.8,15.2z"/>
		</g>
		<path class="st7" d="M76.1,23.3"/>
		<g>
			<path class="st7" d="M23.9,48.7c0,0-8.7,8.3-1,17.3"/>
			<path class="st7" d="M25.8,52.8c0,0-3.7,11.8,5.8,11.9"/>
		</g>
		<g>
			<path class="st7" d="M57.9,48.7c0,0,8.7,8.3,1,17.3"/>
			<path class="st7" d="M56,52.8c0,0,3.7,11.8-5.8,11.9"/>
		</g>
		<g>
			<path class="st3" d="M55.7,35.6c0,0-4.1-5.2-10.1-1.3"/>
			<path class="st4" d="M55.7,35.7c-1.4-1.2-3.1-2-4.8-2.1c-0.9,0-1.7,0.2-2.5,0.3c-0.4,0-0.8,0.2-1.3,0.2c-0.4,0.1-0.9,0.2-1.4,0.2
				l0,0c0,0-0.1,0-0.1-0.1c0,0,0,0,0-0.1c0.6-0.9,1.4-1.5,2.4-1.8c1-0.4,2.1-0.3,3.1-0.1c1,0.2,1.9,0.6,2.7,1.2
				c0.8,0.6,1.5,1.3,2,2.1c0,0,0,0.1,0,0.1C55.7,35.7,55.7,35.7,55.7,35.7L55.7,35.7z"/>
		</g>
		<g>
			<g>
				<path class="st3" d="M27.4,35.6c0,0,4.1-5.2,10.1-1.3"/>
				<path class="st4" d="M27.3,35.6c0.5-0.8,1.2-1.5,2-2.1c0.8-0.6,1.7-1,2.7-1.2c1-0.2,2.1-0.4,3.1,0.1c1,0.4,1.8,1,2.4,1.8
					c0,0,0,0.1,0,0.1c0,0,0,0-0.1,0l0,0c-0.5,0-1-0.1-1.4-0.2c-0.5,0-0.9-0.2-1.3-0.2c-0.8-0.1-1.6-0.4-2.5-0.3
					c-1.7,0.1-3.4,0.9-4.8,2.1l0,0C27.4,35.7,27.4,35.7,27.3,35.6C27.3,35.6,27.3,35.6,27.3,35.6z"/>
			</g>
			<g>
				<path class="st3" d="M55.7,35.6c0,0-4.1-5.2-10.1-1.3"/>
				<path class="st4" d="M55.7,35.7c-1.4-1.2-3.1-2-4.8-2.1c-0.9,0-1.7,0.2-2.5,0.3c-0.4,0-0.8,0.2-1.3,0.2
					c-0.4,0.1-0.9,0.2-1.4,0.2l0,0c0,0-0.1,0-0.1-0.1c0,0,0,0,0-0.1c0.6-0.9,1.4-1.5,2.4-1.8c1-0.4,2.1-0.3,3.1-0.1
					c1,0.2,1.9,0.6,2.7,1.2c0.8,0.6,1.5,1.3,2,2.1c0,0,0,0.1,0,0.1C55.7,35.7,55.7,35.7,55.7,35.7L55.7,35.7z"/>
			</g>
		</g>
		<g>
			<ellipse class="st8" cx="31.8" cy="45.6" rx="3.7" ry="1.4"/>
			<ellipse class="st8" cx="50.8" cy="45.6" rx="3.7" ry="1.4"/>
		</g>
	</g>
</g>
<g>
	<circle class="st9" cx="33.2" cy="39.9" r="0.8"/>
	<circle class="st9" cx="49.5" cy="39.9" r="0.8"/>
</g>
</svg>
