<?xml version="1.0" encoding="utf-8"?>
<!-- Generator: Adobe Illustrator 19.0.0, SVG Export Plug-In . SVG Version: 6.00 Build 0)  -->
<svg version="1.1" id="OBJECTS" xmlns="http://www.w3.org/2000/svg" xmlns:xlink="http://www.w3.org/1999/xlink" x="0px" y="0px"
	 viewBox="0 0 81.5 81.5" style="enable-background:new 0 0 81.5 81.5;" xml:space="preserve">
<style type="text/css">
	.st0{clip-path:url(#SVGID_2_);}
	.st1{fill:#FFFFFF;stroke:#262424;stroke-width:1.6237;stroke-miterlimit:10;}
	.st2{fill:#FFFFFF;stroke:#262424;stroke-width:1.2178;stroke-miterlimit:10;}
	.st3{fill:#AEF4D3;stroke:#262424;stroke-width:0.9382;stroke-miterlimit:10;}
	.st4{fill:#FFFFFF;}
	.st5{fill:#262424;}
	.st6{fill:#FFFFFF;stroke:#262424;stroke-width:1.1715;stroke-miterlimit:10;}
	.st7{fill:#FFFFFF;stroke:#262424;stroke-width:1.6237;stroke-linecap:round;stroke-linejoin:round;stroke-miterlimit:10;}
</style>
<g>
	<defs>
		<circle id="SVGID_1_" cx="40.7" cy="40.7" r="40.7"/>
	</defs>
	<use xlink:href="#SVGID_1_"  style="overflow:visible;fill:#FB9D78;"/>
	<clipPath id="SVGID_2_">
		<use xlink:href="#SVGID_1_"  style="overflow:visible;"/>
	</clipPath>
	<g class="st0">
		<path class="st1" d="M63,74.8C61.2,73,44.5,61.6,40.7,61.6c-3.8,0-20.5,11.4-22.3,13.1c-1.8,1.7-4,16.4-4,16.4h26.3H67
			C67,91.2,64.9,76.5,63,74.8z"/>
		<path class="st2" d="M67,91.2H14.4c0,0,2.2-14.7,4-16.4c1.2-1.1,8.5-6.2,14.5-9.7c3.4-2,6.4-3.4,7.8-3.4c1.4,0,4.6,1.6,8.1,3.6
			c6,3.5,13.1,8.4,14.2,9.5C64.9,76.5,67,91.2,67,91.2z"/>
		<path class="st3" d="M52.5,67.3c0,3.9-5.2,7.1-11.6,7.1c-6.4,0-11.6-3.2-11.6-7.1c0-0.2,0-0.4,0-0.5c5-2.9,9.4-5,11.3-5
			c2,0,6.6,2.3,11.8,5.3C52.5,67.1,52.5,67.2,52.5,67.3z"/>
		<path class="st2" d="M48.8,65.4c0,2.7-3.6,4.9-7.9,4.9s-7.9-2.2-7.9-4.9c0-0.1,0-0.2,0-0.4c3.4-2,6.4-3.4,7.8-3.4
			c1.4,0,4.6,1.6,8.1,3.6C48.8,65.3,48.8,65.3,48.8,65.4z"/>
		<g>
			<polyline class="st4" points="36,65.8 36,54.6 45.5,54.6 45.5,65.8 			"/>
			<path class="st5" d="M35.7,65.8c-0.1-0.9-0.1-1.9-0.2-2.8c-0.1-0.9-0.1-1.9-0.1-2.8c-0.1-1.9-0.1-3.8-0.2-5.6
				c0-0.4,0.3-0.8,0.8-0.8l0,0l0,0c3.2,0,6.3,0,9.5,0l0,0c0.4,0,0.8,0.4,0.8,0.8c0,1.9-0.1,3.8-0.1,5.6c0,1.9-0.1,3.8-0.2,5.6
				c0,0.2-0.2,0.4-0.4,0.4c-0.2,0-0.4-0.2-0.4-0.4c-0.1-1.9-0.2-3.8-0.2-5.6c0-1.9-0.1-3.8-0.1-5.6l0.8,0.8c-3.2,0-6.3,0-9.5,0
				l0.8-0.8c0,1.9-0.1,3.8-0.2,5.6c0,0.9-0.1,1.9-0.1,2.8c-0.1,0.9-0.1,1.9-0.2,2.8c0,0.2-0.2,0.3-0.3,0.3
				C35.8,66.1,35.7,66,35.7,65.8z"/>
		</g>
		<g>
			<path class="st2" d="M55.8,40.7c0,0,3.3-4.2,5.2-3.8c1.9,0.4,1.9,2.4,1.9,2.4s-0.3,7.2-0.7,8.1c-0.3,0.9-4,1.4-5.9,1.1L55.8,40.7
				z"/>
			<path class="st2" d="M25.7,40.7c0,0-3.3-4.2-5.2-3.8c-1.9,0.4-1.9,2.4-1.9,2.4s0.3,7.2,0.7,8.1c0.3,0.9,4,1.4,5.9,1.1L25.7,40.7z
				"/>
		</g>
		<path class="st2" d="M57,50.2c0,0-0.3,3.2-1.8,4.6c-2.3,2.1-9.6,6.6-14.5,6.6C39,61.4,37,60.8,35,60c-3.7-1.5-7.2-3.8-8.7-5.2
			c-1.5-1.3-1.8-4.6-1.8-4.6s-0.3-3.4-0.5-8C23.5,34,23.2,22,25.1,19.6c3.7-4.6,15.6-4.9,15.6-4.9s11.8,0.3,15.6,4.9
			C59.3,23.3,57,50.2,57,50.2z"/>
		<path class="st5" d="M42.9,54.7c0,0-0.8,0.3-2.1,0.4c-1.4,0-2.1-0.4-2.1-0.4s0.5,0.7,2.1,0.7C42.4,55.5,42.9,54.7,42.9,54.7z"/>
		<path class="st5" d="M45.3,51.2c0,0-1.6,1-4.6,1.5c-3,0.3-4.8-0.2-4.8-0.2s1.4,1.5,4.9,1C44.4,53,45.3,51.2,45.3,51.2z"/>
		<path class="st5" d="M28.1,40c0-0.8,0.5-1.7,1.2-2.2c0.7-0.5,1.6-0.7,2.5-0.7c0.8,0,1.7,0.2,2.5,0.6c0.7,0.5,1.2,1.4,1.1,2.2
			c-0.2-0.8-0.7-1.4-1.4-1.7c-0.7-0.3-1.4-0.4-2.2-0.4c-0.8,0-1.5,0.1-2.2,0.4C28.9,38.7,28.3,39.3,28.1,40z"/>
		<path class="st5" d="M28.1,40c0-0.8,0.5-1.7,1.2-2.2c0.7-0.5,1.6-0.7,2.5-0.7c0.8,0,1.7,0.2,2.5,0.6c0.7,0.5,1.2,1.4,1.1,2.2
			c-0.2-0.8-0.7-1.4-1.4-1.7c-0.7-0.3-1.4-0.4-2.2-0.4c-0.8,0-1.5,0.1-2.2,0.4C28.9,38.7,28.3,39.3,28.1,40z"/>
		<g>
			<path class="st4" d="M26.4,36.4c0,0,4.1-5.2,10.1-1.3"/>
			<path class="st5" d="M26.2,36.2c0,0,0,0,0.1-0.1c0-0.1,0.1-0.2,0.2-0.3c0.2-0.3,0.5-0.6,0.9-1c0.2-0.2,0.4-0.4,0.7-0.6
				c0.3-0.2,0.6-0.4,0.9-0.5c0.3-0.1,0.7-0.3,1-0.4l0.6-0.2l0.6-0.1c0.4-0.1,0.8-0.1,1.2-0.1c0.4,0,0.8,0.1,1.1,0.1
				c0.4,0.1,0.7,0.2,1,0.3c0.3,0.1,0.6,0.3,0.8,0.4c0.5,0.2,0.9,0.5,1.1,0.7c0.3,0.2,0.4,0.3,0.4,0.3c0.2,0.1,0.2,0.4,0.1,0.6
				c-0.1,0.1-0.3,0.2-0.5,0.1l-0.1,0c0,0-0.2-0.1-0.4-0.2c-0.1-0.1-0.3-0.1-0.5-0.2c-0.2-0.1-0.4-0.1-0.6-0.2
				c-0.2-0.1-0.5-0.2-0.8-0.2c-0.3,0-0.6-0.1-0.8-0.1c-0.3,0-0.6-0.1-0.9,0c-0.3,0-0.6,0-0.9,0.1c-0.3,0-0.6,0.1-0.9,0.2
				c-0.3,0.1-0.6,0.2-0.9,0.3c-0.3,0.1-0.5,0.2-0.8,0.3c-0.3,0.1-0.5,0.2-0.7,0.4c-0.9,0.5-1.4,0.9-1.4,0.9l0,0
				c-0.1,0.1-0.3,0.1-0.4-0.1C26.1,36.5,26.1,36.3,26.2,36.2z"/>
		</g>
		<path class="st5" d="M53.2,40c0-0.8-0.5-1.7-1.2-2.2c-0.7-0.5-1.6-0.7-2.5-0.7c-0.8,0-1.7,0.2-2.5,0.6c-0.7,0.5-1.2,1.4-1.1,2.2
			c0.2-0.8,0.7-1.4,1.4-1.7c0.7-0.3,1.4-0.4,2.2-0.4c0.8,0,1.5,0.1,2.2,0.4C52.4,38.7,53,39.3,53.2,40z"/>
		<path class="st5" d="M53.2,40c0-0.8-0.5-1.7-1.2-2.2c-0.7-0.5-1.6-0.7-2.5-0.7c-0.8,0-1.7,0.2-2.5,0.6c-0.7,0.5-1.2,1.4-1.1,2.2
			c0.2-0.8,0.7-1.4,1.4-1.7c0.7-0.3,1.4-0.4,2.2-0.4c0.8,0,1.5,0.1,2.2,0.4C52.4,38.7,53,39.3,53.2,40z"/>
		<g>
			<path class="st4" d="M54.9,36.4c0,0-4.1-5.2-10.1-1.3"/>
			<path class="st5" d="M54.6,36.6c0,0-0.5-0.4-1.4-0.9c-0.2-0.1-0.4-0.2-0.7-0.4c-0.2-0.1-0.5-0.2-0.8-0.3
				c-0.3-0.1-0.6-0.2-0.9-0.3c-0.3-0.1-0.6-0.1-0.9-0.2c-0.3-0.1-0.6,0-0.9-0.1c-0.3,0-0.6,0-0.9,0c-0.3,0-0.6,0.1-0.8,0.1
				c-0.3,0-0.5,0.1-0.8,0.2c-0.2,0.1-0.5,0.1-0.6,0.2c-0.2,0.1-0.4,0.1-0.5,0.2c-0.3,0.1-0.4,0.2-0.4,0.2l0,0
				c-0.2,0.1-0.4,0-0.5-0.3c-0.1-0.2,0-0.3,0.1-0.5c0,0,0.1-0.1,0.4-0.3c0.3-0.2,0.6-0.5,1.1-0.7c0.3-0.1,0.5-0.3,0.8-0.4
				c0.3-0.1,0.6-0.2,1-0.3c0.4,0,0.7-0.1,1.1-0.1c0.4,0,0.8,0,1.2,0.1l0.6,0.1l0.6,0.2c0.4,0.1,0.7,0.3,1,0.4
				c0.3,0.2,0.6,0.3,0.9,0.5c0.3,0.2,0.5,0.4,0.7,0.6c0.4,0.4,0.7,0.8,0.9,1c0.1,0.1,0.2,0.2,0.2,0.3c0,0.1,0.1,0.1,0.1,0.1
				c0.1,0.2,0,0.3-0.1,0.4C54.9,36.7,54.7,36.7,54.6,36.6L54.6,36.6z"/>
		</g>
		<g>
			<path class="st5" d="M44.1,46.9c-0.4-0.2-0.9-0.2-1.3-0.1c-0.4,0.1-0.8,0.3-1,0.6l0,0c0,0,0,0.1,0,0.1c0,0.1,0.1,0.2,0.3,0.2
				c0.4,0,0.7,0,1.1-0.1c0.1,0,0.1,0,0.1-0.1c0-0.1,0-0.1-0.1-0.1c-0.2,0-0.3,0-0.5,0c0.1-0.1,0.3-0.1,0.4-0.2
				c0.3-0.1,0.6-0.2,1-0.2h0c0,0,0.1,0,0.1,0C44.2,47,44.2,47,44.1,46.9z"/>
			<path class="st5" d="M44.1,46.9c-0.4-0.2-0.9-0.2-1.3-0.1c-0.4,0.1-0.8,0.3-1,0.6l0,0c0,0,0,0.1,0,0.1c0,0.1,0.1,0.2,0.3,0.2
				c0.4,0,0.7,0,1.1-0.1c0.1,0,0.1,0,0.1-0.1c0-0.1,0-0.1-0.1-0.1c-0.2,0-0.3,0-0.5,0c0.1-0.1,0.3-0.1,0.4-0.2
				c0.3-0.1,0.6-0.2,1-0.2h0c0,0,0.1,0,0.1,0C44.2,47,44.2,47,44.1,46.9z"/>
			<path class="st5" d="M37.8,46.9c0.4-0.2,0.9-0.2,1.3-0.1c0.4,0.1,0.8,0.3,1,0.6l0,0c0,0,0,0.1,0,0.1c0,0.1-0.1,0.2-0.3,0.2
				c-0.4,0-0.7,0-1.1-0.1c-0.1,0-0.1,0-0.1-0.1c0-0.1,0-0.1,0.1-0.1c0.2,0,0.3,0,0.5,0c-0.1-0.1-0.3-0.1-0.4-0.2
				c-0.3-0.1-0.6-0.2-1-0.2h0c0,0-0.1,0-0.1,0C37.7,47,37.7,47,37.8,46.9z"/>
			<path class="st5" d="M37.8,46.9c0.4-0.2,0.9-0.2,1.3-0.1c0.4,0.1,0.8,0.3,1,0.6l0,0c0,0,0,0.1,0,0.1c0,0.1-0.1,0.2-0.3,0.2
				c-0.4,0-0.7,0-1.1-0.1c-0.1,0-0.1,0-0.1-0.1c0-0.1,0-0.1,0.1-0.1c0.2,0,0.3,0,0.5,0c-0.1-0.1-0.3-0.1-0.4-0.2
				c-0.3-0.1-0.6-0.2-1-0.2h0c0,0-0.1,0-0.1,0C37.7,47,37.7,47,37.8,46.9z"/>
		</g>
		<g>
			<g>
				<path class="st5" d="M57.6,37.9c0.3,0,0.3-0.7,0-0.7C57.2,37.2,57.3,37.9,57.6,37.9L57.6,37.9z"/>
			</g>
		</g>
		<g>
			<path class="st6" d="M64.1,23.1c-0.5-4.9-3.9-8.8-9.3-7.6c1-4.8-3.7-9.9-8.8-10.6c0,0,3.2,4,4.1,7C39.7,4.2,28,8.3,25,12.3
				c2.3,0,5.9-0.6,7.2-0.2c-1.7,0.5-3.3,1.3-4.9,1.9c-12.9,5-9.8,19.6-9.8,19.6s1.1-1.8,1.4-2.2c0,0.9,4.6,10.3,4.6,10.3
				s2.7-9.1,0.9-12.9c3.5,0.2,10.6-0.4,14.2-1.3c5.7-1.5,10.3-3.4,13.7-7.9c-0.2,1.4,2.8,7.2,3.7,9c1.6,3.3,1.5,9.8,1.5,9.8
				S64.7,28.3,64.1,23.1z"/>
			<g>
				<path class="st4" d="M32.2,12.1c0,0,10.3-1,17.4,3.1"/>
				<path class="st5" d="M32.1,11.5c0,0,1.2-0.1,2.8,0c1.7,0,4,0.2,6.2,0.6c0.6,0.1,1.1,0.2,1.7,0.3c0.5,0.1,1.1,0.2,1.6,0.4
					c0.5,0.2,1,0.3,1.5,0.5c0.5,0.2,0.9,0.3,1.3,0.5c0.8,0.3,1.4,0.6,1.8,0.9c0.4,0.2,0.7,0.4,0.7,0.4c0.1,0.1,0.1,0.2,0.1,0.3
					c0,0.1-0.2,0.1-0.3,0.1l0,0c0,0-0.2-0.1-0.7-0.3c-0.4-0.2-1.1-0.5-1.8-0.8c-0.4-0.2-0.8-0.3-1.3-0.4c-0.4-0.2-0.9-0.3-1.4-0.4
					c-0.5-0.1-1-0.2-1.6-0.3c-0.5-0.1-1.1-0.2-1.6-0.3c-2.2-0.3-4.4-0.3-6.1-0.3c-1.7,0-2.7,0.2-2.7,0.2c-0.3,0-0.6-0.2-0.6-0.5
					C31.6,11.8,31.8,11.5,32.1,11.5C32.1,11.5,32.1,11.5,32.1,11.5L32.1,11.5z"/>
			</g>
			<g>
				<path class="st4" d="M19,31.5c0,0,1.8-12.9,18.7-13.5"/>
				<path class="st5" d="M18.4,31.4c0,0,0-0.1,0.1-0.3c0-0.2,0.1-0.5,0.2-0.8c0.1-0.3,0.2-0.8,0.4-1.2c0.2-0.5,0.4-1,0.7-1.5
					c0.2-0.6,0.6-1.1,1-1.7c0.4-0.6,0.8-1.2,1.3-1.7c0.3-0.3,0.5-0.6,0.8-0.8c0.3-0.3,0.6-0.5,0.9-0.8c0.6-0.5,1.3-1,1.9-1.4
					c0.7-0.4,1.4-0.8,2.1-1.1c0.7-0.3,1.4-0.6,2.1-0.9c0.7-0.2,1.4-0.4,2.1-0.6c0.7-0.1,1.3-0.2,1.9-0.3c0.3,0,0.6-0.1,0.8-0.1
					c0.3,0,0.5,0,0.8-0.1c0.5,0,0.9-0.1,1.2-0.1c0.7,0,1.1-0.1,1.1-0.1c0.1,0,0.2,0.1,0.2,0.2c0,0.1-0.1,0.2-0.2,0.2l0,0
					c0,0-0.4,0-1.1,0.1c-0.3,0-0.7,0.1-1.2,0.1c-0.2,0-0.5,0-0.7,0.1c-0.3,0.1-0.5,0.1-0.8,0.2c-0.6,0.1-1.2,0.2-1.8,0.4
					c-0.6,0.2-1.3,0.4-2,0.6c-0.7,0.2-1.3,0.6-2,0.9c-0.7,0.3-1.3,0.8-2,1.2c-0.6,0.5-1.2,0.9-1.8,1.4c-0.3,0.3-0.5,0.5-0.8,0.8
					c-0.3,0.3-0.5,0.6-0.7,0.8c-0.5,0.5-0.8,1.1-1.2,1.7C21.3,27,21,27.5,20.7,28c-0.2,0.5-0.4,1-0.6,1.4c-0.2,0.4-0.3,0.8-0.3,1.1
					c-0.1,0.3-0.1,0.6-0.2,0.7c0,0.2,0,0.3,0,0.3l0,0c-0.1,0.3-0.4,0.5-0.7,0.5S18.4,31.7,18.4,31.4C18.4,31.4,18.4,31.4,18.4,31.4z
					"/>
			</g>
			<g>
				<path class="st4" d="M54,24.3c0,0,1.4,4.2,6.1,4.1"/>
				<path class="st5" d="M54.6,24.1c0,0,0,0.1,0.1,0.3c0.1,0.2,0.2,0.4,0.3,0.7c0.3,0.6,0.9,1.3,1.6,1.9c0.2,0.2,0.4,0.3,0.6,0.4
					c0.2,0.1,0.4,0.2,0.6,0.3c0.2,0.1,0.4,0.1,0.6,0.2c0.2,0.1,0.4,0.1,0.5,0.1c0.2,0,0.3,0.1,0.5,0.1c0.1,0,0.3,0,0.4,0
					c0.2,0,0.3,0,0.3,0l0,0c0.1,0,0.2,0.1,0.2,0.2c0,0.1-0.1,0.2-0.2,0.2c0,0-0.1,0-0.3,0c-0.1,0-0.2,0-0.4,0c-0.2,0-0.3,0-0.5,0
					c-0.2,0-0.4,0-0.6-0.1c-0.2-0.1-0.4-0.1-0.7-0.2c-0.2-0.1-0.5-0.1-0.7-0.3c-0.2-0.1-0.5-0.2-0.7-0.4c-0.9-0.5-1.6-1.3-2.1-2
					c-0.2-0.3-0.4-0.6-0.5-0.8c-0.1-0.2-0.2-0.4-0.2-0.3c-0.1-0.3,0.1-0.6,0.4-0.7C54.1,23.6,54.5,23.8,54.6,24.1z"/>
			</g>
		</g>
		<g>
			<path class="st5" d="M25.1,78.5l-0.8,12.8c0,0.3-0.3,0.6-0.6,0.6c-0.3,0-0.6-0.3-0.6-0.6c0,0,0,0,0,0l1.7-12.7
				c0-0.1,0.1-0.2,0.2-0.2C25,78.3,25.1,78.4,25.1,78.5z"/>
		</g>
		<g>
			<path class="st5" d="M56.6,78.4l1.7,12.7c0,0.3-0.2,0.6-0.5,0.7c-0.3,0-0.6-0.2-0.7-0.5c0,0,0,0,0,0l-0.8-12.8
				c0-0.1,0.1-0.2,0.2-0.2C56.5,78.3,56.6,78.3,56.6,78.4z"/>
		</g>
		<g>
			<g>
				<path class="st4" d="M20.7,43.1c0,0-0.1-1.1,0-2.7"/>
				<path class="st5" d="M20.5,43.1c0,0-0.1-0.2-0.2-0.4c0-0.1-0.1-0.3-0.1-0.4c0-0.2,0-0.3,0-0.5c0-0.3,0-0.7,0.1-0.9
					c0.1-0.3,0.1-0.4,0.1-0.4c0-0.1,0.2-0.2,0.3-0.1c0.1,0,0.1,0.1,0.1,0.1c0,0,0.1,0.2,0.1,0.4c0,0.3,0.1,0.6,0.1,0.9
					c0,0.2,0,0.3,0,0.5c0,0.2,0,0.3-0.1,0.4c0,0.3-0.1,0.4-0.1,0.4l0,0C20.8,43.2,20.7,43.2,20.5,43.1
					C20.6,43.1,20.5,43.1,20.5,43.1z"/>
			</g>
			<g>
				<path class="st5" d="M19.5,39.4c0,0,0.5,0.1,1,0.5c0.3,0.2,0.6,0.5,0.8,0.8c0.3,0.3,0.5,0.7,0.7,1.1c0.2,0.4,0.4,0.8,0.5,1.2
					c0.1,0.4,0.2,0.8,0.2,1.1c0.1,0.3,0,0.6,0.1,0.8c0,0.2,0,0.3,0,0.3c0,0.1-0.1,0.2-0.2,0.2c-0.1,0-0.2-0.1-0.2-0.1l0,0
					c0,0,0-0.1-0.1-0.3c-0.1-0.2-0.1-0.4-0.2-0.7c-0.1-0.3-0.2-0.6-0.3-1c-0.1-0.4-0.3-0.7-0.5-1.1c-0.2-0.4-0.4-0.7-0.6-1
					c-0.2-0.3-0.4-0.6-0.6-0.8c-0.4-0.4-0.7-0.7-0.7-0.7c-0.1,0-0.1-0.1,0-0.2C19.4,39.4,19.5,39.4,19.5,39.4z"/>
			</g>
		</g>
		<g>
			<g>
				<path class="st4" d="M60.5,43.1c0,0,0.1-1.1,0-2.7"/>
				<path class="st5" d="M60.3,43.1c0,0-0.1-0.2-0.1-0.4c0-0.1-0.1-0.3-0.1-0.4c0-0.2,0-0.3,0-0.5c0-0.3,0-0.7,0.1-0.9
					c0-0.3,0.1-0.4,0.1-0.4c0-0.1,0.2-0.2,0.3-0.1c0.1,0,0.1,0.1,0.1,0.1c0,0,0.1,0.2,0.1,0.4c0.1,0.3,0.1,0.6,0.1,0.9
					c0,0.2,0,0.3,0,0.5c0,0.2-0.1,0.3-0.1,0.4c-0.1,0.3-0.2,0.4-0.2,0.4C60.6,43.2,60.5,43.2,60.3,43.1
					C60.4,43.1,60.3,43.1,60.3,43.1L60.3,43.1z"/>
			</g>
			<g>
				<path class="st5" d="M61.7,39.7c0,0-0.3,0.2-0.7,0.7c-0.2,0.2-0.4,0.5-0.6,0.8c-0.2,0.3-0.4,0.7-0.6,1c-0.2,0.4-0.3,0.7-0.5,1.1
					c-0.1,0.4-0.2,0.7-0.3,1c-0.1,0.3-0.1,0.6-0.2,0.7c-0.1,0.2-0.1,0.3-0.1,0.3l0,0c0,0.1-0.1,0.2-0.3,0.1c-0.1,0-0.1-0.1-0.1-0.2
					c0,0,0-0.1,0-0.3c0-0.2,0-0.5,0.1-0.8c0-0.3,0.1-0.7,0.2-1.1c0.1-0.4,0.3-0.8,0.5-1.2c0.2-0.4,0.5-0.8,0.7-1.1
					c0.3-0.3,0.6-0.6,0.8-0.8c0.6-0.4,1-0.5,1-0.5c0.1,0,0.2,0,0.2,0.1C61.8,39.6,61.8,39.7,61.7,39.7z"/>
			</g>
		</g>
	</g>
</g>
<g>
	<circle class="st7" cx="32.4" cy="39.9" r="0.8"/>
	<circle class="st7" cx="48.7" cy="39.9" r="0.8"/>
</g>
</svg>
