<?xml version="1.0" encoding="utf-8"?>
<!-- Generator: Adobe Illustrator 19.0.0, SVG Export Plug-In . SVG Version: 6.00 Build 0)  -->
<svg version="1.1" id="OBJECTS" xmlns="http://www.w3.org/2000/svg" xmlns:xlink="http://www.w3.org/1999/xlink" x="0px" y="0px"
	 viewBox="0 0 81.5 81.5" style="enable-background:new 0 0 81.5 81.5;" xml:space="preserve">
<style type="text/css">
	.st0{clip-path:url(#SVGID_2_);}
	.st1{fill:#C894FF;stroke:#262424;stroke-width:1.2178;stroke-miterlimit:10;}
	.st2{fill:#FFFFFF;stroke:#262424;stroke-width:1.6237;stroke-miterlimit:10;}
	.st3{fill:#FFFFFF;stroke:#262424;stroke-width:1.2178;stroke-miterlimit:10;}
	.st4{fill:#FFFFFF;}
	.st5{fill:#262424;}
	.st6{fill:#FFFFFF;stroke:#262424;stroke-width:1.539;stroke-miterlimit:10;}
	.st7{fill:#FFFFFF;stroke:#262424;stroke-width:0.6089;stroke-miterlimit:10;}
	.st8{fill:#FFFFFF;stroke:#262424;stroke-width:1.5876;stroke-miterlimit:10;}
	.st9{fill:#C894FF;stroke:#262424;stroke-width:1.6534;stroke-miterlimit:10;}
	.st10{opacity:0.3;fill:#FB9D78;}
</style>
<g>
	<defs>
		<circle id="SVGID_1_" cx="40.7" cy="40.7" r="40.7"/>
	</defs>
	<use xlink:href="#SVGID_1_"  style="overflow:visible;fill:#4EC2EA;"/>
	<clipPath id="SVGID_2_">
		<use xlink:href="#SVGID_1_"  style="overflow:visible;"/>
	</clipPath>
	<g class="st0">
		<path class="st1" d="M42.1,7.1h-1.6c-1.1,0-2-0.9-2-2l0,0c0-1.1,0.9-2,2-2h1.6c1.1,0,2,0.9,2,2l0,0C44.1,6.2,43.2,7.1,42.1,7.1z"
			/>
		<path class="st2" d="M64.2,74.8C62.4,73,45.7,61.6,41.9,61.6c-3.8,0-20.5,11.4-22.3,13.1c-1.8,1.7-4,16.4-4,16.4h26.3h26.3
			C68.2,91.2,66,76.5,64.2,74.8z"/>
		<path class="st3" d="M68.2,91.2H15.6c0,0,2.2-14.7,4-16.4c1.2-1.1,8.5-6.2,14.5-9.7c3.4-2,6.4-3.4,7.8-3.4c1.4,0,4.6,1.6,8.1,3.6
			c6,3.5,13.1,8.4,14.2,9.5C66,76.5,68.2,91.2,68.2,91.2z"/>
		<path class="st3" d="M50,65.4c0,2.7-3.6,4.9-7.9,4.9s-7.9-2.2-7.9-4.9c0-0.1,0-0.2,0-0.4c3.4-2,6.4-3.4,7.8-3.4
			c1.4,0,4.6,1.6,8.1,3.6C50,65.3,50,65.3,50,65.4z"/>
		<g>
			<polyline class="st4" points="37.1,65.8 37.1,54.6 46.6,54.6 46.6,65.8 			"/>
			<path class="st5" d="M36.8,65.8c-0.1-1.9-0.3-3.8-0.3-5.6c-0.1-1.9-0.1-3.8-0.2-5.6l0-0.8l0.8,0c3.2,0,6.3,0,9.5,0l0.8,0l0,0.8
				c0,1.9-0.1,3.8-0.1,5.6c0,1.9-0.1,3.8-0.2,5.6h-0.8c-0.1-1.9-0.2-3.8-0.2-5.6c0-1.9-0.1-3.8-0.1-5.6l0.8,0.8c-3.2,0-6.3,0-9.5,0
				l0.8-0.8c0,1.9-0.1,3.8-0.2,5.6c-0.1,1.9-0.2,3.8-0.3,5.6H36.8z"/>
		</g>
		<g>
			<path class="st3" d="M56.9,40.7c0,0,3.3-4.2,5.2-3.8c1.9,0.4,1.9,2.4,1.9,2.4s-0.3,7.2-0.7,8.1c-0.3,0.9-4,1.4-5.9,1.1L56.9,40.7
				z"/>
			<path class="st3" d="M26.8,40.7c0,0-3.3-4.2-5.2-3.8c-1.9,0.4-1.9,2.4-1.9,2.4s0.3,7.2,0.7,8.1c0.3,0.9,4,1.4,5.9,1.1L26.8,40.7z
				"/>
		</g>
		<g>
			<polygon class="st6" points="21.5,33.1 25.1,42.2 24.7,31.4 			"/>
			<polygon class="st6" points="62.2,32.2 59.3,42.2 59.6,31.4 			"/>
		</g>
		<path class="st3" d="M58.1,50.2c0,0-0.3,3.2-1.8,4.6c-2.3,2.1-9.6,6.6-14.5,6.6c-1.7,0-3.7-0.6-5.7-1.4c-3.7-1.5-7.2-3.8-8.7-5.2
			c-1.5-1.3-1.8-4.6-1.8-4.6s-0.3-3.4-0.5-8C24.6,34,24.3,22,26.3,19.6c3.7-4.6,15.6-4.9,15.6-4.9s11.8,0.3,15.6,4.9
			C60.5,23.3,58.1,50.2,58.1,50.2z"/>
		<g>
			<g>
				<path class="st4" d="M37.5,54.8c-0.9,1.5-1.5,3.3-1.2,5.5c0.6,5,5.9,7.5,6.3,7.2c3.8-2.6,6.6-5.4,6-8.2
					c-0.2-1.8-1.2-3.2-2.5-4.4"/>
				<path class="st5" d="M37.6,54.9c-1,1.9-1.3,4.1-0.8,6.2c0.6,2,2,3.8,3.7,4.9c0.4,0.3,0.9,0.6,1.3,0.8c0.1,0.1,0.2,0.1,0.3,0.1
					c0.1,0,0.1,0,0.1,0c0,0,0.2,0,0,0c0,0-0.1,0-0.1,0.1c0,0,0,0,0,0l0.1-0.1l0.2-0.1l0.3-0.2c0.9-0.6,1.8-1.3,2.5-2
					c0.8-0.7,1.5-1.5,2.1-2.4c0.5-0.9,0.8-1.9,0.7-2.9l0,0l0,0c-0.1-0.8-0.3-1.6-0.7-2.3c-0.4-0.7-0.9-1.4-1.5-2l0.4-0.4
					c0.7,0.6,1.3,1.2,1.8,2c0.5,0.8,0.8,1.6,1,2.6l0,0c0.1,0.6,0.1,1.2,0,1.8c-0.1,0.6-0.4,1.2-0.6,1.7c-0.6,1-1.4,1.9-2.2,2.7
					c-0.8,0.8-1.7,1.5-2.6,2.1l-0.3,0.2l-0.2,0.1l-0.1,0.1c0,0-0.1,0.1-0.3,0.1c-0.3,0.1-0.3,0-0.5,0c-0.1,0-0.2,0-0.3-0.1
					c-0.2-0.1-0.3-0.1-0.4-0.2c-0.6-0.2-1-0.6-1.5-0.9c-1.9-1.3-3.4-3.3-3.9-5.6c-0.5-2.3,0-4.7,1.3-6.6L37.6,54.9z"/>
			</g>
			<g>
				<path class="st4" d="M39.8,56.5c-1,3.3-1.3,6.5,2.3,11.3c0,0,3.1-2.5,2.3-8.8"/>
				<path class="st5" d="M39.9,56.5c-0.2,1-0.4,2-0.5,2.9c-0.1,1,0,2,0.3,2.9c0.5,1.9,1.5,3.6,2.6,5.2l-0.5-0.1
					c0.5-0.5,1-1.1,1.3-1.8c0.3-0.7,0.6-1.4,0.8-2.1c0.2-0.7,0.3-1.5,0.3-2.3c0-0.4,0-0.8,0-1.2l-0.1-1.2l0,0c0-0.1,0.1-0.2,0.2-0.2
					c0.1,0,0.2,0.1,0.2,0.2l0.1,1.2c0,0.4,0.1,0.8,0.1,1.2c0,0.8-0.1,1.6-0.2,2.4c-0.2,0.8-0.4,1.6-0.8,2.3c-0.4,0.7-0.8,1.4-1.5,2
					c-0.1,0.1-0.3,0.1-0.5,0l0,0l0,0c-1.2-1.6-2.3-3.5-2.7-5.5c-0.2-1-0.3-2.1-0.1-3.1c0.1-1,0.4-2,0.7-3c0-0.1,0.1-0.1,0.2-0.1
					C39.9,56.4,39.9,56.5,39.9,56.5z"/>
			</g>
		</g>
		<path class="st5" d="M46.6,54.3c0,0-1.7,0.8-4.7,0.8c-3.1-0.1-4.7-0.8-4.7-0.8s1.1,1.7,4.7,1.7C45.5,56,46.6,54.3,46.6,54.3z"/>
		<path class="st5" d="M46.6,54.3c0,0-1.7,0.8-4.7,0.8c-3.1-0.1-4.7-0.8-4.7-0.8s1.1,1.7,4.7,1.7C45.5,56,46.6,54.3,46.6,54.3z"/>
		<path class="st7" d="M35.9,50.7c0,0,0.8-0.6,1.7-0.6h8.6c0.9,0,1.7,0.6,1.7,0.6C47.9,54.5,35.9,54.5,35.9,50.7z"/>
		<path class="st5" d="M32.4,39.7c0-0.6,0.3-1.3,0.9-1.6c0.6-0.4,1.2-0.5,1.9-0.5c0.6,0,1.3,0.1,1.9,0.5c0.6,0.4,0.9,1,0.8,1.6
			c-0.2-0.6-0.6-1-1.1-1.3c-0.5-0.2-1.1-0.3-1.6-0.3c-0.6,0-1.1,0.1-1.6,0.3C33,38.7,32.6,39.1,32.4,39.7z"/>
		<g>
			<path class="st4" d="M27.6,36.4c0,0,4.1-5.2,10.1-1.3"/>
			<path class="st5" d="M27.3,36.2c0.5-0.9,1.2-1.6,2-2.2c0.8-0.6,1.8-1,2.9-1.1c1-0.1,2.1-0.1,3.1,0.3c0.5,0.1,0.9,0.4,1.4,0.6
				c0.4,0.3,0.8,0.6,1.2,0.9c0.2,0.1,0.2,0.4,0.1,0.6c-0.1,0.1-0.3,0.2-0.4,0.1l-0.1,0c-0.4-0.1-0.8-0.3-1.3-0.5
				c-0.4-0.1-0.8-0.3-1.3-0.3c-0.8-0.2-1.7-0.2-2.5-0.1c-1.6,0.2-3.2,1-4.7,2.1l0,0c-0.1,0.1-0.3,0.1-0.4-0.1
				C27.3,36.5,27.3,36.3,27.3,36.2z"/>
		</g>
		<path class="st5" d="M51.2,39.7c0-0.6-0.3-1.3-0.9-1.6c-0.6-0.4-1.2-0.5-1.9-0.5c-0.6,0-1.3,0.1-1.9,0.5c-0.6,0.4-0.9,1-0.8,1.6
			c0.2-0.6,0.6-1,1.1-1.3c0.5-0.2,1.1-0.3,1.6-0.3c0.6,0,1.1,0.1,1.6,0.3C50.6,38.7,51,39.1,51.2,39.7z"/>
		<g>
			<path class="st4" d="M56,36.4c0,0-4.1-5.2-10.1-1.3"/>
			<path class="st5" d="M55.8,36.6c-1.5-1-3-1.9-4.7-2.1c-0.8-0.1-1.6-0.1-2.5,0.1c-0.4,0.1-0.8,0.2-1.3,0.3
				c-0.4,0.1-0.8,0.3-1.3,0.5l-0.1,0c-0.2,0.1-0.4-0.1-0.5-0.3c-0.1-0.2,0-0.3,0.1-0.4c0.4-0.3,0.8-0.6,1.2-0.9
				c0.4-0.2,0.9-0.5,1.4-0.6c1-0.4,2-0.4,3.1-0.3c1,0.1,2,0.5,2.9,1.1c0.8,0.6,1.5,1.3,2,2.2c0.1,0.1,0,0.3-0.1,0.4
				C56,36.7,55.9,36.7,55.8,36.6L55.8,36.6z"/>
		</g>
		<g>
			<path class="st5" d="M45.3,46.9c-0.4-0.2-0.9-0.2-1.3-0.1c-0.4,0.1-0.8,0.3-1,0.6l0,0c0,0,0,0.1,0,0.1c0,0.1,0.1,0.2,0.3,0.2
				c0.4,0,0.7,0,1.1-0.1c0.1,0,0.1,0,0.1-0.1c0-0.1,0-0.1-0.1-0.1c-0.2,0-0.3,0-0.5,0c0.1-0.1,0.3-0.1,0.4-0.2
				c0.3-0.1,0.6-0.2,1-0.2h0c0,0,0.1,0,0.1,0C45.3,47,45.3,47,45.3,46.9z"/>
			<path class="st5" d="M45.3,46.9c-0.4-0.2-0.9-0.2-1.3-0.1c-0.4,0.1-0.8,0.3-1,0.6l0,0c0,0,0,0.1,0,0.1c0,0.1,0.1,0.2,0.3,0.2
				c0.4,0,0.7,0,1.1-0.1c0.1,0,0.1,0,0.1-0.1c0-0.1,0-0.1-0.1-0.1c-0.2,0-0.3,0-0.5,0c0.1-0.1,0.3-0.1,0.4-0.2
				c0.3-0.1,0.6-0.2,1-0.2h0c0,0,0.1,0,0.1,0C45.3,47,45.3,47,45.3,46.9z"/>
			<path class="st5" d="M38.9,46.9c0.4-0.2,0.9-0.2,1.3-0.1c0.4,0.1,0.8,0.3,1,0.6l0,0c0,0,0,0.1,0,0.1c0,0.1-0.1,0.2-0.3,0.2
				c-0.4,0-0.7,0-1.1-0.1c-0.1,0-0.1,0-0.1-0.1c0-0.1,0-0.1,0.1-0.1c0.2,0,0.3,0,0.5,0c-0.1-0.1-0.3-0.1-0.4-0.2
				c-0.3-0.1-0.6-0.2-1-0.2h0c0,0-0.1,0-0.1,0C38.8,47,38.8,47,38.9,46.9z"/>
			<path class="st5" d="M38.9,46.9c0.4-0.2,0.9-0.2,1.3-0.1c0.4,0.1,0.8,0.3,1,0.6l0,0c0,0,0,0.1,0,0.1c0,0.1-0.1,0.2-0.3,0.2
				c-0.4,0-0.7,0-1.1-0.1c-0.1,0-0.1,0-0.1-0.1c0-0.1,0-0.1,0.1-0.1c0.2,0,0.3,0,0.5,0c-0.1-0.1-0.3-0.1-0.4-0.2
				c-0.3-0.1-0.6-0.2-1-0.2h0c0,0-0.1,0-0.1,0C38.8,47,38.8,47,38.9,46.9z"/>
		</g>
		<g>
			<g>
				<path class="st5" d="M58.7,37.9c0.3,0,0.3-0.7,0-0.7C58.4,37.2,58.4,37.9,58.7,37.9L58.7,37.9z"/>
			</g>
		</g>
		<g>
			<path class="st5" d="M26.2,78.5l-0.8,12.8c0,0.3-0.3,0.6-0.6,0.6c-0.3,0-0.6-0.3-0.6-0.6c0,0,0,0,0,0l1.7-12.7
				c0-0.1,0.1-0.2,0.2-0.2C26.1,78.3,26.2,78.4,26.2,78.5z"/>
		</g>
		<g>
			<path class="st5" d="M57.8,78.4l1.7,12.7c0,0.3-0.2,0.6-0.5,0.7c-0.3,0-0.6-0.2-0.7-0.5c0,0,0,0,0,0l-0.8-12.8
				c0-0.1,0.1-0.2,0.2-0.2C57.6,78.3,57.7,78.3,57.8,78.4z"/>
		</g>
		<g>
			<g>
				<path class="st5" d="M38.7,13.3c0.1,0,0.1-0.2,0-0.2C38.7,13.2,38.7,13.3,38.7,13.3L38.7,13.3z"/>
			</g>
		</g>
		<g>
			<path class="st8" d="M21.2,28.8c13.1-4.2,26.8-4.7,41-1c0,0,1.3-21.2-20.3-21.2C26.4,6.7,21.2,15.9,21.2,28.8z"/>
		</g>
		<g>
			<path class="st5" d="M26.4,25.3c-0.1-2.1,0.1-4.1,0.7-6c0.5-1.9,1.4-3.8,2.6-5.4c1.2-1.6,2.6-3.1,4.3-4.2c0.8-0.6,1.7-1,2.6-1.5
				c0.9-0.4,1.8-0.8,2.7-1.2l0.1,0.3c-0.9,0.4-1.8,0.8-2.7,1.2C35.8,9,34.9,9.4,34.1,10c-1.6,1.1-2.9,2.6-4,4.2
				c-1.1,1.6-1.9,3.4-2.4,5.3c-0.5,1.9-0.7,3.9-0.5,5.7L26.4,25.3z"/>
		</g>
		<g>
			<path class="st5" d="M55.8,25.2c0.2-1.9,0-3.9-0.5-5.7c-0.5-1.9-1.3-3.7-2.4-5.3c-1.1-1.6-2.4-3.1-4-4.2c-0.8-0.6-1.7-1-2.5-1.6
				c-0.9-0.5-1.8-0.8-2.7-1.2L43.8,7c0.9,0.4,1.9,0.7,2.7,1.2c0.9,0.5,1.8,0.9,2.6,1.5c1.7,1.1,3.1,2.6,4.3,4.2
				c1.2,1.6,2,3.5,2.6,5.4c0.5,1.9,0.8,3.9,0.7,6L55.8,25.2z"/>
		</g>
		<g>
			<path class="st5" d="M34.8,23.3c0-1.5,0.1-3,0.2-4.4c0.2-1.5,0.4-2.9,0.8-4.4c0.4-1.4,0.9-2.8,1.7-4.1c0.8-1.3,1.7-2.4,2.9-3.3
				l0.2,0.2c-1.1,0.9-2,2.1-2.7,3.3c-0.7,1.3-1.1,2.7-1.5,4.1c-0.4,1.4-0.6,2.8-0.7,4.3c-0.1,1.4-0.2,2.9-0.1,4.3L34.8,23.3z"/>
		</g>
		<g>
			<path class="st5" d="M47.4,23.3c0.1-1.4,0-2.9-0.1-4.3c-0.1-1.4-0.3-2.9-0.7-4.3c-0.4-1.4-0.8-2.8-1.5-4.1
				c-0.7-1.3-1.6-2.4-2.7-3.3L42.5,7c1.2,0.9,2.2,2.1,2.9,3.3c0.8,1.3,1.3,2.7,1.7,4.1c0.4,1.4,0.7,2.9,0.8,4.4
				c0.2,1.5,0.3,2.9,0.2,4.4L47.4,23.3z"/>
		</g>
		<g>
			<path class="st9" d="M20.9,33c-0.4,0-0.8-0.1-1.2-0.4c-0.9-0.7,4.9-10.3,21.9-10.7c17-0.4,22.8,8.1,22,8.9
				c-0.8,0.8-2.1,0.7-2.8-0.3c0,0-4.1-4.7-19.2-4.3c-15.1,0.4-19.3,5.8-19.3,5.9C22.1,32.7,21.5,33,20.9,33z"/>
		</g>
		<g>
			<g>
				<path class="st4" d="M22.1,43.1c0,0-0.1-1.1,0-2.7"/>
				<path class="st5" d="M22,43.1c-0.1-0.2-0.2-0.5-0.2-0.7c0-0.2-0.1-0.5-0.1-0.7c0-0.2,0-0.5,0.1-0.7c0-0.2,0.1-0.5,0.2-0.7
					c0-0.1,0.2-0.2,0.3-0.1c0.1,0,0.1,0.1,0.1,0.1c0.1,0.2,0.1,0.5,0.1,0.7c0,0.2,0,0.4,0,0.7c0,0.2,0,0.4,0,0.7
					c0,0.2-0.1,0.4-0.2,0.7l0,0C22.2,43.2,22.1,43.2,22,43.1C22,43.1,22,43.1,22,43.1z"/>
			</g>
			<g>
				<path class="st5" d="M21,39.4c0.6,0.2,1.1,0.5,1.5,0.9c0.4,0.4,0.8,0.9,1,1.5c0.3,0.5,0.5,1.1,0.6,1.7c0.1,0.3,0.1,0.6,0.1,0.9
					c0,0.3,0,0.6,0,0.9c0,0.1-0.1,0.2-0.2,0.2c-0.1,0-0.2-0.1-0.2-0.1l0,0c-0.2-0.5-0.3-1.1-0.5-1.6c-0.2-0.5-0.4-1-0.6-1.5
					c-0.3-0.5-0.5-0.9-0.9-1.3c-0.3-0.4-0.7-0.8-1.1-1.1l0,0c-0.1-0.1-0.1-0.1,0-0.2C20.8,39.4,20.9,39.4,21,39.4z"/>
			</g>
		</g>
		<g>
			<g>
				<path class="st4" d="M61.9,43.1c0,0,0.1-1.1,0-2.7"/>
				<path class="st5" d="M61.8,43.1c-0.1-0.2-0.1-0.5-0.2-0.7c0-0.2,0-0.4,0-0.7c0-0.2,0-0.4,0-0.7c0-0.2,0.1-0.4,0.1-0.7
					c0-0.1,0.2-0.2,0.3-0.1c0.1,0,0.1,0.1,0.1,0.1c0.1,0.2,0.1,0.5,0.2,0.7c0.1,0.2,0,0.5,0.1,0.7c0,0.2,0,0.5-0.1,0.7
					c-0.1,0.2-0.1,0.5-0.2,0.7C62,43.2,61.9,43.2,61.8,43.1C61.8,43.1,61.8,43.1,61.8,43.1L61.8,43.1z"/>
			</g>
			<g>
				<path class="st5" d="M63.2,39.7c-0.4,0.3-0.8,0.7-1.1,1.1c-0.3,0.4-0.6,0.9-0.9,1.3c-0.3,0.5-0.4,1-0.6,1.5
					c-0.2,0.5-0.3,1.1-0.5,1.6l0,0c0,0.1-0.1,0.2-0.3,0.1c-0.1,0-0.1-0.1-0.1-0.2c0-0.3,0-0.6,0-0.9c0-0.3,0.1-0.6,0.1-0.9
					c0.1-0.6,0.3-1.1,0.6-1.7c0.3-0.5,0.6-1,1-1.5c0.4-0.4,0.9-0.8,1.5-0.9c0.1,0,0.2,0,0.2,0.1C63.3,39.6,63.3,39.6,63.2,39.7
					L63.2,39.7z"/>
			</g>
		</g>
		<ellipse class="st10" cx="32.4" cy="45.2" rx="3.7" ry="1.4"/>
		<ellipse class="st10" cx="51.4" cy="45.2" rx="3.7" ry="1.4"/>
	</g>
</g>
</svg>
