<?xml version="1.0" encoding="utf-8"?>
<!-- Generator: Adobe Illustrator 19.0.0, SVG Export Plug-In . SVG Version: 6.00 Build 0)  -->
<svg version="1.1" id="OBJECTS" xmlns="http://www.w3.org/2000/svg" xmlns:xlink="http://www.w3.org/1999/xlink" x="0px" y="0px"
	 viewBox="0 0 81.5 81.5" style="enable-background:new 0 0 81.5 81.5;" xml:space="preserve">
<style type="text/css">
	.st0{fill:#262424;}
	.st1{fill:#FFFFFF;stroke:#262424;stroke-width:1.6237;stroke-miterlimit:10;}
	.st2{clip-path:url(#SVGID_2_);}
	.st3{fill:#FFFFFF;stroke:#262424;stroke-width:1.2178;stroke-miterlimit:10;}
	.st4{fill:#FFFFFF;}
	.st5{fill:#FFFFFF;stroke:#262424;stroke-width:1.3561;stroke-linecap:round;stroke-linejoin:round;stroke-miterlimit:10;}
	.st6{fill:#FCBC6F;stroke:#262424;stroke-width:0.9041;stroke-linecap:round;stroke-linejoin:round;stroke-miterlimit:10;}
	.st7{fill:none;stroke:#262424;stroke-width:0.7088;stroke-linecap:round;stroke-linejoin:round;stroke-miterlimit:10;}
	.st8{fill:#FCBC6F;}
	.st9{fill:#FFFFFF;stroke:#262424;stroke-width:1.6237;stroke-linecap:round;stroke-linejoin:round;stroke-miterlimit:10;}
	.st10{fill:#FCBC6F;stroke:#262424;stroke-width:0.6;stroke-linecap:round;stroke-linejoin:round;stroke-miterlimit:10;}
</style>
<g>
	<g>
		<path class="st0" d="M127.7,8.7c0.1,0,0.1-0.2,0-0.2C127.6,8.5,127.6,8.7,127.7,8.7L127.7,8.7z"/>
	</g>
</g>
<path class="st1" d="M128.1,87"/>
<g>
	<g>
		<defs>
			<circle id="SVGID_1_" cx="40.7" cy="40.7" r="40.7"/>
		</defs>
		<use xlink:href="#SVGID_1_"  style="overflow:visible;fill:#EB6D4A;"/>
		<clipPath id="SVGID_2_">
			<use xlink:href="#SVGID_1_"  style="overflow:visible;"/>
		</clipPath>
		<g class="st2">
			<path class="st1" d="M63.6,70.1C61.8,68.4,45.1,57,41.3,57C37.5,57,20.8,68.4,19,70.1c-1.8,1.7-4,16.4-4,16.4h26.3h26.3
				C67.6,86.6,65.5,71.9,63.6,70.1z"/>
			<path class="st3" d="M67.6,86.6H15c0,0,2.2-14.7,4-16.4c1.2-1.1,8.5-6.2,14.5-9.7c3.4-2,6.4-3.4,7.8-3.4c1.4,0,4.6,1.6,8.1,3.6
				c6,3.5,13.1,8.4,14.2,9.5C65.5,71.9,67.6,86.6,67.6,86.6z"/>
			<path class="st3" d="M49.4,60.8c0,2.7-3.6,4.9-7.9,4.9c-4.4,0-7.9-2.2-7.9-4.9c0-0.1,0-0.2,0-0.4c3.4-2,6.4-3.4,7.8-3.4
				c1.4,0,4.6,1.6,8.1,3.6C49.4,60.7,49.4,60.7,49.4,60.8z"/>
			<g>
				<polyline class="st4" points="36.6,61.2 36.6,50 46.1,50 46.1,61.2 				"/>
				<path class="st0" d="M36.3,61.2c-0.1-1.9-0.3-3.8-0.3-5.6c-0.1-1.9-0.1-3.8-0.2-5.6l0-0.8l0.8,0c3.2,0,6.3,0,9.5,0l0.8,0l0,0.8
					c0,1.9-0.1,3.8-0.1,5.6c0,1.9-0.1,3.8-0.2,5.6h-0.8c-0.1-1.9-0.2-3.8-0.2-5.6c0-1.9-0.1-3.8-0.1-5.6l0.8,0.8c-3.2,0-6.3,0-9.5,0
					l0.8-0.8c0,1.9-0.1,3.8-0.2,5.6c-0.1,1.9-0.2,3.8-0.3,5.6H36.3z"/>
			</g>
			<g>
				<path class="st3" d="M56.4,36c0,0,3.3-4.2,5.2-3.8c1.9,0.4,1.9,2.4,1.9,2.4s-0.3,7.2-0.7,8.1c-0.3,0.9-4,1.4-5.9,1.1L56.4,36z"
					/>
				<path class="st3" d="M26.2,36c0,0-3.3-4.2-5.2-3.8c-1.9,0.4-1.9,2.4-1.9,2.4s0.3,7.2,0.7,8.1c0.3,0.9,4,1.4,5.9,1.1L26.2,36z"/>
			</g>
			<path class="st3" d="M57.6,45.5c0,0-0.3,3.2-1.8,4.6c-2.3,2.1-9.6,6.6-14.5,6.6c-1.7,0-3.7-0.6-5.7-1.4c-3.7-1.5-7.2-3.8-8.7-5.2
				c-1.5-1.3-1.8-4.6-1.8-4.6s-0.3-3.4-0.5-8c-0.4-8.3-0.7-20.2,1.2-22.6c3.7-4.6,15.6-4.9,15.6-4.9s11.8,0.3,15.6,4.9
				C59.9,18.6,57.6,45.5,57.6,45.5z"/>
			<path class="st0" d="M44.5,48.2c0,0-1.1,0.5-3.1,0.6c-2-0.1-3.1-0.6-3.1-0.6s0.8,1.1,3.1,1.1C43.7,49.3,44.5,48.2,44.5,48.2z"/>
			<path class="st0" d="M28.7,35.4c0-0.8,0.5-1.7,1.2-2.2c0.7-0.5,1.6-0.7,2.5-0.7c0.8,0,1.7,0.2,2.5,0.6c0.7,0.5,1.2,1.4,1.1,2.2
				c-0.2-0.8-0.7-1.4-1.4-1.7c-0.7-0.3-1.4-0.4-2.2-0.4c-0.8,0-1.5,0.1-2.2,0.4C29.5,34.1,28.9,34.6,28.7,35.4z"/>
			<path class="st0" d="M28.7,35.4c0-0.8,0.5-1.7,1.2-2.2c0.7-0.5,1.6-0.7,2.5-0.7c0.8,0,1.7,0.2,2.5,0.6c0.7,0.5,1.2,1.4,1.1,2.2
				c-0.2-0.8-0.7-1.4-1.4-1.7c-0.7-0.3-1.4-0.4-2.2-0.4c-0.8,0-1.5,0.1-2.2,0.4C29.5,34.1,28.9,34.6,28.7,35.4z"/>
			<g>
				<path class="st4" d="M27,33.2c0,0,4.1-5.2,10.1-1.3"/>
				<path class="st0" d="M26.8,33c0.5-0.9,1.2-1.6,2-2.2c0.8-0.6,1.8-1,2.9-1.1c1-0.1,2.1-0.1,3.1,0.3c0.5,0.1,0.9,0.4,1.4,0.6
					c0.4,0.3,0.8,0.6,1.2,0.9c0.2,0.1,0.2,0.4,0.1,0.6c-0.1,0.1-0.3,0.2-0.4,0.1l-0.1,0c-0.4-0.1-0.8-0.3-1.3-0.5
					c-0.4-0.1-0.8-0.3-1.3-0.3c-0.8-0.2-1.7-0.2-2.5-0.1c-1.6,0.2-3.2,1-4.7,2.1l0,0c-0.1,0.1-0.3,0.1-0.4-0.1
					C26.7,33.2,26.7,33.1,26.8,33z"/>
			</g>
			<path class="st0" d="M53.8,35.4c0-0.8-0.5-1.7-1.2-2.2c-0.7-0.5-1.6-0.7-2.5-0.7c-0.8,0-1.7,0.2-2.5,0.6
				c-0.7,0.5-1.2,1.4-1.1,2.2c0.2-0.8,0.7-1.4,1.4-1.7c0.7-0.3,1.4-0.4,2.2-0.4c0.8,0,1.5,0.1,2.2,0.4C53,34.1,53.5,34.6,53.8,35.4z
				"/>
			<path class="st0" d="M53.8,35.4c0-0.8-0.5-1.7-1.2-2.2c-0.7-0.5-1.6-0.7-2.5-0.7c-0.8,0-1.7,0.2-2.5,0.6
				c-0.7,0.5-1.2,1.4-1.1,2.2c0.2-0.8,0.7-1.4,1.4-1.7c0.7-0.3,1.4-0.4,2.2-0.4c0.8,0,1.5,0.1,2.2,0.4C53,34.1,53.5,34.6,53.8,35.4z
				"/>
			<g>
				<path class="st4" d="M55.5,33.2c0,0-4.1-5.2-10.1-1.3"/>
				<path class="st0" d="M55.2,33.4c-1.5-1-3-1.9-4.7-2.1c-0.8-0.1-1.6-0.1-2.5,0.1c-0.4,0.1-0.8,0.2-1.3,0.3
					c-0.4,0.1-0.8,0.3-1.3,0.5l-0.1,0c-0.2,0.1-0.4-0.1-0.5-0.3c-0.1-0.2,0-0.3,0.1-0.4c0.4-0.3,0.8-0.6,1.2-0.9
					c0.4-0.2,0.9-0.5,1.4-0.6c1-0.4,2-0.4,3.1-0.3c1,0.1,2,0.5,2.9,1.1c0.8,0.6,1.5,1.3,2,2.2c0.1,0.1,0,0.3-0.1,0.4
					C55.5,33.5,55.3,33.4,55.2,33.4L55.2,33.4z"/>
			</g>
			<g>
				<path class="st0" d="M44.7,42.3c-0.4-0.2-0.9-0.2-1.3-0.1c-0.4,0.1-0.8,0.3-1,0.6l0,0c0,0,0,0.1,0,0.1c0,0.1,0.1,0.2,0.3,0.2
					c0.4,0,0.7,0,1.1-0.1c0.1,0,0.1,0,0.1-0.1c0-0.1,0-0.1-0.1-0.1c-0.2,0-0.3,0-0.5,0c0.1-0.1,0.3-0.1,0.4-0.2
					c0.3-0.1,0.6-0.2,1-0.2h0c0,0,0.1,0,0.1,0C44.8,42.4,44.8,42.3,44.7,42.3z"/>
				<path class="st0" d="M44.7,42.3c-0.4-0.2-0.9-0.2-1.3-0.1c-0.4,0.1-0.8,0.3-1,0.6l0,0c0,0,0,0.1,0,0.1c0,0.1,0.1,0.2,0.3,0.2
					c0.4,0,0.7,0,1.1-0.1c0.1,0,0.1,0,0.1-0.1c0-0.1,0-0.1-0.1-0.1c-0.2,0-0.3,0-0.5,0c0.1-0.1,0.3-0.1,0.4-0.2
					c0.3-0.1,0.6-0.2,1-0.2h0c0,0,0.1,0,0.1,0C44.8,42.4,44.8,42.3,44.7,42.3z"/>
				<path class="st0" d="M38.4,42.3c0.4-0.2,0.9-0.2,1.3-0.1c0.4,0.1,0.8,0.3,1,0.6l0,0c0,0,0,0.1,0,0.1c0,0.1-0.1,0.2-0.3,0.2
					c-0.4,0-0.7,0-1.1-0.1c-0.1,0-0.1,0-0.1-0.1c0-0.1,0-0.1,0.1-0.1c0.2,0,0.3,0,0.5,0c-0.1-0.1-0.3-0.1-0.4-0.2
					c-0.3-0.1-0.6-0.2-1-0.2h0c0,0-0.1,0-0.1,0C38.3,42.4,38.3,42.3,38.4,42.3z"/>
				<path class="st0" d="M38.4,42.3c0.4-0.2,0.9-0.2,1.3-0.1c0.4,0.1,0.8,0.3,1,0.6l0,0c0,0,0,0.1,0,0.1c0,0.1-0.1,0.2-0.3,0.2
					c-0.4,0-0.7,0-1.1-0.1c-0.1,0-0.1,0-0.1-0.1c0-0.1,0-0.1,0.1-0.1c0.2,0,0.3,0,0.5,0c-0.1-0.1-0.3-0.1-0.4-0.2
					c-0.3-0.1-0.6-0.2-1-0.2h0c0,0-0.1,0-0.1,0C38.3,42.4,38.3,42.3,38.4,42.3z"/>
			</g>
			<g>
				<g>
					<path class="st0" d="M58.2,33.3c0.3,0,0.3-0.7,0-0.7C57.8,32.6,57.9,33.3,58.2,33.3L58.2,33.3z"/>
				</g>
			</g>
			<g>
				<path class="st0" d="M25.7,73.9l-0.8,12.8c0,0.3-0.3,0.6-0.6,0.6c-0.3,0-0.6-0.3-0.6-0.6c0,0,0,0,0,0l1.7-12.7
					c0-0.1,0.1-0.2,0.2-0.2C25.6,73.7,25.7,73.8,25.7,73.9z"/>
			</g>
			<g>
				<path class="st0" d="M57.2,73.8l1.7,12.7c0,0.3-0.2,0.6-0.5,0.7c-0.3,0-0.6-0.2-0.7-0.5c0,0,0,0,0,0l-0.8-12.8
					c0-0.1,0.1-0.2,0.2-0.2C57.1,73.6,57.2,73.7,57.2,73.8z"/>
			</g>
			<g>
				<g>
					<path class="st4" d="M21.4,38.4c0,0-0.1-1.1,0-2.7"/>
					<path class="st0" d="M21.3,38.5c-0.1-0.2-0.2-0.5-0.2-0.7c0-0.2-0.1-0.5-0.1-0.7c0-0.2,0-0.5,0.1-0.7c0-0.2,0.1-0.5,0.2-0.7
						c0-0.1,0.2-0.2,0.3-0.1c0.1,0,0.1,0.1,0.1,0.1c0.1,0.2,0.1,0.5,0.1,0.7c0,0.2,0,0.4,0,0.7c0,0.2,0,0.4,0,0.7
						c0,0.2-0.1,0.4-0.2,0.7l0,0C21.5,38.5,21.4,38.6,21.3,38.5C21.3,38.5,21.3,38.5,21.3,38.5z"/>
				</g>
				<g>
					<path class="st0" d="M20.3,34.8c0.6,0.2,1.1,0.5,1.5,0.9c0.4,0.4,0.8,0.9,1,1.5c0.3,0.5,0.5,1.1,0.6,1.7
						c0.1,0.3,0.1,0.6,0.1,0.9c0,0.3,0,0.6,0,0.9c0,0.1-0.1,0.2-0.2,0.2c-0.1,0-0.2-0.1-0.2-0.1l0,0c-0.2-0.5-0.3-1.1-0.5-1.6
						c-0.2-0.5-0.4-1-0.6-1.5c-0.3-0.5-0.5-0.9-0.9-1.3c-0.3-0.4-0.7-0.8-1.1-1.1l0,0c-0.1-0.1-0.1-0.1,0-0.2
						C20.2,34.8,20.2,34.8,20.3,34.8z"/>
				</g>
			</g>
			<g>
				<g>
					<path class="st4" d="M61.2,38.4c0,0,0.1-1.1,0-2.7"/>
					<path class="st0" d="M61.1,38.4C61,38.2,61,38,60.9,37.8c0-0.2,0-0.4,0-0.7c0-0.2,0-0.4,0-0.7c0-0.2,0.1-0.4,0.1-0.7
						c0-0.1,0.2-0.2,0.3-0.1c0.1,0,0.1,0.1,0.1,0.1c0.1,0.2,0.1,0.5,0.2,0.7c0.1,0.2,0,0.5,0.1,0.7c0,0.2,0,0.5-0.1,0.7
						c-0.1,0.2-0.1,0.5-0.2,0.7C61.3,38.5,61.2,38.6,61.1,38.4C61.1,38.5,61.1,38.5,61.1,38.4L61.1,38.4z"/>
				</g>
				<g>
					<path class="st0" d="M62.5,35.1c-0.4,0.3-0.8,0.7-1.1,1.1c-0.3,0.4-0.6,0.9-0.9,1.3c-0.3,0.5-0.4,1-0.6,1.5
						c-0.2,0.5-0.3,1.1-0.5,1.6l0,0c0,0.1-0.1,0.2-0.3,0.1c-0.1,0-0.1-0.1-0.1-0.2c0-0.3,0-0.6,0-0.9c0-0.3,0.1-0.6,0.1-0.9
						c0.1-0.6,0.3-1.1,0.6-1.7c0.3-0.5,0.6-1,1-1.5c0.4-0.4,0.9-0.8,1.5-0.9c0.1,0,0.2,0,0.2,0.1C62.6,35,62.6,35,62.5,35.1
						L62.5,35.1z"/>
				</g>
			</g>
			<path class="st1" d="M41.1,87"/>
			<g>
				<g>
					<path class="st0" d="M37.9,8.7c0.1,0,0.1-0.2,0-0.2C37.8,8.5,37.8,8.7,37.9,8.7L37.9,8.7z"/>
				</g>
			</g>
			<path class="st5" d="M24.1,23.1c0-1.7,0.4-3.4,1.4-4.8c0.8-1.2,2-2.2,3.6-2.1c3.6,0.3,6.7,2.3,11.7,2.6s11.3-4.6,14.3-2.6
				c3.8,2.5,2.7,18.5,2.7,18.5s3.8-15.8-0.5-21.4c-4.8-6.3-12.2-5-17.7-5.3C32.5,7.6,16.5,10,24,34.9L24.1,23.1z"/>
			<g>
				<line class="st4" x1="41.1" y1="8.1" x2="40.8" y2="18.8"/>
				<path class="st0" d="M41.2,8.1c0.1,0.9,0.1,1.8,0.2,2.7c0,0.9,0,1.8,0,2.7c0,0.9,0,1.8-0.1,2.7c-0.1,0.9-0.1,1.8-0.2,2.7
					c0,0.1-0.1,0.2-0.3,0.2c-0.1,0-0.2-0.1-0.2-0.2c-0.1-0.9-0.1-1.8-0.1-2.7c0-0.9,0-1.8,0-2.7c0-0.9,0.1-1.8,0.1-2.7
					c0.1-0.9,0.1-1.8,0.3-2.7c0-0.1,0.1-0.2,0.2-0.1C41.2,7.9,41.2,8,41.2,8.1z"/>
			</g>
			<g>
				<path class="st0" d="M45.1,18.2c0-0.9,0.2-1.9,0.5-2.8c0.3-0.9,0.7-1.8,1.2-2.5c0.5-0.8,1.1-1.5,1.8-2.2
					c0.7-0.6,1.5-1.2,2.3-1.6c0.1-0.1,0.2,0,0.3,0.1c0,0.1,0,0.2-0.1,0.3c-0.7,0.5-1.4,1.1-2,1.8c-0.6,0.7-1.2,1.3-1.6,2.1
					c-0.5,0.7-0.9,1.5-1.2,2.3c-0.4,0.8-0.6,1.7-0.9,2.5c0,0.1-0.1,0.1-0.2,0.1C45.2,18.3,45.1,18.2,45.1,18.2z"/>
			</g>
			<g>
				<path class="st0" d="M52.1,15.8c0.2-0.5,0.5-0.8,0.8-1.2c0.3-0.4,0.7-0.7,1.1-0.9c0.4-0.3,0.8-0.5,1.3-0.7
					c0.5-0.2,0.9-0.3,1.5-0.3c0.1,0,0.2,0.1,0.2,0.2c0,0.1-0.1,0.2-0.1,0.2l0,0c-0.4,0.2-0.8,0.4-1.2,0.6c-0.4,0.2-0.8,0.5-1.1,0.7
					l-1.1,0.8c-0.4,0.3-0.7,0.5-1.1,0.8c-0.1,0.1-0.2,0-0.2,0C52.1,15.9,52.1,15.8,52.1,15.8z"/>
			</g>
			<g>
				<path class="st0" d="M32,8.7c0.9,0.2,1.7,0.8,2.4,1.5c0.7,0.7,1.2,1.5,1.6,2.3c0.4,0.8,0.7,1.7,0.9,2.6C37,16,37.1,17,37,17.9
					c0,0.1-0.1,0.2-0.2,0.2c-0.1,0-0.2-0.1-0.2-0.2c-0.1-0.9-0.3-1.7-0.5-2.6c-0.3-0.8-0.5-1.7-0.9-2.4c-0.4-0.8-0.8-1.5-1.4-2.2
					C33.3,10,32.6,9.5,31.9,9c-0.1,0-0.1-0.2-0.1-0.2C31.9,8.7,31.9,8.7,32,8.7z"/>
			</g>
			<g>
				<path class="st0" d="M25.9,12.3c0.6-0.1,1.3-0.1,1.9,0c0.6,0.1,1.3,0.4,1.8,0.8c0.5,0.4,1.1,0.9,1.4,1.5
					c0.3,0.6,0.5,1.3,0.5,1.9c0,0.1-0.1,0.2-0.2,0.2c-0.1,0-0.2-0.1-0.2-0.2l0,0c-0.1-0.6-0.4-1.1-0.7-1.5c-0.3-0.4-0.7-0.8-1.2-1.1
					c-0.5-0.3-1-0.6-1.5-0.7c-0.5-0.2-1.1-0.3-1.7-0.4l0,0c-0.1,0-0.2-0.1-0.1-0.2C25.8,12.3,25.8,12.3,25.9,12.3z"/>
			</g>
			<g>
				<path class="st6" d="M36.6,58.8c0,0-5,0.9-3.6,1.8c1.7,1.1,3.9,0.9,3.9,0.9l4.4,10.3l-5.6-7.7L32,70.4c0,0-3.4-4.3-2.5-7.5
					c0.4-1.5,0.6-2.3,1.3-3.2c1.3-2,5.9-2,5.9-2V58.8z"/>
				<path class="st6" d="M46.1,58.8c0,0,4.8,0.9,3.5,1.8c-1.7,1.1-3.9,0.9-3.9,0.9l-4.4,10.3l5.8-7.5l3.2,5.9c0,0,4.5-3.7,3.6-6.9
					c-0.4-1.6-0.8-2.6-2-3.6c-2.4-2-5.8-2-5.8-2L46.1,58.8z"/>
			</g>
			<line class="st7" x1="41.3" y1="71.8" x2="41.3" y2="86.6"/>
		</g>
	</g>
	<g>
		<g>
			<g>
				<path class="st8" d="M31.9,43c-4.2,0-7.6-3.4-7.6-7.6s3.4-7.6,7.6-7.6s7.6,3.4,7.6,7.6S36.1,43,31.9,43z M31.9,29.1
					c-3.5,0-6.3,2.8-6.3,6.3s2.8,6.3,6.3,6.3c2.3,0,4.5-1.3,5.6-3.4c0,0,0,0,0,0c-0.3-0.3-0.7-0.8-0.7-1.5c0-1.1,0.9-1.8,1.4-2.1
					C37.8,31.5,35.1,29.1,31.9,29.1z M38.1,36.3c-0.1,0.2-0.2,0.3-0.2,0.5c0,0.1,0,0.1,0,0.2C38,36.8,38.1,36.5,38.1,36.3z"/>
				<path class="st0" d="M31.9,28.1c4,0,7.3,3.3,7.3,7.3c0,4-3.3,7.3-7.3,7.3c-4,0-7.3-3.3-7.3-7.3C24.6,31.4,27.9,28.1,31.9,28.1
					 M31.9,42c2.6,0,4.9-1.6,6-3.8c-0.1,0-0.2-0.1-0.2-0.2c-0.3-0.2-0.6-0.7-0.6-1.3c0-1.1,1-1.7,1.4-2c-0.3-3.4-3.1-6.1-6.6-6.1
					c-3.6,0-6.6,3-6.6,6.6C25.3,39,28.2,42,31.9,42 M38.1,37.7c0.2-0.7,0.4-1.4,0.4-2.1c-0.4,0.3-0.8,0.7-0.9,1.3
					C37.6,37.2,37.9,37.5,38.1,37.7 M31.9,27.5c-4.4,0-7.9,3.5-7.9,7.9c0,4.4,3.5,7.9,7.9,7.9c4.4,0,7.9-3.5,7.9-7.9
					C39.8,31,36.2,27.5,31.9,27.5L31.9,27.5z M31.9,41.4c-3.3,0-6-2.7-6-6c0-3.3,2.7-6,6-6c3,0,5.5,2.2,5.9,5.1
					c-0.6,0.4-1.4,1.1-1.4,2.3c0,0.7,0.3,1.3,0.7,1.6C36,40.2,34,41.4,31.9,41.4L31.9,41.4z"/>
			</g>
			<g>
				<path class="st8" d="M50.1,43c-4.2,0-7.6-3.4-7.6-7.6s3.4-7.6,7.6-7.6c4.2,0,7.6,3.4,7.6,7.6S54.3,43,50.1,43z M44.5,38.3
					c1.1,2,3.2,3.3,5.6,3.3c3.5,0,6.3-2.8,6.3-6.3s-2.8-6.3-6.3-6.3c-3.2,0-5.9,2.4-6.3,5.6c0.5,0.3,1.4,1,1.5,2.1
					C45.3,37.4,45,38,44.5,38.3C44.6,38.3,44.6,38.3,44.5,38.3z M43.9,36.2c0,0.3,0.1,0.6,0.2,0.9c0-0.1,0.1-0.2,0.1-0.3
					C44.1,36.6,44,36.4,43.9,36.2z"/>
				<path class="st0" d="M50.1,28.1c4,0,7.3,3.3,7.3,7.3c0,4-3.3,7.3-7.3,7.3c-4,0-7.3-3.3-7.3-7.3C42.8,31.4,46.1,28.1,50.1,28.1
					 M50.1,42c3.6,0,6.6-3,6.6-6.6c0-3.6-3-6.6-6.6-6.6c-3.5,0-6.3,2.7-6.6,6c0.4,0.2,1.5,0.9,1.5,2c0,0.6-0.3,1-0.6,1.3
					c-0.1,0.1-0.2,0.1-0.3,0.2C45.2,40.5,47.5,42,50.1,42 M43.9,37.7c0.2-0.1,0.5-0.4,0.5-0.9c0-0.6-0.5-1.1-0.9-1.3
					C43.5,36.3,43.7,37,43.9,37.7 M50.1,27.5c-4.4,0-7.9,3.5-7.9,7.9c0,4.4,3.5,7.9,7.9,7.9c4.4,0,7.9-3.5,7.9-7.9
					C58,31,54.5,27.5,50.1,27.5L50.1,27.5z M44.2,34.5c0.4-2.9,3-5.1,5.9-5.1c3.3,0,6,2.7,6,6c0,3.3-2.7,6-6,6c-2.1,0-4.1-1.2-5.2-3
					c0.4-0.4,0.7-0.9,0.7-1.6C45.6,35.6,44.8,34.9,44.2,34.5L44.2,34.5z"/>
			</g>
		</g>
		<g>
			<path class="st4" d="M43.2,35.9c-0.2,0-0.3-0.1-0.5-0.2c-0.5-0.4-1-0.5-1.6-0.5c-1,0-1.7,0.5-1.7,0.5c-0.1,0.1-0.3,0.2-0.5,0.2
				c-0.3,0-0.5-0.1-0.7-0.3c-0.1-0.2-0.2-0.4-0.1-0.6c0-0.2,0.2-0.4,0.3-0.5c0,0,1.2-0.8,2.7-0.8c0.9,0,1.8,0.3,2.5,0.8
				c0.2,0.1,0.3,0.3,0.3,0.5c0,0.2,0,0.4-0.1,0.6C43.7,35.8,43.4,35.9,43.2,35.9z"/>
			<path class="st0" d="M41.1,34c0.7,0,1.5,0.2,2.3,0.8c0.2,0.1,0.2,0.4,0.1,0.6c-0.1,0.1-0.2,0.2-0.3,0.2c-0.1,0-0.2,0-0.2-0.1
				c-0.6-0.5-1.3-0.6-1.8-0.6c-1.1,0-1.9,0.6-2,0.6c-0.1,0.1-0.2,0.1-0.2,0.1c-0.1,0-0.3-0.1-0.3-0.2c-0.1-0.2-0.1-0.4,0.1-0.6
				C38.7,34.8,39.7,34,41.1,34 M41.1,33.2L41.1,33.2c-1.6,0-2.8,0.8-2.9,0.9c-0.5,0.4-0.7,1.2-0.3,1.7c0.2,0.3,0.6,0.5,1,0.5
				c0.3,0,0.5-0.1,0.7-0.2c0,0,0.7-0.5,1.5-0.5c0.5,0,0.9,0.2,1.4,0.5c0.2,0.2,0.5,0.2,0.7,0.2c0.4,0,0.8-0.2,1-0.5
				c0.2-0.3,0.3-0.6,0.2-0.9c-0.1-0.3-0.2-0.6-0.5-0.8C43,33.5,42.1,33.2,41.1,33.2L41.1,33.2z"/>
		</g>
	</g>
	<g>
		<circle class="st9" cx="33.1" cy="35.4" r="0.8"/>
		<circle class="st9" cx="49.4" cy="35.4" r="0.8"/>
	</g>
	<path id="XMLID_9_" class="st10" d="M45.4,46.2c-0.4-0.3-0.8-0.7-1.1-1c-0.2-0.2-0.4-0.3-0.6-0.5c-0.2-0.1-0.4-0.3-0.6-0.3
		c-0.4-0.2-0.8-0.2-1.2-0.1c-0.2,0.1-0.4,0.3-0.5,0.5c-0.1-0.3-0.3-0.5-0.6-0.6c-0.4-0.1-0.8,0-1.2,0.2c-0.2,0.1-0.4,0.2-0.6,0.4
		c-0.2,0.1-0.4,0.3-0.6,0.5c-0.4,0.3-0.7,0.7-1.1,1c-0.2,0.1-0.4,0.3-0.6,0.4c-0.2,0.1-0.4,0.1-0.7,0.2c0.2,0,0.4,0.1,0.7,0.1
		c0.3,0,0.5,0.1,0.8,0.1c0.6,0,1.2,0,1.7-0.1c0.3,0,0.5-0.1,0.7-0.2c0.2-0.1,0.4-0.2,0.6-0.3c0.3-0.2,0.6-0.4,0.7-0.7
		c0.2,0.3,0.5,0.5,0.8,0.7c0.2,0.1,0.4,0.2,0.6,0.2c0.2,0.1,0.5,0.1,0.7,0.2c0.5,0.1,1.1,0.1,1.6,0.1c0.3,0,0.5,0,0.8-0.1
		c0.3,0,0.5-0.1,0.7-0.1c-0.2,0-0.4-0.1-0.7-0.2C45.9,46.4,45.7,46.3,45.4,46.2z"/>
</g>
</svg>
