<?xml version="1.0" encoding="utf-8"?>
<!-- Generator: Adobe Illustrator 19.0.0, SVG Export Plug-In . SVG Version: 6.00 Build 0)  -->
<svg version="1.1" id="OBJECTS" xmlns="http://www.w3.org/2000/svg" xmlns:xlink="http://www.w3.org/1999/xlink" x="0px" y="0px"
	 viewBox="0 0 81.5 81.5" style="enable-background:new 0 0 81.5 81.5;" xml:space="preserve">
<style type="text/css">
	.st0{clip-path:url(#SVGID_2_);}
	.st1{fill:#FFFFFF;stroke:#262424;stroke-width:1.2297;stroke-miterlimit:10;}
	.st2{fill:#FFFFFF;}
	.st3{fill:#262424;}
	.st4{fill:none;stroke:#262424;stroke-width:0.8119;stroke-miterlimit:10;}
	.st5{fill:#FFFFFF;stroke:#262424;stroke-width:1.6237;stroke-miterlimit:10;}
	.st6{fill:#FFFFFF;stroke:#262424;stroke-width:1.2178;stroke-miterlimit:10;}
	.st7{fill:#FFFFFF;stroke:#262424;stroke-width:0.6089;stroke-miterlimit:10;}
	.st8{fill:none;stroke:#262424;stroke-width:1.2178;stroke-miterlimit:10;}
	.st9{fill:#FFFFFF;stroke:#262424;stroke-width:1.262;stroke-miterlimit:10;}
	.st10{fill:#56FC84;stroke:#262424;stroke-width:1.262;stroke-miterlimit:10;}
	.st11{fill:#FFFFFF;stroke:#262424;stroke-width:1.5105;stroke-miterlimit:10;}
	.st12{fill:#56FC84;stroke:#262424;stroke-width:0.8119;stroke-linecap:round;stroke-linejoin:round;stroke-miterlimit:10;}
	.st13{opacity:0.3;fill:#FB9D78;}
	.st14{fill:#FFFFFF;stroke:#262424;stroke-width:1.6237;stroke-linecap:round;stroke-linejoin:round;stroke-miterlimit:10;}
</style>
<g>
	<defs>
		<circle id="SVGID_1_" cx="40.7" cy="40.7" r="40.7"/>
	</defs>
	<use xlink:href="#SVGID_1_"  style="overflow:visible;fill:#F5E95B;"/>
	<clipPath id="SVGID_2_">
		<use xlink:href="#SVGID_1_"  style="overflow:visible;"/>
	</clipPath>
	<g class="st0">
		<path class="st1" d="M59,30.1c6.8,12,6.8,30,2,43.9H20.3c-4.3-12.5-4.4-25.6-0.6-39.3C32.7,30.1,43.9,28.5,59,30.1z"/>
		<g>
			<path class="st2" d="M21.9,50.8c0,0,0.4,18.6,3.6,23.2"/>
			<path class="st3" d="M22,50.8c0.2,3.9,0.5,7.9,0.9,11.8c0.3,1.9,0.5,3.9,0.9,5.8c0.4,1.9,0.9,3.8,1.9,5.4l-0.7,0.5
				c-1.1-1.8-1.5-3.8-1.9-5.8c-0.4-2-0.6-3.9-0.8-5.9c-0.4-3.9-0.6-7.9-0.6-11.8L22,50.8z"/>
		</g>
		<g>
			<path class="st2" d="M27.1,52.2c0,0,0.4,18.6,3.6,23.2"/>
			<path class="st3" d="M27.2,52.2c0.2,3.9,0.5,7.9,0.9,11.8c0.3,1.9,0.5,3.9,0.9,5.8c0.4,1.9,0.9,3.8,1.9,5.4l-0.7,0.5
				c-1.1-1.8-1.5-3.8-1.9-5.8C28,68,27.8,66,27.6,64c-0.4-3.9-0.6-7.9-0.6-11.8L27.2,52.2z"/>
		</g>
		<g>
			<path class="st2" d="M59.9,50.8c0,0-0.4,18.6-3.6,23.2"/>
			<path class="st3" d="M60.1,50.8c-0.1,4-0.3,7.9-0.6,11.8c-0.2,2-0.5,3.9-0.8,5.9c-0.4,1.9-0.8,3.9-1.9,5.8L56,73.8
				c1-1.5,1.5-3.5,1.9-5.4c0.4-1.9,0.7-3.9,0.9-5.8c0.5-3.9,0.8-7.8,0.9-11.8L60.1,50.8z"/>
		</g>
		<g>
			<path class="st2" d="M54.7,52.2c0,0-0.4,18.6-3.6,23.2"/>
			<path class="st3" d="M54.9,52.2c-0.1,4-0.3,7.9-0.6,11.8c-0.2,2-0.5,3.9-0.8,5.9c-0.4,1.9-0.8,3.9-1.9,5.8l-0.7-0.5
				c1-1.5,1.5-3.5,1.9-5.4c0.4-1.9,0.7-3.9,0.9-5.8c0.5-3.9,0.8-7.8,0.9-11.8L54.9,52.2z"/>
		</g>
		<path class="st4" d="M73.5,23.8"/>
		<path class="st5" d="M63.7,75.3c-1.8-1.7-18.5-13.1-22.3-13.1c-3.8,0-20.5,11.4-22.3,13.1c-1.8,1.7-4,16.4-4,16.4h26.3h26.3
			C67.7,91.7,65.5,77,63.7,75.3z"/>
		<path class="st6" d="M67.7,91.7H15.1c0,0,2.2-14.7,4-16.4c1.2-1.1,8.5-6.2,14.5-9.7c3.4-2,6.4-3.4,7.8-3.4c1.4,0,4.6,1.6,8.1,3.6
			c6,3.5,13.1,8.4,14.2,9.5C65.5,77,67.7,91.7,67.7,91.7z"/>
		<g>
			<path class="st6" d="M55.6,41.2c0,0,3.3-4.2,5.2-3.8c1.9,0.4,1.9,2.4,1.9,2.4s-0.3,7.2-0.7,8.1c-0.3,0.9-4,1.4-5.9,1.1L55.6,41.2
				z"/>
			<path class="st6" d="M25.4,41.2c0,0-3.3-4.2-5.2-3.8c-1.9,0.4-1.9,2.4-1.9,2.4s0.3,7.2,0.7,8.1s4,1.4,5.9,1.1L25.4,41.2z"/>
		</g>
		<g>
			<polyline class="st2" points="36.1,67.5 36.1,55.1 45.5,55.1 45.5,67.5 			"/>
			<path class="st3" d="M35.8,67.5c-0.1-2.1-0.2-4.1-0.3-6.2c-0.1-2.1-0.1-4.1-0.1-6.2c0-0.3,0.3-0.6,0.6-0.6l0,0
				c3.1-0.1,6.3,0,9.4,0c0.3,0,0.6,0.3,0.6,0.6c0,2.1-0.1,4.1-0.1,6.2c0,2.1-0.1,4.1-0.2,6.2c0,0.2-0.2,0.3-0.3,0.3
				c-0.2,0-0.3-0.1-0.3-0.3c-0.1-2.1-0.2-4.1-0.2-6.2c0-2.1-0.1-4.1-0.1-6.2l0.6,0.6c-3.1,0-6.3,0.1-9.4,0l0.6-0.6
				c0,2.1,0,4.1-0.1,6.2c0,2.1-0.1,4.1-0.3,6.2c0,0.1-0.1,0.2-0.3,0.2C35.9,67.7,35.8,67.6,35.8,67.5z"/>
		</g>
		<path class="st6" d="M57,49.6c0,0-0.3,3.2-1.8,4.6c-2.3,2.1-9.6,6.6-14.5,6.6c-1.7,0-3.7-0.6-5.7-1.4c-3.7-1.5-7.2-3.8-8.7-5.2
			c-1.5-1.3-1.8-4.6-1.8-4.6s-0.3-3.4-0.5-8c-0.4-8.3-0.7-20.2,1.2-22.6c3.7-4.6,15.6-4.9,15.6-4.9s11.8,0.3,15.6,4.9
			C59.4,22.6,57,49.6,57,49.6z"/>
		<g>
			<g>
				<path class="st2" d="M26.5,36.1c0,0,4.1-5.2,10.1-1.3"/>
				<path class="st3" d="M26.5,36.1c0.5-0.8,1.2-1.5,2-2.1c0.8-0.6,1.7-1,2.7-1.2c1-0.2,2.1-0.4,3.1,0.1c1,0.4,1.8,1,2.4,1.8
					c0,0,0,0.1,0,0.1c0,0,0,0-0.1,0l0,0c-0.5,0-1-0.1-1.4-0.2c-0.5,0-0.9-0.2-1.3-0.2c-0.8-0.1-1.6-0.4-2.5-0.3
					c-1.7,0.1-3.4,0.9-4.8,2.1l0,0C26.5,36.2,26.5,36.2,26.5,36.1C26.4,36.1,26.4,36.1,26.5,36.1z"/>
			</g>
			<g>
				<path class="st2" d="M54.8,36.1c0,0-4.1-5.2-10.1-1.3"/>
				<path class="st3" d="M54.8,36.2c-1.4-1.2-3.1-2-4.8-2.1c-0.9,0-1.7,0.2-2.5,0.3c-0.4,0-0.8,0.2-1.3,0.2
					c-0.4,0.1-0.9,0.2-1.4,0.2l0,0c0,0-0.1,0-0.1-0.1c0,0,0,0,0-0.1c0.6-0.9,1.4-1.5,2.4-1.8c1-0.4,2.1-0.3,3.1-0.1
					c1,0.2,1.9,0.6,2.7,1.2c0.8,0.6,1.5,1.3,2,2.1c0,0,0,0.1,0,0.1C54.9,36.2,54.8,36.2,54.8,36.2L54.8,36.2z"/>
			</g>
		</g>
		<path class="st3" d="M45.4,54c0,0-1.7,0.8-4.7,0.8c-3.1-0.1-4.7-0.8-4.7-0.8s1.1,1.7,4.7,1.7S45.4,54,45.4,54z"/>
		<path class="st7" d="M34.7,50.4c0,0,0.8-0.6,1.7-0.6H45c0.9,0,1.7,0.6,1.7,0.6C46.7,54.2,34.7,54.2,34.7,50.4z"/>
		<g>
			<path class="st3" d="M43.9,46.6c-0.4-0.2-0.9-0.2-1.3-0.1c-0.4,0.1-0.8,0.3-1,0.6l0,0c0,0,0,0.1,0,0.1c0,0.1,0.1,0.2,0.3,0.2
				c0.4,0,0.7,0,1.1-0.1c0.1,0,0.1,0,0.1-0.1c0-0.1,0-0.1-0.1-0.1c-0.2,0-0.3,0-0.5,0c0.1-0.1,0.3-0.1,0.4-0.2
				c0.3-0.1,0.6-0.2,1-0.2h0c0,0,0.1,0,0.1,0C43.9,46.7,43.9,46.6,43.9,46.6z"/>
			<path class="st3" d="M43.9,46.6c-0.4-0.2-0.9-0.2-1.3-0.1c-0.4,0.1-0.8,0.3-1,0.6l0,0c0,0,0,0.1,0,0.1c0,0.1,0.1,0.2,0.3,0.2
				c0.4,0,0.7,0,1.1-0.1c0.1,0,0.1,0,0.1-0.1c0-0.1,0-0.1-0.1-0.1c-0.2,0-0.3,0-0.5,0c0.1-0.1,0.3-0.1,0.4-0.2
				c0.3-0.1,0.6-0.2,1-0.2h0c0,0,0.1,0,0.1,0C43.9,46.7,43.9,46.6,43.9,46.6z"/>
			<path class="st3" d="M37.5,46.6c0.4-0.2,0.9-0.2,1.3-0.1c0.4,0.1,0.8,0.3,1,0.6l0,0c0,0,0,0.1,0,0.1c0,0.1-0.1,0.2-0.3,0.2
				c-0.4,0-0.7,0-1.1-0.1c-0.1,0-0.1,0-0.1-0.1c0-0.1,0-0.1,0.1-0.1c0.2,0,0.3,0,0.5,0c-0.1-0.1-0.3-0.1-0.4-0.2
				c-0.3-0.1-0.6-0.2-1-0.2h0c0,0-0.1,0-0.1,0C37.4,46.7,37.4,46.6,37.5,46.6z"/>
			<path class="st3" d="M37.5,46.6c0.4-0.2,0.9-0.2,1.3-0.1c0.4,0.1,0.8,0.3,1,0.6l0,0c0,0,0,0.1,0,0.1c0,0.1-0.1,0.2-0.3,0.2
				c-0.4,0-0.7,0-1.1-0.1c-0.1,0-0.1,0-0.1-0.1c0-0.1,0-0.1,0.1-0.1c0.2,0,0.3,0,0.5,0c-0.1-0.1-0.3-0.1-0.4-0.2
				c-0.3-0.1-0.6-0.2-1-0.2h0c0,0-0.1,0-0.1,0C37.4,46.7,37.4,46.6,37.5,46.6z"/>
		</g>
		<g>
			<path class="st3" d="M25.7,79l-0.8,12.8c0,0.3-0.3,0.6-0.6,0.6c-0.3,0-0.6-0.3-0.6-0.6c0,0,0,0,0,0L25.3,79
				c0-0.1,0.1-0.2,0.2-0.2C25.7,78.8,25.8,78.9,25.7,79z"/>
		</g>
		<g>
			<path class="st3" d="M57.3,79L59,91.6c0,0.3-0.2,0.6-0.5,0.7c-0.3,0-0.6-0.2-0.7-0.5c0,0,0,0,0,0L56.9,79c0-0.1,0.1-0.2,0.2-0.2
				C57.2,78.8,57.3,78.9,57.3,79z"/>
		</g>
		<g>
			<g>
				<path class="st3" d="M53.2,40.6c0-0.8-0.5-1.7-1.2-2.2c-0.7-0.5-1.6-0.7-2.5-0.7c-0.8,0-1.7,0.2-2.5,0.6
					c-0.7,0.5-1.2,1.4-1.1,2.2c0.2-0.8,0.7-1.4,1.4-1.7c0.7-0.3,1.4-0.4,2.2-0.4c0.8,0,1.5,0.1,2.2,0.4
					C52.4,39.2,52.9,39.8,53.2,40.6z"/>
				<path class="st3" d="M53.2,40.6c0-0.8-0.5-1.7-1.2-2.2c-0.7-0.5-1.6-0.7-2.5-0.7c-0.8,0-1.7,0.2-2.5,0.6
					c-0.7,0.5-1.2,1.4-1.1,2.2c0.2-0.8,0.7-1.4,1.4-1.7c0.7-0.3,1.4-0.4,2.2-0.4c0.8,0,1.5,0.1,2.2,0.4
					C52.4,39.2,52.9,39.8,53.2,40.6z"/>
				<path class="st3" d="M47.6,37.4c0.7-0.3,1.5-0.3,2.2-0.3c0.7,0.1,1.5,0.3,2.1,0.6c0.6,0.3,1.1,0.9,1.3,1.6
					c0.6,0.3,1.7,0.6,2.1,0.6c-0.8,0.9-2.1,0.7-2.1,0.7c-0.1-0.6-0.8-1.2-0.8-1.2l0.3-0.3c0,0,0.1,0,0.3,0.1
					c-0.3-0.5-0.7-0.9-1.3-1.1c-0.6-0.3-1.3-0.5-2-0.6c-0.7-0.1-1.4,0-2,0.2c-0.6,0.2-1.3,0.6-1.7,1.2C46,38.8,46.9,37.6,47.6,37.4z
					"/>
				<path class="st3" d="M47.6,37.4c0.7-0.3,1.5-0.3,2.2-0.3c0.7,0.1,1.5,0.3,2.1,0.6c0.6,0.3,1.1,0.9,1.3,1.6
					c0.6,0.3,1.7,0.6,2.1,0.6c-0.8,0.9-2.1,0.7-2.1,0.7c-0.1-0.6-0.8-1.2-0.8-1.2l0.3-0.3c0,0,0.1,0,0.3,0.1
					c-0.3-0.5-0.7-0.9-1.3-1.1c-0.6-0.3-1.3-0.5-2-0.6c-0.7-0.1-1.4,0-2,0.2c-0.6,0.2-1.3,0.6-1.7,1.2C46,38.8,46.9,37.6,47.6,37.4z
					"/>
			</g>
			<g>
				<path class="st2" d="M35.4,40.6c0,0.9-0.7,1.6-1.7,2.1c-0.6,0.3-1.2,0.4-2,0.4c-0.7,0-1.4-0.1-2-0.4c-1-0.4-1.7-1.2-1.7-2.1
					c0-0.9,0.7-1.6,1.7-2.1c0.6-0.2,1.3-0.4,2-0.4c0.7,0,1.4,0.1,2,0.4C34.8,38.9,35.4,39.7,35.4,40.6z"/>
				<path class="st3" d="M28.2,40.6c0-0.8,0.5-1.7,1.2-2.2c0.7-0.5,1.6-0.7,2.5-0.7c0.8,0,1.7,0.2,2.5,0.6c0.7,0.5,1.2,1.4,1.1,2.2
					c-0.2-0.8-0.7-1.4-1.4-1.7c-0.7-0.3-1.4-0.4-2.2-0.4c-0.8,0-1.5,0.1-2.2,0.4C29,39.2,28.4,39.8,28.2,40.6z"/>
				<path class="st3" d="M28.2,40.6c0-0.8,0.5-1.7,1.2-2.2c0.7-0.5,1.6-0.7,2.5-0.7c0.8,0,1.7,0.2,2.5,0.6c0.7,0.5,1.2,1.4,1.1,2.2
					c-0.2-0.8-0.7-1.4-1.4-1.7c-0.7-0.3-1.4-0.4-2.2-0.4c-0.8,0-1.5,0.1-2.2,0.4C29,39.2,28.4,39.8,28.2,40.6z"/>
				<path class="st3" d="M33.8,37.4c-0.7-0.3-1.5-0.3-2.2-0.3c-0.7,0.1-1.5,0.3-2.1,0.6c-0.6,0.3-1.1,0.9-1.3,1.6
					c-0.6,0.3-1.7,0.6-2.1,0.6c0.8,0.9,2.1,0.7,2.1,0.7c0.1-0.6,0.8-1.2,0.8-1.2l-0.3-0.3c0,0-0.1,0-0.3,0.1
					c0.3-0.5,0.7-0.9,1.3-1.1c0.6-0.3,1.3-0.5,2-0.6c0.7-0.1,1.4,0,2,0.2c0.6,0.2,1.3,0.6,1.7,1.2C35.3,38.8,34.5,37.6,33.8,37.4z"
					/>
				<path class="st3" d="M33.8,37.4c-0.7-0.3-1.5-0.3-2.2-0.3c-0.7,0.1-1.5,0.3-2.1,0.6c-0.6,0.3-1.1,0.9-1.3,1.6
					c-0.6,0.3-1.7,0.6-2.1,0.6c0.8,0.9,2.1,0.7,2.1,0.7c0.1-0.6,0.8-1.2,0.8-1.2l-0.3-0.3c0,0-0.1,0-0.3,0.1
					c0.3-0.5,0.7-0.9,1.3-1.1c0.6-0.3,1.3-0.5,2-0.6c0.7-0.1,1.4,0,2,0.2c0.6,0.2,1.3,0.6,1.7,1.2C35.3,38.8,34.5,37.6,33.8,37.4z"
					/>
			</g>
		</g>
		<path class="st8" d="M18.3,75.4c0,0,8.5,3.5,23.1,3.5c9.9,0,22.3-3.7,22.3-3.7"/>
		<path class="st8" d="M21.9,73.2c0,0,4.9,2.7,19.5,2.7c9.9,0,18.9-3.1,18.9-3.1"/>
		<path class="st4" d="M75.9,23.8"/>
		<g>
			<g>
				<path class="st2" d="M20.9,44c0,0-0.1-1.1,0-2.7"/>
				<path class="st3" d="M20.7,44c-0.1-0.2-0.2-0.5-0.2-0.7c0-0.2-0.1-0.5-0.1-0.7c0-0.2,0-0.5,0.1-0.7c0-0.2,0.1-0.5,0.2-0.7
					c0-0.1,0.2-0.2,0.3-0.1c0.1,0,0.1,0.1,0.1,0.1c0.1,0.2,0.1,0.5,0.1,0.7c0,0.2,0,0.4,0,0.7c0,0.2,0,0.4,0,0.7
					c0,0.2-0.1,0.4-0.2,0.7l0,0C21,44,20.9,44.1,20.7,44C20.8,44,20.7,44,20.7,44z"/>
			</g>
			<g>
				<path class="st3" d="M19.7,40.3c0.6,0.2,1.1,0.5,1.5,0.9c0.4,0.4,0.8,0.9,1,1.5c0.3,0.5,0.5,1.1,0.6,1.7
					c0.1,0.3,0.1,0.6,0.1,0.9c0,0.3,0,0.6,0,0.9c0,0.1-0.1,0.2-0.2,0.2c-0.1,0-0.2-0.1-0.2-0.1l0,0c-0.2-0.5-0.3-1.1-0.5-1.6
					c-0.2-0.5-0.4-1-0.6-1.5c-0.3-0.5-0.5-0.9-0.9-1.3c-0.3-0.4-0.7-0.8-1.1-1.1l0,0c-0.1-0.1-0.1-0.1,0-0.2
					C19.6,40.3,19.7,40.3,19.7,40.3z"/>
			</g>
		</g>
		<g>
			<g>
				<path class="st2" d="M60.7,44c0,0,0.1-1.1,0-2.7"/>
				<path class="st3" d="M60.5,43.9c-0.1-0.2-0.1-0.5-0.2-0.7c0-0.2,0-0.4,0-0.7c0-0.2,0-0.4,0-0.7c0-0.2,0.1-0.4,0.1-0.7
					c0-0.1,0.2-0.2,0.3-0.1c0.1,0,0.1,0.1,0.1,0.1c0.1,0.2,0.1,0.5,0.2,0.7c0.1,0.2,0,0.5,0.1,0.7c0,0.2,0,0.5-0.1,0.7
					C61,43.5,61,43.8,60.8,44C60.8,44.1,60.7,44.1,60.5,43.9C60.6,44,60.6,44,60.5,43.9L60.5,43.9z"/>
			</g>
			<g>
				<path class="st3" d="M62,40.6c-0.4,0.3-0.8,0.7-1.1,1.1c-0.3,0.4-0.6,0.9-0.9,1.3c-0.3,0.5-0.4,1-0.6,1.5
					c-0.2,0.5-0.3,1.1-0.5,1.6l0,0c0,0.1-0.1,0.2-0.3,0.1c-0.1,0-0.1-0.1-0.1-0.2c0-0.3,0-0.6,0-0.9c0-0.3,0.1-0.6,0.1-0.9
					c0.1-0.6,0.3-1.1,0.6-1.7c0.3-0.5,0.6-1,1-1.5c0.4-0.4,0.9-0.8,1.5-0.9c0.1,0,0.2,0,0.2,0.1C62,40.5,62,40.5,62,40.6L62,40.6z"
					/>
			</g>
		</g>
		<path class="st9" d="M58.4,26.1l-37,5.8l-1.5-9.7c-2.8-18.1,34.2-23.8,37-5.8L58.4,26.1z"/>
		<path class="st10" d="M20.8,28.2l0.6,3.7l37-5.8l-0.6-3.9C45.1,21.7,30.5,24.1,20.8,28.2z"/>
		<path class="st11" d="M69.3,27.8c0.2,1.3-2.5,2.5-9,4.3l-1.3-2c-12.9,0.2-25.9,1.9-37.1,5.5l-1.7,1.8c-7.2,0.4-9.5,0.8-9.7-0.5
			c-0.3-2.2,12.6-6.1,28.8-8.6C55.5,25.8,69,25.6,69.3,27.8z"/>
		<g>
			<g>
				<circle class="st12" cx="33" cy="66.2" r="1.5"/>
				<circle class="st12" cx="34.2" cy="67.7" r="1.5"/>
				<circle class="st12" cx="36" cy="69" r="1.5"/>
				<circle class="st12" cx="38.1" cy="70" r="1.5"/>
			</g>
			<g>
				<circle class="st12" cx="48.6" cy="66.2" r="1.5"/>
				<circle class="st12" cx="47.4" cy="67.7" r="1.5"/>
				<circle class="st12" cx="45.6" cy="69" r="1.5"/>
				<circle class="st12" cx="43.5" cy="70" r="1.5"/>
			</g>
			<circle class="st12" cx="40.8" cy="70.5" r="1.5"/>
		</g>
		<g>
			<g>
				<ellipse class="st13" cx="31.2" cy="45.6" rx="3.7" ry="1.4"/>
				<ellipse class="st13" cx="50.2" cy="45.6" rx="3.7" ry="1.4"/>
			</g>
		</g>
	</g>
</g>
<circle class="st14" cx="32.9" cy="40.7" r="0.8"/>
<circle class="st14" cx="48.5" cy="40.7" r="0.8"/>
</svg>
