<?xml version="1.0" encoding="utf-8"?>
<!-- Generator: Adobe Illustrator 19.0.0, SVG Export Plug-In . SVG Version: 6.00 Build 0)  -->
<svg version="1.1" xmlns="http://www.w3.org/2000/svg" xmlns:xlink="http://www.w3.org/1999/xlink" x="0px" y="0px"
	 viewBox="0 0 1600 440" style="enable-background:new 0 0 1600 440;" xml:space="preserve">
<style type="text/css">
	.st0{display:none;}
	.st1{display:inline;}
	.st2{fill:#70D3FD;}
	.st3{fill:#CAF4F2;}
	.st4{fill:#FBFFCA;}
	.st5{clip-path:url(#SVGID_2_);fill:#FDE58F;}
	.st6{clip-path:url(#SVGID_2_);fill:url(#XMLID_44_);}
	.st7{clip-path:url(#SVGID_2_);}
	.st8{fill:url(#XMLID_48_);}
	.st9{opacity:0.2;fill:url(#XMLID_51_);}
	.st10{opacity:0.3;fill:url(#XMLID_52_);}
	.st11{fill:url(#XMLID_53_);}
	.st12{fill:#E09686;}
	.st13{fill:#C98273;}
	.st14{fill:#BF6E5D;}
	.st15{fill:#AA6253;}
	.st16{fill:#804538;}
	.st17{opacity:0.5;}
	.st18{fill:#D16042;}
	.st19{fill:url(#XMLID_54_);}
	.st20{fill:url(#XMLID_55_);}
	.st21{fill:url(#XMLID_56_);}
</style>
<g id="background" class="st0">
	<g class="st1">
		<rect x="400" y="353.3" class="st2" width="800" height="266.7"/>
		<rect x="400" y="86.7" class="st3" width="800" height="266.7"/>
		<rect x="400" y="-180" class="st4" width="800" height="266.7"/>
	</g>
</g>
<g id="objects">
	<g>
		<defs>
			<rect id="SVGID_1_" x="0" y="-4.6" width="1599.6" height="444.6"/>
		</defs>
		<clipPath id="SVGID_2_">
			<use xlink:href="#SVGID_1_"  style="overflow:visible;"/>
		</clipPath>
		<rect id="XMLID_5_" x="3.7" y="302" class="st5" width="1599.6" height="437.9"/>
		<linearGradient id="XMLID_44_" gradientUnits="userSpaceOnUse" x1="803.5104" y1="402.0061" x2="803.5104" y2="780.4734">
			<stop  offset="0" style="stop-color:#F0C57B"/>
			<stop  offset="0.1843" style="stop-color:#F0BB79"/>
			<stop  offset="0.5016" style="stop-color:#F19F73"/>
			<stop  offset="0.9112" style="stop-color:#F2726A"/>
			<stop  offset="0.9956" style="stop-color:#F26868"/>
		</linearGradient>
		<rect id="XMLID_35_" x="3.7" y="302" class="st6" width="1599.6" height="437.9"/>
		<g class="st7">
			<linearGradient id="XMLID_48_" gradientUnits="userSpaceOnUse" x1="800.4662" y1="295.606" x2="800.4662" y2="-857.4458">
				<stop  offset="0" style="stop-color:#F0C57B"/>
				<stop  offset="0.1733" style="stop-color:#F0BE7A"/>
				<stop  offset="0.4233" style="stop-color:#F1AB76"/>
				<stop  offset="0.7182" style="stop-color:#F18C6F"/>
				<stop  offset="0.9956" style="stop-color:#F26868"/>
			</linearGradient>
			<rect id="XMLID_19_" x="0.7" y="-859" class="st8" width="1599.6" height="1160.7"/>
			<g id="XMLID_2_">
				
					<linearGradient id="XMLID_51_" gradientUnits="userSpaceOnUse" x1="798.4571" y1="-545.9891" x2="798.4571" y2="-293.5991" gradientTransform="matrix(-1 0 0 1 1601.9999 0)">
					<stop  offset="0" style="stop-color:#FFFFFF"/>
					<stop  offset="0.8867" style="stop-color:#FFFFFF;stop-opacity:0.1133"/>
					<stop  offset="1" style="stop-color:#FFFFFF;stop-opacity:0"/>
				</linearGradient>
				<path id="XMLID_86_" class="st9" d="M1596.7-581.2c-27.8-90.7-204-28.7-251.5,12.1c-34.9,29.9-72.5,73.9-116.4,60.1
					c-15.4-4.8-27.6-16.3-40.9-25.4c-50.7-34.7-123.7-32.5-172.3,5.1c-30.4,23.5-55.5,60.7-93.9,62.6c-21.3,1-41.5-9.8-62.8-10.6
					c-50.5-2-84.7,48.6-127.1,76c-47.1,30.4-88.8,20.8-139.6,12.6c-45.1-7.2-92.7-0.8-138.3,3.9c-63.8,6.5-132.3,30.7-196,30.7
					c-12,0-253.9,40-253.9,40s190,32,289.9,22c100-10,50.5-10.8,141.6,0c91,10.8,193.4,38,233.8,34c40.5-4-21,0.8,125.7,0.4
					c146.7-0.4,157,21.9,301.9,20.6s159.2-41,247.9-55c88.8-14,254.7,5.4,254.7,5.4c0-53.8,0-107.5,0-161.3
					C1599.6-478.1,1609.1-540.6,1596.7-581.2C1596.7-581.1,1596.7-581.2,1596.7-581.2z"/>
				<linearGradient id="XMLID_52_" gradientUnits="userSpaceOnUse" x1="606.4005" y1="-165.7933" x2="606.4005" y2="76.2676">
					<stop  offset="0" style="stop-color:#FFFFFF"/>
					<stop  offset="1" style="stop-color:#FFFFFF;stop-opacity:0"/>
				</linearGradient>
				<path id="XMLID_37_" class="st10" d="M0.7-227.1c0,0,53.3-48.3,133.3-17.5s75.7,69.1,95.8,86s34.1,47.6,96.1,20.8
					c62-26.8,91.4-34.9,129.7,10.5c38.3,45.5-4,81.4,51.1,109.4c55.2,28,75.8-16,123.4,0c47.7,16,86.8,84,121.2,78
					S870,38.8,885.4,43s327.4,38.6,327.4,38.6s-427.5-4.2-481.7,33.8s-72.1,77.3-116.7,38c-44.6-39.3-88.6-92.2-184.5-71.8
					s-68.4,31.1-142.2,33.8c-73.7,2.7-142.6-79-182.2-90.1C66,14.2,0,43,0,43L0.7-227.1z"/>
				<linearGradient id="XMLID_53_" gradientUnits="userSpaceOnUse" x1="638.8779" y1="-455.3706" x2="638.8779" y2="115.7202">
					<stop  offset="0" style="stop-color:#FFFFFF"/>
					<stop  offset="1" style="stop-color:#FFFFFF;stop-opacity:0"/>
				</linearGradient>
				<circle id="XMLID_4_" class="st11" cx="638.9" cy="-165.3" r="277.8"/>
				<g id="XMLID_6_">
					<g id="XMLID_33_">
						<g id="XMLID_34_">
							<g>
								<path id="XMLID_65_" class="st12" d="M945.5,302c0,0-137.1-78.1-272.1-102.3c-67.4-12.1-92.1,42.8-155.4,0
									s-48.3-71.4-93-71.9c-44.6-0.6-66.9-30.3-141.3-30.3s-52.1,53.9-185.9,30.3c-32.5-5.7-68.8,0-68.8,0V302H945.5z"/>
								<path id="XMLID_64_" class="st12" d="M1168.1,107.6c0,0-4.8,9.6-28.7,14.3c-23.9,4.8-57.4-26.7-62.2-23.7
									c-4.8,3-39.9,12-39.9,12s-11.1-7.4-19.1-12.2c-8-4.8-23.9,26.2-23.9,26.2s-31.9-7.7-47.8-1.9c-15.9,5.9-27.1,4.3-39.8,20.2
									c-12.8,15.9-62.2,4.8-76.5-8c-14.3-12.8-38.2-24.5-51-10.7c-12.7,13.9-27.1,26.6-30.3,34.6s-9.2,33.5-32.5,43
									c-23.3,9.6-21.9,36.7-21.9,36.7S639.9,302,644.2,302c4.3,0,523.9,0,523.9,0V107.6z"/>
							</g>
						</g>
						<path id="XMLID_12_" class="st13" d="M0-4.6c0,0,62,6.7,78,18.7c26.4,19.8,72-20,84,0S210,121,210,121l116,181H0V-4.6z"/>
						<path id="XMLID_17_" class="st13" d="M184.6,121c0,0,104,3.7,110.6,7.7c6.7,4,26.7,30.7,42.7,21.3s29.8-14,38.7-13.5
							c17.7,0.9,28.7,32.2,48.7,36.9c18.4,4.3,67.6,122,178.7,128.6H184.6V121z"/>
						<path id="XMLID_18_" class="st13" d="M483.9,302c0,0,98.6-66,121.7-56c28.6,12.4,45.6,1.2,54.5-9.4c5-5.9,12.5-9.3,20.2-9.3
							h90.3l60-35.3c0,0,24.2-22,47.7-22c23.5,0,128,22,128,22l91.5-22l32,132H483.9z"/>
						<g id="XMLID_32_">
							<g>
								<g id="XMLID_67_">
									<path class="st14" d="M0,82.1c0,0,2-26.7,56.7-26.7c16.3,0,17.3,13.3,33.3,20c16,6.7,17.3,5.3,25.3,6.7S142,87.4,142,99.4
										s18.7,28,28,30.7s14.7,15.8,14.7,15.8L483.9,302H0V82.1z"/>
								</g>
								<g id="XMLID_66_">
									<path class="st14" d="M1599.6-114.2h-36.1c0,0-3.4-10.3-27.5-20.6c-24.1-10.3-48.2,10.3-58.5,0c-4.1-4.1-10.3-1.7-16.3,2.6
										c-14.2,10.2-32.4,12.7-48.7,6.4c-0.1-0.1-0.3-0.1-0.4-0.2c-13.8-5.4-61.9-15.3-72.2,0c-10.3,15.3-72.2,18.7-79.1,35.9
										c-6.9,17.2-13.8,48.2-31,80.8c-17.2,32.7-49.7,28.5-58.5,70.5c-4.3,20.5-34.4,86-34.4,86s-26.3-17.2-45.8,0
										c-19.5,17.2-1.5,51.6-38,55c-36.6,3.4-120.3,0-120.3,0s-15.3-3.4-75.9,13.8c-60.6,17.2-126.2,51.2-126.2,51.2L662.1,302
										h937.5V-114.2z"/>
								</g>
							</g>
						</g>
						<path id="XMLID_16_" class="st15" d="M1599.6-59.9c0,0-10-28-38-12c-28,16,18,38-28,32s-52-41.4-74-36.7
							c-22,4.7-34,44.7-64,37.7c-30-7-54,9-66,25c-12,16-12,44-52,74s-32,75.4-40,92.7c-8,17.3-12,15.3-32,39.3c-20,24-42,56-48,62
							c-6,6-121.1,20-119.5,26c1.6,6-115.9,22-115.9,22h677.3V-59.9z"/>
						<path id="XMLID_8_" class="st16" d="M1574.5,153.9c-0.3-2.2-0.6-4.4-0.9-6.5c-0.3-1.9-0.7-3.8-1.7-5.5c-1-1.7-2.6-3.1-4.5-3.3
							c-2.1-0.3-4.2,0.9-5.5,2.6c-1.3,1.7-1.9,3.8-2.2,6c-0.2,1.3-0.2,3.6-0.5,5.7c-2.8,0-5.6,0.1-8.5,0.3c-0.7-1.3-1.2-2.7-1.5-4.2
							c-1.6-6.3-2.2-12.9-1.7-19.4c0.3-3.6,0.9-7.3-0.1-10.8c-1-3.5-4.3-6.7-7.8-6.1c-3.1,0.5-5.3,3.6-5.8,6.8
							c-0.5,3.1,0.3,6.3,0.9,9.5c1.8,9.1,1.4,18.1,0.9,27.2c-1.7,0.6-3.4,1.2-5,1.9c-0.6-0.2-1.2,0.2-1.6,0.8c-2,1-3.8,2.1-5.6,3.4
							c-0.3-0.7-0.5-1.5-0.7-2.3c-1.3-6.5-1.7-12.7-2.6-19.2c-0.3-2.4-1.9-5.1-4.4-5.2c-3.1-0.1-4.6,3.7-5,6.8
							c-1.1,9.2,0.3,18.5,1,27.8c-8.2,4.3-14,3.9-19,2.5c-0.5-4.1-0.7-8.3-1.3-10.4c-1.7-6.4-2.2-12.4-2.7-19.1
							c-0.2-2.6-0.9-5.9-3.5-6.4c-1.7-0.3-3.5,0.9-4.3,2.6c-0.8,1.6-0.8,3.5-0.8,5.2c0,8.2,0.4,16.5,0.4,24.7
							c-2.1-0.2-4.4,0-6.9,0.9c-6.4,2.1-10.6,5.3-14.7,8.7c-0.1-5-0.6-10.1-2.5-14.7c-0.5-1.3-1.8-2.9-3.1-2.3c-0.7,0.3-1,1.2-1.2,2
							c-1.2,5.8,0.5,11.9-1,17.6c-0.2,0.9-0.7,1.9-1.6,2.2c-1.5,0.4-2.5-1.4-2.9-2.9c-0.6-2.2-1.3-4.5-1.9-6.7
							c-0.3-1.2-0.8-2.5-2-2.9c-1.1-0.4-2.2,0.3-2.8,1.2c-0.6,0.9-0.8,2.1-0.9,3.2c-0.4,2.9-0.8,5.8-1.2,8.7
							c-0.8,6.2-7.4,9.6-12.1,4.3c-2.5-2.8-3-6.9-2.8-10.6c0.2-3.8,1-7.5,0.8-11.2c-0.1-1.8-0.5-3.6-1.8-4.9
							c-1.3-1.2-3.6-1.5-4.7-0.2c-0.7,0.8-0.8,1.9-0.9,2.9c-0.1,1.8,0,7.6-1.3,8.9c-0.9,0.9-2.3-0.4-2.8-1.6
							c-5.3-11.9-2.8-25.7-3.8-38.7c-0.1-1.4-0.3-2.8-1.1-4c-0.8-1.2-2.3-1.9-3.6-1.4c-1.1,0.5-1.6,1.6-2,2.7
							c-1.1,2.8-1.8,5.7-2.2,8.7c-0.7,5-0.3,10-0.4,15c-0.1,4.3,0.8,9.4-1.1,13.4c-0.6,1.3-2,2.7-3.4,2.1c-0.8-0.4-1.1-1.3-1.3-2.2
							c-0.5-1.8-1-3.5-1.5-5.3c-0.5-1.7-1.6-3.8-3.3-3.5c-1.3,0.2-1.9,1.8-2.1,3.1c-0.6,4.3,0.8,8.5,1.5,12.7
							c0.7,4.2,0.6,8.5-0.2,12.6c-0.1,0.8-0.3,1.6-0.9,2.2c-0.5,0.6-1.5,0.8-2.1,0.2c-0.3-0.3-0.4-0.8-0.5-1.3
							c-0.3-1.7-0.7-3.5-1-5.2c-0.2-0.9-0.4-1.9-1.2-2.3c-1.3-0.7-2.7,0.9-2.9,2.4c-0.2,1.9,0.4,3.8,0,5.6c-0.8,4.2-5.4,2.9-6.8-0.2
							c-0.7-1.6-0.8-3.3-1-5c-0.4-3.8-1-7.5-1.9-11.2c-0.2-0.9-0.5-1.9-1.1-2.6c-1.7-2.1-5.3-1.2-6.9,1s-1.6,5-1.6,7.7
							c-0.1,7.4-0.1,14.9-0.2,22.3c0,1.3-0.1,2.9-1.3,3.6c-1.1,0.7-2.7,0.2-3.5-0.8c-0.9-1-1.2-2.3-1.6-3.6
							c-0.8-2.6-1.7-5.2-2.7-7.7c-0.4-1-1.1-2.1-2.1-2c-0.4,0-0.8,0.3-1.1,0.7c-1.9,2.2-0.1,5.9-1.7,8.3c-1,1.5-3.2,1.9-4.6,1
							c-1.5-1-2.9-3.2-4.4-2.2c-0.6,0.4-0.8,1.2-0.9,1.9c-0.5,4.5,0.6,9.1-0.7,13.5c-1.3,4.7-7.3,8.4-10.1,2.4
							c-1-2.2-0.9-4.8-0.8-7.2c0.2-4.4-0.1-9.1-2.5-12.8c-0.5-0.8-1.2-1.5-2.1-1.5c-1.2,0.1-1.8,1.5-2,2.7c-0.4,2-0.9,4-1.3,6
							c-0.2,0.9-0.5,1.9-1.3,2.3c-1.6,0.8-3-1.5-3.3-3.3c-0.9-4.9-1.4-9.8-1.5-14.8c-0.1-4.8,0.1-10.4-2.6-14.7
							c-3.1-5-8-6.7-9.3,0.6c-1.6,9.1,0.7,18.4,0.6,27.6c0,2-0.5,4.5-1.4,6.3c-0.5,1.1-1.7,2-2.9,1.7c-1.5-0.4-1.8-2.4-2-3.9
							c-0.3-2.3-1-4.6-2.1-6.7c-0.4-0.7-0.9-1.5-1.7-1.6c-0.4-0.1-0.9,0.1-1.3,0.4c-1.3,0.9-1.8,2.7-2,4.3c-0.6,4,3,20.8-2.8,22
							c-1.9,0.4-3.8-1.1-4.5-3c-0.7-1.8-0.5-3.9-0.3-5.8c1.2-11.7,1.7-23.6,1.4-35.4c0-1.8-0.1-3.7-0.9-5.3
							c-0.8-1.6-2.5-2.9-4.3-2.7c-2.3,0.3-3.5,2.9-4.1,5.1c-3.8,13.4-1.5,27.6-1.7,41.4c0,0.5,0,1.1-0.2,1.5c-0.7,1.7-3.5,1.5-4.6,0
							c-1.2-1.4-1.2-3.5-1.4-5.3c-0.2-3.8-0.9-7.6-2-11.2c-0.6-2.1-2.5-4.7-4.5-3.8c-0.6,0.3-1,0.9-1.4,1.5
							c-3.3,5.5-1.7,11.5-1.8,17.5c0,4.5,1,11.4-3.3,14.4c-0.4,0.3-0.9,0.6-1.5,0.6c-1.5,0.1-2.6-1.5-3-3c-0.4-1.5-0.7-3.1-1.9-4
							c-1.8-1.3-4.6,0.1-5.4,2.2c-0.9,2.1-0.5,4.4-0.4,6.7c0.2,3,0.1,6.1-0.3,9.1c-0.2,1.2-1,2.7-2.1,2.3c-0.4-0.2-0.7-0.6-0.9-1
							c-0.8-1.4-1.4-2.9-1.8-4.5c-0.6-1.8-1.8-4.3-3.6-3.6c-0.9,0.4-1.3,1.5-1.5,2.5c-0.8,3.8-1,7.7-0.8,11.6c-2,0-3.9,0-5.7,0.1
							c-0.5-1.6-0.9-3.2-1.1-4.9c-0.1-0.8-0.2-1.7-0.7-2.3c-1-1-2.8-0.6-3.7,0.6c-0.9,1.1-1,2.6-1.1,4.1c-0.1,1-0.1,2-0.2,3
							c-4.1,0.5-7.3,1.2-9.2,2.4c-10.7,6.7-28,21.3-34.7,24c-6.7,2.7-40,24-40,24h469.9V159.4
							C1599.6,159.4,1588.8,155.8,1574.5,153.9z"/>
						<path id="XMLID_13_" class="st16" d="M1069.1,298.2c-8-4.7-13.9-13.2-14.6-22.6c-0.3-4.7-0.6-11-5.2-12
							c-3.8-0.9-7,3.3-7.4,7.1c-0.4,3.9,0.9,7.7,0.8,11.6c-0.1,3.9-2.7,8.3-6.5,8.2c-3.8-0.1-6-4.3-6.7-8c-0.7-3.7-0.8-7.8-3.2-10.6
							c-3.2-0.6-4.7,3.9-4.8,7.2c-0.2,5.6-5.4,10.6-9.8,4.6c-1.3-1.7-1.8-3.9-2.1-6c-0.6-4.4-0.2-8.9-0.6-13.3
							c-0.4-4.4-1.6-9.1-4.8-12.1c-0.4-0.4-0.9-0.8-1.4-0.9c-1.5-0.5-3.2,0.5-3.9,2c-0.7,1.4-0.7,3.1-0.6,4.6
							c0.1,4.9,0.2,9.8,0.4,14.7c0,1.9,0.1,3.8-0.5,5.5s-1.8,3.4-3.6,3.9c-10.1,2.9-5.7-15.1-11.9-15.6c-1.2-0.1-2.4,0.5-3.2,1.4
							c-0.8,0.9-1.3,2-1.7,3.2c-1,2.6-0.1,5.3-0.6,8c-0.4,1.9-1.6,3.8-3.5,4.1c-2,0.3-3.9-1.3-4.6-3.1c-0.7-1.9-0.6-4-0.6-6
							c0.1-3.9-0.1-7.8-0.6-11.7c-0.2-1.7-0.5-3.5-1.6-4.9c-1.1-1.4-3.1-2.2-4.6-1.3c-1.8,1-1.8,3.5-1.8,5.6
							c0,5.7-1.2,11.4-3.5,16.6c-0.5,1.1-1.3,2.4-2.5,2.5c-1,0.1-1.9-0.7-2.5-1.6c-1.1-1.8-1.4-4-2.1-6.1c-1.9-5.8-7.4-3.4-8.1,1.7
							c-0.2,1.3-0.3,2.5-0.5,3.8c-0.2,1.7-0.8,3.8-2.5,4c-6.1,0.7-1.7-17.1-7.9-18.3c-3-0.6-5.1,2.9-5.8,5.9c-0.7,3-1.4,6.6-4.3,7.6
							c-2.3,0.9-5-0.6-6.3-2.7c-1.3-2.1-1.6-4.7-1.9-7.1c-0.4-3.3-0.7-6.6-1.1-9.8c-0.5-5.1-1.3-10.5-4.9-14.1
							c-0.5-0.5-1.3-1.1-2-0.8c-0.5,0.2-0.9,0.7-1.1,1.2c-3,6.3-0.1,14.3-1.9,21c-0.2,0.8-0.4,1.5-1,2.1c-0.5,0.6-1.4,0.9-2.1,0.5
							c-0.6-0.3-0.8-1.1-0.9-1.7c-0.3-1.3-0.6-2.6-0.9-3.9c-0.2-0.7-0.4-1.5-1-2c-1.2-1-3.1,0-3.7,1.4c-0.6,1.4-0.4,3-0.3,4.5
							c0,2.3-0.4,4.6-1.3,6.7c-0.8,2-2.6,4-4.7,3.7c-2.3-0.3-3.3-3-3.8-5.2c-0.5-2.5-1-5-1.3-7.5c-0.1-1.2-0.3-2.4-0.8-3.4
							c-0.5-1.1-1.6-2-2.8-1.9c-1.8,0-2.9,2-3.3,3.8c-0.6,3.6-2.2,11.1-8.1,8.3c-2.3-1.1-2.6-4.1-2.8-6.6c-0.6-5.1-2.4-10-5.3-14.3
							c-0.4-0.5-0.7-1.1-1.3-1.4c-1.2-0.8-2.9-0.2-3.9,0.9c-1,1.1-1.3,2.6-1.5,4c-0.6,3.9-0.1,7.9,0.2,11.9c0.1,1.7,0.2,3.4-0.6,4.9
							c-0.8,1.5-2.7,2.5-4.2,1.7c-1.6-0.8-1.7-2.9-1.8-4.7c-0.2-3.2-0.7-6.5-1.7-9.6c-0.3-0.9-0.8-2-1.7-2.1c-1.2-0.2-2,1.2-2.2,2.4
							c-0.9,4,0.2,8.2-0.5,12.3c-0.1,0.4-0.1,0.7-0.4,1c-0.6,0.6-1.8,0.1-2.1-0.8c-0.3-0.8-0.1-1.7,0-2.6c0.1-0.9-0.2-1.9-1-2.3
							c-0.8-0.4-1.7,0.1-2.2,0.9c-0.5,0.7-0.5,1.6-0.6,2.5c0,0.6-0.1,1.2-0.1,1.8l-8.3-2.2c0,0-45.4-22.5-65.3-26.2
							c-17.6-3.3-56.9,19.7-65.9,25.1c-0.6-2.2-0.7-4.6-0.7-7.3c0.1-5.7-0.6-11.4-2.1-16.9c-0.3-1.1-0.8-2.4-1.9-2.6
							c-1.4-0.3-2.4,1.3-2.9,2.6c-1.5,4.7-1.2,9.7-1.9,14.5c-0.2,1.6-0.6,3.3-1.8,4.5c-1.1,1.2-3.3,1.5-4.4,0.3
							c-0.7-0.7-0.8-1.8-1-2.8c-0.4-1.7-1-3.3-2-4.7c-0.4-0.6-0.9-1.1-1.5-1.3c-1.6-0.4-2.7,1.6-3.1,3.2c-0.5,1.9-1.1,3.7-1.6,5.6
							c-0.3,1-0.6,2.1-1.5,2.7c-3.1,2.2-3.3-4.8-3.5-6.2c-0.7-4-1.5-8.1-2.2-12.1c-0.3-1.4-0.6-3-1.5-4.1c-0.9-1.1-2.7-1.7-3.9-0.9
							c-1,0.7-1.2,2.2-1.3,3.4c-0.4,4.9,0.4,13.7-4.7,16.6c-0.4,0.2-0.8,0.4-1.3,0.4c-1.4-0.1-1.9-1.8-2-3.2
							c-0.1-1.4-0.2-3.1-1.5-3.6c-1.4-0.6-2.8,0.9-3.1,2.3c-0.3,1.4,0,3-0.3,4.4s-1.7,2.9-3.1,2.3c-0.9-0.3-1.4-1.4-2.3-1.6
							c-1.6-0.4-2.6,1.6-2.9,3.2c-0.1,0.7-0.3,1.4-0.4,2.1c-12.5-1.7-30-4.5-31.8-5.6c-1.7-1.1-6.1-4.1-8.1-3.2
							c-1,0.5-1.8,1.4-2.7,2.1c-0.9,0.7-2.1,1.3-3.1,0.8c-0.8-0.4-1.2-1.2-1.5-2c-0.6-1.3-1.2-2.7-1.9-4c-0.5-1.1-1.5-2.4-2.6-2.1
							c-1,0.3-1.2,1.6-1.4,2.6c-0.3,1.2-1.2,2.6-2.5,2.5c-4.7-0.4-1.8-11.9-2.3-14.3c-0.1-0.4-0.2-0.8-0.5-1.1
							c-0.7-0.7-1.8-0.5-2.6,0c-4.2,2.6-0.5,18.4-7.9,15.9c-1.9-0.6-3.2-2.6-3.5-4.6c-0.2-1.4-0.1-2.8-0.5-4.2
							c-0.4-1.4-1.6-2.6-3-2.5c-1.6,0.1-2.5,2-2.8,3.6c-0.3,1.6-0.2,3.4-1.3,4.7c-1,1.2-2.9,1.5-4.2,0.7c-1.2-0.7-1.8-2.2-2.2-3.6
							c-0.4-1.4-0.7-2.8-1.6-4c-0.9-1.1-2.6-1.8-3.8-1c-1,0.6-1.2,1.9-1.7,3.1c-0.4,1.1-1.5,2.3-2.6,1.9c-0.9-0.3-1.2-1.3-1.7-2.1
							c-0.3-0.5-0.8-0.9-1.3-1.1c1.5-10,2.7-20.1,3.3-30.2c0.1-1.2,0.1-2.6-0.9-3.4c-1.6-1.4-4.1,0.5-5.1,2.4
							c-2.4,4.4-2.9,9.4-3,14.3c-0.1,4.1,1,9.4-1.1,13.1c-0.5,0.9-1.5,1.8-2.4,1.5c-1.2-0.4-1.1-2.2-0.9-3.5c0.7-3.7-0.1-7.5-2-10.7
							c-0.3-0.4-0.5-0.8-0.9-1.1c-1-0.7-2.4-0.1-3.3,0.8c-1.6,1.6-2.1,4-2.2,6.3c-0.1,2.3-0.1,4.6-0.8,6.7c-0.1,0.3-0.2,0.5-0.4,0.7
							c-0.5,0.4-1.3-0.2-1.5-0.8c-0.3-0.6-0.4-1.3-1-1.7c-0.7-0.4-1.6,0-2.1,0.6s-0.5,1.5-0.6,2.3c-0.1,1.6-0.2,3.3-0.3,4.9
							c0,0.2,0,0.3,0,0.5c-8.4-2.1-14-3.6-14-3.6s-45-37.5-63.7-58.7c-18.7-21.2-37.5-1.3-63.7,0c-26.2,1.2-97.4-76.2-108.7-76.2
							s-48.7,30-86.2,33.7c-31.8,3.2-42,19.9-65,31.7c-0.1-5.5-0.7-11-2.3-15.9c-0.3-1-0.8-2.1-1.7-2.7c-1.6-1.1-3.9-0.2-5,1.4
							c-1.1,1.6-1.1,3.7-1.1,5.6s0.2,3.9-0.5,5.7c-0.2,0.6-0.6,1.2-1.2,1.5c-1.3,0.5-2.5-0.9-3-2.2c-2.6-6.3-1.5-13.4-2.5-20.1
							c-0.2-1.2-0.5-2.5-1.4-3.3c-1.6-1.5-4.4-0.9-5.8,0.7s-1.9,3.9-2.2,6.1c-0.6,5-0.7,10.2-0.1,15.2c-1.3,0.8-2.8-0.8-3-2.3
							c-0.3-1.5-0.1-3.2-1.2-4.3c-1.3-1.3-3.8-0.5-4.7,1.1c-1,1.6-0.9,3.6-0.8,5.4c0.1,1.9,0.1,3.9-0.8,5.4c-0.2,0.4-0.6,0.8-1,0.9
							c-0.8,0.3-1.6-0.4-2.2-1c-4.4-5.3-2.2-13.1-2.2-19.3c0-8,0-16.1,0.1-24.1c0-4.2-0.1-8.9-2.9-12c-0.7-0.8-1.5-1.4-2.5-1.6
							c-2.9-0.4-4.4,3.3-4.9,6.2c-2.3,14.7-3.5,29.6-3.8,44.4c0,2.1-0.1,4.4-1,6.3c-0.9,1.9-3,3.5-5.1,3.1c-2.4-0.5-3.6-3.1-3.9-5.5
							c-0.3-2.4,0.1-4.9-0.8-7.2c-0.8-2.3-3.4-4.2-5.6-3.1c-1.8,1-2.2,3.4-2.2,5.5c-0.2,3.9-0.3,7.9-0.5,11.8
							c-0.1,2.5-0.8,5.8-3.4,6.1c-1.8,0.2-3.3-1.3-4.3-2.8c-3.5-5.2-5.1-12-4-18.2c1.2-6.2,1.1-12,0.2-18.4
							c-0.2-1.6-0.5-3.3-1.4-4.6c-0.9-1.4-2.4-2.4-4-2.2c-1.8,0.3-3,2-3.9,3.6c-4.5,8.6-4.5,18.7-4.3,28.4c0.1,4.3,0.1,8.7,0.2,13
							c-3.1-0.5-4.8-0.8-4.8-0.8V302h1129.7L1069.1,298.2z"/>
					</g>
					<g id="XMLID_45_" class="st17">
						<g id="XMLID_199_">
							<g>
								<path id="XMLID_70_" class="st12" d="M945.5,302c0,0-137.1,50.6-272.1,66.2c-67.4,7.8-92.1-27.7-155.4,0
									c-63.2,27.7-48.3,46.2-93,46.6c-44.6,0.4-66.9,19.6-141.3,19.6s-52.1-34.9-185.9-19.6c-32.5,3.7-68.8,0-68.8,0V302H945.5z"
									/>
								<path id="XMLID_69_" class="st12" d="M1168.1,427.9c0,0-4.8-6.2-28.7-9.3c-23.9-3.1-57.4,17.3-62.2,15.3
									c-4.8-1.9-39.9-7.8-39.9-7.8s-11.1,4.8-19.1,7.9c-8,3.1-23.9-17-23.9-17s-31.9,5-47.8,1.2c-15.9-3.8-27.1-2.8-39.8-13.1
									c-12.8-10.3-62.2-3.1-76.5,5.2c-14.3,8.3-38.2,15.9-51,6.9c-12.7-9-27.1-17.2-30.3-22.4s-9.2-21.7-32.5-27.9
									c-23.3-6.2-21.9-23.7-21.9-23.7S639.9,302,644.2,302c4.3,0,523.9,0,523.9,0V427.9z"/>
							</g>
						</g>
						<path id="XMLID_196_" class="st13" d="M0,500.6c0,0,62-4.3,78-12.1c26.4-12.8,72,13,84,0c12-13,48-69.3,48-69.3l116-117.2H0
							V500.6z"/>
						<path id="XMLID_193_" class="st13" d="M184.6,419.2c0,0,104-2.4,110.6-5c6.7-2.6,26.7-19.9,42.7-13.8c16,6,29.8,9,38.7,8.8
							c17.7-0.6,28.7-20.9,48.7-23.9c18.4-2.8,67.6-79,178.7-83.3H184.6V419.2z"/>
						<path id="XMLID_190_" class="st13" d="M483.9,302c0,0,98.6,42.7,121.7,36.3c28.6-8,45.6-0.8,54.5,6.1c5,3.8,12.5,6,20.2,6
							h90.3l60,22.9c0,0,24.2,14.2,47.7,14.2c23.5,0,128-14.2,128-14.2l91.5,14.2l32-85.5H483.9z"/>
						<g id="XMLID_177_">
							<g>
								<g id="XMLID_68_">
									<path class="st14" d="M0,444.5c0,0,2,17.3,56.7,17.3c16.3,0,17.3-8.6,33.3-13c16-4.3,17.3-3.5,25.3-4.3
										c8-0.9,26.7-3.5,26.7-11.2s18.7-18.1,28-19.9c9.3-1.7,14.7-10.2,14.7-10.2L483.9,302H0V444.5z"/>
								</g>
								<g id="XMLID_63_">
									<path class="st14" d="M1599.6,571.6h-36.1c0,0-3.4,6.7-27.5,13.4c-24.1,6.7-48.2-6.7-58.5,0c-4.1,2.6-10.3,1.1-16.3-1.7
										c-14.2-6.6-32.4-8.3-48.7-4.1c-0.1,0-0.3,0.1-0.4,0.1c-13.8,3.5-61.9,9.9-72.2,0c-10.3-9.9-72.2-12.1-79.1-23.3
										c-6.9-11.1-13.8-31.2-31-52.4c-17.2-21.2-49.7-18.5-58.5-45.7c-4.3-13.3-34.4-55.7-34.4-55.7s-26.3,11.1-45.8,0
										c-19.5-11.1-1.5-33.4-38-35.7c-36.6-2.2-120.3,0-120.3,0s-15.3,2.2-75.9-8.9c-60.6-11.1-126.2-33.2-126.2-33.2L662.1,302
										h937.5V571.6z"/>
								</g>
							</g>
						</g>
						<path id="XMLID_174_" class="st15" d="M1599.6,536.4c0,0-10,18.1-38,7.8c-28-10.4,18-24.6-28-20.7c-46,3.9-52,26.8-74,23.8
							c-22-3-34-29-64-24.4c-30,4.5-54-5.8-66-16.2c-12-10.4-12-28.5-52-47.9c-40-19.4-32-48.8-40-60c-8-11.2-12-9.9-32-25.5
							c-20-15.5-42-36.3-48-40.2c-6-3.9-121.1-13-119.5-16.8c1.6-3.9-115.9-14.2-115.9-14.2h677.3V536.4z"/>
						<path id="XMLID_7_" class="st16" d="M1599.6,302h-469.9c0,0,33.3,13.8,40,15.5c6.7,1.7,24,11.2,34.7,15.5
							c1.9,0.8,5.1,1.3,9.2,1.6c0.1,0.6,0.1,1.3,0.2,1.9c0.1,0.9,0.2,1.9,1.1,2.6c0.9,0.7,2.7,1,3.7,0.4c0.6-0.4,0.6-1,0.7-1.5
							c0.2-1.1,0.6-2.1,1.1-3.1c1.8,0,3.7,0.1,5.7,0.1c-0.3,2.5,0,5,0.8,7.5c0.2,0.6,0.6,1.4,1.5,1.6c1.8,0.5,3.1-1.1,3.6-2.3
							c0.5-1,1.1-2,1.8-2.9c0.2-0.3,0.5-0.5,0.9-0.7c1.1-0.3,1.9,0.7,2.1,1.5c0.4,2,0.5,3.9,0.3,5.9c-0.2,1.5-0.5,3,0.4,4.3
							c0.9,1.3,3.6,2.3,5.4,1.4c1.2-0.6,1.5-1.7,1.9-2.6c0.4-0.9,1.5-2,3-1.9c0.5,0,1,0.2,1.5,0.4c4.3,2,3.3,6.4,3.3,9.3
							c0,3.9-1.5,7.8,1.8,11.3c0.3,0.4,0.8,0.8,1.4,0.9c2,0.6,3.8-1.1,4.5-2.4c1.1-2.4,1.7-4.8,2-7.3c0.1-1.2,0.2-2.5,1.4-3.4
							c1.2-0.9,3.9-1.1,4.6,0c0.2,0.3,0.2,0.7,0.2,1c0.2,9-2.1,18.2,1.7,26.9c0.6,1.4,1.8,3.1,4.1,3.3c1.8,0.2,3.5-0.7,4.3-1.7
							c0.8-1.1,0.9-2.3,0.9-3.4c0.3-7.6-0.2-15.3-1.4-22.9c-0.2-1.3-0.4-2.6,0.3-3.8c0.7-1.2,2.6-2.2,4.5-1.9
							c5.7,0.8,2.2,11.7,2.8,14.3c0.2,1,0.7,2.2,2,2.8c0.4,0.2,0.8,0.3,1.3,0.3c0.8-0.1,1.3-0.6,1.7-1c1.1-1.4,1.8-2.8,2.1-4.4
							c0.2-1,0.5-2.3,2-2.5c1.2-0.2,2.4,0.4,2.9,1.1c0.9,1.2,1.4,2.8,1.4,4.1c0.1,6-2.2,12-0.6,17.9c1.3,4.7,6.2,3.6,9.3,0.4
							c2.7-2.8,2.5-6.4,2.6-9.5c0.1-3.2,0.6-6.4,1.5-9.6c0.3-1.1,1.7-2.6,3.3-2.1c0.8,0.3,1.1,0.9,1.3,1.5c0.4,1.3,0.9,2.6,1.3,3.9
							c0.3,0.8,0.8,1.7,2,1.8c0.9,0,1.6-0.5,2.1-1c2.4-2.4,2.7-5.4,2.5-8.3c-0.1-1.6-0.3-3.2,0.8-4.7c2.8-3.9,8.8-1.5,10.1,1.5
							c1.2,2.8,0.1,5.9,0.7,8.8c0.1,0.5,0.3,1,0.9,1.3c1.5,0.6,2.9-0.8,4.4-1.4c1.5-0.6,3.7-0.3,4.6,0.6c1.6,1.6-0.2,4,1.7,5.4
							c0.3,0.2,0.7,0.4,1.1,0.4c1,0.1,1.7-0.7,2.1-1.3c1-1.6,1.9-3.3,2.7-5c0.4-0.8,0.7-1.7,1.6-2.3c0.9-0.6,2.4-1,3.5-0.5
							c1.1,0.5,1.2,1.5,1.3,2.4c0.1,4.8,0.1,9.6,0.2,14.4c0,1.7,0.1,3.6,1.6,5c1.5,1.4,5.2,2,6.9,0.6c0.6-0.5,0.9-1.1,1.1-1.7
							c0.9-2.4,1.5-4.8,1.9-7.3c0.2-1.1,0.3-2.2,1-3.2c1.3-2,5.9-2.8,6.8-0.1c0.4,1.2-0.3,2.4,0,3.6c0.2,1,1.6,2,2.9,1.6
							c0.8-0.3,1.1-0.9,1.2-1.5c0.3-1.1,0.7-2.3,1-3.4c0.1-0.3,0.2-0.6,0.5-0.8c0.6-0.4,1.6-0.2,2.1,0.2c0.5,0.4,0.7,0.9,0.9,1.4
							c0.8,2.7,0.8,5.5,0.2,8.2c-0.7,2.8-2,5.5-1.5,8.3c0.2,0.9,0.8,1.9,2.1,2c1.7,0.2,2.8-1.2,3.3-2.3c0.5-1.1,1-2.3,1.5-3.4
							c0.2-0.5,0.6-1.1,1.3-1.4c1.3-0.4,2.7,0.5,3.4,1.3c1.9,2.6,1,5.9,1.1,8.7c0.1,3.2-0.2,6.5,0.4,9.7c0.4,1.9,1.1,3.8,2.2,5.6
							c0.4,0.7,1,1.5,2,1.8c1.3,0.4,2.8-0.1,3.6-0.9c0.8-0.8,1-1.7,1.1-2.6c1.1-8.4-1.5-17.4,3.8-25.1c0.5-0.8,1.9-1.6,2.8-1
							c1.3,0.8,1.1,4.6,1.3,5.8c0.1,0.7,0.2,1.4,0.9,1.9c1.1,0.9,3.5,0.7,4.7-0.1c1.3-0.8,1.7-2,1.8-3.2c0.2-2.4-0.6-4.8-0.8-7.3
							c-0.2-2.4,0.3-5.1,2.8-6.9c4.7-3.4,11.3-1.2,12.1,2.8c0.4,1.9,0.8,3.8,1.2,5.6c0.1,0.7,0.3,1.5,0.9,2.1c0.6,0.6,1.8,1,2.8,0.8
							c1.2-0.3,1.6-1.1,2-1.9c0.6-1.4,1.3-2.9,1.9-4.3c0.4-0.9,1.4-2.1,2.9-1.9c0.9,0.2,1.3,0.8,1.6,1.4c1.5,3.7-0.2,7.7,1,11.4
							c0.2,0.5,0.5,1.1,1.2,1.3c1.3,0.4,2.6-0.6,3.1-1.5c1.9-3,2.4-6.3,2.5-9.5c4.1,2.2,8.3,4.2,14.7,5.6c2.5,0.5,4.8,0.7,6.9,0.6
							c0.1,5.3-0.4,10.7-0.4,16c0,1.2,0,2.4,0.8,3.4c0.8,1,2.5,1.9,4.3,1.7c2.6-0.3,3.3-2.4,3.5-4.1c0.5-4.3,1.1-8.2,2.7-12.3
							c0.6-1.4,0.7-4.1,1.3-6.7c5-0.9,10.8-1.2,19,1.6c-0.7,6-2.1,12-1,18c0.4,2,1.9,4.5,5,4.4c2.5,0,4.1-1.8,4.4-3.4
							c0.9-4.2,1.3-8.3,2.6-12.4c0.2-0.5,0.3-1,0.7-1.5c1.8,0.8,3.7,1.5,5.6,2.2c0.4,0.4,1,0.6,1.6,0.5c1.6,0.5,3.3,0.9,5,1.3
							c0.6,5.9,0.9,11.7-0.9,17.6c-0.6,2-1.4,4.1-0.9,6.1c0.5,2,2.7,4.1,5.8,4.4c3.6,0.3,6.8-1.7,7.8-4c1-2.3,0.4-4.7,0.1-7
							c-0.5-4.2,0.1-8.5,1.7-12.6c0.4-0.9,0.8-1.9,1.5-2.7c2.8,0.2,5.7,0.2,8.5,0.2c0.3,1.4,0.3,2.9,0.5,3.7
							c0.3,1.4,0.9,2.8,2.2,3.9c1.3,1.1,3.4,1.9,5.5,1.7c1.9-0.2,3.5-1.1,4.5-2.2c1-1.1,1.4-2.3,1.7-3.6c0.3-1.4,0.6-2.8,0.9-4.2
							c14.3-1.2,25.1-3.6,25.1-3.6V302z"/>
						<path id="XMLID_14_" class="st16" d="M1129.7,302H0v75.2c0,0,1.8-0.2,4.8-0.5c-0.1,2.8-0.1,5.6-0.2,8.4
							c-0.1,6.3-0.1,12.8,4.3,18.4c0.8,1,2.1,2.1,3.9,2.3c1.6,0.1,3.2-0.5,4-1.4c0.9-0.9,1.1-2,1.4-3c0.9-4.1,0.9-7.9-0.2-11.9
							c-1.2-4,0.5-8.4,4-11.8c1-1,2.5-2,4.3-1.8c2.5,0.2,3.3,2.3,3.4,4c0.2,2.6,0.3,5.1,0.5,7.7c0.1,1.3,0.4,2.9,2.2,3.6
							c2.1,0.7,4.8-0.5,5.6-2c0.8-1.5,0.5-3.1,0.8-4.7c0.3-1.6,1.5-3.3,3.9-3.6c2.1-0.3,4.2,0.7,5.1,2c0.9,1.3,1,2.7,1,4.1
							c0.3,9.6,1.6,19.3,3.8,28.8c0.4,1.9,2,4.3,4.9,4c1-0.1,1.8-0.5,2.5-1c2.8-2.1,2.9-5.1,2.9-7.8c-0.1-5.2-0.1-10.4-0.1-15.6
							c0-4-2.1-9,2.2-12.5c0.5-0.4,1.4-0.8,2.2-0.7c0.4,0.1,0.7,0.3,1,0.6c1,1,0.9,2.3,0.8,3.5s-0.1,2.5,0.8,3.5
							c1,1,3.4,1.6,4.7,0.7c1.1-0.7,0.9-1.8,1.2-2.8c0.3-1,1.8-2,3-1.5c-0.6,3.3-0.5,6.6,0.1,9.9c0.3,1.4,0.7,2.9,2.2,3.9
							c1.4,1.1,4.2,1.5,5.8,0.5c0.9-0.6,1.2-1.4,1.4-2.2c1-4.4-0.1-9,2.5-13c0.5-0.8,1.7-1.8,3-1.4c0.6,0.2,1,0.6,1.2,1
							c0.7,1.2,0.5,2.5,0.5,3.7c0,1.2,0,2.6,1.1,3.6c1.1,1,3.4,1.6,5,0.9c0.9-0.4,1.3-1.1,1.7-1.8c1.6-3.2,2.2-6.8,2.3-10.3
							c23,7.7,33.2,18.5,65,20.5c37.5,2.4,74.9,21.8,86.2,21.8s82.4-50.2,108.7-49.4c26.2,0.8,45,13.7,63.7,0
							c18.7-13.7,63.7-38,63.7-38s5.7-0.9,14-2.3c0,0.1,0,0.2,0,0.3c0.1,1.1,0.2,2.1,0.3,3.2c0.1,0.5,0.1,1.1,0.6,1.5
							c0.5,0.4,1.4,0.7,2.1,0.4c0.5-0.2,0.7-0.7,1-1.1c0.3-0.4,1-0.7,1.5-0.5c0.2,0.1,0.3,0.3,0.4,0.4c0.8,1.4,0.7,2.9,0.8,4.4
							c0.1,1.5,0.6,3,2.2,4.1c0.9,0.6,2.2,0.9,3.3,0.5c0.4-0.2,0.7-0.4,0.9-0.7c1.9-2.1,2.6-4.6,2-6.9c-0.2-0.8-0.4-2,0.9-2.3
							c1-0.2,1.9,0.4,2.4,1c2.1,2.4,1,5.8,1.1,8.5c0.1,3.2,0.6,6.4,3,9.3c1,1.2,3.5,2.4,5.1,1.5c0.9-0.5,0.9-1.4,0.9-2.2
							c-0.6-6.6-1.7-13.1-3.3-19.6c0.5-0.1,1-0.4,1.3-0.7c0.5-0.5,0.8-1.2,1.7-1.3c1.1-0.2,2.2,0.5,2.6,1.2c0.4,0.7,0.7,1.6,1.7,2
							c1.2,0.5,2.9,0.1,3.8-0.7c0.9-0.7,1.2-1.7,1.6-2.6c0.4-0.9,1-1.8,2.2-2.3c1.3-0.5,3.2-0.3,4.2,0.5c1,0.8,1,2,1.3,3
							c0.3,1,1.2,2.2,2.8,2.3c1.4,0.1,2.6-0.8,3-1.6s0.3-1.8,0.5-2.7c0.3-1.3,1.6-2.6,3.5-3c7.4-1.6,3.7,8.6,7.9,10.3
							c0.8,0.3,1.9,0.4,2.6,0c0.3-0.2,0.4-0.5,0.5-0.7c0.6-1.6-2.3-9,2.3-9.3c1.3-0.1,2.2,0.8,2.5,1.6c0.2,0.6,0.5,1.5,1.4,1.7
							c1.2,0.2,2.1-0.6,2.6-1.3c0.6-0.9,1.2-1.7,1.9-2.6c0.4-0.5,0.8-1,1.5-1.3c1-0.3,2.3,0,3.1,0.5c0.9,0.5,1.6,1.1,2.7,1.4
							c1.9,0.6,6.4-1.4,8.1-2.1c1.8-0.7,19.3-2.5,31.8-3.6c0.1,0.5,0.3,0.9,0.4,1.4c0.3,1,1.3,2.3,2.9,2.1c0.9-0.2,1.4-0.8,2.3-1.1
							c1.4-0.4,2.8,0.6,3.1,1.5c0.3,0.9,0,1.9,0.3,2.9c0.3,0.9,1.8,1.9,3.1,1.5c1.3-0.3,1.4-1.4,1.5-2.3c0.1-0.9,0.6-2,2-2.1
							c0.5,0,0.9,0.1,1.3,0.2c5.1,1.8,4.3,7.6,4.7,10.7c0.1,0.8,0.3,1.7,1.3,2.2c1.2,0.6,3,0.2,3.9-0.6c0.9-0.7,1.2-1.7,1.5-2.7
							c0.7-2.6,1.5-5.2,2.2-7.9c0.3-0.9,0.4-5.4,3.5-4c0.9,0.4,1.2,1.1,1.5,1.8c0.5,1.2,1.1,2.4,1.6,3.6c0.4,1,1.5,2.3,3.1,2
							c0.7-0.1,1.1-0.5,1.5-0.8c1-0.9,1.7-2,2-3c0.2-0.6,0.3-1.3,1-1.8c1.1-0.8,3.2-0.6,4.4,0.2c1.1,0.8,1.5,1.9,1.8,2.9
							c0.7,3.1,0.4,6.4,1.9,9.4c0.4,0.9,1.5,1.9,2.9,1.7c1.1-0.2,1.6-1,1.9-1.7c1.4-3.6,2.1-7.3,2.1-11c0-1.7,0.1-3.3,0.7-4.7
							c9,3.5,48.3,18.4,65.9,16.3c19.9-2.4,65.3-17,65.3-17l8.3-1.4c0,0.4,0,0.8,0.1,1.2c0.1,0.6,0.1,1.1,0.6,1.6
							c0.5,0.5,1.4,0.8,2.2,0.6c0.8-0.2,1-0.9,1-1.5c-0.1-0.6-0.3-1.2,0-1.7c0.3-0.5,1.5-0.9,2.1-0.5c0.2,0.2,0.3,0.4,0.4,0.6
							c0.7,2.6-0.4,5.4,0.5,8c0.3,0.8,1,1.6,2.2,1.5c1-0.1,1.5-0.8,1.7-1.4c1-2,1.5-4.1,1.7-6.2c0.1-1.1,0.3-2.5,1.8-3
							c1.5-0.5,3.4,0.2,4.2,1.1c0.8,1,0.7,2.1,0.6,3.2c-0.3,2.6-0.8,5.1-0.2,7.7c0.2,0.9,0.6,1.9,1.5,2.6c1,0.7,2.7,1,3.9,0.6
							c0.5-0.2,0.9-0.6,1.3-0.9c2.9-2.7,4.7-6,5.3-9.2c0.3-1.6,0.6-3.6,2.8-4.3c5.9-1.8,7.5,3.1,8.1,5.4c0.3,1.2,1.5,2.4,3.3,2.4
							c1.2,0,2.2-0.6,2.8-1.3c0.5-0.7,0.7-1.5,0.8-2.2c0.3-1.6,0.7-3.3,1.3-4.9c0.5-1.4,1.5-3.1,3.8-3.4c2.1-0.2,3.9,1.1,4.7,2.4
							c0.9,1.4,1.3,2.9,1.3,4.4c0,1-0.3,2,0.3,2.9c0.6,0.9,2.5,1.5,3.7,0.9c0.6-0.3,0.8-0.8,1-1.3c0.3-0.9,0.6-1.7,0.9-2.6
							c0.2-0.4,0.4-0.9,0.9-1.1c0.7-0.3,1.6-0.1,2.1,0.3c0.5,0.4,0.7,0.9,1,1.4c1.9,4.4-1.1,9.5,1.9,13.6c0.2,0.3,0.6,0.7,1.1,0.8
							c0.7,0.2,1.5-0.2,2-0.5c3.6-2.3,4.3-5.9,4.9-9.1c0.4-2.1,0.7-4.2,1.1-6.4c0.3-1.6,0.6-3.3,1.9-4.6c1.3-1.4,4-2.3,6.3-1.7
							c2.9,0.7,3.6,3,4.3,4.9c0.7,1.9,2.8,4.2,5.8,3.8c6.2-0.8,1.9-12.3,7.9-11.8c1.7,0.1,2.3,1.5,2.5,2.6c0.2,0.8,0.3,1.6,0.5,2.4
							c0.6,3.3,6.2,4.8,8.1,1.1c0.7-1.3,0.9-2.8,2.1-3.9c0.6-0.6,1.4-1.1,2.5-1c1.3,0.1,2,0.9,2.5,1.6c2.3,3.4,3.5,7.1,3.5,10.7
							c0,1.3,0.1,2.9,1.8,3.6c1.5,0.6,3.5,0.1,4.6-0.8c1.1-0.9,1.4-2.1,1.6-3.2c0.5-2.5,0.7-5.1,0.6-7.6c0-1.3-0.2-2.7,0.6-3.9
							c0.7-1.2,2.7-2.3,4.6-2c1.9,0.2,3.1,1.4,3.5,2.6c0.6,1.7-0.4,3.5,0.6,5.2c0.4,0.7,0.9,1.5,1.7,2c0.8,0.6,2,1,3.2,0.9
							c6.2-0.3,1.8-12,11.9-10.1c1.8,0.3,3.1,1.4,3.6,2.6c0.6,1.2,0.5,2.4,0.5,3.6c-0.1,3.2-0.2,6.4-0.4,9.5c0,1-0.1,2.1,0.6,3
							c0.7,0.9,2.4,1.6,3.9,1.3c0.5-0.1,1-0.4,1.4-0.6c3.2-2,4.5-5,4.8-7.9c0.4-2.9,0-5.8,0.6-8.6c0.3-1.4,0.9-2.8,2.1-3.9
							c4.3-3.9,9.6-0.6,9.8,3c0.1,2.1,1.5,5.1,4.8,4.7c2.5-1.8,2.6-4.5,3.2-6.9c0.7-2.4,2.9-5.1,6.7-5.2c3.9-0.1,6.4,2.8,6.5,5.3
							c0.1,2.5-1.2,5-0.8,7.5c0.4,2.5,3.6,5.2,7.4,4.6c4.6-0.7,4.8-4.8,5.2-7.8c0.7-6,6.5-11.6,14.6-14.6L1129.7,302z"/>
					</g>
				</g>
				<g id="XMLID_3_">
					<g id="XMLID_82_">
						<path id="XMLID_39_" class="st18" d="M1088.1-347.2l-2-2.9c-0.7-0.9-1.4-1.8-2-2.8l-2.2-2.6c-0.8-0.8-1.5-1.7-2.3-2.4
							c-0.8-0.8-1.6-1.6-2.4-2.2c-0.8-0.7-1.7-1.3-2.6-1.9c-0.9-0.5-1.8-1.1-2.8-1.5c-0.9-0.5-1.9-0.8-2.9-1.1l-1.5-0.4l-1.5-0.2
							c-1-0.1-2-0.2-3-0.1c-1,0-2,0.2-3,0.4c-1,0.2-2,0.5-3,0.8c-1,0.3-1.9,0.7-2.9,1.1c-1,0.4-1.9,0.9-2.8,1.5
							c-0.9,0.5-1.8,1.1-2.6,1.7c-0.8,0.6-1.7,1.3-2.4,1.9l-3.4,3.1l-1.5-4.3l-1-3l-1.2-2.9c-0.5-0.9-0.9-1.9-1.4-2.8
							c-0.5-0.9-1-1.8-1.6-2.6c-0.5-0.9-1.2-1.7-1.8-2.4c-0.6-0.8-1.3-1.5-2.1-2.2c-0.4-0.3-0.7-0.7-1.1-1c-0.4-0.3-0.8-0.6-1.2-0.9
							c-0.8-0.5-1.6-1.1-2.5-1.5c-0.4-0.2-0.9-0.4-1.4-0.6c-0.5-0.2-0.9-0.4-1.4-0.5c-0.5-0.1-1-0.3-1.5-0.4c-0.5-0.1-1-0.2-1.5-0.3
							c-2-0.3-4.1-0.3-6.2-0.1c-2.1,0.2-4.2,0.6-6.4,1.1c-2.1,0.6-4.2,1.3-6.3,2.2c3.5-2.9,7.6-4.9,12.1-6.2
							c1.1-0.3,2.3-0.5,3.5-0.7c1.2-0.2,2.4-0.2,3.6-0.2c1.2,0,2.4,0.1,3.6,0.3c0.6,0.1,1.2,0.2,1.8,0.4c0.6,0.2,1.2,0.3,1.8,0.5
							c1.2,0.4,2.3,0.9,3.4,1.5c1.1,0.6,2.1,1.3,3.1,2.1c1,0.8,1.9,1.6,2.7,2.5c0.8,0.9,1.6,1.8,2.3,2.8c0.8,0.9,1.4,2,2,3
							c0.6,1,1.1,2.1,1.7,3.1c0.5,1.1,1,2.2,1.4,3.2l1.2,3.3l-4.9-1.3c1.1-1,2-1.7,3-2.4c1-0.7,2.1-1.4,3.2-2c2.2-1.2,4.5-2.3,6.9-3
							c1.2-0.3,2.5-0.6,3.8-0.8c1.3-0.2,2.6-0.2,3.9-0.2c1.3,0,2.6,0.2,3.9,0.4l1.9,0.5l1.8,0.7c1.2,0.5,2.3,1,3.4,1.7
							c1.1,0.6,2.1,1.4,3.1,2.2c0.9,0.8,1.8,1.7,2.6,2.6c0.9,0.9,1.6,1.8,2.3,2.8c0.7,1,1.3,2,2,3c0.6,1,1.2,2.1,1.7,3.1
							c0.5,1.1,1,2.1,1.4,3.2L1088.1-347.2z"/>
						<path id="XMLID_41_" class="st18" d="M1013.9-232.3c0.9-1.3,1.9-2.5,3.1-3.6c0.6-0.6,1.2-1.1,1.8-1.5c0.6-0.5,1.3-0.9,2-1.4
							c0.7-0.5,1.5-0.7,2.2-1.1c0.7-0.4,1.6-0.6,2.4-0.8c0.8-0.3,1.7-0.3,2.5-0.5c0.8-0.2,1.7,0,2.6,0c0.9,0,1.7,0.2,2.6,0.4
							l1.3,0.3c0.4,0.1,0.8,0.3,1.2,0.5c0.8,0.4,1.6,0.7,2.3,1.1l2.1,1.4c0.7,0.4,1.3,1.1,1.9,1.6l1.8,1.8l3,3.9l-3.4,0.1
							c0.5-0.9,1-1.5,1.6-2.2c0.6-0.7,1.1-1.3,1.7-1.9c0.6-0.6,1.3-1.2,1.9-1.8c0.7-0.6,1.4-1.1,2.1-1.6c0.8-0.4,1.6-0.9,2.4-1.3
							c0.8-0.3,1.7-0.6,2.5-0.9c0.9-0.2,1.8-0.3,2.7-0.5l2.7,0c0.9,0.1,1.7,0.3,2.6,0.5c0.9,0.1,1.6,0.6,2.5,0.9
							c0.8,0.3,1.6,0.7,2.3,1.2l2.1,1.4c0.7,0.5,1.2,1.1,1.9,1.7c0.6,0.6,1.2,1.1,1.8,1.7c1.1,1.3,2.1,2.6,3,3.8c-1.3-1-2.6-2-3.8-3
							c-0.7-0.5-1.3-0.9-2-1.3c-0.7-0.4-1.3-0.9-2-1.2l-2.1-1c-0.7-0.4-1.4-0.6-2.1-0.8c-0.7-0.2-1.4-0.5-2.2-0.5
							c-0.7-0.1-1.4-0.2-2.2-0.2l-2.1,0.2l-2.1,0.5c-0.7,0.3-1.3,0.6-2,0.8l-1.8,1.1c-0.6,0.5-1.2,0.9-1.7,1.3
							c-0.5,0.5-1.1,1-1.6,1.5c-0.5,0.5-1,1.1-1.5,1.7c-0.4,0.6-0.9,1.2-1.2,1.8l-1.6,2.5l-1.8-2.4l-2.7-3.5l-1.5-1.5
							c-0.5-0.5-1-1.1-1.6-1.5l-1.7-1.3c-0.6-0.4-1.2-0.7-1.8-1c-0.3-0.2-0.6-0.3-0.9-0.5l-1-0.3c-0.7-0.2-1.3-0.5-2-0.5
							c-0.7,0-1.4-0.3-2.1-0.2c-0.7,0.1-1.4,0-2.1,0.1c-0.7,0.2-1.4,0.2-2.1,0.4c-0.7,0.2-1.4,0.4-2.1,0.7c-0.7,0.3-1.4,0.5-2.1,0.9
							c-0.7,0.4-1.3,0.7-2,1.1C1016.4-234.2,1015.1-233.3,1013.9-232.3z"/>
						<path id="XMLID_43_" class="st18" d="M1075.5-179.5c0.6-1,1.3-1.9,2.1-2.7c0.4-0.4,0.8-0.8,1.3-1.2c0.4-0.4,0.9-0.7,1.4-1
							c0.5-0.3,1-0.6,1.6-0.9c0.5-0.3,1.1-0.4,1.7-0.6c0.6-0.2,1.2-0.3,1.8-0.4c0.6-0.1,1.3,0,1.9-0.1c0.6,0,1.3,0.1,1.9,0.3
							c0.6,0.1,1.3,0.3,1.8,0.6c0.6,0.3,1.2,0.5,1.7,0.8l1.6,1c0.6,0.3,1,0.8,1.4,1.2l1.3,1.3l2.2,2.8l-3.4,0.1
							c0.4-0.7,0.7-1.1,1.2-1.6c0.4-0.5,0.8-1,1.3-1.4c0.9-0.9,1.9-1.7,3-2.5c0.6-0.3,1.2-0.6,1.8-0.9c0.6-0.2,1.3-0.5,1.9-0.7
							c0.7-0.1,1.3-0.2,2-0.3l2,0.1c0.7,0.1,1.3,0.3,1.9,0.4c0.6,0.1,1.2,0.4,1.8,0.7c0.6,0.3,1.2,0.5,1.6,0.9l1.5,1
							c0.5,0.4,0.9,0.8,1.3,1.2c0.4,0.4,0.9,0.8,1.2,1.3c0.7,0.9,1.4,1.9,2.1,2.9c-1-0.7-1.9-1.3-2.8-2l-1.4-0.9
							c-0.5-0.3-0.9-0.6-1.4-0.8l-1.5-0.6c-0.5-0.3-1-0.4-1.5-0.5c-0.5-0.1-1-0.3-1.5-0.3c-0.5,0-1-0.1-1.5-0.1l-1.4,0.2l-1.4,0.4
							l-1.3,0.6l-1.2,0.8c-0.8,0.6-1.6,1.2-2.3,2c-0.4,0.4-0.7,0.8-1,1.2c-0.3,0.4-0.6,0.9-0.8,1.2l-1.6,2.4l-1.7-2.3l-1.8-2.5
							l-1-1.1c-0.4-0.3-0.7-0.8-1.1-1l-1.1-0.9c-0.4-0.3-0.8-0.5-1.2-0.7c-0.4-0.3-0.8-0.4-1.3-0.6c-0.4-0.2-0.9-0.4-1.3-0.4
							c-0.5,0-0.9-0.2-1.4-0.2c-0.5,0-1,0-1.5,0.1c-0.5,0.1-1,0.1-1.5,0.3c-0.5,0.2-1,0.3-1.5,0.4c-0.5,0.2-1,0.3-1.5,0.6
							c-0.5,0.2-1,0.5-1.4,0.7C1077.3-180.8,1076.4-180.2,1075.5-179.5z"/>
					</g>
					<g id="XMLID_87_">
						<path id="XMLID_80_" class="st18" d="M206.4-471.4c-2.1-0.9-4.2-1.6-6.4-2.2c-2.2-0.6-4.3-1-6.5-1.2c-2.2-0.2-4.3-0.2-6.4,0.1
							c-0.5,0.1-1,0.2-1.5,0.3c-0.5,0.1-1,0.2-1.5,0.4c-0.5,0.1-1,0.3-1.4,0.5c-0.5,0.2-0.9,0.4-1.4,0.6c-0.9,0.4-1.8,1-2.6,1.5
							l-1.2,0.9c-0.4,0.3-0.8,0.7-1.1,1c-0.7,0.7-1.4,1.4-2.1,2.2c-0.6,0.8-1.3,1.6-1.8,2.5c-0.6,0.8-1.1,1.8-1.6,2.7
							c-0.5,0.9-0.9,1.9-1.4,2.8l-1.2,3l-1,3.1l-1.5,4.3l-3.4-3c-0.7-0.6-1.6-1.3-2.4-1.9c-0.9-0.6-1.8-1.2-2.7-1.8
							c-1.9-1.1-3.8-2-5.8-2.6c-1-0.3-2-0.6-3-0.8c-1-0.2-2-0.3-3.1-0.4c-1,0-2.1,0-3.1,0.1l-1.5,0.2l-1.5,0.4c-1,0.3-2,0.7-2.9,1.1
							c-1,0.4-1.9,1-2.8,1.6c-0.9,0.6-1.8,1.2-2.7,2c-0.9,0.7-1.7,1.5-2.5,2.3c-0.8,0.8-1.6,1.6-2.4,2.5l-2.2,2.7
							c-1.4,1.8-2.8,3.8-4.1,5.7l1.2-3.3c0.5-1.1,1-2.2,1.5-3.3c0.5-1.1,1.1-2.1,1.7-3.2c0.7-1,1.3-2.1,2-3c0.8-1,1.5-2,2.4-2.8
							c0.8-0.9,1.7-1.8,2.7-2.6c1-0.8,2-1.6,3.1-2.2c1.1-0.7,2.3-1.2,3.5-1.8l1.9-0.7l1.9-0.5c1.3-0.2,2.6-0.4,3.9-0.4
							c1.3,0,2.6,0.1,3.9,0.2c1.3,0.2,2.6,0.4,3.8,0.8c2.5,0.7,4.8,1.8,7,3c1.1,0.6,2.2,1.3,3.2,2c1.1,0.8,2,1.4,3.1,2.4l-4.9,1.3
							l1.2-3.4l1.4-3.3c0.6-1.1,1.1-2.2,1.7-3.2c0.6-1,1.3-2.1,2-3.1c0.7-1,1.5-1.9,2.4-2.8c0.9-0.9,1.8-1.8,2.8-2.5
							c1-0.8,2-1.5,3.1-2.1c1.1-0.6,2.3-1.1,3.5-1.6c0.6-0.2,1.2-0.4,1.8-0.6c0.6-0.2,1.2-0.3,1.8-0.4c1.2-0.2,2.5-0.3,3.7-0.4
							c1.2,0,2.4,0.1,3.6,0.2c1.2,0.2,2.4,0.4,3.5,0.7C198.6-476.4,202.8-474.3,206.4-471.4z"/>
						<path id="XMLID_42_" class="st18" d="M229.8-401.5c0.8-1.2,1.8-2.3,2.8-3.3c0.5-0.5,1.1-1,1.7-1.4c0.6-0.5,1.2-0.8,1.8-1.3
							c0.6-0.4,1.3-0.7,2-1c0.7-0.3,1.4-0.5,2.2-0.8c0.7-0.3,1.5-0.3,2.3-0.4c0.8-0.2,1.6,0,2.4,0c0.8,0,1.6,0.2,2.4,0.3l1.2,0.3
							c0.4,0.1,0.7,0.3,1.1,0.5c0.7,0.3,1.5,0.6,2.1,1l1.9,1.3c0.7,0.4,1.2,1,1.8,1.5l1.6,1.6l2.8,3.6l-3.4,0.1
							c0.5-0.8,0.9-1.4,1.4-2c0.5-0.6,1-1.2,1.6-1.8c1.1-1.2,2.4-2.2,3.7-3.1c0.7-0.4,1.5-0.8,2.2-1.2c0.8-0.3,1.6-0.6,2.4-0.8
							c0.8-0.2,1.6-0.3,2.5-0.4l2.5,0c0.8,0.1,1.6,0.3,2.4,0.5c0.8,0.1,1.5,0.5,2.3,0.8c0.7,0.3,1.5,0.6,2.1,1.1l1.9,1.3
							c0.6,0.5,1.1,1,1.7,1.5c0.5,0.5,1.1,1,1.6,1.6c1,1.2,1.9,2.4,2.8,3.6c-1.2-0.9-2.4-1.8-3.5-2.7c-0.6-0.4-1.2-0.8-1.8-1.2
							c-0.6-0.4-1.2-0.8-1.8-1.1l-1.9-0.9c-0.6-0.3-1.3-0.5-2-0.7c-0.7-0.1-1.3-0.5-2-0.5c-0.7-0.1-1.3-0.2-2-0.2l-1.9,0.2l-1.9,0.5
							l-1.8,0.8l-1.7,1c-0.5,0.4-1.1,0.8-1.6,1.2c-0.5,0.5-1,0.9-1.4,1.4c-0.5,0.5-0.9,1-1.3,1.5c-0.4,0.5-0.8,1.1-1.1,1.6l-1.6,2.5
							l-1.8-2.3l-2.4-3.2l-1.4-1.4c-0.5-0.5-0.9-1-1.4-1.3l-1.5-1.2c-0.5-0.4-1.1-0.6-1.7-0.9c-0.3-0.1-0.6-0.3-0.8-0.4l-0.9-0.3
							c-0.6-0.2-1.2-0.4-1.8-0.5c-0.6,0-1.3-0.3-1.9-0.2c-0.6,0.1-1.3,0-1.9,0.1c-0.6,0.1-1.3,0.2-1.9,0.4c-0.6,0.2-1.3,0.4-1.9,0.6
							c-0.6,0.3-1.3,0.5-1.9,0.8c-0.6,0.3-1.2,0.6-1.8,1C232.1-403.2,230.9-402.4,229.8-401.5z"/>
					</g>
				</g>
				<g id="XMLID_15_">
					<linearGradient id="XMLID_54_" gradientUnits="userSpaceOnUse" x1="325.9229" y1="-179.6109" x2="325.9229" y2="-268.8329">
						<stop  offset="0" style="stop-color:#FFFFFF;stop-opacity:0"/>
						<stop  offset="1" style="stop-color:#FFFFFF"/>
					</linearGradient>
					<path id="XMLID_24_" class="st19" d="M485.1-191.1c0,0-6.1-65.7-55-64.2c-43.8,1.4-41.8,41.2-41.8,41.2s-10.1-70.3-54.4-64.2
						c-58.4,8.1-54.8,70.5-54.8,70.5s-11.6-35.4-32.2-28.5c-20.6,6.9-20.4,40.3-20.4,40.3l-101,16.3h401.2L485.1-191.1z"/>
					<linearGradient id="XMLID_55_" gradientUnits="userSpaceOnUse" x1="913.306" y1="33.435" x2="913.306" y2="-42.606">
						<stop  offset="0" style="stop-color:#FFFFFF;stop-opacity:0"/>
						<stop  offset="1" style="stop-color:#FFFFFF"/>
					</linearGradient>
					<path id="XMLID_38_" class="st20" d="M1089.5,9c0,0,0.3-59.9-44.2-59.9c-44.5,0-42.7,49.3-42.7,49.3s-6.7-28.1-35-24.9
						C935-22.8,937.4,9,937.4,9S930.6-16,898-8.7c-20,4.4-23.7,26.6-23.7,26.6s-11.1-32.2-35.5-33.3c-34-1.5-48.8,35.5-48.8,35.5
						L676.9,33.4l472.8-8.9L1089.5,9z"/>
					<linearGradient id="XMLID_56_" gradientUnits="userSpaceOnUse" x1="1260.9485" y1="-309.1293" x2="1260.9485" y2="-409.2282">
						<stop  offset="0" style="stop-color:#FFFFFF;stop-opacity:0"/>
						<stop  offset="1" style="stop-color:#FFFFFF"/>
					</linearGradient>
					<path id="XMLID_23_" class="st21" d="M1530.1-321c0,0,6.7-99.4-70.2-99.1c-72.2,0.2-81,69-81,69s-4.2-27.9-47.5-27.2
						c-43,0.7-43.4,39.2-43.4,39.2s-0.3-55.6-35.9-57c-58.7-2.2-56.2,60-56.2,60s-13.5-30.9-46.5-24.9c-33,6-39.3,34-39.3,34
						L927-309.1h667.9L1530.1-321z"/>
				</g>
			</g>
		</g>
	</g>
</g>
</svg>
